<?xml version="1.0" encoding="utf-8"?>
<!-- Generator: Adobe Illustrator 17.0.2, SVG Export Plug-In . SVG Version: 6.00 Build 0)  -->
<!DOCTYPE svg PUBLIC "-//W3C//DTD SVG 1.1//EN" "http://www.w3.org/Graphics/SVG/1.1/DTD/svg11.dtd">
<svg version="1.1" id="Layer_1" xmlns="http://www.w3.org/2000/svg" xmlns:xlink="http://www.w3.org/1999/xlink" x="0px" y="0px"
	 width="242px" height="45px" viewBox="0 0 242 45" style="enable-background:new 0 0 242 45;" xml:space="preserve">
<style type="text/css">
	.st0{fill:#627F97;}
	.st1{fill:#89BE42;}
</style>
<g>
	<path class="st0" d="M8.7,22.1c1.7-1.2,4.6-2.8,7.1-2.8c2.1,0,2.4,0.9,2.4,3.3v20.2c0,0.4,0.3,0.7,0.7,0.7h5.2
		c0.4,0,0.7-0.3,0.7-0.7V22.6c0-4.7-1.3-9-8.3-9c-2.5,0-5.7,1.3-7.9,2.8c-0.3,0.2-0.6,0.1-0.6-0.3v-0.9c0-0.4-0.3-0.7-0.7-0.7H2.2
		c-0.4,0-0.7,0.3-0.7,0.7v27.5c0,0.4,0.3,0.7,0.7,0.7h5.2c0.4,0,0.7-0.3,0.7-0.7V23.2C8.1,22.9,8.4,22.4,8.7,22.1z"/>
	<path class="st0" d="M64.6,21.8c0.6-0.8,1.9-2.2,3.6-2.2c1,0,2.2,0.5,2.9,0.8c0.3,0.2,0.7,0,0.9-0.3l1.8-4.1c0.1-0.4,0-0.8-0.3-1
		c-0.9-0.5-2.7-1.4-4.4-1.4c-2.3,0-3.8,1.7-4.4,2.6c-0.2,0.3-0.4,0.3-0.4-0.1v-0.9c0-0.4-0.3-0.7-0.7-0.7h-5.3
		c-0.4,0-0.7,0.3-0.7,0.7v27.5c0,0.4,0.3,0.7,0.7,0.7h5.2c0.4,0,0.7-0.3,0.7-0.7V23.1C64.2,22.7,64.3,22.1,64.6,21.8z"/>
	<path class="st0" d="M92.2,41.3c0.3-0.3,0.4-0.2,0.4,0.2v1.3c0,0.4,0.3,0.7,0.7,0.7h5.2c0.4,0,0.7-0.3,0.7-0.7V3
		c0-0.4-0.3-0.7-0.7-0.7h-5.2c-0.4,0-0.7,0.3-0.7,0.7v10.9c0,0.4-0.3,0.6-0.7,0.5c-1.1-0.3-3.3-0.8-5.1-0.8
		c-9.7,0-12.3,7.6-12.3,16.3c0,8.1,4.4,13.6,11.4,13.6C88.8,43.5,90.9,42.7,92.2,41.3z M92.6,24.9V33c0,0.4-0.2,1-0.4,1.3
		c-0.8,1-2.6,3-4.7,3.1c0,0-0.3,0-0.6,0c-0.3,0-0.9,0-1.3-0.1c-3.8-0.8-5-5.4-5-8.2c0-5,1.4-9.9,6.5-9.9c1.6,0,3.8,0.5,4.9,0.8
		c0.4,0.1,0.7,0.5,0.7,0.9v8.4"/>
	<path class="st1" d="M119.2,42.8l4.5-16.6c0.1-0.4,0.3-0.4,0.4,0l4.4,16.6c0.1,0.4,0.5,0.7,0.9,0.7h4.9c0.4,0,0.8-0.3,0.9-0.7
		c1.2-3.9,7.6-23.7,8.7-27.6c0.1-0.4-0.1-0.7-0.5-0.7h-5.5c-0.4,0-0.8,0.3-0.8,0.7c-0.6,2.5-2.7,11.7-4.5,17.5
		c-0.1,0.4-0.3,0.4-0.4,0l-5-17.5c-0.1-0.4-0.5-0.7-0.9-0.7h-4.9c-0.4,0-0.8,0.3-0.9,0.7l-4.6,17.5c-0.1,0.4-0.3,0.4-0.4,0
		l-5.3-17.5c-0.1-0.4-0.5-0.7-0.9-0.7h-5.6c-0.4,0-0.6,0.3-0.5,0.7l9,27.6c0.1,0.4,0.5,0.7,0.9,0.7h5.1
		C118.7,43.5,119.1,43.2,119.2,42.8z"/>
	<path class="st1" d="M153.3,26.5c-1.8,0.5-3.6,1.2-5.1,2.4c-1.7,1.3-2.4,3.7-2.4,5.8c0,5.5,2.8,8.8,8.3,8.8c2.9,0,5-1.1,6.7-3.1
		c0.2-0.3,0.4-0.2,0.4,0.2v2.3c0,0.4,0.3,0.7,0.7,0.7h5.1c0.4,0,0.7-0.3,0.7-0.7v-5.3v-8.9v-6.2c0-6-4.1-8.8-9.7-8.8
		c-3.7,0-7.8,2.2-10.3,4.9c-0.3,0.3-0.3,0.8-0.1,1.1l1.6,2.8c0.2,0.3,0.6,0.4,0.9,0.1c2-1.7,4.9-3.3,7.5-3.3c2.1,0,3.6,0.7,3.6,3.1
		c0,0,0,1.7,0,1.7c0,0.1-1.1,0.4-1.2,0.4C157.8,25.1,155.6,25.8,153.3,26.5z M161.3,29.1c0,0,0,0,0,0.2c0,3.8-2.4,8.7-6.4,8.7
		c-1.9,0-2.9-1.7-2.9-3.5c0-2.8,1.9-3.3,3.7-4.1c1.6-0.7,3.3-0.9,4.9-1.4C161.1,29,161.3,29,161.3,29.1z"/>
	<path class="st1" d="M181.1,3c0-0.4-0.3-0.7-0.7-0.7h-5.1c-0.4,0-0.7,0.3-0.7,0.7v26.6c0,5.8,0,11.2,0,13.1c0,0.4,0.3,0.7,0.7,0.7
		h5.1c0.4,0,0.7-0.3,0.7-0.7c0-2.2,0-8.9,0-13.1V3z"/>
	<path class="st1" d="M194.6,3c0-0.4-0.3-0.7-0.7-0.7h-5.1c-0.4,0-0.7,0.3-0.7,0.7v26.6c0,5.8,0,11.2,0,13.1c0,0.4,0.3,0.7,0.7,0.7
		h5.1c0.4,0,0.7-0.3,0.7-0.7c0-2.2,0-8.9,0-13.1V3z"/>
	<path class="st1" d="M240.8,41.9c0.3-0.2,0.5-0.6,0.4-1l-1.1-3.3c-0.1-0.4-0.5-0.5-0.9-0.4c-0.7,0.2-1.7,0.6-2.6,0.6
		c-1.5,0-1.6-1.2-1.6-2.2V20.8c0-0.4,0.3-0.7,0.7-0.7h4.1c0.4,0,0.7-0.3,0.7-0.7v-4.2c0-0.4-0.3-0.7-0.7-0.7h-4.2
		c-0.4,0-0.7-0.3-0.7-0.7V3c0-0.4-0.3-0.7-0.7-0.7h-4.8c-0.4,0-0.7,0.3-0.7,0.7v11.5v5.4l-0.3,15.8c0,4.1,1.7,7.7,6.3,7.7
		C237.5,43.5,238.6,43,240.8,41.9z"/>
	<path class="st0" d="M42.2,13.6c-8.5,0-13.4,7.8-13.4,15.6c0,7.8,3,14.3,12.3,14.3c3.3,0,7.5-2.1,10.3-4.3c0.3-0.2,0.4-0.7,0.2-1
		l-1.6-3c-0.2-0.3-0.6-0.4-0.9-0.2c-2.1,1.5-5.2,3-7.7,3c-4.5,0-6-5.1-6-8.6c0,0,0-0.1,0-0.1c0-0.1,0.3-0.1,0.7-0.1h16.6
		c0.4,0,0.7-0.3,0.7-0.7c0-0.8,0-2.2-0.1-2.9C53.2,19.5,48.3,13.6,42.2,13.6z M46.8,23.4c0.1,0.4-0.2,0.7-0.6,0.7h-9.1
		c-0.4,0-0.6-0.3-0.5-0.7c0.8-2.6,2.3-4.9,5.2-4.9C44.7,18.5,46.3,20.8,46.8,23.4z"/>
	<path class="st1" d="M212.6,13.6c-8.5,0-13.4,7.8-13.4,15.6c0,7.8,3,14.3,12.3,14.3c3.3,0,7.5-2.1,10.3-4.3c0.3-0.2,0.4-0.7,0.2-1
		l-1.6-3c-0.2-0.3-0.6-0.4-0.9-0.2c-2.1,1.5-5.2,3-7.7,3c-4.5,0-6-5.1-6-8.6c0,0,0-0.1,0-0.1c0-0.1,0.3-0.1,0.7-0.1h16.6
		c0.4,0,0.7-0.3,0.7-0.7c0-0.8,0-2.2-0.1-2.9C223.6,19.5,218.7,13.6,212.6,13.6z M217.2,23.4c0.1,0.4-0.2,0.7-0.6,0.7h-9.1
		c-0.4,0-0.6-0.3-0.5-0.7c0.8-2.6,2.3-4.9,5.2-4.9C215.1,18.5,216.7,20.8,217.2,23.4z"/>
</g>
</svg>
