<?xml version="1.0" encoding="utf-8"?>
<!-- Generator: Adobe Illustrator 17.0.2, SVG Export Plug-In . SVG Version: 6.00 Build 0)  -->
<!DOCTYPE svg PUBLIC "-//W3C//DTD SVG 1.1//EN" "http://www.w3.org/Graphics/SVG/1.1/DTD/svg11.dtd">
<svg version="1.1" id="Layer_1" xmlns="http://www.w3.org/2000/svg" xmlns:xlink="http://www.w3.org/1999/xlink" x="0px" y="0px"
	 width="269px" height="45px" viewBox="0 0 269 45" style="enable-background:new 0 0 269 45;" xml:space="preserve">
<style type="text/css">
	.st0{fill:#627F97;}
	.st1{fill:#89BE42;}
</style>
<g>
	<path class="st0" d="M63.1,41.9h-5.2c-0.4,0-0.7-0.3-0.7-0.7V13.9c0-0.4,0.3-0.7,0.7-0.7h5.2c0.4,0,0.7,0.3,0.7,0.7v0.9
		c0,0.4,0.1,0.4,0.3,0.1c0.6-0.9,2.1-2.6,4.4-2.6c1.7,0,3.4,0.9,4.3,1.4c0.3,0.2,0.5,0.6,0.3,1l-1.8,4.1c-0.1,0.3-0.5,0.5-0.9,0.3
		c-0.7-0.3-1.9-0.8-2.9-0.8c-1.7,0-2.9,1.4-3.5,2.2c-0.2,0.3-0.4,0.9-0.4,1.3v19.5C63.8,41.6,63.5,41.9,63.1,41.9z"/>
	<path class="st0" d="M53.1,24c-0.2-5.8-5-11.7-11.1-11.7c-8.4,0-13.3,7.7-13.3,15.4c0,7.7,3,14.2,12.2,14.2c3.3,0,7.5-2.1,10.2-4.2
		c0.3-0.2,0.4-0.7,0.2-1l-1.6-3c-0.2-0.3-0.6-0.4-0.9-0.2c-2.1,1.5-5.2,3-7.6,3c-4.5,0-6-5-6-8.5c0,0,0-0.1,0-0.1
		c0-0.1,0.3-0.1,0.7-0.1h16.5c0.4,0,0.7-0.3,0.7-0.7C53.1,26.1,53.1,24.7,53.1,24z M45.9,22.7h-9c-0.4,0-0.6-0.3-0.5-0.7
		c0.8-2.6,2.3-4.9,5.2-4.9c2.9,0,4.5,2.3,5,4.9C46.6,22.4,46.3,22.7,45.9,22.7z"/>
	<path class="st1" d="M234.4,12.3c-3.9,0-8.2,2.4-10.7,5.4l2.2,3.9c1.9-1.9,5.2-3.7,7.9-3.7c2.1,0,3.6,0.7,3.6,3c0,0,0,1.7,0,1.7
		c0,0.1-1.1,0.4-1.1,0.4c-2.2,0.7-4.5,1.4-6.7,2.1c-1.7,0.5-3.6,1.2-5,2.3c-1.7,1.3-2.4,3.7-2.4,5.8c0,5.4,2.7,8.7,8.3,8.7
		c3.2,0,5.3-1.3,7.1-3.6v3.6h6.5V36v-8.8V21C244,15,240,12.3,234.4,12.3z M237.5,27.9c0,3.7-2.4,8.7-6.3,8.7c-1.9,0-2.9-1.7-2.9-3.4
		c0-2.8,1.8-3.3,3.7-4c1.8-0.8,3.7-0.9,5.6-1.6C237.5,27.9,237.5,27.5,237.5,27.9z"/>
	<path class="st1" d="M216.3,41.9h-5c-0.4,0-0.7-0.3-0.7-0.7c0-1.9,0-7.2,0-13V1.8c0-0.4,0.3-0.7,0.7-0.7h5c0.4,0,0.7,0.3,0.7,0.7
		v26.4c0,4.2,0,10.9,0,13C216.9,41.6,216.6,41.9,216.3,41.9z"/>
	<path class="st1" d="M104.5,38.6c-0.3-0.2-0.4-0.7-0.2-1l1.8-3.2c0.2-0.3,0.6-0.4,0.9-0.2c1.8,1.2,4.4,2.5,6.4,2.5
		c2.4,0,4.7-0.9,4.7-3.7c0-1.8-1.7-2.3-3.1-3c-2.8-1.5-5.7-1.6-8.5-3c-2.2-1.2-3.4-3.2-3.4-5.7c0-6,5.3-9,10.8-9c3,0,7,1.2,9,3.7
		c0.2,0.3,0.2,0.8-0.1,1l-2.4,2.4c-0.3,0.3-0.7,0.3-1,0c-1.5-1.3-3.8-2.1-5.7-2.1c-1.9,0-4.2,1.3-4.2,3.4c0,1.6,1.7,1.9,2.9,2.4
		l7.6,3.9c2.8,1.4,4.4,2.4,4.4,5.5c0,6.3-5.5,9.4-11.3,9.4C110.3,41.9,106.9,40.3,104.5,38.6z"/>
	<path class="st1" d="M127.8,28.1c0-7.5,3.9-15.8,12.6-15.8c2.8,0,6.4,0.5,8.5,2.5c0.3,0.3,0.3,0.8,0.1,1.1l-2.5,3.4
		c-0.2,0.3-0.6,0.4-0.9,0.1c-1.4-1-3.4-1.7-5.1-1.7c-4.4,0-6.1,6.2-6.1,9.7c0,3.7,1.5,8.9,6.3,8.9c2.1,0,4.8-1.4,6.6-2.7
		c0.3-0.2,0.7-0.1,0.9,0.2l1.6,3.3c0.2,0.3,0.1,0.8-0.2,1.1c-2.5,2.1-6.2,3.7-9.3,3.7C131.8,41.9,127.8,35.4,127.8,28.1z"/>
	<path class="st1" d="M170.8,41.2V21.4c0-2.4-0.4-3.2-2.4-3.2c-2.4,0-5.4,2.1-7.1,3.4c-0.3,0.2-0.5,0.7-0.5,1.1v18.4
		c0,0.4-0.3,0.7-0.7,0.7h-5.2c-0.4,0-0.7-0.3-0.7-0.7V1.8c0-0.4,0.3-0.7,0.7-0.7h5.2c0.4,0,0.7,0.3,0.7,0.7V15
		c0,0.4,0.2,0.5,0.6,0.3c2.1-1.5,5.3-3,7.8-3c7,0,8.2,4.5,8.2,9.1v19.8c0,0.4-0.3,0.7-0.7,0.7h-5.2
		C171.1,41.9,170.8,41.6,170.8,41.2z"/>
	<path class="st1" d="M193.8,12.3c-8.4,0-12.4,7.2-12.4,14.8c0,7.7,4,14.8,12.4,14.8c8.4,0,12.4-7.2,12.4-14.8
		C206.2,19.5,202.2,12.3,193.8,12.3z M193.8,36.3c-3.7,0-5.9-3.7-5.9-9.2c0-5.5,2.2-9.2,5.9-9.2s5.9,3.7,5.9,9.2
		C199.7,32.7,197.4,36.3,193.8,36.3z"/>
	<path class="st1" d="M256.6,41.9h-5.2c-0.4,0-0.7-0.3-0.7-0.7V13.9c0-0.4,0.3-0.7,0.7-0.7h5.2c0.4,0,0.7,0.3,0.7,0.7v0.9
		c0,0.4,0.1,0.4,0.3,0.1c0.6-0.9,2.1-2.6,4.4-2.6c1.7,0,3.4,0.9,4.3,1.4c0.3,0.2,0.5,0.6,0.3,1l-1.8,4.1c-0.1,0.3-0.5,0.5-0.9,0.3
		c-0.7-0.3-1.9-0.8-2.9-0.8c-1.7,0-2.9,1.4-3.5,2.2c-0.2,0.3-0.4,0.9-0.4,1.3v19.5C257.3,41.6,257,41.9,256.6,41.9z"/>
	<path class="st0" d="M8.5,20.8c1.7-1.2,4.6-2.8,7-2.8c2.1,0,2.4,0.9,2.4,3.2v20c0,0.4,0.3,0.7,0.7,0.7h5.2c0.4,0,0.7-0.3,0.7-0.7
		v-20c0-4.7-1.2-8.9-8.2-8.9c-2.4,0-5.7,1.3-7.8,2.8C8.2,15.3,8,15.2,8,14.8v-0.9c0-0.4-0.3-0.7-0.7-0.7H2.1c-0.4,0-0.7,0.3-0.7,0.7
		v27.3c0,0.4,0.3,0.7,0.7,0.7h5.2c0.4,0,0.7-0.3,0.7-0.7V21.9C8,21.5,8.2,21,8.5,20.8z"/>
	<path class="st0" d="M97.6,1.2h-5.2c-0.4,0-0.7,0.3-0.7,0.7v10.8c0,0.4-0.3,0.6-0.7,0.5c-1.1-0.3-3.2-0.8-5.1-0.8
		c-9.6,0-12.2,7.5-12.2,16.2c0,8,4.4,13.4,11.3,13.4c2.9,0,5-0.7,6.2-2.1c0.3-0.3,0.4-0.2,0.4,0.1v1.3c0,0.4,0.3,0.7,0.7,0.7h5.2
		c0.4,0,0.7-0.3,0.7-0.7V1.8C98.3,1.5,98,1.2,97.6,1.2z M91.8,23.5V28v3.5c0,0.4-0.2,0.9-0.4,1.2c-0.8,1-2.5,3-4.6,3.1
		c0,0-0.3,0-0.6,0c-0.3,0-0.9,0-1.3-0.1c-3.8-0.8-5-5.3-5-8.1c0-5,1.4-9.8,6.4-9.8c1.6,0,3.8,0.5,4.8,0.8c0.4,0.1,0.7,0.5,0.7,0.9
		V23.5z"/>
</g>
</svg>
