<?xml version="1.0" encoding="UTF-8" standalone="no"?>
<svg width="188px" height="28px" viewBox="0 0 188 28" version="1.1" xmlns="http://www.w3.org/2000/svg" xmlns:xlink="http://www.w3.org/1999/xlink" xmlns:sketch="http://www.bohemiancoding.com/sketch/ns">
    <title>Slice 1</title>
    <description>Created with Sketch (http://www.bohemiancoding.com/sketch)</description>
    <defs></defs>
    <g id="Page 1" stroke="none" stroke-width="1" fill="none" fill-rule="evenodd">
        <g id="Layer_1" transform="translate(-1.000000, -2.000000)">
            <g id="Group">
                <path d="M0,0 L189.755859,0 L189.755859,31.7558594 L0,31.7558594 L0,0 L0,0 Z M0,0" id="Shape"></path>
                <path d="M13.0166016,3.0649414 C13.5400391,3.0649414 14.2373047,3.2392578 14.9345704,3.9370117 C15.6323243,4.4599609 15.6323243,5.5058594 15.4580079,6.3779297 C15.2832032,7.0751953 15.1088868,7.5986328 14.2373048,8.121582 C13.3657228,8.6445312 12.4936525,8.6445312 12.4936525,8.6445312 L12.4936525,11.9575195 L14.0629884,13.3520507 L12.4936525,14.5727538 L12.4936525,19.28125 C12.4936525,19.28125 14.0629884,18.234375 15.1088869,16.1420898 C15.1088869,16.1420898 15.1088869,16.1420898 15.2832033,15.7929687 C15.2832033,16.4907226 15.2832033,17.536621 14.5859377,19.1054687 C14.2373049,20.1523437 13.3657229,21.1992187 12.1450197,21.8964843 C10.2270509,22.9414062 8.8320314,22.9414062 7.2626955,22.7675781 C5.3447267,22.2441406 3.6010744,21.1992187 2.555176,19.4550781 C1.683594,18.234375 1.3344729,16.665039 1.3344729,15.0957031 C1.5087893,11.9575195 3.7753909,9.3422851 6.3911135,8.2958984 C6.7397461,8.121582 6.9140625,8.121582 7.4370117,8.121582 C7.2626953,8.121582 6.9140625,8.2958984 6.5654297,8.6445312 C5.6933594,9.1674804 4.9960938,10.2138671 4.6474609,11.0854492 L9.8784179,8.8188476 L9.8784179,16.1420898 L5.6933594,18.234375 C6.2167969,18.9316406 7.6118164,19.9785156 8.8320313,19.9785156 C11.0986329,20.3261718 12.319336,19.28125 12.319336,19.28125 L12.319336,14.5727539 L10.5756837,13.3520508 L12.319336,11.9575196 L12.319336,8.6445312 C11.447754,8.4702148 10.2270508,8.121582 9.7041016,7.9472656 C8.6577148,7.7729492 5.519043,6.9008789 5.1704102,6.9008789 C4.6474609,6.7265625 3.9501953,6.7265625 3.6010742,7.0751953 C3.2524414,7.4243164 3.078125,7.9472656 3.2524414,8.4702148 C3.2524414,8.8188476 3.4267578,8.993164 3.6010742,9.1674804 C3.6010742,9.1674804 3.4267578,9.1674804 3.078125,8.993164 C2.5551758,8.6445312 2.0322266,7.9472656 2.0322266,7.0751953 C2.0322266,6.0292969 2.3808594,4.9829101 3.4267578,4.2856445 C4.1245117,3.762207 4.9960938,3.4135742 6.0424805,3.5878906 C7.6118164,3.762207 9.7041016,4.6342773 11.6220703,5.1572265 C12.3193359,5.3315429 12.8422851,5.3315429 13.3657226,4.9829101 C13.540039,4.8085937 14.0629882,4.4599609 13.7143554,3.9370117 C13.1914062,3.2392578 12.4936523,3.2392578 11.7963866,3.0649414 C12.3193359,2.890625 12.4936523,2.890625 13.0166016,3.0649414 L13.0166016,3.0649414 L13.0166016,3.0649414 Z M6.7397461,17.5366211 L6.7397461,10.3881836 L4.6474609,11.434082 C4.6474609,11.434082 4.1245117,12.6547851 4.1245117,14.3984375 C4.2988281,15.7929687 4.9960937,17.3623047 5.5190429,18.0595703 L6.7397461,17.5366211 L6.7397461,17.5366211 Z M6.7397461,17.5366211" id="Shape" fill="#000000"></path>
                <path d="M33.2421875,10.0395508 C33.2421875,10.0395508 31.4985352,11.0854492 30.4526367,11.7832031 C29.40625,12.3061523 28.0117187,13.0034179 28.0117187,13.0034179 L28.0117187,19.8027343 L26.965332,20.5 L27.1396484,20.6757812 L28.0117187,19.9785156 L30.9755859,22.59375 L36.2065429,18.5830078 L36.0317382,18.4086914 L33.2421874,20.6757812 L30.8012694,18.4086914 L30.8012694,17.7109375 L35.5087889,14.2241211 L33.2421875,10.0395508 L33.2421875,10.0395508 Z M33.2421875,15.6186523 L30.8012695,17.3623046 L30.8012695,11.6088866 L33.2421875,15.6186523 L33.2421875,15.6186523 Z M33.2421875,15.6186523" id="Shape" fill="#000000"></path>
                <path d="M19.8164062,25.2089844 C20.5141601,25.2089844 21.5600585,25.3828125 23.1293945,24.6855469 C24.6987304,23.8144531 25.3964843,22.2441407 25.3964843,20.5 L25.5708007,18.0595703 L25.5708007,12.6547851 L26.4423827,11.9575195 L26.4423827,11.7832031 L25.3964843,12.4804687 L23.1293945,10.0395507 L20.1655273,12.4804687 L20.1655273,3.9370117 L16.5039062,6.7265625 C16.6782226,6.9008789 17.2011718,6.9008789 17.2011718,7.7729492 L17.2011718,19.8027344 L15.6323241,20.8496094 L15.8066405,21.0234375 L16.5039062,20.5 L18.5961914,22.4179688 L21.9091797,19.8027344 L21.734375,19.6289063 L21.0371094,20.3261719 L20.1655274,19.4550781 L20.1655274,12.8291015 L21.0371094,11.9575195 L22.6064453,13.7011718 L22.6064453,19.455078 C22.6064453,21.0234374 22.6064453,22.9414061 21.734375,23.814453 C20.862793,24.859375 20.6884766,24.859375 19.8164062,25.2089844 L19.8164062,25.2089844 L19.8164062,25.2089844 Z M19.8164062,25.2089844" id="Shape" fill="#000000"></path>
                <path d="M42.6577148,24.5117188 C41.2626953,24.3359376 40.739746,23.6386719 40.739746,22.9414063 C40.739746,22.5937501 41.2626952,21.7207032 41.9604491,21.7207032 C42.8320311,21.5468751 43.5292968,21.8964844 44.2270507,22.7675782 L47.3652343,19.2812501 L47.190918,19.2812501 L46.319336,20.1523439 C45.6215821,19.2812501 44.4013672,18.583008 43.1806641,18.4086916 L43.1806641,8.121582 L51.0268555,22.59375 C51.0268555,22.59375 51.2011719,22.7675781 51.5498047,22.7675781 C51.7241211,22.7675781 51.7241211,22.59375 51.7241211,22.59375 L51.7241211,8.121582 C52.421875,7.9472656 53.293457,7.5986328 53.8164063,7.2495117 C55.3857422,5.680664 54.6884766,3.9370117 54.5141602,3.762207 C54.5141602,4.4599609 53.8164063,5.1572265 52.9448243,5.3315429 C51.7241212,5.3315429 50.8525391,4.2856445 50.8525391,4.2856445 L47.8881836,7.7729492 L48.0625,7.9472656 L48.9345703,6.9008789 C49.9804687,7.9472656 50.6782226,7.9472656 51.5498047,8.121582 L51.5498047,16.4907226 L45.621582,5.8549805 C45.0986328,4.9829102 44.4013672,4.1113282 43.0063476,4.1113282 C41.6118164,4.1113282 40.5654296,5.331543 40.3911132,6.5522462 C40.2167968,7.7729494 40.3911132,8.1215821 40.3911132,8.1215821 C40.3911132,8.1215821 40.5654297,6.7265625 41.4375,6.7265625 C42.309082,6.7265625 42.6577148,7.4243164 43.0063477,7.9472656 L43.0063477,11.0854492 C42.1347657,11.0854492 40.0424805,11.0854492 40.0424805,13.3520508 C40.0424805,14.0498047 40.5654297,14.9213867 40.9140625,15.2700196 C41.4375,15.6186524 41.9604492,15.6186524 41.9604492,15.6186524 C41.9604492,15.6186524 41.2626953,15.2700196 41.4375,14.572754 C41.6118164,13.8754884 43.0063477,13.8754884 43.0063477,14.0498048 L43.0063477,18.4086915 C42.3090821,18.4086915 40.3911133,18.4086915 39.3447266,20.1523438 C38.8217774,21.1992188 38.8217774,22.4179688 39.519043,23.2910157 C40.0424805,23.9882812 40.9140625,24.859375 42.6577148,24.5117188 L42.6577148,24.5117188 L42.6577148,24.5117188 Z M42.6577148,24.5117188" id="Shape" fill="#000000"></path>
                <path d="M59.3959961,10.0395508 C59.3959961,10.0395508 57.8271484,11.0854492 56.6064453,11.7832031 C55.5600586,12.3061523 54.1655273,13.0034179 54.1655273,13.0034179 L54.1655273,19.8027343 L53.1191406,20.5 L53.293457,20.6757812 L54.3398437,19.9785156 L57.1293945,22.59375 L62.3603515,18.5830078 L62.1855468,18.4086914 L59.395996,20.6757812 L57.1293944,18.4086914 L57.1293944,17.7109375 L61.6625975,14.2241211 L59.3959961,10.0395508 L59.3959961,10.0395508 Z M59.3959961,15.6186523 L57.1293945,17.3623046 L57.1293945,11.6088866 L59.3959961,15.6186523 L59.3959961,15.6186523 Z M59.3959961,15.6186523" id="Shape" fill="#000000"></path>
                <path d="M66.5449219,22.59375 L63.9291992,20.5 L62.8833008,21.3730469 L62.7089844,21.1992188 L63.9291992,20.3261719 L63.9291992,14.5727539 C63.9291992,12.1318359 61.6625976,12.8291016 61.836914,10.2138672 C61.836914,9.1674805 62.8833007,8.2958984 63.5805663,7.9472656 C64.1035155,7.7729492 64.8012694,7.7729492 64.8012694,7.7729492 C64.8012694,7.7729492 63.7548827,8.2958984 63.9291991,9.3422851 C64.2778319,10.7368163 66.7192382,10.7368163 66.8935546,12.6547851 L66.8935546,19.28125 L68.6372069,20.6757812 L69.1601561,20.3261718 L69.1601561,13.1777343 L68.1137694,12.3061523 L70.5551756,10.0395507 L72.8217772,12.1318359 L71.9501952,13.0034179 L71.9501952,19.2812499 L74.2167968,21.0234374 L74.5654296,20.8496093 L74.5654296,13.1777343 L73.5190429,12.3061523 L75.9599609,10.0395507 L78.4008789,11.9575195 L79.2729492,11.0854492 L79.4472656,11.2602539 L77.3549804,13.1777344 L77.3549804,19.28125 L71.9501952,22.59375 L69.1601562,20.5 L66.5449219,22.59375 L66.5449219,22.59375 Z M66.5449219,22.59375" id="Shape" fill="#000000"></path>
                <path d="M176.390625,10.0395508 C176.390625,10.0395508 174.646484,11.0854492 173.600586,11.7832031 L171.160156,13.0034179 L171.160156,19.8027343 L170.113281,20.5 L170.288086,20.6757812 L171.160156,19.9785156 L174.124023,22.59375 L179.354492,18.5830078 L179.180664,18.4086914 L176.390625,20.6757812 L173.949219,18.4086914 L173.949219,17.7109375 L178.657227,14.2241211 L176.390625,10.0395508 L176.390625,10.0395508 Z M176.390625,15.6186523 L173.949219,17.3623046 L173.949219,11.6088866 L176.390625,15.6186523 L176.390625,15.6186523 Z M176.390625,15.6186523" id="Shape" fill="#000000"></path>
                <path d="M152.329102,13.003418 L152.503906,13.003418 L153.375,12.3061523 L154.770508,13.8754883 L154.770508,19.4550781 L154.073242,19.9785156 L156.339844,22.59375 L158.605469,20.3261719 L157.734375,19.28125 L157.734375,12.6547852 L158.256836,12.1318359 L159.826172,14.0498047 L159.826172,19.6289062 L159.303711,20.1523438 L161.395508,22.4179688 L163.662109,20.3261719 L162.791016,19.4550781 L162.791016,12.6547852 L163.313477,12.1318359 L165.057617,14.0498047 L165.057617,19.4550781 L164.53418,19.9785156 L166.800781,22.59375 L169.939453,19.6289062 L169.764648,19.4550781 L169.067383,20.1523438 L167.84668,18.9316406 L167.84668,12.6547852 L168.893555,11.7832031 L168.893555,11.6088867 L167.672852,12.4804688 L165.580078,10.2138672 L162.616211,12.4804688 L160.523438,10.2138672 L157.55957,12.4804688 L155.467773,10.2138672 L152.329102,13.003418 L152.329102,13.003418 Z M152.329102,13.003418" id="Shape" fill="#000000"></path>
                <path d="M146.051758,12.8291016 L146.051758,12.8291016 L146.923828,12.1318359 L148.144531,13.7011719 L148.144531,19.9785156 L147.272461,20.8496094 L147.447266,21.0234375 L148.319336,20.1523438 L150.411133,22.59375 L153.375,19.9785156 L153.201172,19.8027344 L152.329102,20.5 L151.108398,19.1054688 L151.108398,12.8291016 L152.155273,11.9575195 L152.155273,11.7832031 L151.108398,12.6547852 L149.016602,10.2138672 L146.051758,12.8291016 L146.051758,12.8291016 Z M146.051758,12.8291016" id="Shape" fill="#000000"></path>
                <path d="M146.923828,7.4243164 L149.016602,5.5058594 L150.93457,7.4243164 L148.667969,9.5166016 L146.923828,7.4243164 L146.923828,7.4243164 Z M146.923828,7.4243164" id="Shape" fill="#000000"></path>
                <path d="M143.785156,3.0649414 C144.308594,3.0649414 145.180664,3.2392578 145.87793,3.9370117 C146.40039,4.4599609 146.575195,5.5058594 146.40039,6.3779297 C146.226562,7.0751953 145.87793,7.5986328 145.180664,8.121582 C144.308594,8.6445312 143.436523,8.6445312 143.436523,8.6445312 L143.436523,11.9575195 L145.005859,13.3520507 L143.436523,14.5727538 L143.436523,19.28125 C143.436523,19.28125 145.005859,18.234375 146.051758,16.1420898 C146.051758,16.1420898 146.051758,16.1420898 146.226562,15.7929687 C146.226562,16.4907226 146.226562,17.536621 145.529297,19.1054687 C145.180664,20.1523437 144.133789,21.1992187 143.087891,21.8964843 C141.169922,22.9414062 139.600586,22.9414062 138.032226,22.7675781 C136.288086,22.2441406 134.544922,21.1992187 133.498047,19.4550781 C132.626953,18.234375 132.27832,16.665039 132.27832,15.0957031 C132.27832,11.9575195 134.71875,9.3422851 137.333984,8.2958984 C137.683594,8.121582 137.857422,8.121582 138.380859,8.121582 C138.032226,8.121582 137.857422,8.2958984 137.508789,8.6445312 C136.636719,9.1674804 135.939453,10.2138671 135.59082,11.0854492 L140.821289,8.8188476 L140.821289,16.1420898 L136.636719,18.234375 C137.160156,18.9316406 138.554688,19.9785156 139.775391,19.9785156 C141.867187,20.3261718 143.087891,19.28125 143.087891,19.28125 L143.087891,14.5727539 L141.518555,13.3520508 L143.087891,11.9575196 L143.087891,8.6445312 C142.216797,8.4702148 141.169922,8.121582 140.472656,7.9472656 C139.600586,7.7729492 136.462891,6.9008789 135.939453,6.9008789 C135.59082,6.7265625 134.893555,6.7265625 134.544922,7.0751953 C134.196289,7.4243164 134.021484,7.9472656 134.021484,8.4702148 C134.196289,8.8188476 134.370117,8.993164 134.544922,9.1674804 C134.544922,9.1674804 134.370117,9.1674804 134.021484,8.993164 C133.498047,8.6445312 132.975586,7.9472656 132.975586,7.0751952 C132.800781,6.0292968 133.324219,4.98291 134.196289,4.2856444 C135.067383,3.7622069 135.939453,3.4135741 136.985352,3.5878905 C138.554688,3.7622069 140.647461,4.6342772 142.390625,5.1572264 C143.262695,5.3315428 143.785156,5.3315428 144.308594,4.98291 C144.482422,4.8085936 144.832031,4.4599608 144.482422,3.9370116 C144.133789,3.2392577 143.436524,3.2392577 142.739258,3.0649413 C143.262695,2.890625 143.436523,2.890625 143.785156,3.0649414 L143.785156,3.0649414 L143.785156,3.0649414 Z M137.683594,17.5366211 L137.683594,10.3881836 L135.59082,11.434082 C135.59082,11.434082 134.893555,12.6547851 135.067383,14.3984375 C135.067383,15.7929687 135.939453,17.3623047 136.462891,18.0595703 L137.683594,17.5366211 L137.683594,17.5366211 Z M137.683594,17.5366211" id="Shape" fill="#000000"></path>
                <path d="M181.969727,23.4648438 C181.621094,23.6386719 180.226562,23.2910157 179.87793,21.7207032 C179.529297,20.1523438 180.575195,19.2812501 182.144531,17.5366212 L180.226562,15.9672853 L180.226562,12.6547853 C180.226562,12.6547853 181.621094,12.1318361 182.667969,11.4340822 L184.759766,10.039551 C184.759766,10.039551 185.631836,11.0854494 186.50293,10.911133 C187.898437,10.7368166 187.898437,9.6909182 187.723633,9.5166018 C188.072266,9.8652346 188.595703,11.0854495 186.154297,14.0498049 L188.24707,15.6186526 L188.24707,19.8027346 C188.24707,19.8027346 185.805664,21.0234377 183.713867,22.5937502 C183.713867,22.5937502 182.493164,21.0234377 181.447266,21.7207033 C180.575195,22.2441406 180.923828,23.1152344 181.969727,23.4648438 L181.969727,23.4648438 L181.969727,23.4648438 Z M180.226562,20.3261719 C180.226562,20.3261719 181.272461,18.5830078 183.19043,18.9316407 C184.93457,19.2812501 185.457031,21.0234376 185.457031,21.0234376 L185.457031,16.8393556 L184.237305,15.7929689 C183.016602,17.1879883 180.575195,19.1054688 180.226562,20.3261719 L180.226562,20.3261719 L180.226562,20.3261719 Z M183.016602,11.434082 L183.016602,14.7470703 L184.0625,15.7929687 C184.0625,15.7929687 186.50293,13.8754882 187.375,11.9575195 C187.375,11.9575195 186.329102,13.5268554 184.759766,13.0034179 C183.539062,12.6547852 183.016602,11.434082 183.016602,11.434082 L183.016602,11.434082 L183.016602,11.434082 Z M183.016602,11.434082" id="Shape" fill="#000000"></path>
                <path d="M106.821289,12.8291016 L107.693359,12.131836 L107.868164,12.131836 L106.996094,13.003418 L106.996094,19.6289063 C106.996094,19.6289063 105.251953,20.5000001 104.206055,21.1992188 L101.764648,22.59375 L98.6269532,19.9785156 L97.9296876,20.6757812 L97.7548829,20.6757812 L98.6269532,19.8027343 L98.6269532,12.6547851 C98.6269532,12.6547851 100.021484,12.1318359 101.242188,11.434082 C102.288086,10.7368164 103.508789,10.0395508 103.508789,10.0395508 L106.821289,12.8291016 L106.821289,12.8291016 Z M101.59082,18.7578125 L104.032227,21.0234375 L104.032227,13.8754883 L101.59082,11.6088867 L101.59082,18.7578125 L101.59082,18.7578125 Z M101.59082,18.7578125" id="Shape" fill="#000000"></path>
                <path d="M112.923828,12.1318359 L114.841797,10.2138671 C114.841797,10.2138671 115.016602,10.3881835 115.365234,10.5624999 C115.539062,10.7368163 116.0625,10.9111327 116.585937,10.7368163 C116.93457,10.5624999 116.93457,10.3881835 117.283203,10.2138671 C117.283203,11.783203 116.585937,12.8291015 115.713867,13.1777343 C115.19043,13.3520507 114.144531,13.7011718 112.923828,12.3061523 L112.923828,19.4550781 L114.319336,20.5 L115.19043,19.8027344 L115.365234,19.8027344 L112.226562,22.59375 L109.786133,20.3261719 L108.914062,21.1992188 L108.739258,21.0234376 L109.959961,19.8027345 L109.959961,13.701172 L109.087891,12.3061525 L108.216797,13.0034181 L108.041992,13.0034181 L111.180664,10.2138673 L112.923828,12.1318359 L112.923828,12.1318359 Z M112.923828,12.1318359" id="Shape" fill="#000000"></path>
                <path d="M121.119141,15.2700195 L124.606445,10.0395507 C124.606445,10.0395507 125.128906,10.5624999 126.000976,10.7368163 C127.046875,11.0854491 128.092773,10.0395507 128.092773,10.0395507 C127.918945,11.4340819 127.22168,13.0034179 125.652344,13.1777343 C124.431641,13.3520507 123.210938,12.3061523 123.210938,12.3061523 L123.037109,12.8291015 L127.918945,20.3261718 L128.964844,19.455078 L129.139648,19.6289061 L125.652344,22.5937499 L121.119141,15.2700195 L121.119141,15.2700195 Z M121.119141,15.2700195" id="Shape" fill="#000000"></path>
                <path d="M118.155273,8.2958984 C118.155273,7.0751953 117.631836,6.3779296 116.93457,6.3779296 L120.944336,3.7622069 L120.944336,19.28125 L121.991211,20.3261719 L122.688476,19.6289063 L122.862305,19.8027344 L119.723633,22.59375 L117.631836,20.5 L116.759766,21.3730469 L116.585938,21.1992188 L118.155273,19.8027344 L118.155273,8.2958984 L118.155273,8.2958984 Z M118.155273,8.2958984" id="Shape" fill="#000000"></path>
                <path d="M85.3754883,7.9472656 C85.3754883,6.9008789 84.8525391,6.3779297 84.1547852,6.3779297 C83.1088868,6.2036133 82.9345704,7.7729492 82.9345704,7.7729492 C82.9345704,7.7729492 82.760254,6.5522461 83.631836,5.680664 C84.1547852,5.1572265 85.2011719,4.2856445 86.5961915,4.6342773 C88.1650392,4.9829101 88.6884767,6.2036132 88.6884767,7.2495117 L88.6884767,21.7207031 C88.6884767,21.7207031 89.2114259,21.8964843 89.5600587,21.8964843 C90.0830079,22.0703124 90.4316407,22.0703124 90.4316407,22.0703124 L90.4316407,4.6342773 L90.6064454,4.6342773 L90.6064454,7.0751953 L93.744629,4.4599609 L96.185547,6.5522461 L97.2314454,5.6806641 L97.40625,5.6806641 L96.1855469,6.7265625 L96.1855469,20.1523437 C96.1855469,21.0234375 96.0112305,21.8964843 95.1396485,22.4179687 C93.3959962,23.6386718 91.1293946,22.2441406 89.0371094,22.0703125 C87.6420899,21.7207031 85.3754883,21.546875 84.6782227,22.9414063 C84.5039063,23.2910157 84.5039063,23.9882813 85.2011719,24.5117188 C86.5961914,25.3828126 92.5239258,22.9414063 94.616211,23.9882813 C96.5341798,24.8593751 96.5341798,26.0800782 96.1855469,27.1269532 C95.6625977,28.8691407 93.3959961,29.2187501 93.3959961,29.2187501 C93.3959961,29.2187501 94.6162109,28.5214845 94.2675781,27.4746095 C94.0932617,26.951172 93.7446289,26.7773439 92.5239258,26.951172 C89.9086914,27.3007814 86.9448242,28.5214845 84.8525391,27.6503908 C83.8061524,27.1269533 82.9345703,25.9062502 83.1088868,24.5117189 C83.1088868,22.5937501 85.3754884,21.8964845 85.3754884,21.8964845 L85.3754884,14.9213868 C85.201172,14.7470704 84.1547853,14.7470704 83.8061525,15.2700196 C83.4575197,16.1420899 84.32959,16.4907227 84.32959,16.4907227 C84.32959,16.4907227 83.6318361,16.4907227 82.9345705,15.7929688 C82.7602541,15.444336 82.0625002,14.3984376 82.9345705,13.1777344 C83.4575197,12.3061524 84.32959,12.131836 85.3754885,12.131836 L85.3754885,7.9472656 L85.3754883,7.9472656 L85.3754883,7.9472656 Z M90.6064453,22.2441406 C90.6064453,22.2441406 91.6523437,22.4179687 92.175293,21.8964844 C93.046875,21.1992188 92.8730469,20.5 92.8730469,20.5 L92.8730469,15.0957031 C92.8730469,15.0957031 92.5239258,14.3984375 91.8266602,14.3984375 C91.1293946,14.3984375 90.6064454,15.0957031 90.6064454,15.0957031 L90.6064454,22.2441406 L90.6064453,22.2441406 L90.6064453,22.2441406 Z M92.8730469,7.9472656 L91.4780274,6.7265625 L90.6064454,7.2495117 L90.6064454,12.3061523 C90.6064454,12.3061523 91.1293946,12.8291015 91.8266602,12.8291015 C92.5239258,12.8291015 92.8730469,12.3061523 92.8730469,12.3061523 L92.8730469,7.9472656 L92.8730469,7.9472656 L92.8730469,7.9472656 Z M92.8730469,12.6547852 C92.8730469,12.6547852 92.5239258,13.003418 91.8266602,13.003418 C91.1293946,13.003418 90.6064454,12.6547852 90.6064454,12.6547852 L90.6064454,14.7470704 C90.6064454,14.7470704 91.1293946,14.2241212 91.8266602,14.2241212 C92.5239258,14.2241212 92.8730469,14.7470704 92.8730469,14.7470704 L92.8730469,12.6547852 L92.8730469,12.6547852 Z M92.8730469,12.6547852" id="Shape" fill="#000000"></path>
            </g>
        </g>
    </g>
</svg>