<?xml version="1.0" standalone="no"?>
<!DOCTYPE svg PUBLIC "-//W3C//DTD SVG 1.1//EN" "http://www.w3.org/Graphics/SVG/1.1/DTD/svg11.dtd" >
<svg xmlns="http://www.w3.org/2000/svg">
<metadata></metadata>
<defs>
<font id="kievitot-regularregular" horiz-adv-x="1081" >
<font-face units-per-em="2048" ascent="1556" descent="-492" />
<missing-glyph horiz-adv-x="460" />
<glyph horiz-adv-x="0" />
<glyph horiz-adv-x="0" />
<glyph horiz-adv-x="682" />
<glyph unicode="&#xd;" horiz-adv-x="460" />
<glyph unicode=" "  horiz-adv-x="460" />
<glyph unicode="&#x09;" horiz-adv-x="460" />
<glyph unicode="&#xa0;" horiz-adv-x="460" />
<glyph unicode="!" horiz-adv-x="563" d="M164 100q0 47 35 81t82 34t81.5 -34t34.5 -81q0 -49 -34 -82.5t-82 -33.5t-82.5 33.5t-34.5 82.5zM188 1364h185l-33 -956h-119z" />
<glyph unicode="&#x22;" horiz-adv-x="669" d="M88 1364h188l-22 -455h-119zM393 1364h189l-47 -455h-119z" />
<glyph unicode="#" horiz-adv-x="1011" d="M47 512l21 121h198l35 227h-199l19 121h196l41 268h121l-41 -268h207l41 268h121l-41 -268h199l-21 -121h-196l-33 -227h196l-20 -121h-195l-43 -295h-121l43 295h-206l-45 -295h-121l45 295h-201zM387 633h207l35 227h-209z" />
<glyph unicode="$" horiz-adv-x="835" d="M84 74l66 116q124 -88 264 -88q106 0 163.5 37t57.5 105q0 27 -12.5 50.5t-29.5 39.5t-50 34t-56.5 28t-68.5 28.5t-68 28.5q-54 24 -92 46.5t-75.5 56t-57 80t-19.5 103.5q0 102 70 173.5t189 88.5v213h145v-210q140 -16 242 -95l-72 -110q-106 80 -244 80 q-86 0 -135 -35t-49 -99q0 -27 13.5 -51t29.5 -40t51.5 -35t58 -29t70.5 -30q8 -3 12 -5q39 -16 62.5 -26.5t58.5 -28.5t57 -33t47.5 -38t40 -46t24 -54t9.5 -65q0 -116 -71.5 -190t-204.5 -94v-232h-145v227q-166 13 -281 99z" />
<glyph unicode="%" horiz-adv-x="1527" d="M70 721q0 51 17.5 100.5t51 92t92 68.5t131.5 26q74 0 131 -25.5t90 -67.5t49.5 -90.5t16.5 -99.5t-17 -100.5t-51 -92.5t-92 -69.5t-131 -26.5t-130.5 25.5t-91 68t-50 91.5t-16.5 100zM195 725q0 -83 43 -136.5t124 -53.5t121.5 51.5t40.5 134.5t-42.5 135.5 t-123.5 52.5t-122 -50.5t-41 -133.5zM412 0l587 983h129l-587 -983h-129zM879 260q0 51 17.5 100.5t51 92t92 68.5t131.5 26q74 0 131 -25.5t90 -67.5t49.5 -90.5t16.5 -99.5t-17 -100.5t-51 -92.5t-92 -69.5t-131 -26.5t-130.5 25.5t-91 68t-50 91.5t-16.5 100zM1004 264 q0 -83 43 -136.5t124 -53.5t121.5 51.5t40.5 134.5t-42.5 136t-123.5 53t-122 -51t-41 -134z" />
<glyph unicode="&#x26;" horiz-adv-x="1280" d="M78 348q0 125 66 212.5t218 172.5q-91 98 -131.5 175.5t-40.5 164.5q0 141 101.5 228.5t259.5 87.5q147 0 241.5 -81t94.5 -208q0 -111 -72 -197.5t-235 -179.5l358 -381q83 135 113 309l143 -24q-38 -222 -162 -387l225 -240h-200l-123 131q-177 -156 -399 -156 q-209 0 -333 107.5t-124 265.5zM238 354q0 -107 79.5 -175t221.5 -68q174 0 303 116l-398 418q-206 -116 -206 -291zM352 1081q0 -62 32.5 -123t115.5 -151q125 70 180 138.5t55 150.5q0 70 -51 119t-135 49q-90 0 -143.5 -51t-53.5 -132z" />
<glyph unicode="'" horiz-adv-x="382" d="M94 1364h195l-37 -455h-121z" />
<glyph unicode="(" horiz-adv-x="632" d="M113 573q0 253 99.5 491.5t270.5 410.5h144q-69 -71 -129.5 -159.5t-114 -201t-84.5 -252.5t-31 -287q0 -529 359 -937h-144q-178 193 -274 433.5t-96 501.5z" />
<glyph unicode=")" horiz-adv-x="632" d="M8 -362q69 71 129.5 159t114 200.5t84.5 252.5t31 287q0 530 -359 938h144q178 -193 274 -434t96 -502q0 -256 -99 -492.5t-271 -408.5h-144z" />
<glyph unicode="*" horiz-adv-x="929" d="M96 1059l37 110l275 -96l-9 291h131l-8 -291l275 96l39 -110l-281 -86l174 -234l-94 -69l-170 243l-170 -243l-94 69l174 234z" />
<glyph unicode="+" horiz-adv-x="1175" d="M86 481v125h436v418h142v-418h426v-125h-426v-440h-142v440h-436z" />
<glyph unicode="," horiz-adv-x="462" d="M57 -240q34 32 54.5 55.5t39.5 59.5t19 70q0 35 -28.5 81.5t-28.5 86.5q0 51 32 83.5t80 32.5q54 0 91.5 -37t37.5 -100q0 -78 -41.5 -160t-90 -135.5t-101.5 -93.5z" />
<glyph unicode="-" horiz-adv-x="632" d="M111 522v131h411v-131h-411z" />
<glyph unicode="." horiz-adv-x="450" d="M100 106q0 52 36 87.5t89 35.5t89 -35.5t36 -87.5t-36 -88t-89 -36t-89 36t-36 88z" />
<glyph unicode="/" horiz-adv-x="823" d="M92 0l494 1364h143l-493 -1364h-144z" />
<glyph unicode="0" horiz-adv-x="1167" d="M82 489q0 72 18.5 143.5t59 139.5t98 120.5t142 84t184.5 31.5q124 0 223 -46.5t158 -122t89.5 -164t30.5 -181.5q0 -72 -19 -143.5t-59.5 -139.5t-98.5 -120.5t-143 -84t-185 -31.5t-184 31t-141 82.5t-97 119t-58 138.5t-18 143zM242 494q0 -168 89.5 -279t252.5 -111 q110 0 188.5 52.5t116 138t37.5 194.5t-38.5 196t-118 140.5t-189.5 53.5q-163 0 -250.5 -108.5t-87.5 -276.5z" />
<glyph unicode="1" horiz-adv-x="661" d="M70 891l284 92h123v-983h-149v844l-228 -78z" />
<glyph unicode="2" horiz-adv-x="983" d="M55 0v57q18 15 81.5 67t106 88.5t108.5 95t110 107t88.5 103.5t67 105t22.5 92q0 74 -48.5 118t-144.5 44q-65 0 -134.5 -30.5t-121.5 -88.5l-86 96q65 69 163.5 111.5t189.5 42.5q70 0 131 -17t108.5 -50.5t75 -88t27.5 -123.5q0 -41 -16 -86.5t-37.5 -84.5t-62 -88 t-70 -81t-82.5 -80.5t-77.5 -69.5t-77.5 -65.5t-63 -52.5q60 6 113 6h471v-127h-842z" />
<glyph unicode="3" horiz-adv-x="876" d="M76 868q60 63 146.5 101.5t178.5 38.5q161 0 254 -85t93 -204q0 -114 -86.5 -207.5t-188.5 -118.5v-2q132 -20 225 -114t93 -230q0 -100 -43 -182.5t-115 -136.5t-166 -83.5t-197 -29.5q-108 0 -170 8l23 127q45 -10 125 -10q103 0 189 33t140 100t54 156q0 282 -395 282 v113q58 1 119.5 21.5t114 56t86.5 89.5t34 116q0 79 -51 124.5t-144 45.5q-125 0 -241 -107z" />
<glyph unicode="4" horiz-adv-x="1146" d="M61 0v98l664 885h123v-856h227v-127h-227v-362h-150v362h-637zM231 127h467v614h-4z" />
<glyph unicode="5" horiz-adv-x="860" d="M92 -373l27 125q56 -8 110 -8q103 0 190.5 36t144.5 113t57 181q0 159 -98.5 233t-266.5 74q-78 0 -115 -4l41 606h574v-121h-437l-22 -358q98 0 178.5 -22.5t136 -61.5t93.5 -93t55.5 -115.5t17.5 -129.5q0 -96 -38 -180.5t-108 -148.5t-178 -101t-239 -37 q-69 0 -123 12z" />
<glyph unicode="6" horiz-adv-x="1042" d="M90 551q0 184 54 338.5t154.5 265t251 172.5t337.5 62l31 -125q-327 0 -500 -185q-134 -140 -158 -377q54 49 132.5 78t162.5 29q187 0 295 -111t108 -292q0 -117 -49.5 -214t-146.5 -157t-223 -60q-93 0 -170 34t-127.5 90.5t-85.5 131.5t-50.5 155.5t-15.5 164.5z M250 530q-8 -194 69.5 -310t227.5 -116q80 0 139.5 42.5t87 105t27.5 133.5q0 141 -66.5 219t-197.5 78q-161 0 -285 -100z" />
<glyph unicode="7" horiz-adv-x="913" d="M33 850v133h798v-106l-598 -1283l-129 64l562 1192h-633z" />
<glyph unicode="8" horiz-adv-x="1046" d="M113 332q0 105 72.5 205.5t209.5 179.5q-132 80 -188.5 161.5t-56.5 176.5q0 144 109.5 239t258.5 95q181 0 282 -94t101 -232q0 -95 -65 -175.5t-201 -158.5q297 -168 297 -387q0 -164 -115.5 -265.5t-296.5 -101.5q-81 0 -149 20.5t-115 54.5t-80 80t-48 97t-15 105z M266 342q0 -103 71.5 -169.5t188.5 -66.5t183.5 68.5t66.5 169.5q0 78 -63 153t-213 156q-122 -78 -178 -152.5t-56 -158.5zM305 1055q0 -67 50 -128t173 -132q220 129 220 258q0 88 -59 147.5t-161 59.5q-99 0 -161 -57.5t-62 -147.5z" />
<glyph unicode="9" horiz-adv-x="1046" d="M86 586q0 115 54.5 211.5t153.5 153.5t220 57q95 0 171.5 -35t125 -91.5t80.5 -133.5t45.5 -155.5t13.5 -162.5q0 -245 -95.5 -427t-282 -283t-443.5 -101l-29 123q334 0 521 184q136 136 159 353q-139 -103 -295 -103q-182 0 -290.5 115.5t-108.5 294.5zM246 590 q0 -129 66 -208t194 -79q169 0 285 94l2 52q8 192 -67.5 311t-219.5 119q-108 0 -184 -80.5t-76 -208.5z" />
<glyph unicode=":" horiz-adv-x="460" d="M104 109q0 52 36 87t89 35t89 -35t36 -87q0 -53 -36.5 -90t-88.5 -37t-88.5 37t-36.5 90zM104 874q0 52 36 88.5t89 36.5t89 -36.5t36 -88.5t-36 -88t-89 -36t-89 36t-36 88z" />
<glyph unicode=";" horiz-adv-x="462" d="M57 -240q34 32 54.5 55.5t39.5 59.5t19 70q0 35 -28.5 81.5t-28.5 86.5q0 51 32 83.5t80 32.5q54 0 91.5 -37t37.5 -100q0 -78 -41.5 -160t-90 -135.5t-101.5 -93.5zM106 874q0 52 36 88.5t89 36.5t89 -36.5t36 -88.5t-36 -88t-89 -36t-89 36t-36 88z" />
<glyph unicode="&#x3c;" horiz-adv-x="739" d="M55 504l512 454l84 -86l-409 -362l409 -360l-84 -95z" />
<glyph unicode="=" horiz-adv-x="940" d="M72 313v129h796v-129h-796zM72 647v129h796v-129h-796z" />
<glyph unicode="&#x3e;" horiz-adv-x="739" d="M88 141l410 363l-410 360l84 94l512 -448l-512 -455z" />
<glyph unicode="?" horiz-adv-x="829" d="M92 1333q112 56 234 56q192 0 296.5 -96.5t104.5 -252.5q0 -52 -11.5 -97t-34.5 -81.5t-45 -63t-57.5 -52.5t-55.5 -39t-54 -33q-61 -36 -81.5 -70.5t-20.5 -95.5v-113h-146v129q0 84 32 139.5t120 108.5q42 25 63.5 39.5t51 39.5t43.5 48t25 57.5t11 75.5 q0 114 -66.5 169.5t-185.5 55.5q-84 0 -168 -43zM180 100q0 47 35 81t82 34t82 -34t35 -81q0 -49 -34.5 -82.5t-82.5 -33.5t-82.5 33.5t-34.5 82.5z" />
<glyph unicode="@" horiz-adv-x="1566" d="M82 492q0 150 56.5 291t153 248t236.5 172t297 65q125 0 235.5 -38t188 -101t134 -143t83.5 -165.5t27 -167.5q0 -129 -45 -239t-127 -177t-184 -67q-101 0 -158 63.5t-57 165.5h-4q-43 -103 -118.5 -166t-166.5 -63q-89 0 -141 71t-52 165q0 80 17 157t52.5 147.5 t85.5 123.5t122.5 84.5t156.5 31.5q30 0 68 -5.5t60 -10t64 -15.5t48 -12l-51 -284q-3 -20 -10 -57t-10 -56t-6 -42.5t-3 -39.5q0 -59 31 -101t78 -42q101 0 167 104t66 250t-74 265t-200 185t-277 66q-115 0 -226 -52.5t-195 -140t-135.5 -210t-51.5 -254.5 q0 -164 65.5 -292t194 -203t301.5 -75q83 0 166.5 18t138.5 42l47 -105q-68 -28 -167.5 -48.5t-206.5 -20.5q-154 0 -282.5 53.5t-213.5 145.5t-131.5 215.5t-46.5 263.5zM590 428q0 -51 20.5 -91t59.5 -40q57 0 108.5 48t87.5 126.5t60.5 156t40.5 156.5l8 41 q-60 21 -113 21q-80 0 -143.5 -60.5t-96 -155t-32.5 -202.5z" />
<glyph unicode="A" horiz-adv-x="1284" d="M43 0l522 1364h156l524 -1364h-174l-125 338h-620l-125 -338h-158zM377 473h518l-172 467q-25 67 -51 142.5t-33 93.5h-4q-41 -122 -84 -236z" />
<glyph unicode="B" horiz-adv-x="1171" d="M197 0v1364h360q98 0 177.5 -19t141 -58.5t95 -106t33.5 -156.5q0 -117 -64.5 -194t-179.5 -107v-4q132 -23 217.5 -111.5t85.5 -224.5q0 -383 -512 -383h-354zM354 133h193q182 0 266 58.5t84 187.5q0 130 -79 199t-259 69h-205v-514zM354 778h187q156 0 227.5 57.5 t71.5 178.5q0 112 -74 164.5t-221 52.5h-191v-453z" />
<glyph unicode="C" horiz-adv-x="1259" d="M109 686q0 139 46 265.5t129.5 224t211 155.5t280.5 58q123 0 212.5 -26t170.5 -77l-80 -121q-131 90 -307 90q-119 0 -215 -46.5t-156.5 -125.5t-92.5 -180t-32 -213q0 -115 31.5 -217t91.5 -184t158 -130t221 -48q198 0 334 116l74 -114q-61 -56 -170.5 -97t-241.5 -41 q-155 0 -283 59t-210 158.5t-127 226.5t-45 267z" />
<glyph unicode="D" horiz-adv-x="1390" d="M197 0v1364h319q197 0 346.5 -48.5t241.5 -137.5t138 -209.5t46 -270.5q0 -151 -46.5 -275.5t-139.5 -220t-245 -149t-351 -53.5h-309zM356 131h164q295 0 447.5 143t152.5 420q0 278 -148.5 408.5t-461.5 130.5h-154v-1102z" />
<glyph unicode="E" horiz-adv-x="1030" d="M197 0v1364h700v-135h-541v-438h475v-136h-475v-520h555v-135h-714z" />
<glyph unicode="F" horiz-adv-x="1003" d="M197 0v1364h714v-135h-555v-438h484v-136h-484v-655h-159z" />
<glyph unicode="G" horiz-adv-x="1447" d="M109 686q0 140 46.5 266.5t132 224t217 155t290.5 57.5q263 0 430 -129l-84 -117q-78 62 -159 87t-191 25q-104 0 -190 -30.5t-145.5 -83.5t-100.5 -125.5t-60 -154t-19 -171.5q0 -114 31.5 -215.5t92.5 -184t162 -131t229 -48.5q222 0 337 84v383h-292v135h452v-596 q-78 -66 -208.5 -104t-293.5 -38q-157 0 -287 59.5t-214 159.5t-130 227t-46 265z" />
<glyph unicode="H" horiz-adv-x="1484" d="M197 0v1364h159v-578h772v578h160v-1364h-160v651h-772v-651h-159z" />
<glyph unicode="I" horiz-adv-x="577" d="M209 0v1364h160v-1364h-160z" />
<glyph unicode="J" horiz-adv-x="579" d="M-43 -369l25 138q35 -15 79 -15q83 0 122.5 59t39.5 183v1368h160v-1393q0 -174 -78.5 -267t-230.5 -93q-77 0 -117 20z" />
<glyph unicode="K" horiz-adv-x="1165" d="M197 0v1364h157v-1364h-157zM360 711l549 653h187l-549 -643l586 -721h-199z" />
<glyph unicode="L" horiz-adv-x="968" d="M197 0v1364h159v-1229h537v-135h-696z" />
<glyph unicode="M" horiz-adv-x="1744" d="M111 0l186 1364h149l338 -928q52 -145 86 -252h4q26 85 87 252l337 928h152l184 -1364h-161l-117 893q-22 179 -23 190h-4q-32 -108 -61 -188l-324 -895h-153l-332 895q-22 58 -66 188h-4q-3 -40 -20 -194l-109 -889h-149z" />
<glyph unicode="N" horiz-adv-x="1456" d="M193 0v1364h157l643 -924q46 -67 127 -200h4q-8 108 -8 184v940h148v-1364h-148l-674 973q-18 26 -37 56.5t-42.5 73t-26.5 46.5h-4q8 -108 8 -150v-999h-147z" />
<glyph unicode="O" horiz-adv-x="1556" d="M109 680q0 141 46 269t129.5 226t211 156t280.5 58t281.5 -57.5t213 -154.5t131 -224.5t46.5 -268.5t-46 -269t-129.5 -226t-211.5 -156t-281 -58t-281 57.5t-212.5 154.5t-131 224.5t-46.5 268.5zM276 684q0 -116 33 -219.5t94.5 -183t157.5 -126t215 -46.5t216 46 t159 124.5t95.5 181.5t33.5 219t-33 219.5t-94.5 183t-157.5 126t-215 46.5t-216 -46t-159 -124.5t-95.5 -181.5t-33.5 -219z" />
<glyph unicode="P" horiz-adv-x="1110" d="M197 0v1364h342q214 0 346.5 -101.5t132.5 -291.5q0 -200 -132 -310t-370 -110h-160v-551h-159zM356 686h160q176 0 257 70t81 209q0 264 -332 264h-166v-543z" />
<glyph unicode="Q" horiz-adv-x="1556" d="M109 680q0 141 46 269t129.5 226t211 156t280.5 58t281.5 -57.5t213 -154.5t131 -224.5t46.5 -268.5q0 -164 -59.5 -307.5t-177.5 -247t-277 -137.5q81 -102 157.5 -147.5t188.5 -45.5q93 0 166 58l59 -119q-35 -30 -94.5 -50t-132.5 -20q-143 0 -264.5 69.5 t-255.5 237.5q-148 4 -272 63t-205.5 155.5t-126.5 222t-45 264.5zM276 684q0 -116 33 -219.5t94.5 -183t157.5 -126t215 -46.5t216 46t159 124.5t95.5 181.5t33.5 219t-33 219.5t-94.5 183t-157.5 126t-215 46.5t-216 -46t-159 -124.5t-95.5 -181.5t-33.5 -219z" />
<glyph unicode="R" horiz-adv-x="1167" d="M197 0v1364h370q214 0 333.5 -95.5t119.5 -267.5q0 -164 -106 -255.5t-277 -100.5v-4q39 -26 143 -170l338 -471h-188l-275 387q-84 118 -125 165t-71 62t-80 15h-23v-629h-159zM356 760h205q295 0 295 237q0 232 -307 232h-193v-469z" />
<glyph unicode="S" horiz-adv-x="1021" d="M90 115l82 114q128 -120 311 -120q122 0 200.5 68.5t78.5 162.5q0 46 -18 86.5t-39.5 66.5t-69.5 58t-75.5 46.5t-90.5 45.5q-13 7 -20 10q-60 29 -98 51t-84.5 57.5t-72.5 72.5t-44.5 90t-18.5 116q0 108 56 188.5t145.5 120.5t195.5 40q219 0 359 -109l-78 -119 q-119 94 -283 94q-103 0 -170 -57t-67 -149q0 -49 18 -88.5t55.5 -71t75.5 -54t97 -49.5q5 -2 15 -7q152 -73 218 -123q156 -121 156 -314q0 -162 -124.5 -264.5t-322.5 -102.5q-96 0 -182 27t-129.5 54.5t-75.5 58.5z" />
<glyph unicode="T" horiz-adv-x="1017" d="M41 1229v135h936v-135h-387v-1229h-162v1229h-387z" />
<glyph unicode="U" horiz-adv-x="1413" d="M184 510v854h160v-834q0 -213 91 -315t282 -102q179 0 270.5 105.5t91.5 283.5v862h150v-846q0 -258 -128.5 -400.5t-387.5 -142.5q-269 0 -399 142.5t-130 392.5z" />
<glyph unicode="V" horiz-adv-x="1261" d="M37 1364h172l350 -940q29 -76 82 -240h4q39 126 80 240l342 940h158l-508 -1364h-156z" />
<glyph unicode="W" horiz-adv-x="1792" d="M43 1364h174l232 -911q7 -28 49 -238h4q22 111 59 238l262 911h164l258 -905q32 -108 58 -240h4q0 1 4 26.5t9 55.5t14.5 75t19.5 83l235 905h158l-375 -1364h-145l-264 922q-26 90 -60 262h-4q-18 -92 -68 -262l-270 -922h-145z" />
<glyph unicode="X" horiz-adv-x="1157" d="M51 0l432 707l-409 657h182l330 -528l311 528h168l-399 -657l440 -707h-182l-361 578l-344 -578h-168z" />
<glyph unicode="Y" horiz-adv-x="1136" d="M37 1364h178l365 -696h2l364 696h154l-447 -848v-516h-159v516z" />
<glyph unicode="Z" horiz-adv-x="1148" d="M94 0v113l746 1120h-711v131h899v-104l-756 -1129h781v-131h-959z" />
<glyph unicode="[" horiz-adv-x="626" d="M164 -330v1805h411v-117h-266v-1571h266v-117h-411z" />
<glyph unicode="\" horiz-adv-x="823" d="M14 1475h144l651 -1805h-143z" />
<glyph unicode="]" horiz-adv-x="626" d="M51 -213h266v1571h-266v117h412v-1805h-412v117z" />
<glyph unicode="^" horiz-adv-x="1196" d="M125 590l420 774h104l420 -774h-135l-336 616l-336 -616h-137z" />
<glyph unicode="_" horiz-adv-x="808" d="M-2 -201h813v-125h-813v125z" />
<glyph unicode="`" horiz-adv-x="1024" d="M305 1364h223l189 -258h-135z" />
<glyph unicode="a" horiz-adv-x="966" d="M90 240q0 75 32 134.5t83.5 97t121.5 62t140.5 34.5t146.5 10h43v92q0 108 -47 156t-149 48q-136 0 -256 -106l-80 104q145 136 346 136q336 0 336 -326v-459q0 -137 22 -223h-149q-9 40 -14 119q-52 -64 -130 -104t-165 -40q-124 0 -202.5 73t-78.5 192zM250 244 q0 -69 46 -104.5t99 -35.5q155 0 262 142v221h-43q-364 0 -364 -223z" />
<glyph unicode="b" horiz-adv-x="1062" d="M162 51v1424h149v-570q44 46 110.5 74.5t135.5 28.5q198 0 311 -140t113 -372q0 -225 -140.5 -373t-355.5 -148q-97 0 -183.5 21.5t-139.5 54.5zM311 135q67 -31 176 -31q107 0 184.5 56.5t113.5 142.5t36 189q0 80 -16 147t-50 120t-92 83t-135 30q-59 0 -120 -28.5 t-97 -67.5v-641z" />
<glyph unicode="c" horiz-adv-x="901" d="M82 492q0 122 36.5 221.5t99 163t144 97.5t173.5 34q175 0 301 -99l-72 -112q-49 38 -102 60t-130 22q-145 0 -217.5 -106t-72.5 -277q0 -80 17.5 -149.5t52.5 -124.5t93 -86.5t132 -31.5q136 0 239 82l62 -112q-117 -99 -310 -99q-140 0 -243.5 74t-153 189.5 t-49.5 253.5z" />
<glyph unicode="d" horiz-adv-x="1071" d="M82 489q0 231 123 375t311 144q155 0 250 -86v553h149v-1274q0 -95 25 -201h-149q-16 52 -19 113q-112 -138 -285 -138q-181 0 -293 136.5t-112 377.5zM242 494q0 -177 67.5 -280t208.5 -103q67 0 134.5 36t113.5 99v542q-97 91 -236 91q-136 0 -212 -107t-76 -278z" />
<glyph unicode="e" horiz-adv-x="1003" d="M82 498q0 219 124 364.5t318 145.5q181 0 284 -120t103 -323q0 -19 -4 -69h-665q2 -82 19.5 -150t53 -123.5t96 -87t140.5 -31.5q48 0 91.5 8.5t82.5 27t54 27t44 26.5l62 -117q-150 -101 -338 -101q-113 0 -202.5 40.5t-146.5 112t-86.5 166t-29.5 204.5zM250 614h508 q-3 115 -61 190t-177 75q-114 0 -181.5 -71.5t-88.5 -193.5z" />
<glyph unicode="f" horiz-adv-x="649" d="M41 864v119h164v145q0 171 95 271t263 100q112 0 164 -26l-39 -130q-50 25 -129 25q-99 0 -152 -64.5t-53 -185.5v-135h250v-119h-250v-864h-149v864h-164z" />
<glyph unicode="g" horiz-adv-x="1028" d="M82 -207q0 85 54 151t136 105v4q-100 51 -100 156q0 104 111 168v4q-164 92 -164 287q0 149 102 244.5t271 95.5q78 0 151 -25h320v-119h-166q73 -88 73 -196q0 -149 -105 -244.5t-273 -95.5q-50 0 -103 12q-72 -39 -72 -96q0 -87 142 -94q23 -1 66 -3t70 -3t68.5 -4.5 t69 -9t62.5 -15.5t58 -23t47.5 -34t38.5 -46.5t23 -61t9 -77.5q0 -103 -67 -185.5t-180.5 -127.5t-248.5 -45q-179 0 -286 71t-107 207zM233 -190q0 -80 64 -128.5t190 -48.5q144 0 237 62t93 158q0 42 -14 71t-34 44t-53 24t-60 11t-66 4q-18 1 -27 1q-138 9 -184 15 q-68 -39 -107 -95t-39 -118zM272 668q0 -96 62.5 -156.5t161.5 -60.5q101 0 161 60t60 157t-62 157t-163 60q-100 0 -160 -59.5t-60 -157.5z" />
<glyph unicode="h" horiz-adv-x="1079" d="M162 0v1475h149v-633q130 166 320 166q147 0 218 -85.5t71 -222.5v-700h-150v672q0 98 -40 149t-134 51q-43 0 -86 -16.5t-74 -38t-60 -50t-42 -45t-23 -30.5v-692h-149z" />
<glyph unicode="i" horiz-adv-x="512" d="M145 1278q0 46 32.5 78.5t78.5 32.5t78.5 -32.5t32.5 -78.5t-32.5 -78.5t-78.5 -32.5t-78.5 32.5t-32.5 78.5zM180 0v983h152v-983h-152z" />
<glyph unicode="j" horiz-adv-x="489" d="M-66 -457l25 125q25 -10 70 -10q78 0 110.5 59.5t32.5 178.5v1087h150v-1114q0 -160 -68 -250t-213 -90q-79 0 -107 14zM133 1278q0 46 32.5 78.5t78.5 32.5t78 -32.5t32 -78.5t-32 -78.5t-78 -32.5t-78.5 32.5t-32.5 78.5z" />
<glyph unicode="k" horiz-adv-x="958" d="M162 0v1475h149v-1475h-149zM322 549l405 434h178l-409 -434l428 -549h-183z" />
<glyph unicode="l" horiz-adv-x="493" d="M172 0v1475h150v-1475h-150z" />
<glyph unicode="m" horiz-adv-x="1624" d="M168 0v983h149v-139q19 24 32 38.5t43.5 41t59.5 42.5t73.5 29t92.5 13q192 0 252 -166q68 76 144 121t174 45q142 0 209 -84t67 -224v-700h-149v672q0 96 -36.5 148t-125.5 52q-140 0 -262 -153v-719h-150v672q0 200 -157 200q-50 0 -97.5 -22t-84 -58t-53.5 -56.5 t-32 -41.5v-694h-149z" />
<glyph unicode="n" horiz-adv-x="1085" d="M168 0v983h149v-141q132 166 320 166q147 0 218 -85.5t71 -222.5v-700h-150v672q0 98 -40 149t-134 51q-78 0 -153 -50.5t-132 -129.5v-692h-149z" />
<glyph unicode="o" d="M82 489q0 72 14.5 142t48 139t83.5 121.5t128 84.5t174 32t176 -31.5t133 -83.5t90 -119.5t53.5 -138t16.5 -141.5t-15.5 -142t-51.5 -139.5t-88.5 -121t-131.5 -84.5t-175 -32t-174.5 31.5t-129.5 83t-86 119.5t-50 138t-15 142zM242 494q0 -169 75.5 -279.5 t221.5 -110.5q99 0 168.5 53t101 138t31.5 194q0 108 -34.5 195t-106.5 141t-171 54q-145 0 -215.5 -107t-70.5 -278z" />
<glyph unicode="p" horiz-adv-x="1083" d="M168 -449v1432h149v-106q110 131 285 131q182 0 290.5 -136.5t108.5 -377.5q0 -231 -121.5 -375t-312.5 -144q-154 0 -250 86v-510h-149zM317 195q100 -91 236 -91q137 0 213 107t76 278q0 173 -68.5 278t-202.5 105q-48 0 -92.5 -15.5t-76.5 -40t-52 -44t-33 -37.5v-540 z" />
<glyph unicode="q" horiz-adv-x="1069" d="M82 487q0 224 142.5 372.5t353.5 148.5q88 0 166.5 -18t108.5 -32t48 -26v-1376h-149v522q-38 -40 -104 -71.5t-142 -31.5q-198 0 -311 141t-113 371zM242 492q0 -80 16 -147t50 -120.5t92 -83.5t135 -30q72 0 134.5 35.5t82.5 60.5v637q-79 35 -177 35q-81 0 -145.5 -32 t-105 -87t-61.5 -123.5t-21 -144.5z" />
<glyph unicode="r" horiz-adv-x="706" d="M168 0v983h149v-154q18 30 39.5 57t54.5 56.5t77 47.5t92 18q60 0 102 -21l-37 -143q-27 16 -86 16q-51 0 -97 -26t-76 -64t-46 -65t-23 -46v-659h-149z" />
<glyph unicode="s" horiz-adv-x="835" d="M84 68l66 114q110 -80 243 -80q93 0 147 37.5t54 104.5q0 63 -48 101t-169 89q-52 22 -88 41t-73 46t-59.5 56t-36.5 70t-14 90q0 117 84 194t228 77q173 0 291 -95l-74 -108q-96 74 -219 74q-78 0 -121 -36.5t-43 -99.5t45.5 -99.5t142.5 -76.5q59 -25 94.5 -42 t80.5 -45.5t70 -57t42.5 -69.5t17.5 -89q0 -134 -94.5 -212.5t-255.5 -78.5q-176 0 -311 95z" />
<glyph unicode="t" horiz-adv-x="712" d="M51 864v119h162v281h149v-281h248v-119h-248v-614q0 -76 26 -111t89 -35q40 0 77.5 14.5t55.5 28.5l56 -112q-97 -60 -207 -60q-121 0 -183.5 68t-62.5 193v628h-162z" />
<glyph unicode="u" d="M156 283v700h149v-672q0 -98 40.5 -149t135.5 -51q52 0 103 22.5t89 58t58 58t33 41.5v692h149v-776q0 -114 19 -207h-152q-11 68 -14 145q-20 -28 -46 -53.5t-66 -54t-94 -45.5t-114 -17q-148 0 -219 85t-71 223z" />
<glyph unicode="v" horiz-adv-x="946" d="M33 983h164l280 -786h4l275 786h153l-362 -983h-139z" />
<glyph unicode="w" horiz-adv-x="1429" d="M35 983h164l209 -743h4l231 743h145l232 -745h4l211 745h151l-294 -983h-136l-243 764h-4l-246 -764h-135z" />
<glyph unicode="x" horiz-adv-x="946" d="M45 0l340 514l-319 469h170q225 -334 237 -352l223 352h158l-307 -459l356 -524h-170l-276 408l-256 -408h-156z" />
<glyph unicode="y" horiz-adv-x="960" d="M23 -465l20 125q42 -6 76 -6q97 0 151 53t97 170l47 129l-371 977h168l281 -784h4l272 784h160l-418 -1114q-24 -63 -44 -106.5t-53.5 -92t-72 -77.5t-96 -48.5t-127.5 -19.5q-49 0 -94 10z" />
<glyph unicode="z" horiz-adv-x="866" d="M86 0v94l500 768h-471v121h653v-100l-502 -762h510v-121h-690z" />
<glyph unicode="{" horiz-adv-x="733" d="M57 526v115q104 2 166 61t62 162v391q0 108 64.5 164t154.5 56h178v-117h-135q-67 0 -92 -40.5t-25 -121.5v-358q0 -195 -205 -248v-4q205 -59 205 -262v-383q0 -80 24 -117t91 -37h137v-117h-176q-90 0 -155.5 56.5t-65.5 164.5v412q0 100 -61.5 161t-166.5 62z" />
<glyph unicode="|" horiz-adv-x="581" d="M229 -512v2048h123v-2048h-123z" />
<glyph unicode="}" horiz-adv-x="733" d="M51 -213h135q67 0 92 40.5t25 121.5v381q0 195 205 248v4q-205 59 -205 262v360q0 80 -24 117t-91 37h-137v117h176q90 0 156 -57t66 -165v-389q0 -100 61 -161t166 -62v-115q-104 -2 -165.5 -61t-61.5 -162v-414q0 -108 -64.5 -163.5t-155.5 -55.5h-178v117z" />
<glyph unicode="~" horiz-adv-x="1204" d="M113 518q134 121 268 121q62 0 121.5 -22t100 -48.5t101 -48.5t123.5 -22q94 0 195 84l70 -93q-57 -56 -131 -90t-146 -34q-74 0 -141 22.5t-108 49t-94 49t-103 22.5q-93 0 -183 -82z" />
<glyph unicode="&#xa1;" horiz-adv-x="563" d="M166 891q0 49 34.5 83t82.5 34t82 -34t34 -83q0 -47 -34.5 -81t-81.5 -34t-82 34t-35 81zM190 -373l33 957h119l33 -957h-185z" />
<glyph unicode="&#xa2;" horiz-adv-x="901" d="M82 492q0 208 98.5 339.5t255.5 165.5v217h146v-208q141 -11 254 -97l-72 -112q-49 38 -102 60t-130 22q-145 0 -217.5 -106t-72.5 -277q0 -80 17.5 -149.5t52.5 -124.5t93 -86.5t132 -31.5q136 0 239 82l62 -112q-101 -84 -256 -97v-229h-146v236q-114 23 -195.5 99 t-120 181t-38.5 228z" />
<glyph unicode="&#xa3;" horiz-adv-x="958" d="M111 0v100q76 42 127 114t71.5 144t20.5 144q0 28 -8 106h-197v121h180q-24 172 -24 283q0 172 91.5 274.5t276.5 102.5q135 0 246 -70l-68 -115q-83 53 -198 53q-99 0 -146 -66.5t-47 -182.5q0 -49 23 -279h309v-121h-297q6 -55 6 -100q0 -137 -48 -236.5t-105 -144.5 h528v-127h-741z" />
<glyph unicode="&#xa4;" horiz-adv-x="1110" d="M102 53l160 203q-96 108 -96 260q0 156 104 266l-164 207l105 78l158 -213q87 41 188 41q94 0 172 -33l158 205l102 -78l-155 -194q57 -54 86.5 -129t29.5 -150q0 -164 -108 -272l147 -191l-104 -78l-146 197q-82 -37 -182 -37q-115 0 -197 45l-153 -205zM303 516 q0 -112 71 -188t183 -76q114 0 184 75.5t70 188.5q0 112 -70 188t-184 76q-112 0 -183 -76.5t-71 -187.5z" />
<glyph unicode="&#xa5;" horiz-adv-x="1064" d="M4 1364h178l363 -696h4l364 696h154l-414 -782h295v-121h-330v-146h330v-120h-330v-195h-155v195h-330v120h330v146h-330v121h293z" />
<glyph unicode="&#xa6;" horiz-adv-x="362" d="M117 262h123v-774h-123v774zM117 782v754h123v-754h-123z" />
<glyph unicode="&#xa7;" horiz-adv-x="958" d="M139 745q0 86 42 151t98 103q-66 94 -66 191q0 73 28 133.5t73.5 98t101 57.5t112.5 20q147 0 240 -72l-72 -114q-2 1 -11 7.5t-12.5 9t-13 8.5t-15.5 8.5t-17 7t-20.5 7t-22 5t-26.5 3.5t-30 1q-83 0 -126.5 -51t-43.5 -119q0 -52 34 -112.5t84.5 -115t110 -120 t110 -127t84.5 -136.5t34 -147q0 -132 -137 -258q61 -98 61 -184q0 -79 -27.5 -140.5t-73.5 -97.5t-101.5 -54.5t-116.5 -18.5q-139 0 -236 67l66 115q82 -51 170 -51q86 0 130 47.5t44 122.5q0 44 -25 94t-65 98.5t-88.5 100t-97.5 106.5t-89 110.5t-65 119.5t-25 126z M287 745q0 -47 39.5 -116.5t82 -120.5t109.5 -126t82 -93q70 63 70 153q0 49 -40.5 120t-81 119t-112.5 126t-84 92q-65 -46 -65 -154z" />
<glyph unicode="&#xa8;" horiz-adv-x="1024" d="M211 1212q0 44 32 76.5t76 32.5q46 0 78.5 -32.5t32.5 -76.5q0 -46 -32.5 -78t-78.5 -32q-44 0 -76 32t-32 78zM594 1212q0 44 32 76.5t76 32.5q46 0 78.5 -32.5t32.5 -76.5q0 -46 -32.5 -78t-78.5 -32q-44 0 -76 32t-32 78z" />
<glyph unicode="&#xa9;" horiz-adv-x="1771" d="M123 735q0 155 60.5 296.5t162.5 244t243 163t296 60.5t296.5 -60.5t244 -163t163 -244t60.5 -296.5t-60.5 -296.5t-163 -244t-244 -163t-296.5 -60.5t-296 60.5t-243 163t-162.5 244t-60.5 296.5zM238 735q0 -141 49 -263.5t135 -209t206 -135.5t257 -49q138 0 258.5 49 t206 135.5t135 209t49.5 263.5q0 188 -84 338.5t-232.5 235t-332.5 84.5q-183 0 -331 -84.5t-232 -235t-84 -338.5zM432 735q0 131 61.5 240t169.5 172t238 63q97 0 162 -26.5t127 -75.5l-78 -98q-27 23 -50.5 38t-67 28.5t-95.5 13.5q-78 0 -141 -31.5t-100.5 -83 t-57.5 -112.5t-20 -124q0 -150 95 -254t234 -104q129 0 238 90l63 -104q-137 -107 -309 -107q-133 0 -241 65t-168 173.5t-60 236.5z" />
<glyph unicode="&#xaa;" horiz-adv-x="739" d="M70 842q0 99 73 162q98 81 330 81v56q0 69 -30.5 104t-102.5 35q-40 0 -79 -14.5t-55 -25.5t-44 -32l-68 86q112 95 252 95q121 0 185.5 -59.5t64.5 -178.5v-322q0 -90 18 -167h-127q-7 34 -10 71q-84 -88 -192 -88q-92 0 -153.5 55.5t-61.5 141.5zM199 846 q0 -43 29 -68.5t73 -25.5q94 0 172 90v149q-96 0 -154 -13t-92 -50q-28 -32 -28 -82z" />
<glyph unicode="&#xab;" horiz-adv-x="974" d="M92 502l273 389h157l-270 -389l270 -387h-157zM457 502l272 389h158l-271 -389l271 -387h-158z" />
<glyph unicode="&#xac;" horiz-adv-x="1204" d="M82 485v131h1020v-548h-139v417h-881z" />
<glyph unicode="&#xad;" horiz-adv-x="632" d="M111 522v131h411v-131h-411z" />
<glyph unicode="&#xae;" horiz-adv-x="1771" d="M123 735q0 155 60.5 296.5t162.5 244t243 163t296 60.5t296.5 -60.5t244 -163t163 -244t60.5 -296.5t-60.5 -296.5t-163 -244t-244 -163t-296.5 -60.5t-296 60.5t-243 163t-162.5 244t-60.5 296.5zM238 735q0 -141 49 -263.5t135 -209t206 -135.5t257 -49q138 0 258.5 49 t206 135.5t135 209t49.5 263.5q0 188 -84 338.5t-232.5 235t-332.5 84.5q-183 0 -331 -84.5t-232 -235t-84 -338.5zM608 279v925h301q135 0 210 -75.5t75 -184.5q0 -100 -64.5 -162t-181.5 -77q45 -34 109 -121l215 -305h-162l-223 325q-37 53 -65.5 71.5t-80.5 18.5v-415 h-133zM741 799h95q37 0 63 2t57 10.5t50 23.5t32 43t13 66q0 146 -172 146h-138v-291z" />
<glyph unicode="&#xaf;" horiz-adv-x="1024" d="M233 1176v124h555v-124h-555z" />
<glyph unicode="&#xb0;" horiz-adv-x="708" d="M86 1122q0 109 79 188t189 79t189.5 -79t79.5 -188t-78.5 -187.5t-190.5 -78.5q-110 0 -189 78.5t-79 187.5zM199 1122q0 -68 44 -114.5t111 -46.5t111.5 46.5t44.5 114.5q0 67 -44.5 114.5t-111.5 47.5t-111 -47.5t-44 -114.5z" />
<glyph unicode="&#xb1;" horiz-adv-x="1175" d="M86 481v125h436v418h142v-418h426v-125h-426v-440h-142v440h-436zM147 -104h891v-132h-891v132z" />
<glyph unicode="&#xb2;" horiz-adv-x="686" d="M66 1288q107 88 251 88q117 0 174.5 -50.5t57.5 -139.5q0 -51 -23 -103.5t-67 -104t-89 -94t-108 -93.5q6 0 37 1t47 1h240v-103h-516v70q56 45 77.5 63t73.5 63t76.5 73t56 68t45 75.5t13.5 68.5q0 52 -31.5 77.5t-83.5 25.5q-85 0 -162 -66z" />
<glyph unicode="&#xb3;" horiz-adv-x="626" d="M49 1298q33 30 98 54t132 24q108 0 162.5 -40.5t54.5 -112.5q0 -63 -39.5 -103.5t-104.5 -56.5v-2q72 -6 120 -51t48 -117q0 -105 -85.5 -160t-239.5 -55q-40 0 -83.5 6.5t-58.5 13.5l27 101q48 -19 108 -19q91 0 144 29t53 82q0 58 -58.5 83t-168.5 27v89q90 2 147 31 t57 79q0 35 -29.5 54.5t-82.5 19.5q-37 0 -79 -17.5t-65 -37.5z" />
<glyph unicode="&#xb4;" horiz-adv-x="1024" d="M305 1106l189 258h223l-277 -258h-135z" />
<glyph unicode="&#xb5;" horiz-adv-x="1077" d="M156 -444v1427h149v-688q0 -40 5.5 -69.5t20.5 -57t46.5 -42.5t77.5 -15q49 0 97.5 17.5t88.5 46t69 56.5t54 58v694h149v-786q0 -109 15 -197h-150q-10 51 -14 141q-21 -23 -37 -38.5t-49.5 -42t-65.5 -43t-78 -29.5t-94 -13q-84 0 -137 35h-4q6 -71 6 -227v-227h-149z " />
<glyph unicode="&#xb6;" horiz-adv-x="1318" d="M133 961q0 179 115 291t284 112h654v-129h-164v-1597h-137v1597h-213v-1597h-140v923q-169 0 -284 110.5t-115 289.5z" />
<glyph unicode="&#xb7;" horiz-adv-x="450" d="M100 596q0 52 36 87.5t89 35.5t89 -35.5t36 -87.5t-36 -88.5t-89 -36.5t-89 36.5t-36 88.5z" />
<glyph unicode="&#xb8;" horiz-adv-x="1024" d="M328 -424l24 86q40 -22 109 -22q47 0 74.5 20t27.5 59q0 36 -22.5 56t-51.5 24.5t-71 3.5l74 197h104l-51 -135q64 -9 103.5 -47.5t39.5 -96.5q0 -80 -64 -125t-161 -45q-77 0 -135 25z" />
<glyph unicode="&#xb9;" horiz-adv-x="524" d="M37 1313l209 51h96v-674h-127v563l-147 -41z" />
<glyph unicode="&#xba;" horiz-adv-x="804" d="M72 1016q0 71 18.5 135.5t55 119.5t101 87.5t148.5 32.5t150.5 -32.5t106.5 -86t60.5 -118t20.5 -134.5q0 -71 -20 -136t-59 -119.5t-105 -87t-150 -32.5q-68 0 -123.5 21.5t-92.5 57t-62.5 84t-37 100.5t-11.5 108zM209 1020q0 -124 47 -196t145 -72q99 0 146 70.5 t47 193.5q0 122 -51 194t-150 72q-184 0 -184 -262z" />
<glyph unicode="&#xbb;" horiz-adv-x="974" d="M88 115l270 387l-270 389h156l274 -389l-274 -387h-156zM453 115l270 387l-270 389h155l275 -389l-275 -387h-155z" />
<glyph unicode="&#xbc;" horiz-adv-x="1325" d="M37 1313l209 51h96v-674h-127v563l-147 -41zM135 0l854 1364h125l-854 -1364h-125zM700 141v86l365 447h119v-432h112v-101h-112v-141h-125v141h-359zM844 238q36 4 92 4h125v264h-2z" />
<glyph unicode="&#xbd;" horiz-adv-x="1411" d="M37 1313l209 51h96v-674h-127v563l-147 -41zM135 0l854 1364h125l-854 -1364h-125zM791 598q107 88 251 88q117 0 174.5 -50.5t57.5 -139.5q0 -51 -23 -104t-66.5 -104.5t-89 -94t-108.5 -93.5q6 0 37 1t47 1h240v-102h-516v70q56 45 77.5 63t73.5 63t76.5 73t56 68 t45 75.5t13.5 68.5q0 52 -31.5 77.5t-83.5 25.5q-85 0 -162 -66z" />
<glyph unicode="&#xbe;" horiz-adv-x="1427" d="M49 1298q33 30 98 54t132 24q108 0 162.5 -40.5t54.5 -112.5q0 -63 -39.5 -103.5t-104.5 -56.5v-2q72 -6 120 -51t48 -117q0 -105 -85.5 -160t-239.5 -55q-40 0 -83.5 6.5t-58.5 13.5l27 101q48 -19 108 -19q91 0 144 29t53 82q0 58 -58.5 83t-168.5 27v89q90 2 147 31 t57 79q0 35 -29.5 54.5t-82.5 19.5q-37 0 -79 -17.5t-65 -37.5zM238 0l854 1364h125l-855 -1364h-124zM803 141v86l364 447h119v-432h113v-101h-113v-141h-125v141h-358zM946 238q36 4 92 4h125v264h-2z" />
<glyph unicode="&#xbf;" horiz-adv-x="819" d="M102 -49q0 52 11.5 97t34.5 81.5t45 63t57.5 52.5t55.5 39t54 33q61 36 82 70.5t21 95.5v113h145v-129q0 -84 -31.5 -139.5t-119.5 -108.5q-42 -25 -63 -39t-51.5 -39.5t-44.5 -48.5t-25 -57.5t-11 -75.5q0 -114 66.5 -169.5t185.5 -55.5q80 0 168 43l55 -119 q-108 -55 -233 -55q-192 0 -297 96t-105 252zM416 891q0 49 34 83t82 34t82.5 -34t34.5 -83q0 -47 -35 -81t-82 -34t-81.5 34t-34.5 81z" />
<glyph unicode="&#xc0;" horiz-adv-x="1284" d="M43 0l522 1364h156l524 -1364h-174l-125 338h-620l-125 -338h-158zM301 1733h223l189 -258h-135zM377 473h518l-172 467q-25 67 -51 142.5t-33 93.5h-4q-41 -122 -84 -236z" />
<glyph unicode="&#xc1;" horiz-adv-x="1284" d="M43 0l522 1364h156l524 -1364h-174l-125 338h-620l-125 -338h-158zM377 473h518l-172 467q-25 67 -51 142.5t-33 93.5h-4q-41 -122 -84 -236zM567 1475l189 258h223l-277 -258h-135z" />
<glyph unicode="&#xc2;" horiz-adv-x="1284" d="M43 0l522 1364h156l524 -1364h-174l-125 338h-620l-125 -338h-158zM332 1477l252 313h110l248 -313h-141l-166 174l-162 -174h-141zM377 473h518l-172 467q-25 67 -51 142.5t-33 93.5h-4q-41 -122 -84 -236z" />
<glyph unicode="&#xc3;" horiz-adv-x="1284" d="M43 0l522 1364h156l524 -1364h-174l-125 338h-620l-125 -338h-158zM340 1571q89 123 192 123q43 0 81 -20t71.5 -40t65.5 -20q54 0 104 63l80 -78q-42 -54 -87.5 -86t-109.5 -32q-51 0 -115 40t-102 40q-13 0 -26 -4.5t-24.5 -14t-19.5 -16.5t-18 -18t-12 -13zM377 473 h518l-172 467q-25 67 -51 142.5t-33 93.5h-4q-41 -122 -84 -236z" />
<glyph unicode="&#xc4;" horiz-adv-x="1284" d="M43 0l522 1364h156l524 -1364h-174l-125 338h-620l-125 -338h-158zM336 1581q0 44 32 76.5t76 32.5q46 0 78.5 -32.5t32.5 -76.5q0 -46 -32.5 -78.5t-78.5 -32.5q-44 0 -76 32.5t-32 78.5zM377 473h518l-172 467q-25 67 -51 142.5t-33 93.5h-4q-41 -122 -84 -236z M719 1581q0 44 32 76.5t76 32.5q46 0 78.5 -32.5t32.5 -76.5q0 -46 -32.5 -78.5t-78.5 -32.5q-44 0 -76 32.5t-32 78.5z" />
<glyph unicode="&#xc5;" horiz-adv-x="1284" d="M43 0l522 1364h156l524 -1364h-174l-125 338h-620l-125 -338h-158zM377 473h518l-172 467q-25 67 -51 142.5t-33 93.5h-4q-41 -122 -84 -236zM442 1634q0 81 58.5 138t136.5 57t136 -57t58 -138t-58 -137.5t-136 -56.5t-136.5 57t-58.5 137zM535 1634q0 -46 28 -79 t74 -33t74 33t28 79q0 47 -28 80t-74 33t-74 -33t-28 -80z" />
<glyph unicode="&#xc6;" horiz-adv-x="1669" d="M-31 0l785 1364h782v-135h-541v-438h475v-136h-475v-520h555v-135h-714v373h-484l-209 -373h-174zM428 506h408v727z" />
<glyph unicode="&#xc7;" horiz-adv-x="1259" d="M109 686q0 139 46 265.5t129.5 224t211 155.5t280.5 58q123 0 212.5 -26t170.5 -77l-80 -121q-131 90 -307 90q-119 0 -215 -46.5t-156.5 -125.5t-92.5 -180t-32 -213q0 -115 31.5 -217t91.5 -184t158 -130t221 -48q198 0 334 116l74 -114q-61 -56 -170.5 -97t-241.5 -41 h-8l-41 -110q64 -9 103.5 -47.5t39.5 -96.5q0 -80 -64 -125t-161 -45q-77 0 -135 25l24 86q40 -22 109 -22q47 0 74.5 20t27.5 59q0 36 -22.5 56t-51.5 24.5t-71 3.5l68 181q-131 19 -237.5 84.5t-175.5 160.5t-106.5 212.5t-37.5 244.5z" />
<glyph unicode="&#xc8;" horiz-adv-x="1030" d="M197 0v1364h700v-135h-541v-438h475v-136h-475v-520h555v-135h-714zM223 1733h223l189 -258h-135z" />
<glyph unicode="&#xc9;" horiz-adv-x="1030" d="M197 0v1364h700v-135h-541v-438h475v-136h-475v-520h555v-135h-714zM489 1475l189 258h223l-276 -258h-136z" />
<glyph unicode="&#xca;" horiz-adv-x="1030" d="M197 0v1364h700v-135h-541v-438h475v-136h-475v-520h555v-135h-714zM254 1477l252 313h110l248 -313h-141l-166 174l-162 -174h-141z" />
<glyph unicode="&#xcb;" horiz-adv-x="1030" d="M197 0v1364h700v-135h-541v-438h475v-136h-475v-520h555v-135h-714zM258 1581q0 44 32.5 76.5t76.5 32.5q45 0 77.5 -32t32.5 -77q0 -46 -32 -78.5t-78 -32.5q-44 0 -76.5 32.5t-32.5 78.5zM641 1581q0 44 32.5 76.5t76.5 32.5q46 0 78 -32t32 -77q0 -46 -32 -78.5 t-78 -32.5q-44 0 -76.5 32.5t-32.5 78.5z" />
<glyph unicode="&#xcc;" horiz-adv-x="577" d="M-47 1733h223l189 -258h-136zM209 0v1364h160v-1364h-160z" />
<glyph unicode="&#xcd;" horiz-adv-x="577" d="M209 0v1364h160v-1364h-160zM219 1475l189 258h223l-277 -258h-135z" />
<glyph unicode="&#xce;" horiz-adv-x="577" d="M-16 1477l252 313h110l248 -313h-141l-166 174l-162 -174h-141zM209 0v1364h160v-1364h-160z" />
<glyph unicode="&#xcf;" horiz-adv-x="577" d="M-12 1581q0 44 32 76.5t76 32.5q46 0 78.5 -32.5t32.5 -76.5q0 -46 -32.5 -78.5t-78.5 -32.5q-44 0 -76 32.5t-32 78.5zM209 0v1364h160v-1364h-160zM371 1581q0 44 32 76.5t76 32.5q46 0 78.5 -32.5t32.5 -76.5q0 -46 -32.5 -78.5t-78.5 -32.5q-44 0 -76 32.5t-32 78.5z " />
<glyph unicode="&#xd0;" horiz-adv-x="1345" d="M53 643v119h144v602h319q197 0 346.5 -48.5t241.5 -137.5t138 -209.5t46 -270.5q0 -151 -46.5 -275.5t-139.5 -220t-245 -149t-351 -53.5h-309v643h-144zM356 131h164q295 0 447.5 143t152.5 420q0 278 -148.5 408.5t-461.5 130.5h-154v-471h228v-119h-228v-512z" />
<glyph unicode="&#xd1;" horiz-adv-x="1456" d="M193 0v1364h157l643 -924q46 -67 127 -200h4q-8 108 -8 184v940h148v-1364h-148l-674 973q-18 26 -37 56.5t-42.5 73t-26.5 46.5h-4q8 -108 8 -150v-999h-147zM430 1571q89 123 193 123q43 0 81 -20t71 -40t65 -20q54 0 104 63l80 -78q-42 -54 -87.5 -86t-109.5 -32 q-51 0 -115 40t-102 40q-13 0 -26 -4.5t-24.5 -14t-19.5 -16.5t-18 -18t-12 -13z" />
<glyph unicode="&#xd2;" horiz-adv-x="1556" d="M109 680q0 141 46 269t129.5 226t211 156t280.5 58t281.5 -57.5t213 -154.5t131 -224.5t46.5 -268.5t-46 -269t-129.5 -226t-211.5 -156t-281 -58t-281 57.5t-212.5 154.5t-131 224.5t-46.5 268.5zM276 684q0 -116 33 -219.5t94.5 -183t157.5 -126t215 -46.5t216 46 t159 124.5t95.5 181.5t33.5 219t-33 219.5t-94.5 183t-157.5 126t-215 46.5t-216 -46t-159 -124.5t-95.5 -181.5t-33.5 -219zM442 1733h224l188 -258h-135z" />
<glyph unicode="&#xd3;" horiz-adv-x="1556" d="M109 680q0 141 46 269t129.5 226t211 156t280.5 58t281.5 -57.5t213 -154.5t131 -224.5t46.5 -268.5t-46 -269t-129.5 -226t-211.5 -156t-281 -58t-281 57.5t-212.5 154.5t-131 224.5t-46.5 268.5zM276 684q0 -116 33 -219.5t94.5 -183t157.5 -126t215 -46.5t216 46 t159 124.5t95.5 181.5t33.5 219t-33 219.5t-94.5 183t-157.5 126t-215 46.5t-216 -46t-159 -124.5t-95.5 -181.5t-33.5 -219zM709 1475l188 258h223l-276 -258h-135z" />
<glyph unicode="&#xd4;" horiz-adv-x="1556" d="M109 680q0 141 46 269t129.5 226t211 156t280.5 58t281.5 -57.5t213 -154.5t131 -224.5t46.5 -268.5t-46 -269t-129.5 -226t-211.5 -156t-281 -58t-281 57.5t-212.5 154.5t-131 224.5t-46.5 268.5zM276 684q0 -116 33 -219.5t94.5 -183t157.5 -126t215 -46.5t216 46 t159 124.5t95.5 181.5t33.5 219t-33 219.5t-94.5 183t-157.5 126t-215 46.5t-216 -46t-159 -124.5t-95.5 -181.5t-33.5 -219zM473 1477l252 313h111l247 -313h-141l-166 174l-162 -174h-141z" />
<glyph unicode="&#xd5;" horiz-adv-x="1556" d="M109 680q0 141 46 269t129.5 226t211 156t280.5 58t281.5 -57.5t213 -154.5t131 -224.5t46.5 -268.5t-46 -269t-129.5 -226t-211.5 -156t-281 -58t-281 57.5t-212.5 154.5t-131 224.5t-46.5 268.5zM276 684q0 -116 33 -219.5t94.5 -183t157.5 -126t215 -46.5t216 46 t159 124.5t95.5 181.5t33.5 219t-33 219.5t-94.5 183t-157.5 126t-215 46.5t-216 -46t-159 -124.5t-95.5 -181.5t-33.5 -219zM481 1571q89 123 193 123q43 0 81 -20t71 -40t65 -20q54 0 104 63l80 -78q-20 -25 -36.5 -42.5t-41 -36.5t-54.5 -29t-64 -10q-51 0 -115 40 t-102 40q-13 0 -26 -4.5t-25 -14t-19.5 -16t-18 -18t-12.5 -13.5z" />
<glyph unicode="&#xd6;" horiz-adv-x="1556" d="M109 680q0 141 46 269t129.5 226t211 156t280.5 58t281.5 -57.5t213 -154.5t131 -224.5t46.5 -268.5t-46 -269t-129.5 -226t-211.5 -156t-281 -58t-281 57.5t-212.5 154.5t-131 224.5t-46.5 268.5zM276 684q0 -116 33 -219.5t94.5 -183t157.5 -126t215 -46.5t216 46 t159 124.5t95.5 181.5t33.5 219t-33 219.5t-94.5 183t-157.5 126t-215 46.5t-216 -46t-159 -124.5t-95.5 -181.5t-33.5 -219zM477 1581q0 44 32.5 76.5t76.5 32.5q46 0 78 -32t32 -77q0 -46 -32 -78.5t-78 -32.5q-44 0 -76.5 32.5t-32.5 78.5zM860 1581q0 44 32.5 76.5 t76.5 32.5q45 0 77.5 -32t32.5 -77q0 -46 -32 -78.5t-78 -32.5q-44 0 -76.5 32.5t-32.5 78.5z" />
<glyph unicode="&#xd7;" horiz-adv-x="1046" d="M156 279l264 264l-264 266l98 98l266 -264l264 264l93 -92l-265 -264l281 -281l-100 -98l-281 279l-264 -265z" />
<glyph unicode="&#xd8;" horiz-adv-x="1556" d="M109 680q0 141 46 269t129.5 226t211 156t280.5 58q214 0 371 -107l131 195l90 -68l-133 -197q102 -98 157.5 -236t55.5 -292q0 -141 -46 -269t-129.5 -226t-211.5 -156t-281 -58q-179 0 -325 78l-127 -186l-88 63l122 185q-122 97 -187.5 245.5t-65.5 319.5zM276 684 q0 -136 43.5 -254.5t126.5 -196.5l623 930q-123 92 -289 92q-119 0 -216 -46t-159 -124.5t-95.5 -181.5t-33.5 -219zM528 172q108 -63 248 -63q119 0 216 46t159 124.5t95.5 181.5t33.5 219q0 250 -133 407z" />
<glyph unicode="&#xd9;" horiz-adv-x="1413" d="M184 510v854h160v-834q0 -213 91 -315t282 -102q179 0 270.5 105.5t91.5 283.5v862h150v-846q0 -258 -128.5 -400.5t-387.5 -142.5q-269 0 -399 142.5t-130 392.5zM371 1733h223l188 -258h-135z" />
<glyph unicode="&#xda;" horiz-adv-x="1413" d="M184 510v854h160v-834q0 -213 91 -315t282 -102q179 0 270.5 105.5t91.5 283.5v862h150v-846q0 -258 -128.5 -400.5t-387.5 -142.5q-269 0 -399 142.5t-130 392.5zM637 1475l188 258h224l-277 -258h-135z" />
<glyph unicode="&#xdb;" horiz-adv-x="1413" d="M184 510v854h160v-834q0 -213 91 -315t282 -102q179 0 270.5 105.5t91.5 283.5v862h150v-846q0 -258 -128.5 -400.5t-387.5 -142.5q-269 0 -399 142.5t-130 392.5zM401 1477l252 313h111l248 -313h-142l-165 174l-162 -174h-142z" />
<glyph unicode="&#xdc;" horiz-adv-x="1413" d="M184 510v854h160v-834q0 -213 91 -315t282 -102q179 0 270.5 105.5t91.5 283.5v862h150v-846q0 -258 -128.5 -400.5t-387.5 -142.5q-269 0 -399 142.5t-130 392.5zM406 1581q0 44 32 76.5t76 32.5q46 0 78.5 -32.5t32.5 -76.5q0 -46 -32.5 -78.5t-78.5 -32.5 q-44 0 -76 32.5t-32 78.5zM788 1581q0 44 32.5 76.5t76.5 32.5q46 0 78.5 -32.5t32.5 -76.5q0 -46 -32.5 -78.5t-78.5 -32.5q-44 0 -76.5 32.5t-32.5 78.5z" />
<glyph unicode="&#xdd;" horiz-adv-x="1136" d="M37 1364h178l365 -696h2l364 696h154l-447 -848v-516h-159v516zM498 1475l188 258h223l-276 -258h-135z" />
<glyph unicode="&#xde;" horiz-adv-x="1085" d="M197 0v1364h159v-236h183q214 0 346.5 -101.5t132.5 -291.5q0 -200 -132 -310t-370 -110h-160v-315h-159zM356 451h160q176 0 257 70t81 208q0 264 -332 264h-166v-542z" />
<glyph unicode="&#xdf;" horiz-adv-x="1120" d="M176 0v1016q0 119 31.5 212.5t87 152t129 88.5t160.5 30q173 0 266.5 -90t93.5 -227q0 -58 -15 -105.5t-45.5 -84.5t-57.5 -60.5t-68 -52.5q-42 -29 -58 -41t-39.5 -33.5t-31.5 -40t-8 -41.5q0 -46 29.5 -71.5t135.5 -84.5q48 -27 74 -43t65.5 -46.5t60 -57.5t36.5 -67.5 t16 -86.5q0 -134 -90 -212.5t-256 -78.5q-151 0 -250 70l64 121q28 -18 46.5 -28t60.5 -22t85 -12q86 0 137.5 37.5t51.5 108.5q0 36 -13 64.5t-42.5 53.5t-58.5 43t-80 46q-10 5 -15 8q-47 26 -75 44.5t-61.5 48.5t-49 67t-15.5 82q0 34 10 65t22.5 52t37.5 46t41.5 37.5 t49.5 36t46 33.5q56 42 82.5 84.5t26.5 107.5q0 93 -52 145t-161 52q-115 0 -184.5 -88.5t-69.5 -265.5v-1012h-150z" />
<glyph unicode="&#xe0;" horiz-adv-x="966" d="M90 240q0 75 32 134.5t83.5 97t121.5 62t140.5 34.5t146.5 10h43v92q0 108 -47 156t-149 48q-136 0 -256 -106l-80 104q145 136 346 136q336 0 336 -326v-459q0 -137 22 -223h-149q-9 40 -14 119q-52 -64 -130 -104t-165 -40q-124 0 -202.5 73t-78.5 192zM135 1364h223 l189 -258h-135zM250 244q0 -69 46 -104.5t99 -35.5q155 0 262 142v221h-43q-364 0 -364 -223z" />
<glyph unicode="&#xe1;" horiz-adv-x="966" d="M90 240q0 75 32 134.5t83.5 97t121.5 62t140.5 34.5t146.5 10h43v92q0 108 -47 156t-149 48q-136 0 -256 -106l-80 104q145 136 346 136q336 0 336 -326v-459q0 -137 22 -223h-149q-9 40 -14 119q-52 -64 -130 -104t-165 -40q-124 0 -202.5 73t-78.5 192zM250 244 q0 -69 46 -104.5t99 -35.5q155 0 262 142v221h-43q-364 0 -364 -223zM401 1106l189 258h223l-276 -258h-136z" />
<glyph unicode="&#xe2;" horiz-adv-x="966" d="M90 240q0 75 32 134.5t83.5 97t121.5 62t140.5 34.5t146.5 10h43v92q0 108 -47 156t-149 48q-136 0 -256 -106l-80 104q145 136 346 136q336 0 336 -326v-459q0 -137 22 -223h-149q-9 40 -14 119q-52 -64 -130 -104t-165 -40q-124 0 -202.5 73t-78.5 192zM166 1108 l252 313h110l248 -313h-141l-166 174l-162 -174h-141zM250 244q0 -69 46 -104.5t99 -35.5q155 0 262 142v221h-43q-364 0 -364 -223z" />
<glyph unicode="&#xe3;" horiz-adv-x="966" d="M90 240q0 75 32 134.5t83.5 97t121.5 62t140.5 34.5t146.5 10h43v92q0 108 -47 156t-149 48q-136 0 -256 -106l-80 104q145 136 346 136q336 0 336 -326v-459q0 -137 22 -223h-149q-9 40 -14 119q-52 -64 -130 -104t-165 -40q-124 0 -202.5 73t-78.5 192zM174 1202 q89 123 193 123q43 0 81 -20t71 -40t65 -20q53 0 104 64l80 -78q-42 -54 -87.5 -86.5t-109.5 -32.5q-51 0 -115 40t-102 40q-13 0 -26 -4.5t-24.5 -14t-19.5 -16.5t-18 -18t-12 -13zM250 244q0 -69 46 -104.5t99 -35.5q155 0 262 142v221h-43q-364 0 -364 -223z" />
<glyph unicode="&#xe4;" horiz-adv-x="966" d="M90 240q0 75 32 134.5t83.5 97t121.5 62t140.5 34.5t146.5 10h43v92q0 108 -47 156t-149 48q-136 0 -256 -106l-80 104q145 136 346 136q336 0 336 -326v-459q0 -137 22 -223h-149q-9 40 -14 119q-52 -64 -130 -104t-165 -40q-124 0 -202.5 73t-78.5 192zM170 1212 q0 44 32.5 76.5t76.5 32.5q45 0 77.5 -32.5t32.5 -76.5q0 -46 -32 -78t-78 -32q-45 0 -77 32t-32 78zM250 244q0 -69 46 -104.5t99 -35.5q155 0 262 142v221h-43q-364 0 -364 -223zM553 1212q0 44 32.5 76.5t76.5 32.5q46 0 78 -32.5t32 -76.5q0 -46 -32 -78t-78 -32 q-44 0 -76.5 32t-32.5 78z" />
<glyph unicode="&#xe5;" horiz-adv-x="966" d="M90 240q0 75 32 134.5t83.5 97t121.5 62t140.5 34.5t146.5 10h43v92q0 108 -47 156t-149 48q-136 0 -256 -106l-80 104q145 136 346 136q336 0 336 -326v-459q0 -137 22 -223h-149q-9 40 -14 119q-52 -64 -130 -104t-165 -40q-124 0 -202.5 73t-78.5 192zM250 244 q0 -69 46 -104.5t99 -35.5q155 0 262 142v221h-43q-364 0 -364 -223zM276 1311q0 80 58.5 137t136.5 57t136.5 -57t58.5 -137q0 -81 -58.5 -138t-136.5 -57t-136.5 57t-58.5 138zM369 1311q0 -46 28 -79.5t74 -33.5t74 33.5t28 79.5q0 47 -28 79.5t-74 32.5t-74 -32.5 t-28 -79.5z" />
<glyph unicode="&#xe6;" horiz-adv-x="1576" d="M90 240q0 75 32 134.5t83.5 97t121.5 62t140.5 34.5t146.5 10h45v92q0 101 -44 152.5t-154 51.5q-130 0 -242 -94q-3 -2 -7 -6l-7 -6l-80 104q26 24 49.5 41.5t67.5 42.5t102.5 38.5t126.5 13.5q225 0 299 -160q60 75 144.5 117.5t183.5 42.5q181 0 284 -121t103 -322 q0 -19 -4 -69h-666q2 -82 19.5 -150t53 -123.5t96 -87t140.5 -31.5q62 0 124.5 19t86.5 32.5t62 37.5l61 -117q-150 -101 -338 -101q-124 0 -219 52t-156 145q-162 -197 -374 -197q-124 0 -202.5 73t-78.5 192zM250 244q0 -69 46 -104.5t99 -35.5q185 0 297 175 q-31 96 -37 188h-41q-364 0 -364 -223zM823 614h508q-2 55 -15.5 100.5t-40.5 83.5t-73.5 59.5t-107.5 21.5q-114 0 -182 -71.5t-89 -193.5z" />
<glyph unicode="&#xe7;" horiz-adv-x="901" d="M82 492q0 122 36.5 221.5t99 163t144 97.5t173.5 34q175 0 301 -99l-72 -112q-49 38 -102 60t-130 22q-145 0 -217.5 -106t-72.5 -277q0 -80 17.5 -149.5t52.5 -124.5t93 -86.5t132 -31.5q136 0 239 82l62 -112q-43 -36 -119.5 -67t-188.5 -32l-41 -110q64 -9 104 -48 t40 -96q0 -80 -64 -125t-161 -45q-78 0 -136 25l25 86q40 -22 109 -22q47 0 74.5 20t27.5 59q0 36 -23 56t-52 24.5t-71 3.5l68 183q-164 34 -256 176t-92 330z" />
<glyph unicode="&#xe8;" horiz-adv-x="1003" d="M82 498q0 219 124 364.5t318 145.5q181 0 284 -120t103 -323q0 -19 -4 -69h-665q2 -82 19.5 -150t53 -123.5t96 -87t140.5 -31.5q48 0 91.5 8.5t82.5 27t54 27t44 26.5l62 -117q-150 -101 -338 -101q-113 0 -202.5 40.5t-146.5 112t-86.5 166t-29.5 204.5zM184 1364h224 l188 -258h-135zM250 614h508q-3 115 -61 190t-177 75q-114 0 -181.5 -71.5t-88.5 -193.5z" />
<glyph unicode="&#xe9;" horiz-adv-x="1003" d="M82 498q0 219 124 364.5t318 145.5q181 0 284 -120t103 -323q0 -19 -4 -69h-665q2 -82 19.5 -150t53 -123.5t96 -87t140.5 -31.5q48 0 91.5 8.5t82.5 27t54 27t44 26.5l62 -117q-150 -101 -338 -101q-113 0 -202.5 40.5t-146.5 112t-86.5 166t-29.5 204.5zM250 614h508 q-3 115 -61 190t-177 75q-114 0 -181.5 -71.5t-88.5 -193.5zM451 1106l188 258h223l-276 -258h-135z" />
<glyph unicode="&#xea;" horiz-adv-x="1003" d="M82 498q0 219 124 364.5t318 145.5q181 0 284 -120t103 -323q0 -19 -4 -69h-665q2 -82 19.5 -150t53 -123.5t96 -87t140.5 -31.5q48 0 91.5 8.5t82.5 27t54 27t44 26.5l62 -117q-150 -101 -338 -101q-113 0 -202.5 40.5t-146.5 112t-86.5 166t-29.5 204.5zM215 1108 l252 313h111l247 -313h-141l-166 174l-162 -174h-141zM250 614h508q-3 115 -61 190t-177 75q-114 0 -181.5 -71.5t-88.5 -193.5z" />
<glyph unicode="&#xeb;" horiz-adv-x="1003" d="M82 498q0 219 124 364.5t318 145.5q181 0 284 -120t103 -323q0 -19 -4 -69h-665q2 -82 19.5 -150t53 -123.5t96 -87t140.5 -31.5q48 0 91.5 8.5t82.5 27t54 27t44 26.5l62 -117q-150 -101 -338 -101q-113 0 -202.5 40.5t-146.5 112t-86.5 166t-29.5 204.5zM219 1212 q0 44 32.5 76.5t76.5 32.5q46 0 78 -32.5t32 -76.5q0 -46 -32 -78t-78 -32q-44 0 -76.5 32t-32.5 78zM250 614h508q-3 115 -61 190t-177 75q-114 0 -181.5 -71.5t-88.5 -193.5zM602 1212q0 44 32.5 76.5t76.5 32.5q45 0 77.5 -32.5t32.5 -76.5q0 -46 -32 -78t-78 -32 q-45 0 -77 32t-32 78z" />
<glyph unicode="&#xec;" horiz-adv-x="512" d="M-80 1364h223l189 -258h-135zM180 0v983h152v-983h-152z" />
<glyph unicode="&#xed;" horiz-adv-x="512" d="M180 0v983h152v-983h-152zM186 1106l189 258h223l-276 -258h-136z" />
<glyph unicode="&#xee;" horiz-adv-x="512" d="M-49 1108l252 313h110l248 -313h-141l-166 174l-162 -174h-141zM180 0v983h152v-983h-152z" />
<glyph unicode="&#xef;" horiz-adv-x="512" d="M-45 1212q0 44 32 76.5t76 32.5q46 0 78.5 -32.5t32.5 -76.5q0 -46 -32.5 -78t-78.5 -32q-44 0 -76 32t-32 78zM180 0v983h152v-983h-152zM338 1212q0 44 32 76.5t76 32.5q46 0 78.5 -32.5t32.5 -76.5q0 -46 -32.5 -78t-78.5 -32q-44 0 -76 32t-32 78z" />
<glyph unicode="&#xf0;" horiz-adv-x="1101" d="M82 489q0 234 125 369t319 135q101 0 181.5 -37t130.5 -104q-52 266 -230 397l-162 -137l-77 90l131 111q-134 61 -320 61l31 125q229 0 403 -88l148 125l78 -90l-121 -103q145 -113 221 -298.5t76 -430.5q0 -104 -18 -197.5t-56.5 -174.5t-94.5 -140t-136 -93t-176 -34 q-192 0 -322.5 141.5t-130.5 372.5zM242 494q0 -182 82 -286t217 -104q150 0 233.5 132.5t83.5 392.5v33q-114 202 -342 202q-127 0 -200.5 -100t-73.5 -270z" />
<glyph unicode="&#xf1;" horiz-adv-x="1085" d="M168 0v983h149v-141q132 166 320 166q147 0 218 -85.5t71 -222.5v-700h-150v672q0 98 -40 149t-134 51q-78 0 -153 -50.5t-132 -129.5v-692h-149zM229 1202q89 123 193 123q43 0 81 -20t71 -40t65 -20q53 0 104 64l80 -78q-27 -35 -49 -57t-62 -42t-85 -20q-51 0 -115 40 t-102 40q-13 0 -26 -4.5t-25 -14t-19.5 -16t-18 -18t-12.5 -13.5z" />
<glyph unicode="&#xf2;" d="M82 489q0 72 14.5 142t48 139t83.5 121.5t128 84.5t174 32t176 -31.5t133 -83.5t90 -119.5t53.5 -138t16.5 -141.5t-15.5 -142t-51.5 -139.5t-88.5 -121t-131.5 -84.5t-175 -32t-174.5 31.5t-129.5 83t-86 119.5t-50 138t-15 142zM205 1364h223l188 -258h-135zM242 494 q0 -169 75.5 -279.5t221.5 -110.5q99 0 168.5 53t101 138t31.5 194q0 108 -34.5 195t-106.5 141t-171 54q-145 0 -215.5 -107t-70.5 -278z" />
<glyph unicode="&#xf3;" d="M82 489q0 72 14.5 142t48 139t83.5 121.5t128 84.5t174 32t176 -31.5t133 -83.5t90 -119.5t53.5 -138t16.5 -141.5t-15.5 -142t-51.5 -139.5t-88.5 -121t-131.5 -84.5t-175 -32t-174.5 31.5t-129.5 83t-86 119.5t-50 138t-15 142zM242 494q0 -169 75.5 -279.5 t221.5 -110.5q99 0 168.5 53t101 138t31.5 194q0 108 -34.5 195t-106.5 141t-171 54q-145 0 -215.5 -107t-70.5 -278zM471 1106l188 258h224l-277 -258h-135z" />
<glyph unicode="&#xf4;" d="M82 489q0 72 14.5 142t48 139t83.5 121.5t128 84.5t174 32t176 -31.5t133 -83.5t90 -119.5t53.5 -138t16.5 -141.5t-15.5 -142t-51.5 -139.5t-88.5 -121t-131.5 -84.5t-175 -32t-174.5 31.5t-129.5 83t-86 119.5t-50 138t-15 142zM236 1108l251 313h111l248 -313h-141 l-166 174l-162 -174h-141zM242 494q0 -169 75.5 -279.5t221.5 -110.5q99 0 168.5 53t101 138t31.5 194q0 108 -34.5 195t-106.5 141t-171 54q-145 0 -215.5 -107t-70.5 -278z" />
<glyph unicode="&#xf5;" d="M82 489q0 72 14.5 142t48 139t83.5 121.5t128 84.5t174 32t176 -31.5t133 -83.5t90 -119.5t53.5 -138t16.5 -141.5t-15.5 -142t-51.5 -139.5t-88.5 -121t-131.5 -84.5t-175 -32t-174.5 31.5t-129.5 83t-86 119.5t-50 138t-15 142zM242 494q0 -169 75.5 -279.5 t221.5 -110.5q99 0 168.5 53t101 138t31.5 194q0 108 -34.5 195t-106.5 141t-171 54q-145 0 -215.5 -107t-70.5 -278zM244 1202q89 123 192 123q43 0 81 -20t71 -40t65 -20q54 0 105 64l80 -78q-42 -54 -87.5 -86.5t-109.5 -32.5q-51 0 -115 40t-102 40q-13 0 -26 -4.5 t-24.5 -14t-19.5 -16.5t-18 -18t-12 -13z" />
<glyph unicode="&#xf6;" d="M82 489q0 72 14.5 142t48 139t83.5 121.5t128 84.5t174 32t176 -31.5t133 -83.5t90 -119.5t53.5 -138t16.5 -141.5t-15.5 -142t-51.5 -139.5t-88.5 -121t-131.5 -84.5t-175 -32t-174.5 31.5t-129.5 83t-86 119.5t-50 138t-15 142zM240 1212q0 44 32 76.5t76 32.5 q46 0 78.5 -32.5t32.5 -76.5q0 -46 -32.5 -78t-78.5 -32q-44 0 -76 32t-32 78zM242 494q0 -169 75.5 -279.5t221.5 -110.5q99 0 168.5 53t101 138t31.5 194q0 108 -34.5 195t-106.5 141t-171 54q-145 0 -215.5 -107t-70.5 -278zM623 1212q0 44 32 76.5t76 32.5 q46 0 78.5 -32.5t32.5 -76.5q0 -46 -32.5 -78t-78.5 -32q-44 0 -76 32t-32 78z" />
<glyph unicode="&#xf7;" horiz-adv-x="1171" d="M74 487v123h1024v-123h-1024zM467 203q0 46 34 78t81 32q46 0 79 -32t33 -78t-33 -78.5t-79 -32.5q-47 0 -81 32.5t-34 78.5zM467 895q0 45 34 78t81 33q46 0 79 -33t33 -78q0 -46 -33 -79.5t-79 -33.5q-47 0 -81 33.5t-34 79.5z" />
<glyph unicode="&#xf8;" d="M82 489q0 72 14.5 142t48 139t83.5 121.5t128 84.5t174 32q132 0 234 -60l119 180l86 -59l-123 -184q75 -75 114 -180.5t39 -210.5q0 -71 -15.5 -142t-51.5 -139.5t-88.5 -121t-131.5 -84.5t-175 -32q-146 0 -252 72l-105 -160l-80 56l113 168q-66 74 -98.5 174.5 t-32.5 203.5zM238 494q0 -156 57 -258l395 600q-73 47 -162 47q-75 0 -131.5 -30.5t-90.5 -85t-51 -123.5t-17 -150zM358 160q75 -62 181 -62q99 0 169.5 54.5t103 141.5t32.5 195q0 171 -80 277z" />
<glyph unicode="&#xf9;" d="M156 283v700h149v-672q0 -98 40.5 -149t135.5 -51q52 0 103 22.5t89 58t58 58t33 41.5v692h149v-776q0 -114 19 -207h-152q-11 68 -14 145q-20 -28 -46 -53.5t-66 -54t-94 -45.5t-114 -17q-148 0 -219 85t-71 223zM207 1364h223l188 -258h-135z" />
<glyph unicode="&#xfa;" d="M156 283v700h149v-672q0 -98 40.5 -149t135.5 -51q52 0 103 22.5t89 58t58 58t33 41.5v692h149v-776q0 -114 19 -207h-152q-11 68 -14 145q-20 -28 -46 -53.5t-66 -54t-94 -45.5t-114 -17q-148 0 -219 85t-71 223zM473 1106l189 258h223l-277 -258h-135z" />
<glyph unicode="&#xfb;" d="M156 283v700h149v-672q0 -98 40.5 -149t135.5 -51q52 0 103 22.5t89 58t58 58t33 41.5v692h149v-776q0 -114 19 -207h-152q-11 68 -14 145q-20 -28 -46 -53.5t-66 -54t-94 -45.5t-114 -17q-148 0 -219 85t-71 223zM238 1108l251 313h111l248 -313h-141l-166 174 l-162 -174h-141z" />
<glyph unicode="&#xfc;" d="M156 283v700h149v-672q0 -98 40.5 -149t135.5 -51q52 0 103 22.5t89 58t58 58t33 41.5v692h149v-776q0 -114 19 -207h-152q-11 68 -14 145q-20 -28 -46 -53.5t-66 -54t-94 -45.5t-114 -17q-148 0 -219 85t-71 223zM242 1212q0 44 32 76.5t76 32.5q46 0 78.5 -32.5 t32.5 -76.5q0 -46 -32.5 -78t-78.5 -32q-44 0 -76 32t-32 78zM625 1212q0 44 32 76.5t76 32.5q46 0 78.5 -32.5t32.5 -76.5q0 -46 -32.5 -78t-78.5 -32q-44 0 -76 32t-32 78z" />
<glyph unicode="&#xfd;" horiz-adv-x="960" d="M23 -465l20 125q42 -6 76 -6q97 0 151 53t97 170l47 129l-371 977h168l281 -784h4l272 784h160l-418 -1114q-24 -63 -44 -106.5t-53.5 -92t-72 -77.5t-96 -48.5t-127.5 -19.5q-49 0 -94 10zM416 1106l188 258h223l-276 -258h-135z" />
<glyph unicode="&#xfe;" horiz-adv-x="1085" d="M168 -449v1924h149v-598q108 131 285 131q182 0 290.5 -136.5t108.5 -377.5q0 -231 -121.5 -375t-312.5 -144q-154 0 -250 86v-510h-149zM317 195q101 -91 236 -91q137 0 213 107t76 278q0 173 -68.5 278t-202.5 105q-68 0 -138.5 -37.5t-115.5 -99.5v-540z" />
<glyph unicode="&#xff;" horiz-adv-x="960" d="M23 -465l20 125q42 -6 76 -6q97 0 151 53t97 170l47 129l-371 977h168l281 -784h4l272 784h160l-418 -1114q-24 -63 -44 -106.5t-53.5 -92t-72 -77.5t-96 -48.5t-127.5 -19.5q-49 0 -94 10zM184 1212q0 44 32.5 76.5t76.5 32.5q45 0 77.5 -32.5t32.5 -76.5q0 -46 -32 -78 t-78 -32q-45 0 -77 32t-32 78zM567 1212q0 44 32.5 76.5t76.5 32.5q46 0 78 -32.5t32 -76.5q0 -46 -32 -78t-78 -32q-44 0 -76.5 32t-32.5 78z" />
<glyph unicode="&#x152;" horiz-adv-x="1812" d="M109 680q0 141 46 269t129.5 226t211 156t280.5 58q105 0 203 -25h700v-135h-540v-438h475v-136h-475v-520h555v-135h-715q-92 -25 -199 -25q-153 0 -281 57.5t-212.5 154.5t-131 224.5t-46.5 268.5zM276 684q0 -116 33 -219.5t94.5 -183t157.5 -126t215 -46.5 q118 0 203 36v1072q-87 38 -199 38q-119 0 -216 -46t-159 -124.5t-95.5 -181.5t-33.5 -219z" />
<glyph unicode="&#x153;" horiz-adv-x="1759" d="M82 489q0 72 14.5 142t48 139t83.5 121.5t128 84.5t174 32q134 0 231 -58.5t154 -158.5q58 104 152 160.5t213 56.5q181 0 284 -121t103 -322q0 -34 -4 -69h-666q1 -82 18.5 -150.5t53 -124t96.5 -86.5t142 -31q48 0 91.5 8.5t82.5 27t54 27t44 26.5l61 -117 q-150 -101 -337 -101q-132 0 -231.5 57.5t-153.5 157.5q-130 -215 -381 -215q-96 0 -174.5 31.5t-129.5 83t-86 119.5t-50 138t-15 142zM242 494q0 -169 75.5 -279.5t221.5 -110.5q99 0 168.5 53t101 138t31.5 194q0 108 -34.5 195t-106.5 141t-171 54q-145 0 -215.5 -107 t-70.5 -278zM1006 614h507q-2 55 -15.5 100.5t-40.5 83.5t-73.5 59.5t-107.5 21.5q-114 0 -181.5 -71.5t-88.5 -193.5z" />
<glyph unicode="&#x178;" horiz-adv-x="1136" d="M37 1364h178l365 -696h2l364 696h154l-447 -848v-516h-159v516zM266 1581q0 44 32.5 76.5t76.5 32.5q45 0 77.5 -32t32.5 -77q0 -46 -32 -78.5t-78 -32.5q-44 0 -76.5 32.5t-32.5 78.5zM649 1581q0 44 32.5 76.5t76.5 32.5q46 0 78 -32t32 -77q0 -46 -32 -78.5t-78 -32.5 q-44 0 -76.5 32.5t-32.5 78.5z" />
<glyph unicode="&#x2c6;" horiz-adv-x="1024" d="M207 1108l252 313h110l248 -313h-141l-166 174l-162 -174h-141z" />
<glyph unicode="&#x2dc;" horiz-adv-x="1024" d="M215 1202q89 123 193 123q43 0 81 -20t71 -40t65 -20q53 0 104 64l80 -78q-42 -54 -87.5 -86.5t-109.5 -32.5q-51 0 -115 40t-102 40q-13 0 -26 -4.5t-24.5 -14t-19.5 -16.5t-18 -18t-12 -13z" />
<glyph unicode="&#x2000;" horiz-adv-x="914" />
<glyph unicode="&#x2001;" horiz-adv-x="1829" />
<glyph unicode="&#x2002;" horiz-adv-x="914" />
<glyph unicode="&#x2003;" horiz-adv-x="1829" />
<glyph unicode="&#x2004;" horiz-adv-x="609" />
<glyph unicode="&#x2005;" horiz-adv-x="457" />
<glyph unicode="&#x2006;" horiz-adv-x="304" />
<glyph unicode="&#x2007;" horiz-adv-x="304" />
<glyph unicode="&#x2008;" horiz-adv-x="228" />
<glyph unicode="&#x2009;" horiz-adv-x="365" />
<glyph unicode="&#x200a;" horiz-adv-x="101" />
<glyph unicode="&#x2010;" horiz-adv-x="632" d="M111 522v131h411v-131h-411z" />
<glyph unicode="&#x2011;" horiz-adv-x="632" d="M111 522v131h411v-131h-411z" />
<glyph unicode="&#x2012;" horiz-adv-x="632" d="M111 522v131h411v-131h-411z" />
<glyph unicode="&#x2013;" horiz-adv-x="1075" d="M111 500v125h854v-125h-854z" />
<glyph unicode="&#x2014;" horiz-adv-x="1703" d="M111 500v125h1482v-125h-1482z" />
<glyph unicode="&#x2018;" horiz-adv-x="452" d="M94 1024q0 104 74 207t160 170l59 -53q-113 -109 -113 -189q0 -33 28 -77t28 -83q0 -47 -32.5 -78.5t-78.5 -31.5q-51 0 -88 36t-37 99z" />
<glyph unicode="&#x2019;" horiz-adv-x="452" d="M66 930q112 108 112 188q0 33 -27.5 77t-27.5 83q0 47 32 79t78 32q51 0 88 -36.5t37 -99.5q0 -104 -73.5 -206.5t-159.5 -169.5z" />
<glyph unicode="&#x201a;" horiz-adv-x="452" d="M66 -233q112 108 112 188q0 33 -27.5 77t-27.5 83q0 47 32 78.5t78 31.5q51 0 88 -36t37 -99q0 -55 -23.5 -114t-61 -108.5t-74.5 -87.5t-74 -67z" />
<glyph unicode="&#x201c;" horiz-adv-x="806" d="M94 1024q0 104 74 207t160 170l59 -53q-113 -109 -113 -189q0 -33 28 -77t28 -83q0 -47 -32.5 -78.5t-78.5 -31.5q-51 0 -88 36t-37 99zM449 1024q0 55 23.5 114t61 108.5t74.5 87.5t74 67l59 -53q-112 -108 -112 -189q0 -33 27.5 -77t27.5 -83q0 -47 -32.5 -78.5 t-78.5 -31.5q-51 0 -87.5 36t-36.5 99z" />
<glyph unicode="&#x201d;" horiz-adv-x="806" d="M66 930q112 108 112 188q0 33 -27.5 77t-27.5 83q0 47 32 79t78 32q51 0 88 -36.5t37 -99.5q0 -104 -73.5 -206.5t-159.5 -169.5zM420 930q112 108 112 188q0 33 -27.5 77t-27.5 83q0 47 32.5 79t78.5 32q51 0 88 -36.5t37 -99.5q0 -55 -23.5 -114t-61 -108.5t-75 -87 t-74.5 -66.5z" />
<glyph unicode="&#x201e;" horiz-adv-x="806" d="M66 -233q112 108 112 188q0 33 -27.5 77t-27.5 83q0 47 32 78.5t78 31.5q51 0 88 -36t37 -99q0 -55 -23.5 -114t-61 -108.5t-74.5 -87.5t-74 -67zM420 -233q112 108 112 188q0 33 -27.5 77t-27.5 83q0 47 32.5 78.5t78.5 31.5q51 0 88 -36t37 -99q0 -104 -74 -207 t-160 -170z" />
<glyph unicode="&#x2022;" horiz-adv-x="741" d="M115 586q0 106 75 181t181 75t181 -75t75 -181t-75 -180t-181 -74t-181 74t-75 180z" />
<glyph unicode="&#x2026;" horiz-adv-x="1271" d="M102 104q0 51 35.5 86t87.5 35q51 0 87 -35t36 -86t-36 -86.5t-87 -35.5q-52 0 -87.5 35.5t-35.5 86.5zM514 104q0 51 35 86t86 35q52 0 87.5 -35t35.5 -86t-35.5 -86.5t-87.5 -35.5q-51 0 -86 35.5t-35 86.5zM924 104q0 51 36 86t87 35t86.5 -35t35.5 -86t-35.5 -86.5 t-86.5 -35.5t-87 35.5t-36 86.5z" />
<glyph unicode="&#x202f;" horiz-adv-x="365" />
<glyph unicode="&#x2039;" horiz-adv-x="610" d="M92 502l273 389h157l-270 -389l270 -387h-157z" />
<glyph unicode="&#x203a;" horiz-adv-x="610" d="M88 115l270 387l-270 389h156l274 -389l-274 -387h-156z" />
<glyph unicode="&#x205f;" horiz-adv-x="457" />
<glyph unicode="&#x20ac;" horiz-adv-x="1193" d="M80 461v121h143q-4 33 -4 104q0 42 2 62h-141v120h153q42 249 195.5 385t368.5 136q116 0 186.5 -21.5t132.5 -60.5l-69 -125q-36 21 -57 32t-78 26t-119 15q-144 0 -250 -99.5t-142 -287.5h365v-120h-381v-58q0 -42 4 -108h377v-121h-356q44 -175 149 -262.5t242 -87.5 q143 0 258 79l74 -114q-47 -30 -76.5 -46.5t-102 -35.5t-157.5 -19q-201 0 -352 126t-203 360h-162z" />
<glyph unicode="&#x2122;" horiz-adv-x="1462" d="M88 1272v92h453v-92h-172v-504h-111v504h-170zM614 768l64 596h123l137 -350q26 -65 39 -115h4q15 59 39 117l137 348h125l66 -596h-109l-33 338q-8 90 -8 129h-4q-14 -70 -43 -143l-131 -324h-94l-121 307q-15 38 -49 160h-4q0 -8 -1.5 -26.5t-3.5 -51t-4 -55.5 l-28 -334h-101z" />
<glyph unicode="&#x25fc;" horiz-adv-x="983" d="M0 0v983h983v-983h-983z" />
<glyph unicode="&#xfb01;" horiz-adv-x="1099" d="M41 864v119h164v139q0 170 101.5 273.5t283.5 103.5q78 0 144 -16.5t98.5 -33.5t72.5 -44l-76 -119q-117 82 -245 82q-111 0 -170.5 -66.5t-59.5 -193.5v-125h566v-983h-150v864h-416v-864h-149v864h-164z" />
<glyph unicode="&#xfb02;" horiz-adv-x="1110" d="M41 864v119h164v147q0 177 104 273t279 96q188 0 350 -49v-1450h-150v1341q-84 27 -208 27q-226 0 -226 -258v-127h232v-119h-232v-864h-149v864h-164z" />
<glyph unicode="&#xfb03;" horiz-adv-x="1636" d="M41 864v119h172v127q0 169 101 272t278 103q160 0 272 -82q104 96 277 96q78 0 144 -16.5t98.5 -33.5t72.5 -44l-76 -119q-117 82 -245 82q-111 0 -170.5 -66.5t-59.5 -193.5v-125h551v-983h-149v864h-402v-864h-149v864h-394v-864h-149v864h-172zM362 983h394v139 q0 90 30 164q-84 68 -198 68q-226 0 -226 -285v-86z" />
<glyph unicode="&#xfb04;" horiz-adv-x="1660" d="M41 864v119h172v127q0 169 101 272t278 103q159 0 268 -80q108 94 279 94q188 0 350 -49v-1450h-150v1341q-84 27 -209 27q-225 0 -225 -258v-127h252v-119h-252v-864h-149v864h-394v-864h-149v864h-172zM362 983h394v147q0 85 26 158q-71 66 -194 66q-226 0 -226 -285 v-86z" />
</font>
</defs>
</svg>
