<?xml version="1.0" standalone="no"?>
<!DOCTYPE svg PUBLIC "-//W3C//DTD SVG 1.1//EN" "http://www.w3.org/Graphics/SVG/1.1/DTD/svg11.dtd" >
<svg xmlns="http://www.w3.org/2000/svg">
<metadata></metadata>
<defs>
<font id="kievit_otbold_italic" horiz-adv-x="1069" >
<font-face units-per-em="2048" ascent="1556" descent="-492" />
<missing-glyph horiz-adv-x="450" />
<glyph horiz-adv-x="0" />
<glyph horiz-adv-x="0" />
<glyph horiz-adv-x="682" />
<glyph unicode="&#xd;" horiz-adv-x="450" />
<glyph unicode=" "  horiz-adv-x="450" />
<glyph unicode="&#x09;" horiz-adv-x="450" />
<glyph unicode="&#xa0;" horiz-adv-x="450" />
<glyph unicode="!" horiz-adv-x="581" d="M61 150q0 67 49 115t123 48q72 0 121 -48t49 -115q0 -70 -48.5 -119t-121.5 -49q-74 0 -123 49t-49 119zM172 461l111 903h313l-219 -903h-205z" />
<glyph unicode="&#x22;" horiz-adv-x="806" d="M225 864l19 500h260l-107 -500h-172zM549 864l53 500h264l-141 -500h-176z" />
<glyph unicode="#" horiz-adv-x="1052" d="M55 436l56 197h170l51 172h-178l53 196h178l74 248h184l-72 -248h160l72 248h186l-71 -248h157l-51 -196h-160l-51 -172h170l-55 -197h-168l-74 -256h-184l71 256h-159l-74 -256h-186l73 256h-172zM459 627h172l53 182h-170z" />
<glyph unicode="$" horiz-adv-x="899" d="M-10 80l119 192q117 -94 253 -94q179 0 179 94q0 34 -31 58t-105.5 58.5t-121.5 64.5q-82 47 -124 106.5t-42 147.5q0 121 84 202t221 105l39 213h225l-39 -211q127 -15 209 -70l-117 -190q-93 63 -221 63q-72 0 -112.5 -22.5t-40.5 -63.5q0 -18 11 -34t37 -32.5t48 -28 t65.5 -31.5t67.5 -32q97 -49 150 -110.5t53 -157.5q0 -135 -89.5 -217.5t-240.5 -105.5l-43 -236h-223l41 234q-156 23 -252 98z" />
<glyph unicode="%" horiz-adv-x="1734" d="M74 655q0 96 45 179t134.5 135.5t205.5 52.5q146 0 224.5 -74t78.5 -194q0 -153 -107.5 -262t-279.5 -109q-142 0 -221.5 77t-79.5 195zM301 666q0 -55 24.5 -86t69.5 -31q65 0 102.5 56.5t37.5 139.5q0 52 -24 81.5t-69 29.5q-65 0 -103 -54.5t-38 -135.5zM375 0 l766 999h221l-766 -999h-221zM973 246q0 151 107 259.5t278 108.5q146 0 223.5 -75t77.5 -195q0 -154 -105.5 -261.5t-279.5 -107.5q-142 0 -221.5 76.5t-79.5 194.5zM1198 258q0 -56 24.5 -86.5t69.5 -30.5q65 0 102.5 56.5t37.5 138.5q0 53 -24 83t-69 30q-65 0 -103 -55 t-38 -136z" />
<glyph unicode="&#x26;" horiz-adv-x="1458" d="M53 362q0 185 79 338t211 238.5t286 85.5q138 0 215.5 -65t77.5 -181q0 -169 -228 -280l158 -195q72 51 121 100q103 100 161 227t58 253q0 158 -100.5 242.5t-325.5 115.5l43 227q315 -31 478 -176.5t163 -394.5q0 -184 -99 -366.5t-268 -315.5q-39 -36 -104 -84 q60 -70 101.5 -95.5t97.5 -25.5q52 0 125 35l65 -180q-94 -53 -213 -53q-111 0 -196.5 51t-188.5 170q-147 -58 -303 -58q-202 0 -308 104t-106 283zM317 385q0 -195 189 -195q61 0 137 27l-203 252l41 123q90 20 141.5 62t51.5 94q0 71 -92 71q-72 0 -133.5 -61t-96.5 -161 t-35 -212z" />
<glyph unicode="'" horiz-adv-x="452" d="M201 864l41 500h272l-139 -500h-174z" />
<glyph unicode="(" horiz-adv-x="675" d="M66 358q0 166 40 326.5t97.5 277.5t135 225.5t138 172t121.5 115.5h260q-62 -58 -120.5 -125t-132.5 -176.5t-127.5 -226t-90.5 -272t-37 -315.5q0 -232 52.5 -399.5t136.5 -304.5h-244q-229 307 -229 702z" />
<glyph unicode=")" horiz-adv-x="679" d="M-162 -344q516 526 516 1143q0 124 -19 237t-50.5 196.5t-61.5 141t-63 101.5h248q37 -43 73 -101t74 -142.5t61 -197t23 -233.5q0 -635 -535 -1145h-266z" />
<glyph unicode="*" horiz-adv-x="960" d="M156 995l98 193l233 -92l27 268h227l-61 -268l254 96l49 -207l-285 -63l152 -224l-195 -112l-110 241l-191 -241l-168 129l224 213z" />
<glyph unicode="+" horiz-adv-x="1122" d="M88 432l37 209h342l61 352h228l-62 -352h342l-37 -209h-342l-63 -362h-227l63 362h-342z" />
<glyph unicode="," horiz-adv-x="577" d="M18 -244q57 57 86 100.5t29 94.5q0 35 -18.5 67.5t-37 67.5t-18.5 78q0 70 49.5 116t120.5 46q78 0 127.5 -54.5t49.5 -142.5q0 -119 -80.5 -242t-200.5 -225z" />
<glyph unicode="-" horiz-adv-x="659" d="M94 467l37 221h463l-39 -221h-461z" />
<glyph unicode="." horiz-adv-x="550" d="M41 154q0 70 52 120t126 50q73 0 124.5 -49.5t51.5 -120.5q0 -73 -51 -123.5t-125 -50.5t-126 50.5t-52 123.5z" />
<glyph unicode="/" horiz-adv-x="921" d="M4 0l719 1364h268l-719 -1364h-268z" />
<glyph unicode="0" horiz-adv-x="1140" d="M70 408q0 169 76 310t211.5 223.5t301.5 82.5q200 0 310 -121.5t110 -310.5q0 -175 -73 -315.5t-207 -221t-305 -80.5q-129 0 -227 59.5t-147.5 157t-49.5 216.5zM346 416q0 -236 174 -236q88 0 155.5 61.5t100.5 154.5t33 198q0 225 -174 225q-83 0 -150.5 -58.5 t-103 -150.5t-35.5 -194z" />
<glyph unicode="1" horiz-adv-x="737" d="M96 905l383 92h197l-178 -997h-267l136 758l-226 -64z" />
<glyph unicode="2" horiz-adv-x="1009" d="M-14 0l20 127q77 49 120.5 77t111 73t106.5 75t90 70.5t80 72t57 67.5t40 69t12 65q0 53 -38 81t-110 28q-116 0 -231 -86l-109 176q176 129 397 129q182 0 280.5 -71.5t98.5 -204.5q0 -66 -28.5 -131.5t-71.5 -118.5t-109 -108t-126 -95.5t-136 -85.5q108 8 144 8h323 l-37 -217h-884z" />
<glyph unicode="3" horiz-adv-x="919" d="M-68 -358l62 208q77 -20 162 -20q154 0 250 65.5t96 184.5q0 185 -312 182l33 193q90 2 168 28.5t130 79.5t52 121q0 58 -39 89.5t-114 31.5q-44 0 -85 -11.5t-65 -24t-59 -34.5l-111 174q166 115 385 115q176 0 271.5 -80.5t95.5 -204.5q0 -73 -30 -135.5t-80.5 -105.5 t-104.5 -71.5t-113 -45.5v-2q112 -20 189.5 -97.5t77.5 -197.5q0 -143 -82.5 -250t-227.5 -163t-331 -56q-113 0 -218 27z" />
<glyph unicode="4" horiz-adv-x="1173" d="M-33 0l27 170l788 827h242l-143 -790h206l-34 -207h-209l-66 -362h-266l66 362h-611zM287 207h327l91 457h-5z" />
<glyph unicode="5" horiz-adv-x="903" d="M-78 -356l66 213q54 -27 170 -27q148 0 239.5 68.5t91.5 199.5q0 130 -114 189q-98 48 -279 41l133 669h666l-37 -209h-420l-55 -268q183 -21 291 -125t108 -272q0 -124 -48.5 -222t-134.5 -160t-200.5 -94t-251.5 -32q-120 0 -225 29z" />
<glyph unicode="6" horiz-adv-x="1101" d="M82 477q0 123 31.5 239t90.5 217t147 185t197 144t245 93.5t286 33.5l25 -218q-135 0 -265 -36t-221 -103q-159 -115 -219 -295q118 94 279 94q164 0 262 -94t98 -258q0 -150 -72.5 -266.5t-190 -177t-255.5 -60.5q-217 0 -327.5 136t-110.5 366zM356 444 q0 -129 47 -195.5t134 -66.5q98 0 163.5 77.5t65.5 197.5q0 84 -46 128t-130 44q-134 0 -230 -84q-4 -74 -4 -101z" />
<glyph unicode="7" horiz-adv-x="964" d="M-20 -281l651 1055h-553l41 223h860l-25 -147l-764 -1249z" />
<glyph unicode="8" horiz-adv-x="1064" d="M37 299q0 95 43.5 172.5t112.5 130.5t172 100q-172 130 -172 297q0 116 64.5 206t172 137t236.5 47q182 0 288.5 -86.5t106.5 -221.5q0 -117 -74 -202.5t-223 -157.5q102 -65 157.5 -142.5t55.5 -179.5q0 -133 -71.5 -230.5t-187.5 -145.5t-259 -48q-202 0 -312 91.5 t-110 232.5zM309 328q0 -67 44 -107.5t122 -40.5q95 0 157 55t62 140q0 59 -40.5 109.5t-127.5 105.5q-107 -55 -162 -117t-55 -145zM467 1020q0 -104 133 -193q186 102 186 230q0 57 -36.5 94t-106.5 37q-77 0 -126.5 -46.5t-49.5 -121.5z" />
<glyph unicode="9" horiz-adv-x="1097" d="M-2 -160q128 0 259.5 34.5t221.5 94.5q159 108 219 283q-113 -80 -247 -80q-171 0 -273 96.5t-102 255.5q0 117 45 214t120 158t168 94.5t193 33.5q113 0 197.5 -35t134.5 -98.5t74 -145t24 -182.5q0 -210 -70 -384.5t-199 -296.5t-318 -189.5t-420 -67.5zM356 557 q0 -87 44.5 -135.5t127.5 -48.5q116 0 217 76q11 79 11 129q0 241 -174 241q-93 0 -159.5 -71.5t-66.5 -190.5z" />
<glyph unicode=":" horiz-adv-x="550" d="M41 154q0 70 52 120t126 50q73 0 124.5 -49.5t51.5 -120.5q0 -73 -51 -123.5t-125 -50.5t-126 50.5t-52 123.5zM160 838q0 70 52 120t126 50q73 0 124.5 -49.5t51.5 -120.5q0 -73 -51 -123.5t-125 -50.5t-126 50.5t-52 123.5z" />
<glyph unicode=";" horiz-adv-x="577" d="M18 -244q57 57 86 100.5t29 94.5q0 35 -18.5 67.5t-37 67.5t-18.5 78q0 70 49.5 116t120.5 46q78 0 127.5 -54.5t49.5 -142.5q0 -119 -80.5 -242t-200.5 -225zM176 838q0 71 51.5 120.5t126.5 49.5q72 0 124 -50t52 -120q0 -73 -51.5 -123.5t-124.5 -50.5 q-75 0 -126.5 50.5t-51.5 123.5z" />
<glyph unicode="&#x3c;" horiz-adv-x="825" d="M72 510l579 469l127 -162l-399 -319l297 -312l-154 -145z" />
<glyph unicode="=" horiz-adv-x="1032" d="M66 244l36 209h811l-36 -209h-811zM135 627l35 209h811l-37 -209h-809z" />
<glyph unicode="&#x3e;" horiz-adv-x="825" d="M45 205l401 321l-296 308l153 143l451 -467l-580 -469z" />
<glyph unicode="?" horiz-adv-x="831" d="M80 150q0 67 49 115t123 48t123 -48t49 -115q0 -70 -49 -119t-123 -49t-123 49t-49 119zM168 1321q136 68 313 68q189 0 289 -88.5t100 -219.5q0 -60 -18 -113t-43.5 -89t-67.5 -72t-75 -57t-82 -48q-69 -37 -100.5 -71t-41.5 -92l-14 -82h-231l18 108q17 97 54 149 t118 101q102 61 128 83q67 57 67 140q0 59 -41 93t-119 34q-74 0 -168 -43z" />
<glyph unicode="@" horiz-adv-x="1603" d="M82 494q0 150 57.5 294.5t157.5 256.5t245.5 180.5t309.5 68.5q171 0 309 -53t225 -142.5t133 -204t46 -241.5q0 -217 -114 -353t-298 -136q-200 0 -217 176h-6q-40 -70 -107 -121t-159 -51q-95 0 -152 70.5t-57 173.5q0 148 51 271t151 199t232 76q149 0 299 -55 l-58 -342q-16 -90 -16 -133q0 -41 19.5 -65.5t54.5 -24.5q82 0 140 83t58 218q0 230 -144 357.5t-392 127.5q-113 0 -216.5 -47t-181 -128.5t-123.5 -198.5t-46 -250q0 -250 137 -389.5t395 -139.5q158 0 295 60l66 -162q-67 -27 -172 -48.5t-211 -21.5q-162 0 -296 52.5 t-225 144.5t-140.5 220t-49.5 278zM678 453q0 -101 67 -101q146 0 220 371l12 57q-43 17 -96 17q-62 0 -109 -49.5t-70.5 -126.5t-23.5 -168z" />
<glyph unicode="A" horiz-adv-x="1351" d="M-59 0l757 1364h275l258 -1364h-299l-39 256h-524l-136 -256h-292zM485 487h373l-51 332q-11 69 -29 244h-4q-48 -124 -112 -244z" />
<glyph unicode="B" horiz-adv-x="1220" d="M80 0l244 1364h434q187 0 299 -78t112 -233q0 -142 -77 -230.5t-213 -122.5v-4q108 -20 173.5 -87t65.5 -179q0 -215 -156 -322.5t-425 -107.5h-457zM399 219h160q277 0 277 213q0 80 -53 123t-156 43h-160zM502 801h153q116 0 175 54t59 146q0 146 -187 146h-139z" />
<glyph unicode="C" horiz-adv-x="1253" d="M102 555q0 167 59 319.5t163.5 266t257 181t329.5 67.5q260 0 396 -101l-140 -213q-104 74 -272 74q-142 0 -255.5 -77.5t-175 -209.5t-61.5 -293q0 -163 78 -258.5t232 -95.5q95 0 169 32t144 87l115 -207q-68 -61 -189 -106.5t-266 -45.5q-148 0 -262 45.5t-183 126 t-104 183.5t-35 225z" />
<glyph unicode="D" horiz-adv-x="1415" d="M78 0l241 1364h400q325 0 492 -145t167 -398q0 -133 -34 -253.5t-104.5 -224.5t-172 -180t-245 -119.5t-314.5 -43.5h-430zM403 231h158q166 0 284 75t175 204.5t57 300.5q0 164 -90.5 243t-281.5 79h-142z" />
<glyph unicode="E" d="M78 0l241 1364h773l-43 -238h-490l-55 -307h432l-41 -225h-430l-66 -356h506l-43 -238h-784z" />
<glyph unicode="F" horiz-adv-x="1038" d="M80 0l244 1364h768l-41 -238h-486l-61 -333h428l-41 -226h-426l-100 -567h-285z" />
<glyph unicode="G" horiz-adv-x="1433" d="M104 563q0 168 63.5 320t172.5 263.5t265 177t333 65.5q275 0 440 -109l-149 -219q-53 38 -135 63t-181 25q-231 0 -369 -163t-138 -419q0 -166 85 -262t254 -96q24 0 47.5 2t41.5 4.5t37 7t31.5 8t27.5 9.5t21 8.5t17.5 8t12.5 5.5l47 273h-250l39 223h522l-114 -649 q-43 -29 -96.5 -54.5t-163.5 -52.5t-230 -27q-126 0 -230.5 30.5t-178 84t-124 127.5t-74.5 161t-24 185z" />
<glyph unicode="H" horiz-adv-x="1499" d="M78 0l241 1364h283l-94 -537h600l94 537h283l-244 -1364h-283l107 590h-598l-107 -590h-282z" />
<glyph unicode="I" horiz-adv-x="641" d="M88 0l244 1364h284l-243 -1364h-285z" />
<glyph unicode="J" horiz-adv-x="643" d="M-264 -383l88 233q36 -18 94 -18q82 0 125 45.5t63 157.5l238 1329h285l-246 -1368q-72 -414 -455 -414q-111 0 -192 35z" />
<glyph unicode="K" horiz-adv-x="1275" d="M80 0l244 1364h282l-106 -598l553 598h321l-608 -649l397 -715h-311l-369 670l-118 -670h-285z" />
<glyph unicode="L" horiz-adv-x="1013" d="M78 0l244 1364h284l-200 -1131h495l-39 -233h-784z" />
<glyph unicode="M" horiz-adv-x="1789" d="M8 0l426 1364h268l117 -868q6 -50 12 -124.5t7 -86.5h4q2 4 21 47t38.5 85t38.5 79l438 868h277l-62 -1364h-282l45 715q10 157 18 205h-4q-63 -144 -86 -193l-362 -727h-271l-92 721q-5 39 -9.5 82.5t-7.5 79.5t-3 37h-4q-9 -52 -54 -205l-213 -715h-260z" />
<glyph unicode="N" horiz-adv-x="1484" d="M74 0l243 1364h279l360 -727q84 -173 97 -231h4q8 103 30 227l130 731h258l-244 -1364h-254l-383 770q-58 114 -92 219h-4q-6 -71 -29 -211l-139 -778h-256z" />
<glyph unicode="O" horiz-adv-x="1538" d="M106 571q0 125 36 245.5t106 223.5t164.5 181.5t220.5 123t266 44.5q145 0 261 -46.5t188.5 -128t110.5 -187.5t38 -228q0 -159 -56 -307t-155 -263t-249 -184.5t-326 -69.5q-143 0 -259 47.5t-191 129t-115 189.5t-40 230zM406 575q0 -162 83.5 -264t239.5 -102 q110 0 200.5 50t148 133.5t89 187.5t31.5 215q0 160 -80 260t-239 100q-89 0 -166 -32t-132.5 -87.5t-95.5 -129.5t-59.5 -158.5t-19.5 -172.5z" />
<glyph unicode="P" horiz-adv-x="1193" d="M78 0l241 1364h429q205 0 330.5 -96t125.5 -269q0 -252 -167 -383t-451 -131h-140l-86 -485h-282zM487 705h131q148 0 221.5 70t73.5 194q0 86 -51 130t-162 44h-135z" />
<glyph unicode="Q" horiz-adv-x="1540" d="M106 571q0 125 36 245.5t106 223.5t164.5 181.5t220.5 123t266 44.5q145 0 261 -46.5t188.5 -128t110.5 -187.5t38 -228q0 -145 -47.5 -283t-132.5 -249.5t-213.5 -186.5t-280.5 -94q43 -71 99.5 -101t136.5 -30q110 0 201 59l75 -190q-132 -82 -309 -82 q-175 0 -306.5 83.5t-240.5 286.5q-179 62 -276 212.5t-97 346.5zM406 575q0 -163 83 -267.5t238 -104.5q110 0 201.5 51t149 135.5t89 189t31.5 216.5q0 160 -80 260t-239 100q-89 0 -166 -32t-132.5 -87.5t-95.5 -129.5t-59.5 -158.5t-19.5 -172.5z" />
<glyph unicode="R" horiz-adv-x="1263" d="M80 0l244 1364h438q211 0 323.5 -88t112.5 -250q0 -184 -104 -289t-281 -135v-4q63 -50 137 -211l187 -387h-303l-181 391q-53 108 -82 139t-82 31h-24l-100 -561h-285zM500 766h164q122 0 184.5 60.5t62.5 164.5q0 78 -46.5 115t-145.5 37h-150z" />
<glyph unicode="S" horiz-adv-x="1005" d="M-23 127l156 195q24 -21 44 -35t57 -35t85 -32t103 -11q104 0 154.5 41t50.5 110q0 14 -2.5 26.5t-5 23t-10.5 23t-13 20.5t-19 22l-21.5 21.5t-28 24t-31 25t-37.5 30t-41 32.5q-47 38 -75 63t-65 66.5t-57.5 78.5t-35.5 88.5t-15 107.5q0 181 127 279t330 98 q74 0 136.5 -11t108 -31t71 -36t52.5 -37l-135 -201q-112 88 -242 88q-86 0 -129 -35.5t-43 -101.5q0 -24 8.5 -46.5t17 -37t37.5 -41.5t43 -38.5t62 -48.5q12 -10 19 -15q116 -89 159 -135q117 -122 117 -281q0 -183 -128.5 -294.5t-368.5 -111.5q-266 0 -435 152z" />
<glyph unicode="T" horiz-adv-x="1089" d="M145 1126l41 238h1020l-41 -238h-362l-201 -1126h-285l201 1126h-373z" />
<glyph unicode="U" horiz-adv-x="1433" d="M154 406q0 64 12 137l143 821h285l-143 -811q-13 -73 -13 -119q0 -115 60.5 -168t189.5 -53q149 0 225 78.5t109 251.5l145 821h260l-147 -840q-50 -280 -197.5 -414.5t-416.5 -134.5q-256 0 -384 112.5t-128 318.5z" />
<glyph unicode="V" horiz-adv-x="1325" d="M178 1364h295l139 -817q23 -134 31 -236h4q41 111 105 236l407 817h291l-727 -1364h-266z" />
<glyph unicode="W" horiz-adv-x="1832" d="M184 1364h287l45 -698q10 -141 10 -273h4q39 108 111 281l289 690h278l58 -705q4 -53 7 -110t5 -102.5t2 -53.5h4q38 110 98 260l285 711h285l-602 -1364h-267l-57 745q-4 52 -14 287h-4q-36 -101 -117 -287l-326 -745h-260z" />
<glyph unicode="X" horiz-adv-x="1243" d="M-43 0l547 705l-287 659h303l180 -444l312 444h299l-506 -664l307 -700h-303l-199 489l-350 -489h-303z" />
<glyph unicode="Y" horiz-adv-x="1214" d="M180 1364h295l189 -590h2l376 590h293l-575 -850l-92 -514h-285l94 514z" />
<glyph unicode="Z" horiz-adv-x="1116" d="M-18 0l34 188l762 945h-569l43 231h928l-33 -184l-768 -949h618l-41 -231h-974z" />
<glyph unicode="[" horiz-adv-x="686" d="M-12 -330l315 1805h502l-37 -203h-246l-246 -1399h248l-37 -203h-499z" />
<glyph unicode="\" horiz-adv-x="876" d="M164 1475h248l325 -1805h-248z" />
<glyph unicode="]" horiz-adv-x="686" d="M-92 -330l35 203h245l246 1399h-248l37 203h502l-315 -1805h-502z" />
<glyph unicode="^" horiz-adv-x="1200" d="M115 590l540 774h185l268 -774h-238l-159 500l-340 -500h-256z" />
<glyph unicode="_" horiz-adv-x="866" d="M-158 -377l37 211h875l-39 -211h-873z" />
<glyph unicode="`" horiz-adv-x="1024" d="M305 1384h336l121 -276h-227z" />
<glyph unicode="a" d="M53 303q0 211 79.5 375.5t222.5 255t327 90.5q214 0 348 -57l-84 -455q-58 -324 -63 -512h-262q12 156 32 242h-4q-67 -125 -146.5 -196t-191.5 -71q-117 0 -187.5 88t-70.5 240zM330 348q0 -143 92 -143q87 0 172.5 143.5t134.5 409.5l8 53q-40 12 -96 12 q-127 0 -219 -134.5t-92 -340.5z" />
<glyph unicode="b" horiz-adv-x="1083" d="M33 27l262 1448h264l-88 -480q-14 -80 -51 -227h4q35 59 67 100.5t74.5 79.5t94 57t112.5 19q121 0 190.5 -91.5t69.5 -246.5q0 -322 -173 -516.5t-456 -194.5q-218 0 -370 52zM328 188q48 -12 104 -12q135 0 226.5 127t91.5 340q0 70 -22.5 110t-68.5 40 q-92 0 -178 -142t-143 -409z" />
<glyph unicode="c" horiz-adv-x="878" d="M45 375q0 143 48.5 266t130 206t190 130t227.5 47q162 0 258 -63l-106 -201q-68 45 -164 45q-127 0 -220.5 -110.5t-93.5 -288.5q0 -211 164 -211q101 0 197 86l104 -179q-56 -50 -144.5 -88.5t-197.5 -38.5q-186 0 -289.5 108t-103.5 292z" />
<glyph unicode="d" horiz-adv-x="1075" d="M51 313q0 157 45.5 290.5t125.5 225.5t192 143.5t241 51.5q81 0 131 -12l84 463h267l-176 -963q-64 -358 -64 -512h-264q19 181 33 244h-4q-69 -125 -151 -197t-194 -72q-123 0 -194.5 92t-71.5 246zM328 358q0 -153 90 -153q93 0 183 142.5t140 410.5l9 55 q-36 12 -107 12q-132 0 -223.5 -129.5t-91.5 -337.5z" />
<glyph unicode="e" horiz-adv-x="946" d="M47 375q0 137 45 258t122 206.5t183 135t224 49.5q143 0 224 -68t81 -190q0 -88 -48 -158.5t-134 -116.5t-192.5 -74.5t-236.5 -43.5q5 -91 41.5 -137t116.5 -46q129 0 254 105l104 -176q-175 -144 -401 -144q-184 0 -283.5 109t-99.5 291zM330 543q156 15 248 65.5 t92 126.5q0 82 -95 82q-89 0 -153 -78t-92 -196z" />
<glyph unicode="f" horiz-adv-x="724" d="M-260 -438l72 205q59 -23 108 -23q138 0 172 199l158 856h-172l35 198h172l20 111q37 198 138.5 292.5t289.5 94.5q153 0 258 -63l-106 -199q-63 45 -150 45q-135 0 -164 -166l-20 -115h225l-33 -198h-231l-152 -840q-20 -112 -49 -186.5t-80 -131.5t-129.5 -83.5 t-191.5 -26.5q-87 0 -170 31z" />
<glyph unicode="g" d="M-25 -354l119 200q127 -92 254 -92q116 0 175 59.5t83 190.5l10 49q16 88 43 180h-4q-33 -56 -64.5 -96.5t-72.5 -77.5t-92 -56t-109 -19q-121 0 -193.5 90.5t-72.5 238.5q0 320 171.5 515.5t453.5 195.5q210 0 371 -47l-177 -959q-46 -263 -163.5 -375t-360.5 -112 q-200 0 -371 115zM328 358q0 -153 90 -153q95 0 183.5 140.5t139.5 412.5l9 55q-36 12 -107 12q-132 0 -223.5 -129.5t-91.5 -337.5z" />
<glyph unicode="h" horiz-adv-x="1085" d="M33 0l268 1475h264l-86 -476q-12 -68 -49 -223h4q25 39 44.5 66.5t54.5 65t69.5 60t85 39.5t105.5 17q106 0 162.5 -65.5t56.5 -188.5q0 -52 -13 -125l-116 -645h-265l111 633q6 41 6 67q0 47 -17.5 69t-55.5 22q-34 0 -68 -19t-73 -69.5t-74.5 -128t-71.5 -204 t-64 -288.5l-14 -82h-264z" />
<glyph unicode="i" horiz-adv-x="532" d="M43 0l182 997h264l-180 -997h-266zM242 1294q0 64 45.5 110t113.5 46q69 0 115.5 -46t46.5 -110q0 -65 -46 -111t-116 -46q-68 0 -113.5 46t-45.5 111z" />
<glyph unicode="j" horiz-adv-x="520" d="M-309 -436l82 209q38 -19 90 -19q76 0 111.5 48.5t58.5 168.5l186 1026h264l-184 -1042q-35 -203 -133.5 -313.5t-286.5 -110.5q-103 0 -188 33zM236 1294q0 64 45.5 110t113.5 46q69 0 114.5 -46t45.5 -110q0 -66 -45.5 -111.5t-114.5 -45.5q-68 0 -113.5 46t-45.5 111z " />
<glyph unicode="k" horiz-adv-x="1009" d="M31 0l258 1475h268l-154 -879l371 401h303l-428 -450l258 -547h-280l-238 506l-88 -506h-270z" />
<glyph unicode="l" horiz-adv-x="534" d="M43 0l266 1475h264l-266 -1475h-264z" />
<glyph unicode="m" horiz-adv-x="1642" d="M33 0l180 997h256q-6 -81 -43 -227h4q31 52 59 89.5t71 79t99.5 63.5t122.5 22q109 0 159 -65.5t50 -176.5h4q73 114 156.5 178t200.5 64q104 0 160.5 -64.5t56.5 -191.5q0 -55 -13 -135l-114 -633h-262l112 618q8 39 8 80q0 93 -73 93q-35 0 -69 -20.5t-71.5 -71 t-71.5 -129t-68 -203.5t-62 -285l-15 -82h-264l113 618q8 39 8 76q0 97 -76 97q-43 0 -85 -34t-87.5 -110.5t-89 -221t-78.5 -343.5l-14 -82h-264z" />
<glyph unicode="n" horiz-adv-x="1085" d="M33 0l180 997h256q-10 -94 -43 -229h4q31 52 59.5 89.5t73.5 79.5t103 64.5t127 22.5q106 0 162.5 -65.5t56.5 -188.5q0 -52 -13 -125l-116 -645h-265l111 633q6 41 6 67q0 47 -17.5 69t-55.5 22q-34 0 -68 -19t-73 -69.5t-74.5 -128t-71.5 -204t-64 -288.5l-14 -82h-264 z" />
<glyph unicode="o" horiz-adv-x="1054" d="M47 391q0 171 73 316t202.5 231t287.5 86q186 0 292 -116t106 -300q0 -178 -71 -322.5t-200 -227.5t-291 -83q-95 0 -171.5 33t-126 90t-75.5 132t-26 161zM317 397q0 -101 39 -159t115 -58q82 0 145.5 69.5t93 164t29.5 190.5q0 104 -37.5 159.5t-111.5 55.5 q-80 0 -144.5 -68t-96.5 -163.5t-32 -190.5z" />
<glyph unicode="p" horiz-adv-x="1077" d="M-53 -446l264 1443h256q-17 -107 -49 -233h4q35 60 65.5 101.5t72.5 80.5t94.5 58.5t115.5 19.5q118 0 187 -92t69 -246q0 -319 -167 -515t-429 -196q-89 0 -139 15l-80 -436h-264zM328 184q48 -12 102 -12q136 0 228 128.5t92 342.5q0 70 -22.5 110t-68.5 40 q-91 0 -178.5 -143.5t-142.5 -409.5z" />
<glyph unicode="q" d="M51 313q0 328 171 519.5t454 191.5q210 0 371 -47l-261 -1423h-264l84 452q22 123 53 227h-4q-36 -60 -66.5 -101t-72 -79.5t-91.5 -58t-108 -19.5q-123 0 -194.5 92t-71.5 246zM328 358q0 -153 90 -153q91 0 180.5 144t142.5 409l9 53q-42 14 -109 14 q-132 0 -222.5 -128t-90.5 -339z" />
<glyph unicode="r" horiz-adv-x="788" d="M33 0l180 997h256q-13 -121 -49 -249h4q145 276 328 276q69 0 114 -20l-90 -256q-36 18 -86 18q-44 0 -83.5 -18t-82 -65t-79 -122t-71.5 -197t-63 -282l-14 -82h-264z" />
<glyph unicode="s" horiz-adv-x="772" d="M-43 76l111 180q34 -23 57 -36.5t67.5 -27.5t88.5 -14q60 0 91 24.5t31 67.5q0 18 -6.5 35t-23 37.5t-31 35l-43.5 43.5t-47 48q-67 71 -101 131t-34 139q0 128 94.5 206.5t259.5 78.5q182 0 295 -88l-117 -172q-78 59 -168 59q-106 0 -106 -84q0 -10 2.5 -20t10 -22 t13 -20t20 -24t22.5 -23.5t28.5 -28l30.5 -30.5q34 -35 40.5 -42t34 -37.5t34 -41.5t24 -38t23 -45t11 -44t5.5 -53q0 -139 -99.5 -217t-287.5 -78q-191 0 -330 101z" />
<glyph unicode="t" horiz-adv-x="755" d="M68 799l34 198h162l45 256l283 76l-62 -332h252l-34 -198h-254l-82 -451q-11 -61 -11 -82q0 -63 50 -63q26 0 55 11.5t44 21.5l48 32l84 -182q-154 -111 -330 -111q-116 0 -171.5 53.5t-55.5 168.5q0 45 14 131l86 471h-157z" />
<glyph unicode="u" horiz-adv-x="1085" d="M74 227q0 57 12 125l117 645h266l-113 -632q-6 -40 -6 -68q0 -47 18 -68.5t56 -21.5q33 0 66 19t72 68t74 124.5t70.5 198.5t63.5 280l18 100h265l-86 -485q-64 -357 -68 -512h-262q19 173 35 252h-4q-27 -45 -49 -78t-58.5 -73.5t-73 -66t-87.5 -43.5t-107 -18 q-106 0 -162.5 65.5t-56.5 188.5z" />
<glyph unicode="v" horiz-adv-x="974" d="M92 997h281l49 -505q4 -43 6 -107t2 -70h4l336 682h279l-555 -997h-248z" />
<glyph unicode="w" horiz-adv-x="1486" d="M98 997h277l24 -475q1 -40 1 -82.5t-0.5 -78t-0.5 -39.5h4l312 675h233l29 -465q6 -100 6 -204h4l299 669h270l-487 -997h-246l-47 686h-4l-338 -686h-235z" />
<glyph unicode="x" horiz-adv-x="989" d="M-78 0l430 514l-237 483h295l118 -278l207 278h289l-389 -477l244 -520h-295l-129 317l-242 -317h-291z" />
<glyph unicode="y" horiz-adv-x="1017" d="M-180 -424l90 211q40 -23 113 -23q93 0 151.5 51t132.5 187l-196 995h278l88 -569q4 -26 6.5 -57.5t3.5 -57.5t2 -32h5q23 75 53 147l260 569h278l-491 -944q-72 -142 -130 -232.5t-127.5 -157.5t-147.5 -95.5t-179 -28.5q-128 0 -190 37z" />
<glyph unicode="z" horiz-adv-x="915" d="M-18 0l24 147l539 646h-408l37 204h744l-29 -157l-531 -635h428l-34 -205h-770z" />
<glyph unicode="{" horiz-adv-x="813" d="M47 485l37 207q125 0 185 47.5t79 153.5l58 330q23 131 99.5 191.5t186.5 60.5h240l-37 -203h-125q-59 0 -86.5 -33t-38.5 -106l-51 -299q-36 -204 -227 -256v-5q69 -23 106 -66.5t37 -117.5q0 -27 -6 -61l-55 -318q-9 -56 -9 -63q0 -39 20.5 -56.5t65.5 -17.5h125 l-35 -203h-210q-104 0 -168 57t-64 158q0 30 6 60l60 329q6 30 6 58q0 73 -48 111t-151 42z" />
<glyph unicode="|" horiz-adv-x="542" d="M-31 -512l361 2048h233l-360 -2048h-234z" />
<glyph unicode="}" horiz-adv-x="813" d="M-92 -330l35 203h125q60 0 87 32.5t40 106.5l55 318q18 107 74.5 165.5t150.5 86.5v4q-143 48 -143 192q0 28 6 62l51 295q0 1 1 3t1 3q6 35 6 59q0 39 -19.5 55.5t-64.5 16.5h-127l37 203h223q92 0 155 -56.5t63 -156.5q0 -25 -7 -60l-55 -309q-4 -32 -4 -47 q0 -154 197 -160l-37 -207q-116 -1 -179.5 -51.5t-82.5 -153.5l-62 -352q-45 -252 -287 -252h-239z" />
<glyph unicode="~" horiz-adv-x="1196" d="M82 535q145 145 315 145q61 0 116.5 -18.5t91.5 -41t89.5 -41t112.5 -18.5q97 0 186 84l121 -160q-55 -59 -138 -103t-181 -44q-55 0 -102.5 12.5t-82.5 30t-68 34.5t-73 29.5t-84 12.5q-42 0 -80.5 -16t-56.5 -30.5t-41 -37.5z" />
<glyph unicode="&#xa1;" horiz-adv-x="581" d="M-14 -362l217 903h207l-111 -903h-313zM176 854q0 68 49 117t121 49q75 0 124.5 -48.5t49.5 -117.5t-49.5 -116.5t-124.5 -47.5q-73 0 -121.5 48t-48.5 116z" />
<glyph unicode="&#xa2;" horiz-adv-x="874" d="M45 375q0 237 123.5 406.5t314.5 222.5l39 223h226l-37 -205q111 -12 188 -61l-106 -201q-68 45 -164 45q-127 0 -220.5 -110.5t-93.5 -288.5q0 -211 164 -211q101 0 197 86l104 -179q-110 -96 -252 -118l-41 -236h-225l43 246q-124 34 -192 133.5t-68 247.5z" />
<glyph unicode="&#xa3;" horiz-adv-x="974" d="M8 0l31 174q103 52 173.5 151t90.5 226h-203l33 199h176q0 143 17 245q34 195 154 294.5t321 99.5q168 0 278 -68l-112 -203q-78 51 -172 51q-80 0 -128.5 -48.5t-68.5 -153.5q-17 -97 -23 -217h297l-34 -199h-273q-18 -111 -68 -199t-116 -135h475l-39 -217h-809z" />
<glyph unicode="&#xa4;" horiz-adv-x="1288" d="M68 139l196 205q-39 70 -39 166q0 92 36.5 177.5t96.5 148.5l-127 206l224 152l120 -215q86 27 162 27q79 0 135 -21l197 211l170 -152l-188 -194q51 -80 51 -186q0 -94 -36.5 -182.5t-100.5 -153.5l112 -187l-223 -151l-113 198q-81 -24 -151 -24q-88 0 -162 31 l-190 -207zM481 545q0 -68 41 -107t109 -39q91 0 152 68t61 164q0 65 -40.5 104t-107.5 39q-90 0 -152.5 -67.5t-62.5 -161.5z" />
<glyph unicode="&#xa5;" horiz-adv-x="1200" d="M82 174l35 191h329l23 118h-332l33 189h250l-242 692h289l188 -602h2l379 602h289l-465 -692h252l-35 -189h-329l-23 -118h332l-33 -191h-332l-30 -174h-281l33 174h-332z" />
<glyph unicode="&#xa6;" horiz-adv-x="434" d="M-78 -512l137 774h240l-137 -774h-240zM150 782l133 754h239l-133 -754h-239z" />
<glyph unicode="&#xa7;" horiz-adv-x="888" d="M-39 -233l119 188q69 -51 158 -51q76 0 119.5 38.5t43.5 106.5q0 43 -33 95.5t-80 107t-94.5 115t-80.5 138t-33 157.5q0 186 217 294q-45 88 -45 172q0 172 119 271.5t295 99.5q169 0 266 -65l-111 -185q-55 43 -151 43q-68 0 -107 -37t-39 -104q0 -44 32 -96t78 -104.5 t92 -110.5t78 -135t32 -158q0 -183 -205 -316q43 -78 43 -165q0 -184 -121 -280.5t-317 -96.5q-170 0 -275 78zM340 686q0 -40 22 -84.5t70 -109.5q13 -17 40 -52t40 -53q63 51 63 129t-120 227q-9 13 -29.5 38t-24.5 30q-61 -45 -61 -125z" />
<glyph unicode="&#xa8;" horiz-adv-x="1024" d="M285 1257q0 59 41.5 100.5t105.5 41.5t105 -41.5t41 -100.5t-42 -100t-104 -41q-64 0 -105.5 41t-41.5 100zM713 1257q0 60 41 101t104 41q64 0 106 -41.5t42 -100.5t-42 -100t-106 -41t-104.5 41t-40.5 100z" />
<glyph unicode="&#xa9;" horiz-adv-x="1656" d="M115 735q0 155 59.5 296.5t160.5 244t240.5 163t292.5 60.5q154 0 294 -60.5t241 -163t161 -244t60 -296.5t-60 -296.5t-161 -244t-241 -163t-294 -60.5q-153 0 -292.5 60.5t-240.5 163t-160.5 244t-59.5 296.5zM281 735q0 -271 165.5 -438.5t421.5 -167.5 q258 0 423 167.5t165 438.5q0 269 -165.5 437.5t-422.5 168.5q-256 0 -421.5 -168.5t-165.5 -437.5zM436 735q0 196 130 327.5t321 131.5q169 0 299 -111l-109 -153q-26 20 -43 31t-57 24.5t-84 13.5q-107 0 -171.5 -75t-64.5 -185q0 -118 69 -196t173 -78q47 0 91 17.5 t64 32.5t48 40l100 -147q-137 -132 -319 -132q-192 0 -319.5 131t-127.5 328z" />
<glyph unicode="&#xaa;" horiz-adv-x="761" d="M117 872q0 225 129.5 371t326.5 146q145 0 252 -43l-59 -324q-41 -231 -41 -360h-195q8 117 21 172h-4q-42 -86 -104 -137.5t-138 -51.5q-83 0 -135.5 61t-52.5 166zM326 901q0 -84 59 -84q62 0 117.5 96.5t99.5 284.5l6 31q-24 8 -63 8q-88 0 -153.5 -94t-65.5 -242z " />
<glyph unicode="&#xab;" horiz-adv-x="1073" d="M53 498l309 399h287l-319 -408l164 -380h-269zM504 498l309 399h285l-318 -408l164 -380h-268z" />
<glyph unicode="&#xac;" horiz-adv-x="1259" d="M70 438l36 211h1100l-102 -588h-221l67 377h-880z" />
<glyph unicode="&#xad;" horiz-adv-x="659" d="M94 467l37 221h463l-39 -221h-461z" />
<glyph unicode="&#xae;" horiz-adv-x="1656" d="M115 735q0 155 59.5 296.5t160.5 244t240.5 163t292.5 60.5q154 0 294 -60.5t241 -163t161 -244t60 -296.5t-60 -296.5t-161 -244t-241 -163t-294 -60.5q-153 0 -292.5 60.5t-240.5 163t-160.5 244t-59.5 296.5zM281 735q0 -271 165.5 -438.5t421.5 -167.5 q258 0 423 167.5t165 438.5q0 269 -165.5 437.5t-422.5 168.5q-256 0 -421.5 -168.5t-165.5 -437.5zM580 319v855h299q145 0 224 -67t79 -183q0 -96 -53 -153t-142 -75q45 -34 100 -127l154 -250h-209l-160 271q-28 48 -48.5 64t-55.5 16v-351h-188zM768 801h76 q147 0 147 112q0 115 -133 115h-90v-227z" />
<glyph unicode="&#xaf;" horiz-adv-x="1024" d="M340 1151l35 195h571l-35 -195h-571z" />
<glyph unicode="&#xb0;" horiz-adv-x="694" d="M158 1100q0 121 83.5 205t202.5 84t203 -84t84 -205q0 -120 -83.5 -203.5t-203.5 -83.5q-119 0 -202.5 83.5t-83.5 203.5zM322 1100q0 -58 33.5 -96.5t88.5 -38.5t89 38.5t34 96.5q0 59 -34 97t-89 38t-88.5 -38t-33.5 -97z" />
<glyph unicode="&#xb1;" horiz-adv-x="1175" d="M-45 -311l37 211h921l-36 -211h-922zM90 434l37 209h342l61 352h228l-60 -352h342l-39 -209h-342l-63 -362h-227l63 362h-342z" />
<glyph unicode="&#xb2;" horiz-adv-x="692" d="M88 684l18 109q22 15 64.5 44t64 44t58 40.5t56 41.5t46.5 38.5t41.5 40t29 37.5t20.5 39t6 37q0 27 -21 41t-53 14q-40 0 -84.5 -17t-75.5 -42l-84 131q49 41 124.5 68.5t160.5 27.5q125 0 192.5 -47t67.5 -127q0 -42 -16.5 -82t-40.5 -72t-69.5 -71.5t-82.5 -67 t-100 -71.5q42 6 110 6h170l-28 -162h-574z" />
<glyph unicode="&#xb3;" horiz-adv-x="647" d="M104 696l52 158q60 -25 129 -25q62 0 99.5 18.5t37.5 55.5q0 62 -176 62l20 129q90 3 140.5 27t50.5 59q0 20 -17.5 30.5t-46.5 10.5q-69 0 -141 -35l-64 129q44 26 113.5 44.5t142.5 18.5q111 0 173.5 -39t62.5 -104q0 -69 -50 -111.5t-124 -62.5v-2q53 -5 98 -43.5 t45 -97.5q0 -113 -95.5 -179.5t-289.5 -66.5q-102 0 -160 24z" />
<glyph unicode="&#xb4;" horiz-adv-x="1024" d="M332 1108l215 276h348l-328 -276h-235z" />
<glyph unicode="&#xb5;" horiz-adv-x="1138" d="M-53 -436l262 1433h264l-111 -632q-14 -83 2.5 -120.5t65.5 -37.5q33 0 66 19t72 68t74 124.5t70.5 198.5t63.5 280l19 100h264l-88 -485q-61 -344 -66 -512h-262q19 173 35 252h-4q-149 -264 -316 -264q-45 0 -71 26q-4 -45 -25 -155l-51 -295h-264z" />
<glyph unicode="&#xb6;" horiz-adv-x="1310" d="M133 891q0 140 66.5 249t177.5 166.5t244 57.5h778l-37 -213h-150l-266 -1513h-233l266 1513h-156l-266 -1513h-235l155 878q-151 8 -247.5 111.5t-96.5 263.5z" />
<glyph unicode="&#xb7;" horiz-adv-x="569" d="M119 594q0 72 51 121t125 49q71 0 122.5 -49.5t51.5 -120.5q0 -70 -51.5 -120t-122.5 -50q-73 0 -124.5 49.5t-51.5 120.5z" />
<glyph unicode="&#xb8;" horiz-adv-x="1024" d="M188 -440l45 121q47 -21 97 -21q44 0 70 18t26 54q0 83 -145 75l73 199h158l-45 -119q67 -14 107 -56.5t40 -109.5q0 -86 -70.5 -139t-185.5 -53q-100 0 -170 31z" />
<glyph unicode="&#xb9;" horiz-adv-x="573" d="M154 1303l280 61h162l-123 -680h-209l92 502l-157 -39z" />
<glyph unicode="&#xba;" horiz-adv-x="761" d="M127 940q0 122 52 225t145.5 163.5t207.5 60.5q134 0 210.5 -82t76.5 -215q0 -198 -112.5 -322.5t-292.5 -124.5q-133 0 -210 82t-77 213zM332 948q0 -147 104 -147q83 0 131.5 87.5t48.5 196.5q0 73 -24 109.5t-78 36.5q-55 0 -98 -45t-63.5 -108.5t-20.5 -129.5z" />
<glyph unicode="&#xbb;" horiz-adv-x="1073" d="M-20 109l315 407l-164 381h268l172 -391l-307 -397h-284zM428 109l315 407l-163 381h268l172 -391l-305 -397h-287z" />
<glyph unicode="&#xbc;" horiz-adv-x="1581" d="M176 0l1059 1364h219l-1059 -1364h-219zM209 1303l278 61h164l-125 -680h-207l93 502l-158 -39zM805 125l22 127l445 430h201l-78 -403h106l-28 -154h-105l-25 -125h-210l24 125h-352zM1044 276q3 0 30 1.5t36 1.5h84l33 176h-2z" />
<glyph unicode="&#xbd;" horiz-adv-x="1611" d="M176 0l1059 1364h219l-1059 -1364h-219zM209 1303l278 61h164l-125 -680h-207l93 502l-158 -39zM885 0l18 111q16 11 49 33q59 39 88 59.5t76.5 54.5t71.5 57t51 51.5t38 54t11 50.5q0 28 -20.5 42.5t-53.5 14.5q-78 0 -161 -59l-82 129q49 41 123.5 68.5t160.5 27.5 q124 0 192.5 -46.5t68.5 -127.5q0 -41 -17 -81t-41 -72.5t-69 -71.5t-83 -67.5t-100 -71.5q28 8 111 8h170l-29 -164h-573z" />
<glyph unicode="&#xbe;" horiz-adv-x="1599" d="M104 696l52 158q60 -25 129 -25q62 0 99.5 18.5t37.5 55.5q0 62 -176 62l20 129q90 3 140.5 27t50.5 59q0 20 -17.5 30.5t-46.5 10.5q-69 0 -141 -35l-64 129q44 26 113.5 44.5t142.5 18.5q111 0 173.5 -39t62.5 -104q0 -69 -50 -111.5t-124 -62.5v-2q53 -5 98 -43.5 t45 -97.5q0 -113 -95.5 -179.5t-289.5 -66.5q-102 0 -160 24zM195 0l1058 1364h220l-1059 -1364h-219zM823 125l23 127l444 430h199l-76 -403h107l-29 -154h-105l-24 -125h-211l23 125h-351zM1063 276q3 0 29.5 1.5t35.5 1.5h84l33 176h-2z" />
<glyph unicode="&#xbf;" horiz-adv-x="862" d="M-12 -80q0 60 18 113t43.5 89t67.5 72t75 57t82 48q69 37 100.5 72.5t41.5 93.5l14 80h232l-19 -109q-17 -97 -54.5 -149t-119.5 -101q-6 -4 -31.5 -19.5t-31.5 -19t-27 -17.5t-26.5 -19t-21 -18.5t-20 -21.5t-14 -21.5t-12.5 -26t-6 -28t-3 -32.5q0 -58 40.5 -91.5 t117.5 -33.5q80 0 170 41l86 -198q-136 -68 -313 -68q-189 0 -289 88t-100 219zM434 854q0 69 49 117.5t123 48.5t123 -48.5t49 -117.5q0 -68 -49 -116t-123 -48t-123 48t-49 116z" />
<glyph unicode="&#xc0;" horiz-adv-x="1351" d="M-59 0l757 1364h275l258 -1364h-299l-39 256h-524l-136 -256h-292zM485 487h373l-51 332q-11 69 -29 244h-4q-48 -124 -112 -244zM485 1747h336l121 -277h-227z" />
<glyph unicode="&#xc1;" horiz-adv-x="1351" d="M-59 0l757 1364h275l258 -1364h-299l-39 256h-524l-136 -256h-292zM485 487h373l-51 332q-11 69 -29 244h-4q-48 -124 -112 -244zM713 1470l215 277h348l-328 -277h-235z" />
<glyph unicode="&#xc2;" horiz-adv-x="1351" d="M-59 0l757 1364h275l258 -1364h-299l-39 256h-524l-136 -256h-292zM471 1473l311 325h203l193 -325h-213l-107 141l-153 -141h-234zM485 487h373l-51 332q-11 69 -29 244h-4q-48 -124 -112 -244z" />
<glyph unicode="&#xc3;" horiz-adv-x="1351" d="M-59 0l757 1364h275l258 -1364h-299l-39 256h-524l-136 -256h-292zM485 487h373l-51 332q-11 69 -29 244h-4q-48 -124 -112 -244zM506 1599q44 63 108 108.5t136 45.5q51 0 90.5 -18t72.5 -36t66 -18q64 0 121 62l100 -107q-46 -63 -111 -109t-137 -46q-51 0 -91 17.5 t-73 35.5t-67 18q-53 0 -117 -59z" />
<glyph unicode="&#xc4;" horiz-adv-x="1351" d="M-59 0l757 1364h275l258 -1364h-299l-39 256h-524l-136 -256h-292zM485 487h373l-51 332q-11 69 -29 244h-4q-48 -124 -112 -244zM487 1620q0 59 42 100t106 41q63 0 104 -40.5t41 -100.5q0 -59 -41.5 -100t-103.5 -41q-64 0 -106 41t-42 100zM915 1620q0 59 41 100 t105 41t105.5 -41t41.5 -100t-41.5 -100t-105.5 -41t-105 41t-41 100z" />
<glyph unicode="&#xc5;" horiz-adv-x="1351" d="M-59 0l757 1364h275l258 -1364h-299l-39 256h-524l-136 -256h-292zM485 487h373l-51 332q-11 69 -29 244h-4q-48 -124 -112 -244zM631 1683q0 93 66.5 156.5t154.5 63.5q90 0 155.5 -62t65.5 -155q0 -95 -65.5 -157.5t-155.5 -62.5q-89 0 -155 62t-66 155zM760 1686 q0 -43 25.5 -74t66.5 -31q42 0 67 30.5t25 74.5t-24.5 73t-67.5 29q-42 0 -67 -29t-25 -73z" />
<glyph unicode="&#xc6;" horiz-adv-x="1734" d="M-133 0l1005 1364h885l-43 -238h-489l-58 -307h435l-41 -225h-431l-65 -356h506l-43 -238h-785l50 272h-431l-196 -272h-299zM520 500h311l103 575z" />
<glyph unicode="&#xc7;" horiz-adv-x="1253" d="M102 555q0 167 59 319.5t163.5 266t257 181t329.5 67.5q260 0 396 -101l-140 -213q-104 74 -272 74q-142 0 -255.5 -77.5t-175 -209.5t-61.5 -293q0 -163 78 -258.5t232 -95.5q95 0 169 32t144 87l115 -207q-66 -59 -179 -103.5t-251 -48.5l-33 -88q67 -14 107 -56.5 t40 -109.5q0 -86 -70.5 -139t-185.5 -53q-100 0 -170 31l45 121q47 -21 97 -21q44 0 70 18t26 54q0 83 -145 75l65 179q-153 24 -257 106.5t-151 199.5t-47 263z" />
<glyph unicode="&#xc8;" d="M78 0l241 1364h773l-43 -238h-490l-55 -307h432l-41 -225h-430l-66 -356h506l-43 -238h-784zM354 1747h336l121 -277h-227z" />
<glyph unicode="&#xc9;" d="M78 0l241 1364h773l-43 -238h-490l-55 -307h432l-41 -225h-430l-66 -356h506l-43 -238h-784zM580 1470l215 277h348l-328 -277h-235z" />
<glyph unicode="&#xca;" d="M78 0l241 1364h773l-43 -238h-490l-55 -307h432l-41 -225h-430l-66 -356h506l-43 -238h-784zM340 1473l311 325h203l193 -325h-213l-107 141l-154 -141h-233z" />
<glyph unicode="&#xcb;" d="M78 0l241 1364h773l-43 -238h-490l-55 -307h432l-41 -225h-430l-66 -356h506l-43 -238h-784zM356 1620q0 59 42 100t106 41t104.5 -40.5t40.5 -100.5q0 -59 -41.5 -100t-103.5 -41q-64 0 -106 41t-42 100zM784 1620q0 59 41 100t105 41t105.5 -41t41.5 -100t-41.5 -100 t-105.5 -41t-105 41t-41 100z" />
<glyph unicode="&#xcc;" horiz-adv-x="641" d="M88 0l244 1364h284l-243 -1364h-285zM145 1747h336l121 -277h-227z" />
<glyph unicode="&#xcd;" horiz-adv-x="641" d="M88 0l244 1364h284l-243 -1364h-285zM369 1470l215 277h348l-328 -277h-235z" />
<glyph unicode="&#xce;" horiz-adv-x="641" d="M88 0l244 1364h284l-243 -1364h-285zM131 1473l311 325h203l193 -325h-213l-107 141l-153 -141h-234z" />
<glyph unicode="&#xcf;" horiz-adv-x="641" d="M88 0l244 1364h284l-243 -1364h-285zM145 1620q0 59 42 100t106 41q63 0 104 -40.5t41 -100.5q0 -59 -41.5 -100t-103.5 -41q-64 0 -106 41t-42 100zM573 1620q0 59 41 100t105 41t105.5 -41t41.5 -100t-41.5 -100t-105.5 -41t-105 41t-41 100z" />
<glyph unicode="&#xd0;" horiz-adv-x="1433" d="M72 592l34 203h132l100 569h401q325 0 491.5 -145t166.5 -398q0 -133 -34 -253.5t-104.5 -224.5t-172 -180t-244.5 -119.5t-314 -43.5h-432l105 592h-129zM422 231h158q166 0 284 75t175 204.5t57 300.5q0 164 -91 243t-282 79h-141l-60 -338h211l-37 -203h-211z" />
<glyph unicode="&#xd1;" horiz-adv-x="1484" d="M74 0l243 1364h279l360 -727q84 -173 97 -231h4q8 103 30 227l130 731h258l-244 -1364h-254l-383 770q-58 114 -92 219h-4q-6 -71 -29 -211l-139 -778h-256zM580 1599q44 63 107.5 108.5t135.5 45.5q51 0 91 -18t73 -36t66 -18q64 0 121 62l100 -107q-46 -63 -111 -109 t-137 -46q-51 0 -91 17.5t-73 35.5t-67 18q-53 0 -117 -59z" />
<glyph unicode="&#xd2;" horiz-adv-x="1538" d="M106 571q0 125 36 245.5t106 223.5t164.5 181.5t220.5 123t266 44.5q145 0 261 -46.5t188.5 -128t110.5 -187.5t38 -228q0 -159 -56 -307t-155 -263t-249 -184.5t-326 -69.5q-143 0 -259 47.5t-191 129t-115 189.5t-40 230zM406 575q0 -162 83.5 -264t239.5 -102 q110 0 200.5 50t148 133.5t89 187.5t31.5 215q0 160 -80 260t-239 100q-89 0 -166 -32t-132.5 -87.5t-95.5 -129.5t-59.5 -158.5t-19.5 -172.5zM573 1747h336l121 -277h-227z" />
<glyph unicode="&#xd3;" horiz-adv-x="1538" d="M106 571q0 125 36 245.5t106 223.5t164.5 181.5t220.5 123t266 44.5q145 0 261 -46.5t188.5 -128t110.5 -187.5t38 -228q0 -159 -56 -307t-155 -263t-249 -184.5t-326 -69.5q-143 0 -259 47.5t-191 129t-115 189.5t-40 230zM406 575q0 -162 83.5 -264t239.5 -102 q110 0 200.5 50t148 133.5t89 187.5t31.5 215q0 160 -80 260t-239 100q-89 0 -166 -32t-132.5 -87.5t-95.5 -129.5t-59.5 -158.5t-19.5 -172.5zM801 1470l215 277h348l-328 -277h-235z" />
<glyph unicode="&#xd4;" horiz-adv-x="1538" d="M106 571q0 125 36 245.5t106 223.5t164.5 181.5t220.5 123t266 44.5q145 0 261 -46.5t188.5 -128t110.5 -187.5t38 -228q0 -159 -56 -307t-155 -263t-249 -184.5t-326 -69.5q-143 0 -259 47.5t-191 129t-115 189.5t-40 230zM406 575q0 -162 83.5 -264t239.5 -102 q110 0 200.5 50t148 133.5t89 187.5t31.5 215q0 160 -80 260t-239 100q-89 0 -166 -32t-132.5 -87.5t-95.5 -129.5t-59.5 -158.5t-19.5 -172.5zM559 1473l311 325h203l193 -325h-213l-107 141l-153 -141h-234z" />
<glyph unicode="&#xd5;" horiz-adv-x="1538" d="M106 571q0 125 36 245.5t106 223.5t164.5 181.5t220.5 123t266 44.5q145 0 261 -46.5t188.5 -128t110.5 -187.5t38 -228q0 -159 -56 -307t-155 -263t-249 -184.5t-326 -69.5q-143 0 -259 47.5t-191 129t-115 189.5t-40 230zM406 575q0 -162 83.5 -264t239.5 -102 q110 0 200.5 50t148 133.5t89 187.5t31.5 215q0 160 -80 260t-239 100q-89 0 -166 -32t-132.5 -87.5t-95.5 -129.5t-59.5 -158.5t-19.5 -172.5zM594 1599q44 63 108 108.5t136 45.5q51 0 90.5 -18t72.5 -36t66 -18q64 0 121 62l100 -107q-46 -63 -111 -109t-137 -46 q-51 0 -91 17.5t-73 35.5t-67 18q-53 0 -117 -59z" />
<glyph unicode="&#xd6;" horiz-adv-x="1538" d="M106 571q0 125 36 245.5t106 223.5t164.5 181.5t220.5 123t266 44.5q145 0 261 -46.5t188.5 -128t110.5 -187.5t38 -228q0 -159 -56 -307t-155 -263t-249 -184.5t-326 -69.5q-143 0 -259 47.5t-191 129t-115 189.5t-40 230zM406 575q0 -162 83.5 -264t239.5 -102 q110 0 200.5 50t148 133.5t89 187.5t31.5 215q0 160 -80 260t-239 100q-89 0 -166 -32t-132.5 -87.5t-95.5 -129.5t-59.5 -158.5t-19.5 -172.5zM575 1620q0 59 42 100t106 41q63 0 104 -40.5t41 -100.5q0 -59 -41.5 -100t-103.5 -41q-64 0 -106 41t-42 100zM1004 1620 q0 60 41 100.5t104 40.5q64 0 105.5 -41t41.5 -100t-41.5 -100t-105.5 -41q-63 0 -104 40.5t-41 100.5z" />
<glyph unicode="&#xd7;" horiz-adv-x="950" d="M33 295l286 246l-202 247l162 134l204 -248l287 244l131 -158l-289 -244l211 -254l-161 -133l-211 254l-289 -246z" />
<glyph unicode="&#xd8;" horiz-adv-x="1538" d="M45 -31l191 215q-125 159 -125 387q0 123 35.5 243t105 223.5t163.5 182t219.5 124t264.5 45.5q188 0 328 -78l174 194l145 -127l-170 -192q127 -157 127 -387q0 -126 -35 -247.5t-104 -225.5t-163.5 -182.5t-221 -123.5t-268.5 -45q-192 0 -328 82l-193 -217zM408 575 q0 -102 28 -176l623 713q-74 47 -180 47q-110 0 -201 -50t-149 -132.5t-89.5 -186.5t-31.5 -215zM547 258q71 -53 182 -53q112 0 204 50.5t150 134t89.5 188.5t31.5 217q0 100 -33 176z" />
<glyph unicode="&#xd9;" horiz-adv-x="1433" d="M154 406q0 64 12 137l143 821h285l-143 -811q-13 -73 -13 -119q0 -115 60.5 -168t189.5 -53q149 0 225 78.5t109 251.5l145 821h260l-147 -840q-50 -280 -197.5 -414.5t-416.5 -134.5q-256 0 -384 112.5t-128 318.5zM526 1747h336l121 -277h-227z" />
<glyph unicode="&#xda;" horiz-adv-x="1433" d="M154 406q0 64 12 137l143 821h285l-143 -811q-13 -73 -13 -119q0 -115 60.5 -168t189.5 -53q149 0 225 78.5t109 251.5l145 821h260l-147 -840q-50 -280 -197.5 -414.5t-416.5 -134.5q-256 0 -384 112.5t-128 318.5zM752 1470l215 277h348l-328 -277h-235z" />
<glyph unicode="&#xdb;" horiz-adv-x="1433" d="M154 406q0 64 12 137l143 821h285l-143 -811q-13 -73 -13 -119q0 -115 60.5 -168t189.5 -53q149 0 225 78.5t109 251.5l145 821h260l-147 -840q-50 -280 -197.5 -414.5t-416.5 -134.5q-256 0 -384 112.5t-128 318.5zM512 1473l311 325h203l193 -325h-213l-107 141 l-154 -141h-233z" />
<glyph unicode="&#xdc;" horiz-adv-x="1433" d="M154 406q0 64 12 137l143 821h285l-143 -811q-13 -73 -13 -119q0 -115 60.5 -168t189.5 -53q149 0 225 78.5t109 251.5l145 821h260l-147 -840q-50 -280 -197.5 -414.5t-416.5 -134.5q-256 0 -384 112.5t-128 318.5zM528 1620q0 59 42 100t106 41t104.5 -40.5 t40.5 -100.5q0 -59 -41.5 -100t-103.5 -41q-64 0 -106 41t-42 100zM956 1620q0 59 41 100t105 41t105.5 -41t41.5 -100t-41.5 -100t-105.5 -41t-105 41t-41 100z" />
<glyph unicode="&#xdd;" horiz-adv-x="1214" d="M180 1364h295l189 -590h2l376 590h293l-575 -850l-92 -514h-285l94 514zM647 1470l215 277h348l-327 -277h-236z" />
<glyph unicode="&#xde;" horiz-adv-x="1198" d="M78 0l241 1364h283l-37 -223h148q205 0 329.5 -96t124.5 -269q0 -252 -166 -383t-450 -131h-143l-48 -262h-282zM449 481h135q148 0 221.5 70t73.5 194q0 175 -213 175h-140z" />
<glyph unicode="&#xdf;" horiz-adv-x="1130" d="M-336 -438l72 205q56 -23 108 -23q139 0 172 199l201 1099q45 247 178.5 352t354.5 105q172 0 270 -88t98 -225q0 -62 -18 -114.5t-47 -90t-64 -69t-69.5 -57t-63.5 -49t-47 -50t-18 -54.5q0 -27 27 -57.5t66 -62.5t78 -70t66 -94t27 -121q0 -154 -100.5 -238t-280.5 -84 q-164 0 -275 64l90 190q87 -53 170 -53q68 0 105 31t37 84q0 32 -27 65t-65.5 63t-77 64t-65.5 82.5t-27 104.5q0 53 23.5 99.5t58.5 78t76.5 66.5t76.5 66t58.5 75.5t23.5 95.5q0 65 -35 103t-102 38q-193 0 -238 -254l-198 -1079q-19 -111 -48.5 -186t-80.5 -132 t-129.5 -83.5t-190.5 -26.5q-91 0 -170 31z" />
<glyph unicode="&#xe0;" d="M53 303q0 211 79.5 375.5t222.5 255t327 90.5q214 0 348 -57l-84 -455q-58 -324 -63 -512h-262q12 156 32 242h-4q-67 -125 -146.5 -196t-191.5 -71q-117 0 -187.5 88t-70.5 240zM328 1384h336l120 -276h-227zM330 348q0 -143 92 -143q87 0 172.5 143.5t134.5 409.5l8 53 q-40 12 -96 12q-127 0 -219 -134.5t-92 -340.5z" />
<glyph unicode="&#xe1;" d="M53 303q0 211 79.5 375.5t222.5 255t327 90.5q214 0 348 -57l-84 -455q-58 -324 -63 -512h-262q12 156 32 242h-4q-67 -125 -146.5 -196t-191.5 -71q-117 0 -187.5 88t-70.5 240zM330 348q0 -143 92 -143q87 0 172.5 143.5t134.5 409.5l8 53q-40 12 -96 12 q-127 0 -219 -134.5t-92 -340.5zM555 1108l215 276h348l-327 -276h-236z" />
<glyph unicode="&#xe2;" d="M53 303q0 211 79.5 375.5t222.5 255t327 90.5q214 0 348 -57l-84 -455q-58 -324 -63 -512h-262q12 156 32 242h-4q-67 -125 -146.5 -196t-191.5 -71q-117 0 -187.5 88t-70.5 240zM313 1110l312 326h202l193 -326h-213l-107 141l-153 -141h-234zM330 348q0 -143 92 -143 q87 0 172.5 143.5t134.5 409.5l8 53q-40 12 -96 12q-127 0 -219 -134.5t-92 -340.5z" />
<glyph unicode="&#xe3;" d="M53 303q0 211 79.5 375.5t222.5 255t327 90.5q214 0 348 -57l-84 -455q-58 -324 -63 -512h-262q12 156 32 242h-4q-67 -125 -146.5 -196t-191.5 -71q-117 0 -187.5 88t-70.5 240zM330 348q0 -143 92 -143q87 0 172.5 143.5t134.5 409.5l8 53q-40 12 -96 12 q-127 0 -219 -134.5t-92 -340.5zM348 1237q44 63 108 108.5t136 45.5q51 0 90.5 -18t72.5 -36t66 -18q65 0 121 61l100 -106q-46 -64 -110.5 -110t-136.5 -46q-51 0 -91.5 18t-73.5 36t-67 18q-52 0 -117 -60z" />
<glyph unicode="&#xe4;" d="M53 303q0 211 79.5 375.5t222.5 255t327 90.5q214 0 348 -57l-84 -455q-58 -324 -63 -512h-262q12 156 32 242h-4q-67 -125 -146.5 -196t-191.5 -71q-117 0 -187.5 88t-70.5 240zM330 348q0 -143 92 -143q87 0 172.5 143.5t134.5 409.5l8 53q-40 12 -96 12 q-127 0 -219 -134.5t-92 -340.5zM330 1257q0 59 41.5 100.5t105.5 41.5q63 0 104.5 -41.5t41.5 -100.5t-42 -100t-104 -41q-64 0 -105.5 41t-41.5 100zM758 1257q0 60 41 101t104 41q64 0 106 -41.5t42 -100.5t-42 -100t-106 -41q-63 0 -104 41t-41 100z" />
<glyph unicode="&#xe5;" d="M53 303q0 211 79.5 375.5t222.5 255t327 90.5q214 0 348 -57l-84 -455q-58 -324 -63 -512h-262q12 156 32 242h-4q-67 -125 -146.5 -196t-191.5 -71q-117 0 -187.5 88t-70.5 240zM330 348q0 -143 92 -143q87 0 172.5 143.5t134.5 409.5l8 53q-40 12 -96 12 q-127 0 -219 -134.5t-92 -340.5zM473 1321q0 93 66 156t155 63q90 0 155.5 -62t65.5 -155q0 -95 -65.5 -157t-155.5 -62q-89 0 -155 62t-66 155zM602 1323q0 -43 25.5 -73.5t66.5 -30.5q42 0 67 30.5t25 73.5q0 44 -24.5 73t-67.5 29q-42 0 -67 -29t-25 -73z" />
<glyph unicode="&#xe6;" horiz-adv-x="1484" d="M6 236q0 208 205 292q137 62 377 62h26q25 66 25 121q0 96 -135 96q-138 0 -262 -88l-105 170q171 135 402 135q109 0 178 -27.5t110 -87.5q146 115 326 115q143 0 224 -68t81 -190q0 -90 -45.5 -158t-129 -110.5t-190 -66.5t-239.5 -32q-2 -16 -2 -49q12 -160 154 -160 q125 0 256 105l102 -176q-175 -144 -401 -144q-106 0 -185.5 38t-122.5 108q-162 -146 -348 -146q-135 0 -218 72.5t-83 188.5zM270 266q0 -45 29 -68.5t80 -23.5q118 0 211 96q-6 34 -6 68q-3 48 2 84h-25q-135 0 -199 -25q-92 -37 -92 -131zM870 569q160 6 247 47.5 t87 118.5q0 82 -96 82q-72 0 -140 -64t-98 -184z" />
<glyph unicode="&#xe7;" horiz-adv-x="878" d="M45 375q0 143 48.5 266t130 206t190 130t227.5 47q162 0 258 -63l-106 -201q-68 45 -164 45q-127 0 -220.5 -110.5t-93.5 -288.5q0 -211 164 -211q101 0 197 86l104 -179q-53 -48 -137 -85.5t-188 -41.5l-33 -88q67 -14 107 -56.5t40 -109.5q0 -86 -70.5 -139t-185.5 -53 q-100 0 -170 31l45 121q47 -21 97 -21q44 0 70 18t26 54q0 83 -145 75l67 187q-124 34 -191 134t-67 247z" />
<glyph unicode="&#xe8;" horiz-adv-x="946" d="M47 375q0 137 45 258t122 206.5t183 135t224 49.5q143 0 224 -68t81 -190q0 -88 -48 -158.5t-134 -116.5t-192.5 -74.5t-236.5 -43.5q5 -91 41.5 -137t116.5 -46q129 0 254 105l104 -176q-175 -144 -401 -144q-184 0 -283.5 109t-99.5 291zM246 1384h336l120 -276h-227z M330 543q156 15 248 65.5t92 126.5q0 82 -95 82q-89 0 -153 -78t-92 -196z" />
<glyph unicode="&#xe9;" horiz-adv-x="946" d="M47 375q0 137 45 258t122 206.5t183 135t224 49.5q143 0 224 -68t81 -190q0 -88 -48 -158.5t-134 -116.5t-192.5 -74.5t-236.5 -43.5q5 -91 41.5 -137t116.5 -46q129 0 254 105l104 -176q-175 -144 -401 -144q-184 0 -283.5 109t-99.5 291zM330 543q156 15 248 65.5 t92 126.5q0 82 -95 82q-89 0 -153 -78t-92 -196zM469 1108l215 276h348l-327 -276h-236z" />
<glyph unicode="&#xea;" horiz-adv-x="946" d="M47 375q0 137 45 258t122 206.5t183 135t224 49.5q143 0 224 -68t81 -190q0 -88 -48 -158.5t-134 -116.5t-192.5 -74.5t-236.5 -43.5q5 -91 41.5 -137t116.5 -46q129 0 254 105l104 -176q-175 -144 -401 -144q-184 0 -283.5 109t-99.5 291zM231 1110l312 326h202 l193 -326h-213l-107 141l-153 -141h-234zM330 543q156 15 248 65.5t92 126.5q0 82 -95 82q-89 0 -153 -78t-92 -196z" />
<glyph unicode="&#xeb;" horiz-adv-x="946" d="M47 375q0 137 45 258t122 206.5t183 135t224 49.5q143 0 224 -68t81 -190q0 -88 -48 -158.5t-134 -116.5t-192.5 -74.5t-236.5 -43.5q5 -91 41.5 -137t116.5 -46q129 0 254 105l104 -176q-175 -144 -401 -144q-184 0 -283.5 109t-99.5 291zM248 1257q0 59 41.5 100.5 t105.5 41.5q63 0 104.5 -41.5t41.5 -100.5t-42 -100t-104 -41q-64 0 -105.5 41t-41.5 100zM330 543q156 15 248 65.5t92 126.5q0 82 -95 82q-89 0 -153 -78t-92 -196zM676 1257q0 60 41 101t104 41q64 0 106 -41.5t42 -100.5t-42 -100t-106 -41q-63 0 -104 41t-41 100z" />
<glyph unicode="&#xec;" horiz-adv-x="534" d="M31 1384h336l120 -276h-227zM45 0l180 997h267l-183 -997h-264z" />
<glyph unicode="&#xed;" horiz-adv-x="534" d="M45 0l180 997h267l-183 -997h-264zM256 1108l215 276h348l-327 -276h-236z" />
<glyph unicode="&#xee;" horiz-adv-x="534" d="M16 1110l312 326h202l193 -326h-213l-107 141l-153 -141h-234zM45 0l180 997h267l-183 -997h-264z" />
<glyph unicode="&#xef;" horiz-adv-x="534" d="M31 1257q0 59 41.5 100.5t105.5 41.5t105 -41.5t41 -100.5t-42 -100t-104 -41q-64 0 -105.5 41t-41.5 100zM45 0l180 997h267l-183 -997h-264zM459 1257q0 60 41 101t104 41q64 0 106 -41.5t42 -100.5t-42 -100t-106 -41t-104.5 41t-40.5 100z" />
<glyph unicode="&#xf0;" horiz-adv-x="1056" d="M47 385q0 112 30 210.5t81 171.5t118.5 126t145 79.5t156.5 26.5q96 0 165 -49q-24 146 -102 221l-137 -110l-92 106l100 80q-99 41 -254 41l76 211q218 0 377 -86l168 137l92 -106l-142 -115q201 -186 201 -536q0 -130 -20 -248t-65 -223t-110.5 -181.5t-162.5 -121 t-215 -44.5q-183 0 -296.5 109.5t-113.5 300.5zM326 393q0 -215 153 -215q64 0 115.5 47t84.5 126.5t52 176t23 203.5q-57 68 -164 68q-116 0 -190 -115.5t-74 -290.5z" />
<glyph unicode="&#xf1;" horiz-adv-x="1085" d="M33 0l180 997h256q-10 -94 -43 -229h4q31 52 59.5 89.5t73.5 79.5t103 64.5t127 22.5q106 0 162.5 -65.5t56.5 -188.5q0 -52 -13 -125l-116 -645h-265l111 633q6 41 6 67q0 47 -17.5 69t-55.5 22q-34 0 -68 -19t-73 -69.5t-74.5 -128t-71.5 -204t-64 -288.5l-14 -82h-264 zM305 1237q44 63 108 108.5t136 45.5q51 0 90.5 -18t72.5 -36t66 -18q65 0 121 61l100 -106q-46 -64 -110.5 -110t-136.5 -46q-51 0 -91.5 18t-73.5 36t-67 18q-52 0 -117 -60z" />
<glyph unicode="&#xf2;" horiz-adv-x="1054" d="M47 391q0 171 73 316t202.5 231t287.5 86q186 0 292 -116t106 -300q0 -178 -71 -322.5t-200 -227.5t-291 -83q-95 0 -171.5 33t-126 90t-75.5 132t-26 161zM272 1384h336l121 -276h-227zM317 397q0 -101 39 -159t115 -58q82 0 145.5 69.5t93 164t29.5 190.5 q0 104 -37.5 159.5t-111.5 55.5q-80 0 -144.5 -68t-96.5 -163.5t-32 -190.5z" />
<glyph unicode="&#xf3;" horiz-adv-x="1054" d="M47 391q0 171 73 316t202.5 231t287.5 86q186 0 292 -116t106 -300q0 -178 -71 -322.5t-200 -227.5t-291 -83q-95 0 -171.5 33t-126 90t-75.5 132t-26 161zM317 397q0 -101 39 -159t115 -58q82 0 145.5 69.5t93 164t29.5 190.5q0 104 -37.5 159.5t-111.5 55.5 q-80 0 -144.5 -68t-96.5 -163.5t-32 -190.5zM496 1108l215 276h348l-328 -276h-235z" />
<glyph unicode="&#xf4;" horiz-adv-x="1054" d="M47 391q0 171 73 316t202.5 231t287.5 86q186 0 292 -116t106 -300q0 -178 -71 -322.5t-200 -227.5t-291 -83q-95 0 -171.5 33t-126 90t-75.5 132t-26 161zM258 1110l311 326h203l193 -326h-213l-107 141l-153 -141h-234zM317 397q0 -101 39 -159t115 -58 q82 0 145.5 69.5t93 164t29.5 190.5q0 104 -37.5 159.5t-111.5 55.5q-80 0 -144.5 -68t-96.5 -163.5t-32 -190.5z" />
<glyph unicode="&#xf5;" horiz-adv-x="1054" d="M47 391q0 171 73 316t202.5 231t287.5 86q186 0 292 -116t106 -300q0 -178 -71 -322.5t-200 -227.5t-291 -83q-95 0 -171.5 33t-126 90t-75.5 132t-26 161zM291 1237q44 63 108 108.5t136 45.5q51 0 90.5 -18t72.5 -36t66 -18q65 0 121 61l100 -106q-46 -63 -111 -109.5 t-137 -46.5q-51 0 -91 18t-73 36t-67 18q-52 0 -117 -60zM317 397q0 -101 39 -159t115 -58q82 0 145.5 69.5t93 164t29.5 190.5q0 104 -37.5 159.5t-111.5 55.5q-80 0 -144.5 -68t-96.5 -163.5t-32 -190.5z" />
<glyph unicode="&#xf6;" horiz-adv-x="1054" d="M47 391q0 171 73 316t202.5 231t287.5 86q186 0 292 -116t106 -300q0 -178 -71 -322.5t-200 -227.5t-291 -83q-95 0 -171.5 33t-126 90t-75.5 132t-26 161zM272 1257q0 59 42 100.5t106 41.5q63 0 104 -41t41 -101q0 -59 -41.5 -100t-103.5 -41q-64 0 -106 41t-42 100z M317 397q0 -101 39 -159t115 -58q82 0 145.5 69.5t93 164t29.5 190.5q0 104 -37.5 159.5t-111.5 55.5q-80 0 -144.5 -68t-96.5 -163.5t-32 -190.5zM700 1257q0 59 41 100.5t105 41.5t105.5 -41.5t41.5 -100.5t-41.5 -100t-105.5 -41t-105 41t-41 100z" />
<glyph unicode="&#xf7;" horiz-adv-x="1171" d="M70 432l39 205h1005l-39 -205h-1005zM365 176q0 60 44 104t105 44t105.5 -44t44.5 -104q0 -61 -44 -105t-106 -44t-105.5 43.5t-43.5 105.5zM496 891q0 61 43.5 104t105.5 43t105 -43t43 -104t-43.5 -104.5t-104.5 -43.5q-62 0 -105.5 43.5t-43.5 104.5z" />
<glyph unicode="&#xf8;" horiz-adv-x="1054" d="M-35 -35l150 176q-68 106 -68 250q0 171 73 316t202.5 231t287.5 86q120 0 213 -55l162 192l131 -104l-172 -205q64 -106 64 -244q0 -178 -71 -322.5t-200 -227.5t-291 -83q-114 0 -206 50l-144 -166zM313 356l369 435q-40 32 -92 32q-80 0 -145.5 -69t-98.5 -165.5 t-33 -191.5v-41zM379 207q39 -31 92 -31q82 0 147 70t96 166.5t31 191.5q0 19 -2 29z" />
<glyph unicode="&#xf9;" horiz-adv-x="1085" d="M74 227q0 57 12 125l117 645h266l-113 -632q-6 -40 -6 -68q0 -47 18 -68.5t56 -21.5q33 0 66 19t72 68t74 124.5t70.5 198.5t63.5 280l18 100h265l-86 -485q-64 -357 -68 -512h-262q19 173 35 252h-4q-27 -45 -49 -78t-58.5 -73.5t-73 -66t-87.5 -43.5t-107 -18 q-106 0 -162.5 65.5t-56.5 188.5zM295 1384h336l121 -276h-228z" />
<glyph unicode="&#xfa;" horiz-adv-x="1085" d="M74 227q0 57 12 125l117 645h266l-113 -632q-6 -40 -6 -68q0 -47 18 -68.5t56 -21.5q33 0 66 19t72 68t74 124.5t70.5 198.5t63.5 280l18 100h265l-86 -485q-64 -357 -68 -512h-262q19 173 35 252h-4q-27 -45 -49 -78t-58.5 -73.5t-73 -66t-87.5 -43.5t-107 -18 q-106 0 -162.5 65.5t-56.5 188.5zM518 1108l215 276h348l-327 -276h-236z" />
<glyph unicode="&#xfb;" horiz-adv-x="1085" d="M74 227q0 57 12 125l117 645h266l-113 -632q-6 -40 -6 -68q0 -47 18 -68.5t56 -21.5q33 0 66 19t72 68t74 124.5t70.5 198.5t63.5 280l18 100h265l-86 -485q-64 -357 -68 -512h-262q19 173 35 252h-4q-27 -45 -49 -78t-58.5 -73.5t-73 -66t-87.5 -43.5t-107 -18 q-106 0 -162.5 65.5t-56.5 188.5zM279 1110l311 326h203l192 -326h-213l-106 141l-154 -141h-233z" />
<glyph unicode="&#xfc;" horiz-adv-x="1085" d="M74 227q0 57 12 125l117 645h266l-113 -632q-6 -40 -6 -68q0 -47 18 -68.5t56 -21.5q33 0 66 19t72 68t74 124.5t70.5 198.5t63.5 280l18 100h265l-86 -485q-64 -357 -68 -512h-262q19 173 35 252h-4q-27 -45 -49 -78t-58.5 -73.5t-73 -66t-87.5 -43.5t-107 -18 q-106 0 -162.5 65.5t-56.5 188.5zM295 1257q0 59 41.5 100.5t105.5 41.5t105 -41.5t41 -100.5t-42 -100t-104 -41q-64 0 -105.5 41t-41.5 100zM723 1257q0 60 41 101t104 41q64 0 106 -41.5t42 -100.5t-42 -100t-106 -41t-104.5 41t-40.5 100z" />
<glyph unicode="&#xfd;" horiz-adv-x="1017" d="M-180 -424l90 211q40 -23 113 -23q93 0 151.5 51t132.5 187l-196 995h278l88 -569q4 -26 6.5 -57.5t3.5 -57.5t2 -32h5q23 75 53 147l260 569h278l-491 -944q-72 -142 -130 -232.5t-127.5 -157.5t-147.5 -95.5t-179 -28.5q-128 0 -190 37zM475 1108l215 276h348 l-327 -276h-236z" />
<glyph unicode="&#xfe;" horiz-adv-x="1075" d="M-53 -446l348 1921h264l-88 -480q-21 -120 -53 -231h4q35 60 65.5 101.5t72.5 80.5t94.5 58.5t115.5 19.5q118 0 187 -92t69 -246q0 -319 -167 -515t-429 -196q-89 0 -139 15l-80 -436h-264zM328 184q48 -12 102 -12q136 0 228 128.5t92 342.5q0 70 -22.5 110t-68.5 40 q-91 0 -178.5 -143.5t-142.5 -409.5z" />
<glyph unicode="&#xff;" horiz-adv-x="1017" d="M-180 -424l90 211q40 -23 113 -23q93 0 151.5 51t132.5 187l-196 995h278l88 -569q4 -26 6.5 -57.5t3.5 -57.5t2 -32h5q23 75 53 147l260 569h278l-491 -944q-72 -142 -130 -232.5t-127.5 -157.5t-147.5 -95.5t-179 -28.5q-128 0 -190 37zM252 1257q0 59 41.5 100.5 t105.5 41.5q63 0 104.5 -41.5t41.5 -100.5t-42 -100t-104 -41q-64 0 -105.5 41t-41.5 100zM680 1257q0 60 41 101t104 41q64 0 106 -41.5t42 -100.5t-42 -100t-106 -41q-63 0 -104 41t-41 100z" />
<glyph unicode="&#x152;" horiz-adv-x="1878" d="M111 571q0 125 36 245.5t105 223.5t163.5 181.5t219 123t262.5 44.5t223 -25h783l-43 -238h-492l-55 -307h434l-41 -225h-432l-66 -356h508l-43 -238h-762q-98 -25 -200 -25q-143 0 -258 47t-189 128.5t-113.5 189t-39.5 231.5zM410 575q0 -164 81.5 -265t239.5 -101 q111 0 203 55l149 842q-73 49 -202 49q-88 0 -165 -32t-132 -87.5t-95 -129.5t-59.5 -158.5t-19.5 -172.5z" />
<glyph unicode="&#x153;" horiz-adv-x="1603" d="M47 391q0 171 73 316t202.5 231t287.5 86q209 0 305 -158q155 158 365 158q143 0 224 -68t81 -190q0 -71 -32 -130.5t-87 -102.5t-133.5 -76t-166.5 -52.5t-191 -31.5q5 -91 41.5 -137t116.5 -46q128 0 253 105l105 -176q-175 -144 -401 -144q-200 0 -293 142 q-145 -142 -351 -142q-95 0 -171.5 33t-126 90t-75.5 132t-26 161zM317 397q0 -101 39 -159t115 -58q82 0 145.5 69.5t93 164t29.5 190.5q0 104 -37.5 159.5t-111.5 55.5q-80 0 -144.5 -68t-96.5 -163.5t-32 -190.5zM991 543q155 15 246.5 65.5t91.5 126.5q0 82 -94 82 q-87 0 -151.5 -78.5t-92.5 -195.5z" />
<glyph unicode="&#x178;" horiz-adv-x="1214" d="M180 1364h295l189 -590h2l376 590h293l-575 -850l-92 -514h-285l94 514zM424 1620q0 59 41.5 100t105.5 41t105 -41t41 -100t-42 -100t-104 -41q-64 0 -105.5 41t-41.5 100zM852 1620q0 60 41 100.5t104 40.5q64 0 106 -41t42 -100t-42 -100t-106 -41q-63 0 -104 40.5 t-41 100.5z" />
<glyph unicode="&#x2c6;" horiz-adv-x="1024" d="M260 1110l311 326h203l193 -326h-213l-107 141l-153 -141h-234z" />
<glyph unicode="&#x2dc;" horiz-adv-x="1024" d="M293 1237q44 63 108 108.5t136 45.5q51 0 90.5 -18t72.5 -36t66 -18q65 0 121 61l100 -106q-46 -63 -111 -109.5t-137 -46.5q-51 0 -91 18t-73 36t-67 18q-52 0 -117 -60z" />
<glyph unicode="&#x2000;" horiz-adv-x="951" />
<glyph unicode="&#x2001;" horiz-adv-x="1903" />
<glyph unicode="&#x2002;" horiz-adv-x="951" />
<glyph unicode="&#x2003;" horiz-adv-x="1903" />
<glyph unicode="&#x2004;" horiz-adv-x="634" />
<glyph unicode="&#x2005;" horiz-adv-x="475" />
<glyph unicode="&#x2006;" horiz-adv-x="317" />
<glyph unicode="&#x2007;" horiz-adv-x="317" />
<glyph unicode="&#x2008;" horiz-adv-x="237" />
<glyph unicode="&#x2009;" horiz-adv-x="380" />
<glyph unicode="&#x200a;" horiz-adv-x="105" />
<glyph unicode="&#x2010;" horiz-adv-x="659" d="M94 467l37 221h463l-39 -221h-461z" />
<glyph unicode="&#x2011;" horiz-adv-x="659" d="M94 467l37 221h463l-39 -221h-461z" />
<glyph unicode="&#x2012;" horiz-adv-x="659" d="M94 467l37 221h463l-39 -221h-461z" />
<glyph unicode="&#x2013;" horiz-adv-x="1146" d="M86 444l37 211h954l-35 -211h-956z" />
<glyph unicode="&#x2014;" horiz-adv-x="1794" d="M86 444l37 211h1603l-36 -211h-1604z" />
<glyph unicode="&#x2018;" horiz-adv-x="479" d="M160 969q0 110 77.5 226.5t194.5 217.5l94 -86q-53 -55 -81.5 -99.5t-28.5 -94.5q0 -38 34.5 -93t34.5 -106q0 -65 -46 -108.5t-111 -43.5q-75 0 -121.5 52t-46.5 135z" />
<glyph unicode="&#x2019;" horiz-adv-x="479" d="M168 846q53 53 82 98t29 96q0 38 -35 93t-35 106q0 65 46 107.5t112 42.5q75 0 121.5 -51.5t46.5 -135.5q0 -108 -78 -224t-195 -218z" />
<glyph unicode="&#x201a;" horiz-adv-x="483" d="M-31 -233q53 53 82 98t29 96q0 38 -35 93t-35 106q0 65 46 107t112 42q75 0 121.5 -51t46.5 -135q0 -108 -78 -224t-195 -218z" />
<glyph unicode="&#x201c;" horiz-adv-x="911" d="M160 969q0 110 77.5 226.5t194.5 217.5l94 -86q-53 -55 -81.5 -99.5t-28.5 -94.5q0 -38 34.5 -93t34.5 -106q0 -65 -46 -108.5t-111 -43.5q-75 0 -121.5 52t-46.5 135zM592 969q0 110 77.5 226.5t194.5 217.5l94 -86q-53 -55 -81.5 -99.5t-28.5 -94.5q0 -38 35 -93 t35 -106q0 -65 -46.5 -108.5t-111.5 -43.5q-75 0 -121.5 52t-46.5 135z" />
<glyph unicode="&#x201d;" horiz-adv-x="911" d="M168 846q53 53 82 98t29 96q0 38 -35 93t-35 106q0 65 46 107.5t112 42.5q75 0 121.5 -51.5t46.5 -135.5q0 -108 -78 -224t-195 -218zM600 846q53 53 82 98t29 96q0 38 -35 93t-35 106q0 65 46 107.5t112 42.5q75 0 121.5 -51.5t46.5 -135.5q0 -108 -78 -224t-195 -218z " />
<glyph unicode="&#x201e;" horiz-adv-x="915" d="M-31 -233q53 53 82 98t29 96q0 38 -35 93t-35 106q0 65 46 107t112 42q75 0 121.5 -51t46.5 -135q0 -108 -78 -224t-195 -218zM401 -233q53 53 82 98t29 96q0 38 -35 93t-35 106q0 65 46 107t112 42q75 0 121.5 -51t46.5 -135q0 -108 -77.5 -224.5t-194.5 -217.5z" />
<glyph unicode="&#x2022;" horiz-adv-x="878" d="M84 588q0 151 104 256.5t252 105.5q149 0 252 -105.5t103 -256.5q0 -150 -103 -255.5t-252 -105.5q-148 0 -252 106t-104 255z" />
<glyph unicode="&#x2026;" horiz-adv-x="1521" d="M41 152q0 72 51.5 121t126.5 49q72 0 123 -49t51 -121t-51 -122t-123 -50q-75 0 -126.5 50t-51.5 122zM528 152q0 72 51 121t126 49q72 0 123 -49t51 -121t-51 -122t-123 -50q-75 0 -126 50t-51 122zM1012 152q0 72 52 121t126 49q73 0 124.5 -49.5t51.5 -120.5 q0 -72 -52 -122t-124 -50q-74 0 -126 50t-52 122z" />
<glyph unicode="&#x202f;" horiz-adv-x="380" />
<glyph unicode="&#x2039;" horiz-adv-x="618" d="M49 498l309 399h287l-319 -408l163 -380h-268z" />
<glyph unicode="&#x203a;" horiz-adv-x="624" d="M-20 109l315 407l-164 381h268l172 -391l-307 -397h-284z" />
<glyph unicode="&#x205f;" horiz-adv-x="475" />
<glyph unicode="&#x20ac;" horiz-adv-x="1144" d="M37 428l33 188h116q3 62 15 117h-111l33 189h129q82 215 251.5 341t405.5 126q129 0 206 -23t140 -66l-141 -210q-98 63 -231 63q-109 0 -192 -61.5t-134 -169.5h320l-33 -189h-352q-15 -67 -17 -117h348l-32 -188h-308q38 -215 248 -215q113 0 252 90l84 -215 q-166 -113 -381 -113q-118 0 -210 35t-151 98t-93.5 143t-45.5 177h-149z" />
<glyph unicode="&#x2122;" horiz-adv-x="1443" d="M172 1225l23 139h514l-25 -139h-168l-82 -467h-166l80 467h-176zM647 758l187 606h163l50 -299q7 -39 14 -131h4q0 1 8.5 20.5t23.5 51.5t29 59l156 299h176l-28 -606h-168l20 264q2 23 5.5 49t6.5 43l2 16h-4q0 -2 -6.5 -19t-20 -48t-28.5 -59l-133 -246h-146l-36 243 q-15 114 -15 129h-4q0 -22 -26 -110l-74 -262h-156z" />
<glyph unicode="&#x25fc;" horiz-adv-x="993" d="M0 0v993h993v-993h-993z" />
<glyph unicode="&#xfb01;" horiz-adv-x="1157" d="M-260 -438l72 205q59 -23 108 -23q138 0 172 199l158 856h-172l35 198h172l16 78q45 220 163.5 320t323.5 100q193 0 316 -76l-111 -192q-89 51 -194 51q-101 0 -157 -44.5t-77 -154.5l-14 -82h563l-180 -997h-266l145 799h-301l-152 -840q-20 -112 -49 -186.5 t-80 -131.5t-129.5 -83.5t-191.5 -26.5q-87 0 -170 31z" />
<glyph unicode="&#xfb02;" horiz-adv-x="1185" d="M-260 -438l72 205q59 -23 108 -23q138 0 172 199l158 856h-172l35 198h172l20 111q38 205 154.5 296t339.5 91q227 0 415 -78l-256 -1417h-264l226 1257q-68 21 -150 21q-89 0 -136.5 -40t-64.5 -138l-18 -103h197l-33 -198h-203l-152 -840q-20 -112 -49 -186.5 t-80 -131.5t-129.5 -83.5t-191.5 -26.5q-87 0 -170 31z" />
<glyph unicode="&#xfb03;" horiz-adv-x="1761" d="M-260 -444l72 202q57 -22 110 -22q133 0 172 198l158 865h-174l35 198h176l14 84q37 210 143.5 306t303.5 96q110 0 181 -24t132 -66q116 102 328 102q194 0 317 -76l-111 -192q-94 51 -194 51q-102 0 -157.5 -44.5t-76.5 -154.5l-16 -82h565l-180 -997h-266l145 799 h-301l-151 -840q-20 -111 -49.5 -186t-80.5 -132t-129.5 -83.5t-189.5 -26.5q-89 0 -160 29l72 202q49 -18 98 -18q136 0 170 199l156 856h-336l-156 -848q-19 -111 -48.5 -185.5t-80 -132t-129.5 -84t-192 -26.5q-91 0 -170 33zM553 997h338l12 78q14 69 37 133 q-79 58 -186 58q-80 0 -124 -42.5t-63 -140.5z" />
<glyph unicode="&#xfb04;" horiz-adv-x="1789" d="M-260 -444l72 202q57 -22 110 -22q133 0 172 198l158 865h-174l35 198h176l14 84q37 210 143.5 306t303.5 96q183 0 305 -86q118 98 348 98t414 -78l-254 -1417h-267l228 1257q-68 21 -150 21q-89 0 -137 -40t-66 -138l-18 -103h199l-35 -198h-201l-151 -840 q-20 -110 -49.5 -184t-79.5 -130.5t-128 -83t-188 -26.5q-75 0 -160 29l74 203q51 -19 98 -19q130 0 164 195l156 856h-336l-156 -848q-19 -111 -48.5 -185.5t-80 -132t-129.5 -84t-192 -26.5q-91 0 -170 33zM553 997h336l20 111q13 61 29 102q-76 56 -184 56 q-80 0 -124 -42.5t-63 -140.5z" />
</font>
</defs>
</svg>
