<?xml version="1.0" encoding="utf-8"?>
<!-- Generator: Adobe Illustrator 18.1.0, SVG Export Plug-In . SVG Version: 6.00 Build 0)  -->
<svg version="1.1" id="Layer_1" xmlns="http://www.w3.org/2000/svg" xmlns:xlink="http://www.w3.org/1999/xlink" x="0px" y="0px"
	 viewBox="0 0 1224 792" enable-background="new 0 0 1224 792" xml:space="preserve">
<g>
	<g>
		<polygon fill="#FFFFFF" points="823.3,490.1 1021.6,489.5 917.7,640.6 		"/>
	</g>
</g>
<g>
	<rect x="737.8" y="39" fill="#FFFFFF" width="220.2" height="289.6"/>
	<path fill="#808285" d="M959.8,330.4h-224V37.1h224.3v293.4H959.8z M739.7,326.6H956V40.9H739.7V326.6z"/>
</g>
<g>
	<g>
		<path fill="#6EA7DA" d="M929.4,192h-3.8c-1,0-1.9-1-1.9-1.9s1-1.9,1.9-1.9h3.8c1,0,1.9,1,1.9,1.9S930.7,192,929.4,192z M913.9,192
			h-3.8c-1,0-1.9-1-1.9-1.9s1-1.9,1.9-1.9h3.8c1,0,1.9,1,1.9,1.9S914.9,192,913.9,192z M898.1,192h-3.8c-1,0-1.9-1-1.9-1.9
			s1-1.9,1.9-1.9h3.8c1,0,1.9,1,1.9,1.9S899,192,898.1,192z M882.2,192h-3.8c-1,0-1.9-1-1.9-1.9s1-1.9,1.9-1.9h3.8
			c1,0,1.9,1,1.9,1.9S883.5,192,882.2,192z M866.4,192h-3.8c-1,0-1.9-1-1.9-1.9s1-1.9,1.9-1.9h3.8c1,0,1.9,1,1.9,1.9
			S867.7,192,866.4,192z M850.9,192h-4.1c-1,0-1.9-1-1.9-1.9s1-1.9,1.9-1.9h3.8c1,0,1.9,1,1.9,1.9S851.8,192,850.9,192z M835,192
			h-3.8c-1,0-1.9-1-1.9-1.9s1-1.9,1.9-1.9h3.8c1,0,1.9,1,1.9,1.9S836.3,192,835,192z M819.2,192h-3.8c-1,0-1.9-1-1.9-1.9
			s1-1.9,1.9-1.9h3.8c1,0,1.9,1,1.9,1.9S820.5,192,819.2,192z M803.7,192h-3.8c-1,0-1.9-1-1.9-1.9s1-1.9,1.9-1.9h3.8
			c1,0,1.9,1,1.9,1.9S804.6,192,803.7,192z M787.8,192H784c-1,0-1.9-1-1.9-1.9s1-1.9,1.9-1.9h3.8c1,0,1.9,1,1.9,1.9
			S788.8,192,787.8,192z M772,192h-3.8c-1,0-1.9-1-1.9-1.9s1-1.9,1.9-1.9h3.8c1,0,1.9,1,1.9,1.9S773.3,192,772,192z"/>
	</g>
	<g>
		<path fill="#97CCEF" d="M772.6,283.5c-0.3,0-0.6,0-1,0c-1.6-0.3-2.5-2.2-1.9-3.8l24.4-82.7c0.3-1.3,1.3-1.9,2.5-2.2
			c1.3,0,2.2,0.6,2.9,1.6l20.9,42.5l47.2-99.5c0.6-1,1.6-1.6,2.5-1.6l0,0c1.3,0,2.2,0.6,2.5,1.9l14.3,32.6l42.8-78.6
			c0.6-1.6,2.5-1.9,4.1-1.3c1.6,0.6,1.9,2.5,1.3,4.1l-45.6,83.6c-0.6,1-1.6,1.6-2.9,1.6c-1.3,0-2.2-0.6-2.5-1.9l-13.9-32l-46.9,99.2
			c-0.6,1-1.6,1.6-2.5,1.6c-1.3,0-2.2-0.6-2.5-1.6L798,205.9l-22.5,75.4C775.2,282.9,773.9,283.5,772.6,283.5z"/>
	</g>
	<g>
		<path fill="#97CCEF" d="M938.3,109.9c-1.3,0-2.5-1-2.9-2.5l-2.5-13.9l-13.3,7.9c-1.3,1-3.2,0.3-4.1-1c-1-1.3-0.3-3.2,1-4.1
			l17.1-10.1c1-0.6,1.9-0.6,2.9,0c1,0.3,1.6,1.3,1.6,2.2l3.5,18.1c0.3,1.6-0.6,3.2-2.2,3.5C938.9,109.9,938.6,109.9,938.3,109.9z"/>
	</g>
</g>
<g>
	<rect x="241.3" y="79.2" fill="#FFFFFF" width="215.4" height="307"/>
	<path fill="#808285" d="M458.7,388.1H239.4V77.3h219.2V388.1z M243.2,384.3h211.3V81.1H243.2V384.3z"/>
</g>
<g>
	<g>
		<path fill="#97CCEF" d="M351.6,226.8h73.2c0-40.6-32.9-73.2-73.2-73.2V226.8L351.6,226.8z"/>
		<path fill="#FFFFFF" d="M426.4,228.4H350v-76.3h1.6c41.2,0,74.8,33.6,74.8,74.8V228.4L426.4,228.4z M353.2,225.2h70.3
			c-0.6-38.3-32-69.7-70.3-70.3V225.2z"/>
	</g>
	<g>
		<path fill="#5D95B7" d="M351.6,226.8v-73.5c-40.6,0-73.2,32.9-73.2,73.2c0,13,3.5,25.3,9.5,36.1L351.6,226.8L351.6,226.8z"/>
		<path fill="#FFFFFF" d="M287.3,264.8l-0.6-1.3c-6.3-11.1-9.5-23.8-9.5-36.7c0-41.2,33.6-74.8,74.8-74.8h1.6v75.7L287.3,264.8z
			 M350,154.9c-39,1-70.3,32.6-70.3,71.9c0,11.7,2.9,23.4,8.6,33.9l61.8-34.8V154.9z"/>
	</g>
	<g>
		<path fill="#639CC6" d="M287.6,262.9c12.7,22.2,36.4,37.4,64,37.4c13.3,0,25.7-3.5,36.1-9.5l-36.1-64L287.6,262.9z"/>
		<path fill="#FFFFFF" d="M351.6,301.6c-26.9,0-52-14.6-65.3-38l-0.6-1.3l66.5-37.4l37.7,66.2l-1.3,0.6
			C377.3,298.1,364.6,301.6,351.6,301.6z M289.8,263.3c13,21.9,36.4,35.2,61.8,35.2c12,0,23.8-2.9,34.2-8.6L351,228.7L289.8,263.3z"
			/>
	</g>
	<g>
		<path fill="#6EA7DA" d="M351.6,226.8l36.1,63.7c22.2-12.7,37.1-36.4,37.1-63.7H351.6z"/>
		<path fill="#FFFFFF" d="M387.4,292.7l-38.3-67.5h77.3v1.6c0,26.9-14.6,51.6-38,64.9L387.4,292.7z M354.1,228.4l34.2,60.2
			c21.2-12.7,34.5-35.5,35.2-60.2H354.1z"/>
	</g>
</g>
<g>
	<rect x="486.5" y="141.3" fill="#FFFFFF" width="220.2" height="289.6"/>
	<path fill="#808285" d="M708.9,432.7H484.6V139.4h224.3V432.7z M488.4,428.9h216.4V143.2H488.4L488.4,428.9L488.4,428.9z"/>
</g>
<g>
	<polygon fill="#6EA7DA" points="895.9,503.7 906.6,519.9 925,519.9 937,502.1 916.4,489.8 	"/>
</g>
<g>
	<polygon fill="#6EA7DA" points="906.6,517.7 894.3,535.4 895.9,640.6 917.7,640.6 937,638.4 935.8,533.8 925,517.7 	"/>
</g>
<g>
	<polygon fill="#F2D4C0" points="893.3,433.1 878.1,469.8 916.8,489.1 983.9,463.8 964.9,433.1 	"/>
	<path fill="#484748" d="M916.8,491.4l-40.9-20.6l16.2-39.6h74.1l20.9,33.9L916.8,491.4z M880.6,468.9l36.1,18.4l64-24.4L963.6,435
		h-69.1L880.6,468.9z"/>
</g>
<g>
	<path fill="#484748" d="M918,662.7c-0.3,0-0.6,0-1.3-0.3l-23.1-15.8c-0.6-0.3-1-1-1-1.6V534.8c0-0.3,0-1,0.3-1.3l13-16.5
		c0.3-0.6,1-0.6,1.6-0.6h18.7c0.6,0,1.3,0.3,1.6,1l10.5,18.1c0.3,0.3,0.3,0.6,0.3,1v106.4c0,0.6-0.3,1-0.6,1.6l-19,18.1
		C919,662.4,918.3,662.7,918,662.7z M896.8,643.7l20.9,14.3l17.4-16.5V536.3l-9.8-16.8h-16.8l-11.7,15.2L896.8,643.7L896.8,643.7z"
		/>
</g>
<g>
	<path fill="#FFFFFF" stroke="#2B499E" stroke-width="2" stroke-miterlimit="10" d="M830,634.6"/>
</g>
<g>
	<path fill="#484748" d="M926.6,519.9h-18.7c-0.6,0-1.3-0.3-1.6-0.6l-11.1-13c-0.6-1-0.6-2.2,0.3-2.9c1-0.6,2.2-0.6,2.9,0.3
		l10.5,12.4h16.8l10.1-13.9c0.6-1,1.9-1,2.9-0.3c1,0.6,1,1.9,0.3,2.9l-10.5,14.9C927.5,519.6,927.2,519.9,926.6,519.9z"/>
</g>
<g>
	<polygon fill="#FFFFFF" points="914.9,489.1 984.2,459 996.9,489.1 951.6,512.3 	"/>
	<path fill="#484748" d="M951.6,514.2c-0.3,0-0.6,0-1-0.3l-36.7-23.1c-0.6-0.3-1-1-1-1.9c0-0.6,0.6-1.3,1.3-1.6l69.4-30.1
		c0.6-0.3,1-0.3,1.6,0c0.6,0.3,1,0.6,1,1l12.7,30.1c0.3,1,0,1.9-1,2.5l-45.3,23.1C952.2,514.2,951.9,514.2,951.6,514.2z M919,489.5
		l32.6,20.6l42.8-21.9L983,461.6L919,489.5z"/>
</g>
<g>
	<polygon fill="#FFFFFF" points="918.7,489.1 868.3,460.3 851.8,489.1 886,509.7 	"/>
	<path fill="#484748" d="M886,511.6c-0.3,0-0.6,0-1-0.3l-34.5-20.6c-1-0.6-1.3-1.9-0.6-2.5l16.8-28.8c0.6-1,1.9-1.3,2.5-0.6
		l50.4,28.8c0.6,0.3,1,1,1,1.6c0,0.6-0.3,1.3-1,1.6L887,511.3C887,511.6,886.7,511.6,886,511.6z M854.4,488.5l31.7,19l28.8-18.1
		l-45.6-26.3L854.4,488.5z"/>
</g>
<g>
	<polygon fill="#E5C0A8" points="897.8,427 881.9,466 891.7,471.4 900.6,446.4 908.8,426.7 	"/>
</g>
<g>
	<path fill="#DDB49E" d="M942.1,441.6c-0.3,0-0.6,0-1-0.3c0,0-6-3.2-16.5-3.2c-10.8,0-16.5,3.2-16.5,3.2c-1,0.6-2.2,0.3-2.5-0.6
		c-0.6-1-0.3-2.2,0.6-2.5c0.3,0,6.7-3.8,18.4-3.8s18.1,3.5,18.4,3.8c1,0.6,1.3,1.6,0.6,2.5C943.4,441.3,942.7,441.6,942.1,441.6z"/>
</g>
<g>
	<path fill="#E5C0A8" d="M890.8,444.2L887,454c0,0,21.5,11.7,39,12c20,0.3,45.3-19.6,45.3-19.6l-6.3-10.5l-71,0.3L890.8,444.2z"/>
</g>
<g>
	<path fill="#F2D4C0" d="M1014.7,340.2c0,0,2.2-19.6,15.2-9.5c13,10.1,1.6,36.1-2.2,43.4c-3.8,7-14.9,3.2-14.9,3.2L1014.7,340.2z"/>
	<path fill="#484748" d="M1019.1,380.2c-3.5,0-6.7-1-7-1l-1.3-0.6l1.9-38.6c0-0.6,1.9-14.3,10.5-14.3c2.5,0,5.1,1.3,7.9,3.5
		c6,4.8,7.9,13.3,6,24.7c-1.6,8.9-5.7,17.4-7.6,21.2C1027.3,378.6,1023.8,380.2,1019.1,380.2z M1014.7,375.7c1,0.3,2.5,0.6,4.1,0.6
		c3.5,0,5.7-1,6.7-3.2c4.1-7.6,13.9-32,2.9-40.9c-2.2-1.6-3.8-2.5-5.4-2.5c-5.1,0-6.7,10.5-6.7,10.8L1014.7,375.7z"/>
</g>
<g>
	<path fill="#DDB49E" d="M1016.2,371c-1.6,0-2.9-0.3-3.2-0.3c-1-0.3-1.9-1.3-1.6-2.2c0.3-1,1.3-1.6,2.2-1.6c1,0.3,4.1,0.6,6-0.6
		c2.5-1.3,3.8-7.9,4.1-11.1c0-1,1-1.9,2.2-1.9c1,0,1.9,1,1.9,2.2c0,1.3-1,11.4-6.3,14.3C1019.7,370.7,1017.8,371,1016.2,371z"/>
</g>
<g>
	<path fill="#F2D4C0" d="M855.9,335.5c0,0-0.3-20-14.3-11.1c-13.9,8.9-5.4,35.8-2.2,43.4c3.2,7.3,16.8,5.1,16.8,5.1L855.9,335.5z"/>
	<path fill="#484748" d="M852.1,375.1L852.1,375.1c-7.6,0-12.4-2.2-14.3-6.7c-1.6-3.8-4.8-12.7-5.4-21.9c-1-11.4,1.9-20,8.2-24.1
		c2.5-1.6,5.1-2.5,7.3-2.5c7.6,0,9.8,9.5,9.8,15.2l0.6,39.3l-1.6,0.3C856.6,374.8,854.7,375.1,852.1,375.1z M848,324.1
		c-1.6,0-3.2,0.6-5.1,1.9c-12,7.6-5.1,32.6-1.6,40.9c1.6,3.8,7.3,4.1,10.8,4.1l0,0c1,0,1.6,0,2.5,0l-0.6-35.8
		C853.7,335.5,853.4,324.1,848,324.1z"/>
</g>
<g>
	<path fill="#DDB49E" d="M851.8,366.5c-1.6,0-3.8-0.3-5.4-1.3c-5.1-2.9-6.3-13-6.3-14.3c0-1,0.6-1.9,1.9-2.2c1,0,1.9,0.6,2.2,1.9
		c0.3,2.9,1.6,9.5,4.1,11.1c2.2,1.3,6,0.6,6,0.6c1-0.3,2.2,0.3,2.2,1.6c0.3,1-0.3,2.2-1.6,2.2C854.7,366.2,853.4,366.5,851.8,366.5z
		"/>
</g>
<g>
	<path fill="#5E5E5F" d="M847.7,237.9c0,0-14.3,23.4-11.1,70.3c1.3,20.3,18.7,45,18.7,45s-3.5-34.5-1.6-52
		c1.6-14.6,8.9-37.4,8.9-37.4L847.7,237.9z"/>
	<path fill="#474748" d="M858.2,360.2l-4.4-6c-0.6-1-17.7-25.3-19.3-45.9c-3.2-46.9,10.8-70.3,11.1-71.3l1.6-2.9l17.4,29.1l-0.3,1
		c0,0.3-7.3,22.8-8.9,37.1c-1.9,17.1,1.3,51.3,1.6,51.6L858.2,360.2z M848,242c-3.5,7.6-11.7,29.8-9.2,65.9
		c1,13.3,9.2,28.8,14.3,37.4c-1-11.4-2.2-32-0.6-44.4c1.6-13.3,7.3-32.6,8.9-37.1L848,242z"/>
</g>
<g>
	<path fill="#F2D4C0" d="M926.6,457.1h1.6c-42.5,0-74.4-51.6-76.3-57.3c-7.6-22.2-6-93.5-6-93.5c0-45.6,38.6-83,86.2-83l0,0
		c47.2,0,86.2,37.4,86.2,83c0,0,0,68.4-8.9,96C1006.1,410.6,960.2,457.1,926.6,457.1z"/>
	<path fill="#484748" d="M928.2,459h-1.6c-43.4-1.3-74.8-53.5-76.7-58.6c-7.6-22.2-6.3-91.2-6.3-94.1c0-46.9,39.6-84.9,88.1-84.9
		s88.1,38,88.1,84.9c0,2.9,0,69.1-9.2,96.6C1008,410.9,963,457.5,928.2,459L928.2,459z M931.7,225.2c-46.3,0-84.3,36.4-84.3,81.1
		c0,0.6-1.6,71.3,6,92.8c1.6,4.8,32,55.1,73.8,55.8c32.6-0.6,77.3-45.9,79.5-53.5c8.9-26.9,8.9-94.7,8.9-95.4
		C1015.9,261.7,978.2,225.2,931.7,225.2z"/>
</g>
<g>
	<path fill="#484748" d="M922.5,387.1c-4.4,0-7.9-2.2-11.1-4.8c-0.6-0.3-1.6-1-2.5-1.6c-2.9-1.3-6-3.2-7-6.7c-0.6-2.5,0-5.4,2.2-8.9
		l10.8-48.8c0.3-1,1.3-1.6,2.2-1.6c1,0.3,1.6,1.3,1.6,2.2l-10.8,49.1c0,0.3,0,0.3-0.3,0.6c-1.6,2.5-2.2,4.8-1.9,6
		c0.6,1.9,2.9,3.2,5.1,4.1c1.3,0.6,2.2,1.3,3.2,1.9c4.8,3.8,9.8,6.7,19-0.6c1-1,2.2-1.6,3.2-2.2c2.2-1.6,4.1-2.9,4.4-4.4
		c0.3-1.3-0.6-3.2-2.9-5.7c-0.6-1-0.6-2.2,0.3-2.9c1-0.6,2.2-0.6,2.9,0.3c2.9,3.5,3.8,6.3,3.5,8.9c-0.6,3.2-3.2,5.1-6,7
		c-1,0.6-1.9,1.3-2.9,1.9C930.4,385.9,926.3,387.1,922.5,387.1z"/>
</g>
<g>
	<circle fill="#5E5E5F" cx="960.8" cy="337.7" r="6"/>
	<path fill="#474748" d="M960.8,345.6c-4.4,0-7.9-3.5-7.9-7.9s3.5-7.9,7.9-7.9s7.9,3.5,7.9,7.9S964.9,345.6,960.8,345.6z
		 M960.8,333.6c-2.2,0-4.1,1.9-4.1,4.1c0,2.2,1.9,4.1,4.1,4.1c2.2,0,4.1-1.9,4.1-4.1C964.9,335.5,963,333.6,960.8,333.6z"/>
</g>
<g>
	<circle fill="#5E5E5F" cx="880.6" cy="337.7" r="6"/>
	<path fill="#474748" d="M880.6,345.6c-4.4,0-7.9-3.5-7.9-7.9s3.5-7.9,7.9-7.9s7.9,3.5,7.9,7.9S885.1,345.6,880.6,345.6z
		 M880.6,333.6c-2.2,0-4.1,1.9-4.1,4.1c0,2.2,1.9,4.1,4.1,4.1s4.1-1.9,4.1-4.1C884.8,335.5,882.9,333.6,880.6,333.6z"/>
</g>
<g>
	<path fill="#474748" d="M854.7,326.9l-3.8-6.7c1.6-1,16.8-9.8,23.1-11.4c5.4-1.6,20.3-1.9,21.9-2.2l0.3,7.9c-4.1,0-16.2,0.6-20,1.9
		C871.5,317.4,859.1,324.4,854.7,326.9z"/>
</g>
<g>
	<path fill="#474748" d="M984.2,326.9c-4.4-2.5-16.8-9.5-21.2-10.8c-3.8-1-15.5-1.6-20-1.9l0.3-7.9c1.6,0,16.5,0.6,21.9,2.2
		c6.3,1.9,21.2,10.5,23.1,11.4L984.2,326.9z"/>
</g>
<g>
	<path fill="#5E5E5F" d="M900.9,277.8c-78.9-8.2-66.8-69.4-66.8-69.4s36.1,12,88.1,9.2c36.7-2.2,59.2-5.4,75.1-2.2
		c14.9,3.2,18.1,29.5,18.1,29.5s20,1.6,21.9,39.6c1,23.1-19.3,68.7-19.3,68.7s-1-24.1-4.8-47.8c-3.2-21.2-9.2-38.6-9.2-38.6
		s-7.3,2.5-19.3,5.4C965.2,276.2,934.5,281.3,900.9,277.8z"/>
	<path fill="#474748" d="M1015.9,361.8l-0.3-8.2c0-0.3-1-24.4-4.4-47.8c-2.5-17.1-7-31.7-8.6-36.4c-2.9,1-8.9,2.9-17.4,4.8
		c-13.9,3.2-35.8,7-60.5,7c-7.9,0-15.8-0.3-23.4-1.3c-26.9-2.9-46.6-12-58-27.6c-14.9-20-10.8-43.1-10.5-44l0.3-2.2l2.2,0.6
		c0.3,0,29.1,9.5,71.3,9.5c5.4,0,10.8,0,16.2-0.3c10.1-0.6,19.3-1.3,27.6-1.9c12-1,22.5-1.6,31.4-1.6c7,0,12,0.3,16.8,1.6
		c14.3,3.2,18.4,23.8,19.3,29.5c5.1,1.3,20.6,7.6,21.9,41.2c1,23.4-18.7,67.8-19.6,69.7L1015.9,361.8z M1004.8,264.2l0.6,1.9
		c0,0.3,6,17.7,9.5,39c2.2,15.2,3.5,30.4,4.1,39.6c5.7-13.9,16.8-43.4,15.8-60.2c-1.6-35.5-19.3-37.7-20-37.7h-1.6l-0.3-1.6
		c0-0.3-3.2-24.7-16.5-27.6c-4.4-1-9.5-1.3-15.8-1.3c-8.6,0-18.4,0.6-31,1.6c-8.2,0.6-17.4,1.3-27.6,1.9c-5.4,0.3-10.8,0.3-16.2,0.3
		c-36.1,0-62.4-7-70.3-9.2c-0.6,6-1.3,23.4,10.1,39c10.8,14.6,29.5,23.4,55.4,26c7.6,0.6,15.2,1.3,23.1,1.3c24.4,0,45.9-3.8,59.6-7
		c11.7-2.9,19-5.1,19-5.4L1004.8,264.2z"/>
</g>
<g>
	<path fill="#DDB49E" d="M889.8,355.8h-23.4c-1,0-1.9-1-1.9-1.9s1-1.9,1.9-1.9h23.4c1,0,1.9,1,1.9,1.9
		C891.7,354.8,890.8,355.8,889.8,355.8z"/>
</g>
<g>
	<path fill="#DDB49E" d="M975.1,356.4h-23.4c-1,0-1.9-1-1.9-1.9c0-1,1-1.9,1.9-1.9h23.4c1,0,1.9,1,1.9,1.9S976,356.4,975.1,356.4z"
		/>
</g>
<g>
	<path fill="#E5C0A8" d="M933.2,444.2h-19c-1,0-1.9-1-1.9-1.9s1-1.9,1.9-1.9h19c1,0,1.9,1,1.9,1.9S934.2,444.2,933.2,444.2z"/>
</g>
<g>
	<path fill="none" stroke="#484748" stroke-width="2" stroke-miterlimit="10" d="M557.8,752.1"/>
</g>
<g>
	<path fill="#FFFFFF" stroke="#2B499E" stroke-width="2" stroke-miterlimit="10" d="M828.1,632.6"/>
</g>
<g>
	<path fill="#959697" d="M1043.8,497.1c-3.5-3.2-9.5-7-16.8-11.1c-19.6-12.4-38.6-19-38.6-19l-0.3,0.6c-1-0.3-1.6-0.6-1.6-0.6
		l0.6,3.2L925,634.2l-8.9-3.5l-56.1-162.5c-5.7,1.6-31.4,7.3-44.4,14.9c-13.9,7.9-62.7,45.6-62.7,45.6l-44.7,30.7l-70.6-67.8
		l-49.4,42.1c0,0,89.7,103.9,129.6,103.9c28.2,0,75.1-35.8,75.1-35.8c1,45.9,4.8,94.7,4.8,94.7h103.9
		c50.7,21.2,114.4,45.9,125.1,41.2c13.3-5.4,22.5-25.3,28.5-41.2l0,0c0,0,18.1-35.5,18.1-75.4c1-10.1,1.6-20.3,1.9-31
		C1077.1,518,1057.4,510,1043.8,497.1z"/>
</g>
<g>
	<path fill="#959697" d="M1068.8,533.2c-8.9-41.2-79.2-65.9-79.2-65.9l-63,167l-10.5-4.1l-54.8-161.3c-5.7,1.6-32.3,7.3-45.3,14.9
		c-13.9,7.9-28.2,21.9-49.7,35.5c-31,20-55.8,34.2-55.8,34.2L638.6,492l-51.3,44c0,0,95,104.9,123.2,104.9s83-38.6,83-38.6
		c1,45.9,4.8,151.1,4.8,151.1l268.6-1C1066.9,752.1,1079.6,583.9,1068.8,533.2z"/>
	<path fill="#484748" d="M796.7,755.3v-1.9c0-1-3.5-100.4-4.8-147.6c-12,8.2-56.4,37.1-81.1,37.1c-28.8,0-121-101.4-124.8-105.5
		l-1.3-1.6l54.2-46.6l72.2,61.8c5.4-3.2,27.6-16.2,54.5-33.6c10.8-7,19.6-13.6,27.6-20c8.2-6.3,15.2-11.7,22.2-15.8
		c10.5-6,29.5-10.8,39.6-13.3c2.9-0.6,5.1-1.3,6-1.6l1.9-0.6l0.6,1.9L918,628.2l7.9,3.2l63-166.6l1.9,0.6c0.3,0,18.1,6.3,36.7,17.7
		c25.3,15.2,39.9,32,43.7,49.7c10.8,50.4-1.3,212.6-1.6,219.5v1.9h-1.9L796.7,755.3z M795.4,598.1v3.8c1,42.1,4.1,134.6,4.8,149.2
		l264.8-1c1.3-18.4,11.7-169.5,1.6-216.7c-7.6-36.1-65.3-59.6-76-64l-63,167l-13.3-5.4l-0.3-1l-54.2-159.4c-1.3,0.3-2.9,0.6-4.4,1.3
		c-10.1,2.5-28.5,7.3-38.6,13c-6.7,3.8-13.6,9.2-21.9,15.5c-7.9,6-17.1,13.3-27.9,20c-30.7,19.6-55.8,34.2-55.8,34.5l-1.3,0.6
		l-71.3-61.5L590.1,536c11.7,12.7,95.4,103,120.7,103c27.2,0,81.4-38,81.7-38.3L795.4,598.1z"/>
</g>
<g>
	<g>
		<path fill="#F2D4C0" d="M614.9,465.7c-6-12-22.2-22.8-22.2-22.8s-35.8-29.5-46.9-23.1c-2.5,1.6-3.2,5.7,6.3,13
			c7.3,5.7,7.3,5.7,7.3,5.7s-19-7.9-25.7-11.7c-13.9-8.2-25.7-23.8-32.6-16.8c-3.2,3.2,1.9,9.2,2.2,9.8c-5.4-3.2-10.1-4.8-12.7-1.3
			c-4.4,5.4,7.3,14.3,7.3,14.3l-4.1-2.5c0,0-16.8-8.2-8.9,6.7c3.8,7.6,20,15.2,19.6,14.6c0,0,11.4,26.6,20.9,33.6
			c7.3,5.4,32.6,14.9,32.6,14.9l21.2,15.2l7,1.3l37.4-15.5C623.7,500.9,623.1,482.2,614.9,465.7z"/>
	</g>
	<g>
		<path fill="#484748" d="M547.1,449.9c0,0-13.9-7.9-20.3-11.4c-4.1-2.2-8.6-5.7-13-8.9c-8.6-6.3-18.4-13.6-21.2-9.8
			c-0.3,0.6-0.6,1.3-0.6,1.9c0.3,3.5,5.7,7.9,7.6,9.5c1,0.6,1,1.9,0.3,2.9c-0.6,1-1.9,1-2.9,0.3c-1-0.6-8.2-6.3-9.2-12
			c-0.3-1.9,0.3-3.5,1.3-5.1c5.4-6.7,15.8,1,26.6,8.9c4.4,3.2,8.6,6.3,12.7,8.6c6.7,3.8,20.3,11.7,20.3,11.7L547.1,449.9z"/>
	</g>
	<g>
		<path fill="#484748" d="M588.6,521.8c-0.3,0-0.6,0-1-0.3l-30.4-19.6c-2.5-1-25.7-10.1-32.6-15.2c-9.2-6.7-20.3-28.8-22.2-32.6
			c-4.4-2.2-15.8-10.1-19-16.2c-1.6-3.2-3.5-7.9-1-10.5c3.2-3.2,10.5,0,12.7,1.3l44.7,28.2c1,0.6,1.3,1.9,0.6,2.9
			c-0.6,1-1.9,1.3-2.9,0.6l-44.4-28.2c-3.5-1.9-7.3-2.5-7.9-1.9c0,0-0.6,1,1.6,5.7c3.2,6.3,16.2,13.9,17.7,14.9
			c0.3,0,0.6,0.3,0.6,0.3c0.3,0.3,0.3,0.3,0.3,0.6c0.6,1.3,12.4,25.3,21.2,31.7c7,5.1,31.7,14.6,32,14.9c0,0,0.3,0,0.3,0.3
			l29.5,19.3l32.9-17.7c-0.3-4.4-1.9-19.6-8.6-33.3c-5.7-11.4-21.5-22.2-21.5-22.2s-11.4-7.3-23.1-13.9l-1.3-0.6
			c-7.9-4.4-17.1-9.8-20.6-7.6c-0.6,0.3-0.6,0.6-0.6,1c0,0.6,0.3,3.2,7.6,7.9c7.6,5.1,9.8,5.7,9.8,6c1,0.3,1.6,1.6,1.3,2.5
			s-1.6,1.6-2.5,1.3c-1-0.3-21.5-7.3-28.2-11.4c-4.8-2.9-9.2-6.3-13-9.5c-8.6-7-13.9-10.8-17.4-7.6c-1,1,0.3,4.4,1.9,6.7
			c0.6,1,0.3,2.2-0.6,2.9c-1,0.6-2.2,0.3-2.9-0.6c-0.6-1-5.1-7.9-1.3-11.7c6-6,13.9,0.3,22.5,7.3c4.1,3.2,8.2,6.7,12.7,9.2
			c2.2,1.3,6.7,3.2,11.1,5.1c-3.2-2.9-4.8-5.4-4.8-7.9c0-1.9,1-3.2,2.5-4.1c5.7-3.5,14.9,1.9,24.7,7.6l1.3,0.6
			c11.7,6.7,23.1,13.9,23.4,13.9c0.6,0.6,16.8,11.4,22.8,23.8c8.2,16.5,9.2,35.2,9.2,35.8c0,0.6-0.3,1.6-1,1.9l-35.2,18.7
			C589.2,521.5,588.9,521.8,588.6,521.8z"/>
	</g>
	<g>
		<path fill="#484748" d="M579.1,476.2c-0.3,0-0.6,0-1-0.3c0,0-6.3-4.1-13-4.8c-12.4-0.6-25,1-25.3,1c-0.6,0-1,0-1.3-0.3l-13-8.9
			c-0.3,0-0.3-0.3-0.6-0.6c-2.5-3.8-11.1-13.6-16.2-11.1c-1.3,0.6-1.6,1-1.9,1.3c0.3,0.6,0,1.6-0.6,2.2c-1,0.6-1.9,0.6-2.9,0
			c-0.6-0.6-1-1.6-0.6-2.9c0.3-1.6,1.6-2.9,4.1-4.1c8.6-4.1,19,9.2,20.9,12l12,8.2c2.9-0.3,14.3-1.6,25.3-1
			c7.6,0.3,14.6,5.1,14.9,5.4c1,0.6,1.3,1.9,0.6,2.9C580.3,475.8,579.7,476.2,579.1,476.2z"/>
	</g>
</g>
<g>
	<polygon fill="#FFFFFF" points="588.2,533.8 577.2,521.5 627.8,483.4 636.4,493.9 	"/>
	<path fill="#484748" d="M587.9,536.3l-13.6-15.2l53.9-40.2l11.1,13.6L587.9,536.3z M580,521.8l8.2,9.2l45.3-37.4l-6-7.6L580,521.8z
		"/>
</g>
<g>
	<polygon fill="#484748" points="894.9,655.1 841.7,556.3 845.8,534.1 822.7,531.3 836,476.2 839.8,477.1 827.7,528.1 850.6,530.6 
		845.8,555.7 898.4,653.2 	"/>
</g>
<g>
	<g>
		<path fill="#F2D4C0" d="M816.3,594.3c-10.5-6-11.1-12-18.1-22.2c-2.2-3.2-3.2-11.1-9.5-8.9c-4.8,1.6-4.8,7.6,0.6,24.7
			c1,2.9-0.6,13-7.9,13c-17.4,0.6-31.4-12.4-40.6-18.7c-13.6-9.2-19,2.5-19,2.5c-3.8-2.2-6-1-7.6-0.3c-7.6,3.2,0,11.1-2.2,11.4
			c-5.4,1-7.3,8.2-5.1,11.1c6.7,7.6,42.8,38.3,66.8,41.5c16.5,1.9,40.9-2.5,40.9-2.5l21.5,10.5l17.4-41.5
			C853.4,614.9,824.9,599.4,816.3,594.3z"/>
	</g>
	<g>
		<path fill="#484748" d="M768.2,618.4c-7,0-39.3-25-46.6-30.7c-3.2-0.6-6.3-1.3-7.3-1c-3.5,3.2-0.6,7.6-0.3,7.6
			c0.6,1,0.3,2.2-0.6,2.9c-1,0.6-2.2,0.3-2.9-0.6c-1.9-2.5-3.8-8.6,1.3-13c0.6-0.3,2.2-1.9,11.1,0.3c0.3,0,0.6,0.3,0.6,0.3
			c19,14.9,40.6,30.1,44.4,30.1l0,0c1,0,1.9,1,1.9,1.9C770.1,617.4,769.4,618.1,768.2,618.4L768.2,618.4z"/>
	</g>
	<g>
		<path fill="#484748" d="M836,658.3c-0.3,0-0.6,0-1-0.3l-20.9-10.1c-3.5,0.6-21.2,3.2-27.9,2.5c-20.3-1.3-29.8-5.1-37.4-8.9
			c-13.9-7.3-32.3-21.2-41.8-31.7c-2.5-2.9-5.4-10.5-1-14.3c6.3-5.7,15.5,2.9,26,12.7c9.2,8.2,19.3,17.7,28.8,19.6
			c1,0.3,1.6,1.3,1.6,2.2c-0.3,1-1.3,1.6-2.2,1.6c-10.5-2.2-21.2-12-30.7-20.6c-8.6-7.6-17.1-15.8-20.9-12.7c-2.2,1.9,0,7,1.3,8.9
			c8.2,9.2,25.3,23.1,40.6,31c7,3.8,16.2,7.3,35.8,8.2c6.7,0.3,27.2-2.5,27.6-2.9c0.3,0,0.6,0,1.3,0.3l19.6,9.5l15.8-37.7
			l-24.7-13.3c-0.6-0.3-14.3-7.6-21.2-18.1c-0.6-1-1.3-2.2-2.5-4.4c-2.2-4.4-9.5-18.1-13-16.8c-2.9,1-2.2,9.2-1,13.3l0.3,1.3
			c2.5,8.2,5.1,17.4,1,21.2c-4.4,4.1-15.2,4.1-18.1,2.9c-13.3-5.7-23.4-12.4-32.3-18.7c-4.4-2.9-7.9-4.1-10.5-3.2
			c-2.5,1-3.5,3.5-3.5,3.5c-0.3,1-1.6,1.6-2.5,1.3c-1-0.3-1.6-1.6-1.3-2.5c0-0.3,1.6-4.4,6-6c3.8-1.3,8.6,0,13.9,3.5
			c9.2,6.3,18.7,12.7,31.7,18.1c1.9,0.6,10.8,0.6,13.9-2.2c2.5-2.2-1-13-2.2-17.1l-0.3-1.6c-1-3.2-3.2-15.8,3.5-18.4
			c6-2.2,12,8.2,17.7,18.7c1,1.9,1.9,3.5,2.2,4.1c6.7,9.5,20,16.8,20,16.8l26.3,14.3c1,0.6,1.3,1.6,1,2.5l-17.4,41.5
			c-0.3,0.6-0.6,1-1.3,1C836.6,658.3,836.3,658.3,836,658.3z"/>
	</g>
</g>
<g>
	
		<rect x="905" y="726.8" transform="matrix(-4.464398e-02 -0.999 0.999 -4.464398e-02 239.6964 1686.6953)" fill="#484748" width="42.8" height="3.8"/>
</g>
<g>
	<path fill="#484748" d="M943.1,733.4c-4.1,0-7.3-3.2-7.3-7.3s3.2-7.3,7.3-7.3c4.1,0,7.3,3.2,7.3,7.3
		C950.3,730.2,947.2,733.4,943.1,733.4z M943.1,722.6c-1.9,0-3.5,1.6-3.5,3.5s1.6,3.5,3.5,3.5s3.5-1.6,3.5-3.5
		S945,722.6,943.1,722.6z"/>
</g>
<g>
	<path fill="#D9C1AD" d="M344.6,382.4c0,0,10.5-3.5,16.2,1.6c12,10.8-2.5,46.9-17.1,41.5"/>
	<path fill="#484748" d="M346.8,428c-1.3,0-2.2-0.3-3.5-0.6l1.3-3.8c6.3,2.2,11.7-6,13.3-8.6c5.7-9.8,7.9-24.1,1.6-29.8
		c-5.1-4.4-14.3-1.3-14.3-1.3l-1.3-3.8c0.3-0.3,11.4-3.8,18.4,1.9c7.9,7,5.7,23.4-1,34.5C357.3,424.2,351.9,428,346.8,428z"/>
</g>
<g>
	<path fill="#CBE4B8" d="M383.3,602.6c-1.6-46.6,6.7-70.6-25.7-89.3c-33.6-19.3-127-14.9-127-14.9s-75.1,9.8-88.1,52.6
		c-11.1,36.4,2.5,115.6,2.5,115.6l21.2-2.2v99.5l208.8,1.9c0,0,0.6-45.3,0-93.1C374.4,651,383.6,612.4,383.3,602.6z"/>
	<path fill="#484748" d="M376.6,767.6L164,765.7v-99.2l-20.9,2.2l-0.3-1.9c-0.6-3.2-13.3-80.2-2.2-116.6
		c5.4-18.1,22.8-33.3,50.1-43.7c20.3-7.9,39.6-10.5,39.6-10.5c0.3,0,10.1-0.6,24.4-0.6c28.8,0,80.5,1.9,103.9,15.5
		c26.9,15.5,26.9,35.8,26.6,66.2c0,7.3-0.3,15.8,0,24.7c0,4.1-1.3,13-3.2,23.8c-2.5,14.9-5.7,33.6-5.4,46.3c0.6,47.2,0,92.8,0,93.1
		L376.6,767.6z M167.8,761.9l205,1.9c0-9.2,0.6-49.4,0-91.2c-0.3-13,2.9-31.7,5.4-46.9c1.6-10.5,3.2-19.3,3.2-23.1
		c-0.3-9.2-0.3-17.7,0-25c0.3-31,0.6-48.2-24.4-62.7c-22.5-13-73.5-14.9-102-14.9c-14.3,0-23.8,0.3-24.1,0.6
		c-0.6,0-73.8,10.1-86.5,51.3c-9.8,32.3,0.3,100.7,2.2,112.8l21.5-2.2v99.5H167.8z"/>
</g>
<g>
	<path fill="#D9C1AD" d="M306.9,441.6c0,0,0,4.8,0,22.8c0.3,26,0,19.3,1.3,38c0,0-0.6,11.1-5.1,21.2c-6.3,13.9-15.2,26-15.2,26
		s-16.2-6.3-32.6-19.3c-14.6-11.4-23.1-28.5-23.1-28.5v-59.6L306.9,441.6z"/>
	<path fill="#484748" d="M288.9,552.2l-1.3-0.6c-0.6-0.3-16.5-6.7-33.3-19.6c-14.9-11.7-23.1-28.5-23.8-29.1l-0.3-0.3v-62.1
		l78.6-0.3v1.9c0,0,0,5.1,0,22.8v9.2c0,13,0,13,1,22.8l0.3,6l0,0c0,0.3-0.6,11.4-5.4,21.9c-6.3,13.9-14.9,25.7-15.2,26.3
		L288.9,552.2z M234.4,501.2c1.3,2.5,9.5,17.4,22.2,27.6c13.3,10.5,26.6,16.8,30.7,18.7c2.2-3.5,8.9-13.3,13.9-24.4
		c4.1-9.2,4.8-19,5.1-20.3l-0.3-5.7c-0.6-9.8-0.6-9.8-1-23.1v-9.2c0-12,0-18.1,0-20.9l-70.6,0.3V501.2z"/>
</g>
<g>
	<g>
		<path fill="#CEB3A1" d="M234.1,441.6v59.6c0,0,5.4,11.1,15.2,21.2v-81.1L234.1,441.6z"/>
	</g>
</g>
<g>
	<path fill="#D9C1AD" d="M254.6,486.9c-81.7-31.4-62.1-139.1-62.1-139.1c0-45,36.7-61.8,81.4-61.8l0,0c44.7,0,81.4,16.8,81.4,61.8
		v56.1c0,21.2-14.3,53.5-26.3,68.7C300.3,509.1,254.6,486.9,254.6,486.9z"/>
	<path fill="#484748" d="M285.7,495.5c-17.4,0-31-6.7-31.7-7c-33.9-13-55.8-41.8-62.7-82.7c-5.1-29.5-1-55.8-0.3-58.3
		c0-41.2,29.8-63.7,83.3-63.7c53.9,0,83.3,22.8,83.3,63.7v56.1c0,21.2-14.3,53.9-26.9,70C319.3,488.2,304.1,495.5,285.7,495.5z
		 M274,288.3c-29.8,0-79.5,7.9-79.5,59.9v0.3c-0.3,1-18.4,106.1,60.8,136.9c0.3,0,13.6,6.7,30.1,6.7c17.1,0,31.4-6.7,41.8-20.3
		c12.4-15.5,26-47.8,26-67.5v-56.1C353.5,295.9,303.8,288.3,274,288.3z"/>
</g>
<g>
	<path fill="#474748" d="M237.5,371l-2.5-3.2c0.3-0.3,9.2-7,20.3-8.9c8.2-1.3,16.8,2.2,17.1,2.2l-1.6,3.5c0,0-7.6-3.2-14.9-1.9
		C246.1,364.6,237.9,371,237.5,371z"/>
</g>
<g>
	<path fill="#FFFFFF" stroke="#3A3A3A" stroke-width="2" stroke-miterlimit="10" d="M288.9,305.4"/>
</g>
<g>
	<path fill="#6B543E" d="M338,305.4c0,0-29.8,30.7-77.3,44c-47.5,13.3-60.8,6-60.8,6s-4.4,53.2,0.3,70.3c8.9,31.7,32,50.7,32,50.7
		s-21.5,0.3-53.9-29.5c-42.8-40.2-35.2-161.9,42.8-186c79.8-24.4,118.2,16.8,118.2,16.8s24.4,0.3,31,34.8
		c7,35.5-14.9,73.2-14.9,73.2s-2.9-39.9-4.1-51.3C349.1,314.9,338,305.4,338,305.4z"/>
	<path fill="#484748" d="M232.5,478.4c-1,0-23.1-0.3-55.1-30.1c-23.4-21.9-32.9-67.2-22.8-110.2c8.9-39.9,33.3-68.7,65.9-78.9
		c17.1-5.1,33.3-7.9,48.8-7.9c44,0,66.8,20.9,70.6,24.7c4.4,0.6,26,4.4,32,36.4c7,35.8-14.3,72.9-15.2,74.4l-3.2,5.7l-0.3-6.3
		c0-0.3-2.9-39.9-4.1-51.3c-1.6-14.9-8.6-23.8-11.1-26.9c-6.7,6.3-35.2,31.7-77,43.1c-19.3,5.4-35.5,7.9-47.8,7.9
		c-6,0-9.8-0.6-12-1.3c-1,10.8-3.5,52.6,0.6,67.2c8.6,30.4,31.4,49.4,31.4,49.7l4.1,3.5L232.5,478.4z M269.5,255.3
		c-15.2,0-31,2.5-47.5,7.6c-31.4,9.5-54.8,37.4-63.7,76c-9.5,41.2-0.3,85.9,21.9,106.4c21.5,20,38,26.3,46.6,28.2
		c-7.3-7.3-21.5-24.1-28.2-47.2c-4.8-17.1-0.6-69.1-0.3-71l0.3-2.9l2.5,1.3c0,0,3.5,1.6,12.7,1.6c8.2,0,23.1-1.3,46.6-7.9
		c46.3-13,76-43.1,76.3-43.4l1.3-1.3l1.3,1.3c0.3,0.3,11.4,10.1,13.9,30.7c1,8.6,2.9,32.3,3.5,44.4c5.7-12,16.5-39.6,11.4-65.6
		c-6.3-32.6-28.8-33.3-29.1-33.3h-1l-0.6-0.6c0,0-5.7-6-16.8-12C310.4,262,293.3,255.3,269.5,255.3z"/>
</g>
<g>
	<path fill="#D9C1AD" d="M200.8,382.4c0,0-11.1-3.5-17.4,1.6c-13,10.5,2.9,45.9,18.1,40.9"/>
	<path fill="#484748" d="M198.3,427.4c-6,0-12-4.8-16.8-13c-5.7-10.5-7.6-25.3,0.3-32c7-5.7,18.7-2.2,19-1.9l-1.3,3.8
		c0,0-10.1-3.2-15.5,1.3c-6.3,5.1-4.8,17.7,0.6,26.9c3.5,6,9.5,12.7,15.5,10.5l1.3,3.8C200.8,427.4,199.5,427.4,198.3,427.4z"/>
</g>
<g>
	<path fill="#474748" d="M288.9,430.8c-2.5,0-4.8-0.3-7-1c-4.4-1.6-6.7-4.8-6.7-9.2c0-1,1-1.9,1.9-1.9c1,0,1.9,1,1.9,1.9
		c0,2.9,1.3,4.8,4.1,5.7c6,2.2,15.2-0.3,17.4-1.9c-7.3-13.3-5.7-34.5-4.8-45c0-1.3,0.3-2.5,0.3-3.2c0-1,1-1.9,2.2-1.9
		c1,0,1.9,1,1.9,2.2c0,1,0,2.2-0.3,3.5c-1,10.1-2.5,31.4,4.8,43.4c0.6,1,0.6,2.2-0.3,3.5C302.5,428.6,295.5,430.8,288.9,430.8z"/>
</g>
<g>
	<path fill="#474748" d="M351.3,367.8c0,0-5.4-6.3-12.4-7.6c-10.5-1.9-20.6,0-20.9,0.3l-0.6-3.8c0.3,0,11.1-2.2,22.2-0.3
		c8.6,1.6,14.6,8.6,14.9,8.9L351.3,367.8z"/>
</g>
<g>
	<ellipse fill="#5E5E5F" cx="332.6" cy="382.1" rx="6.3" ry="6"/>
	<path fill="#474748" d="M332.6,390.3c-4.8,0-8.2-3.5-8.2-7.9s3.8-7.9,8.2-7.9c4.8,0,8.2,3.5,8.2,7.9
		C341.1,386.5,337.3,390.3,332.6,390.3z M332.6,378.3c-2.5,0-4.4,1.9-4.4,4.1c0,2.2,1.9,4.1,4.4,4.1c2.5,0,4.4-1.9,4.4-4.1
		C337,380.2,335.1,378.3,332.6,378.3z"/>
</g>
<g>
	<ellipse fill="#5E5E5F" cx="257.8" cy="382.1" rx="6.3" ry="6"/>
	<path fill="#474748" d="M257.8,390.3c-4.8,0-8.2-3.5-8.2-7.9s3.8-7.9,8.2-7.9c4.8,0,8.2,3.5,8.2,7.9
		C266.1,386.5,262.6,390.3,257.8,390.3z M257.8,378.3c-2.5,0-4.4,1.9-4.4,4.1c0,2.2,1.9,4.1,4.4,4.1c2.5,0,4.4-1.9,4.4-4.1
		C262.3,380.2,260.4,378.3,257.8,378.3z"/>
</g>
<g>
	<path fill="#CEB09F" d="M257.8,402.3c-7.6,0-14.3-3.5-14.6-3.5c-1-0.6-1.3-1.6-1-2.5c0.6-1,1.6-1.3,2.5-1c0,0,6.7,3.2,13.3,3.2
		c6.3-0.3,12.7-3.2,12.7-3.2c1-0.3,2.2,0,2.5,1c0.3,1,0,2.2-1,2.5c-0.3,0-7,3.2-14.3,3.5H257.8z"/>
</g>
<g>
	<path fill="#CEB09F" d="M332.6,402.3c-7.6,0-14.3-3.5-14.6-3.5c-1-0.6-1.3-1.6-1-2.5c0.6-1,1.6-1.3,2.5-1c0,0,6.7,3.2,13.3,3.2
		c6.3-0.3,12.7-3.2,12.7-3.2c1-0.3,2.2,0,2.5,1s0,2.2-1,2.5c-0.3,0-7,3.2-14.3,3.5H332.6z"/>
</g>
<g>
	<path fill="#CEB09F" d="M301.5,476.2h-20.3c-1,0-1.9-1-1.9-1.9c0-1,1-1.9,1.9-1.9h20.3c1,0,1.9,1,1.9,1.9
		C303.4,475.5,302.8,476.2,301.5,476.2z"/>
</g>
<g>
	<path fill="#C18599" d="M309.5,452.7c0,0-4.1,10.8-19.3,10.8c-13.6,0-20-12.4-20-12.4s7.6-3.5,13.9-4.1c1.9-0.3,3.5,0.6,6,0.6
		c2.9,0,5.7-1,7.9-0.6C303.8,448,309.5,452.7,309.5,452.7z"/>
</g>
<g>
	<path fill="#484748" d="M290.4,458.1c-14.9,0-24.1-7.3-24.4-7.6c-1-0.6-1-1.9-0.3-2.9c0.6-1,1.9-1,2.9-0.3l0,0
		c0,0,8.6,6.7,22.2,6.7c12,0,21.9-6.7,21.9-6.7c1-0.6,2.2-0.3,2.9,0.6c0.6,1,0.3,2.2-0.6,2.9C314.2,451.1,303.8,458.1,290.4,458.1z"
		/>
</g>
<g>
	<path fill="#BCD8A4" d="M261.6,601.6l-66.8,14.3l-4.8-52.6c0,0,18.1,30.7,26.9,36.4C224.9,605.1,261.6,601.6,261.6,601.6z"/>
</g>
<g>
	<path fill="#BCD8A4" d="M233.1,651L217,667.8c0,0,43.1,14.3,76.3,24.1c32.6,9.5,79.5,13.3,79.5,13.3v-19.6L233.1,651z"/>
</g>
<g>
	<path fill="none" stroke="#484748" stroke-width="2" stroke-miterlimit="10" d="M365.2,618.7"/>
</g>
<g>
	<path fill="#CBE4B8" d="M323.1,498c0,0,46.6,17.1,57.7,23.1c17.1,9.5,33.3,20,26.3,72.9c-5.1,37.4-17.4,89.3-32.6,93.5
		C340.8,696,210,645.3,210,645.3l18.7-42.5l110.6,27.9c0,0,6.3-12,9.2-26c3.8-17.4,3.8-31.4,3.8-31.4"/>
	<path fill="#484748" d="M365.2,690.3c-43.7,0-150.8-41.2-155.5-43.4l-1.9-0.6l20-45.6l110.6,27.9c1.6-3.5,6-13.3,8.6-24.1
		c3.8-17.1,3.8-30.7,3.8-31h3.8c0,0.6,0,14.6-3.8,32c-3.2,13.9-9.2,26-9.5,26.3l-0.6,1.3l-110.6-27.9l-17.1,39
		c14.9,5.7,112.5,42.1,152.1,42.1c3.5,0,6.7-0.3,9.2-1c9.5-2.5,23.4-35.5,31-91.6c7-52.9-10.1-62.4-25.3-70.6
		c-10.8-6-57-22.8-57.3-23.1l1.3-3.8c1.9,0.6,46.9,17.1,58,23.1c19.6,10.8,34.2,23.1,27.2,74.8c-4.1,30.7-16.5,90.6-33.9,95
		C372.5,690,369,690.3,365.2,690.3z"/>
</g>
<g>
	<path fill="#D9C1AD" d="M328.8,502.8c1.6-9.2-7.9-12-7.9-12s18.7-31,6.3-31c-7.9,0-14.6,24.4-33.6,42.5c0,0-1.9-20.9-7.9-20
		c-7,1-6,11.4-6,11.4s0,10.1-2.5,15.8c-6,13.3-11.4,23.8-11.4,23.8l35.5,22.2c0,0,26.3-27.6,30.1-32.6
		C344.3,504,328.5,505,328.8,502.8z"/>
	<path fill="#484748" d="M301.2,557.9l-38.3-24.1l1-1.6c0,0,5.7-10.5,11.4-23.8c2.2-5.1,2.2-14.9,2.2-14.9
		c-0.3-4.4,0.6-12.4,7.6-13.3c0.3,0,0.3,0,0.6,0c5.7,0,8.2,10.8,9.2,17.7c7.9-8.2,13.3-17.4,17.7-25c5.4-9.2,9.2-15.2,14.3-15.2
		c3.2,0,4.4,1.6,5.4,2.9c3.5,6.3-5.1,22.8-8.9,29.1c3.5,1.9,7.9,6,7.3,12.4c0.3,0,0.3,0.3,0.6,0.3c1.9,1,5.4,2.2,6.7,6
		s-0.6,8.9-5.4,15.5c-3.8,5.4-29.1,32-30.4,32.9L301.2,557.9z M268.3,532.5l32.6,20.3c5.1-5.4,25.7-26.9,28.8-31.4
		c4.8-7,5.4-10.5,4.8-12.4c-0.6-1.9-2.5-2.9-4.1-3.5c-1.6-0.6-3.5-1.3-3.2-3.5c1.3-7.3-6.3-9.8-6.7-10.1l-2.2-0.6l1.3-2.2
		c5.4-8.9,12-23.4,9.8-27.2c0-0.3-0.3-0.6-1.9-0.6c-2.9,0-6.7,6.3-10.8,13.3c-5.1,8.6-11.7,19.3-21.5,28.5l-2.9,2.9l-0.3-4.1
		c-1-9.2-3.5-18.1-5.7-18.1c-5.1,0.6-4.4,9.2-4.4,9.5c0,0.6,0,10.8-2.5,16.8C274.3,520.5,269.9,529.1,268.3,532.5z"/>
</g>
<g>
	<path fill="#484748" d="M306.9,510.4c-0.3,0-1,0-1.3-0.3c-1-0.6-1-1.9-0.3-2.9l13.9-17.7c0.6-1,1.9-1,2.9-0.3c1,0.6,1,1.9,0.3,2.9
		l-13.9,17.7C308.2,510,307.6,510.4,306.9,510.4z"/>
</g>
<g>
	<path fill="#484748" d="M316.7,520.2c-0.3,0-1,0-1.3-0.3c-1-0.6-1-1.9-0.3-2.9l13-16.5c0.6-1,1.9-1,2.9-0.3c1,0.6,1,1.9,0.3,2.9
		l-13,16.5C317.7,519.9,317.4,520.2,316.7,520.2z"/>
</g>
<g>
	<path fill="#CBE4B8" d="M149.2,678c-6.7-10.8-6-21.5,2.5-31c0,0,14.3-13.6,27.9-28.2c9.8-10.8,21.5-21.9,38-38.6
		c16.5-16.5,43.7-49.1,43.7-49.1l47.8,29.1c0,0-36.4,43.1-62.1,72.2c-13.3,15.2-28.5,32.3-50.7,51.3c-12,10.1-29.5,11.7-41.8,1
		C152.3,682.4,150.4,680.2,149.2,678z"/>
	<path fill="#484748" d="M174.5,694.1c-7.9,0-15.2-2.9-21.2-7.9c-2.2-2.2-4.4-4.4-6-7c-7.3-11.7-6.3-23.4,2.9-33.3
		c0.3-0.3,14.6-13.9,27.9-28.2c6.7-7.3,14.3-14.6,23.8-24.1c4.4-4.4,9.2-9.2,14.6-14.6c16.2-16.5,43.4-48.5,43.7-48.8l1-1.3l51.3,31
		l-1.6,1.9c-0.3,0.3-36.7,43.4-62.1,72.2c-13.6,15.8-28.8,32.6-50.7,51.3C191.3,690.9,183.1,694.1,174.5,694.1z M261.9,533.5
		c-5.4,6.3-28.5,33.3-42.8,47.8c-5.4,5.4-10.1,10.1-14.6,14.6c-9.5,9.5-16.8,16.8-23.4,24.1c-13.6,14.6-27.9,28.2-27.9,28.2
		c-7.9,8.2-8.9,18.4-2.2,28.5c1.6,2.2,3.2,4.4,5.4,6.3c5.1,4.4,11.7,7,18.7,7c7.6,0,14.9-2.9,20.6-7.9c21.5-18.7,36.7-35.5,50.4-51
		c22.5-25.7,53.5-62.1,60.5-70.6L261.9,533.5z"/>
</g>
<g>
	<path fill="#CBE4B8" d="M191.9,590.8l4.8,65.6l-29.1,32.3c0,0-20.6-5.1-22.8-29.5c-6.7-77,29.8-97.6,29.8-97.6L191.9,590.8z"/>
</g>
<g>
	<path fill="#F2D4C0" d="M208.7,589.6c0,0-7.6-2.9-14.9-3.5c-10.1-0.6-21.2,1-22.2,3.8c-0.6,1.6,1.6,6,6.3,5.4
		c7.9-1,23.1,2.2,23.1,2.2L208.7,589.6z"/>
	<path fill="#484748" d="M201.4,599.7l-1-0.3c0,0-11.1-2.5-19-2.5c-1.3,0-2.5,0-3.2,0.3c-0.3,0-1,0-1.3,0c-2.5,0-4.8-1.3-6.3-3.2
		c-1.3-1.6-1.6-3.5-1-5.1c1.9-5.1,17.7-5.1,19.6-5.1c1.6,0,3.2,0,4.8,0.3c7.6,0.6,15.2,3.5,15.5,3.5l2.9,1L201.4,599.7z M181.2,593
		c7,0,15.8,1.6,18.7,2.5l5.1-5.1c-2.9-1-7.3-1.9-11.4-2.2c-1.6,0-2.9,0-4.4,0c-9.2,0-15.2,1.9-15.8,2.9c0,0,0.3,0.6,0.6,1.6
		c0.6,0.6,1.6,1.3,3.5,1.3C178.6,593,179.9,593,181.2,593z"/>
</g>
<g>
	<path fill="#F2D4C0" d="M200.8,597.5c0,0-11.1-2.2-12.7-2.2c-3.8-0.3-7-0.6-10.8,1.6c-1,0.3-4.4,3.5-1.3,6
		c1.6,1.3,16.5,3.2,16.5,3.2L200.8,597.5z"/>
	<path fill="#484748" d="M192.9,608.3h-1c-7-1-15.5-2.5-17.1-3.8c-1.3-1-2.2-2.5-1.9-4.1c0.3-2.9,2.9-4.8,3.5-5.1
		c2.5-1.6,5.1-2.2,7.9-2.2c1.3,0,2.9,0,3.8,0.3c1.9,0.3,12.4,2.2,13,2.2l3.8,0.6L192.9,608.3z M184.3,597.2c-2.2,0-4.1,0.6-6,1.6
		c-0.3,0.3-1.6,1.3-1.6,2.2c0,0,0,0.3,0.3,0.6c1,0.6,8.2,1.9,14.6,2.9l5.4-5.4c-3.5-0.6-7.9-1.6-8.9-1.6
		C186.5,597.2,185.3,597.2,184.3,597.2z"/>
</g>
<g>
	<path fill="#F2D4C0" d="M216,581.3l-13-3.5c0,0-15.8-0.6-20.3,1.3c-1.3,0.6-4.8,3.5-4.4,5.4c0.6,1.9,1.9,1.3,6.7,1
		c7.9-0.6,23.1,3.8,23.1,3.8L216,581.3z"/>
	<path fill="#484748" d="M209.3,591.8l-1.3-0.3c0,0-14.9-4.4-22.5-3.8c-1,0-1.9,0.3-2.5,0.3c-1,0-1.9,0.3-2.5,0.3
		c-2.2,0-3.5-1-3.8-2.9c-1-3.8,4.4-7.3,5.4-7.6c1-0.3,3.5-1.6,14.6-1.6c3.8,0,6.3,0,6.7,0h0.3l16.2,4.1L209.3,591.8z M187.2,583.5
		c7,0,17.4,2.5,20.9,3.5l4.4-4.8l-9.5-2.5c-0.6,0-3.2,0-6.3,0c-9.2,0-12,1-13,1.3c-1,0.3-2.9,2.2-3.2,3.2c0.6,0,1.3,0,1.9-0.3
		c0.6,0,1.6-0.3,2.5-0.3C185.9,583.5,186.5,583.5,187.2,583.5z"/>
</g>
<g>
	<path fill="#484748" d="M185.3,614.9c-0.6,0-1-0.3-1.3-0.6c-0.6-0.6-0.6-1.9,0-2.9l11.4-11.4c0.6-0.6,1.9-0.6,2.9,0
		c0.6,0.6,0.6,1.9,0,2.9l-11.4,11.4C186.2,614.9,185.9,614.9,185.3,614.9z"/>
</g>
<g>
	<path fill="#CEB09F" d="M190.3,411.5c-1,0-1.6-0.6-1.9-1.3c-1-2.2-3.5-9.2-3.2-12c0-1.9,1.3-7.6,4.8-9.5c1.9-1,5.7-1,6.3-1l0,0
		c1,0,1.9,1,1.9,1.9c0,1-1,1.9-1.9,1.9c-1.6,0-4.1,0.3-4.8,0.6c-1.3,0.6-2.5,3.8-2.5,6c0,1.3,1.6,6.3,2.9,10.1c0.3,1,0,2.2-1.3,2.5
		C191,411.5,190.7,411.5,190.3,411.5z"/>
</g>
<g>
	<g>
		<path fill="#BCD8A4" d="M293.6,553.1c-4.4,5.4-36.7,43.4-59.6,70c-13,14.9-27.6,31.4-49.1,50.1c-8.9,7.6-21.2,10.1-31.7,6.3
			c1,1,1.6,1.9,2.5,2.5c12,10.5,29.1,9.2,40.6-1c21.5-18.7,36.1-35.2,49.1-50.1c24.7-28.5,60.2-70.6,60.2-70.6L293.6,553.1z"/>
	</g>
</g>
<g>
	<g>
		<rect x="516.6" y="341.8" fill="#97CCEF" width="9.2" height="52.6"/>
	</g>
	<g>
		<rect x="535.3" y="313.3" fill="#97CCEF" width="9.2" height="81.1"/>
	</g>
	<g>
		<rect x="554" y="359.6" fill="#97CCEF" width="9.2" height="34.8"/>
	</g>
	<g>
		<rect x="572.7" y="277.5" fill="#97CCEF" width="9.2" height="116.9"/>
	</g>
	<g>
		<rect x="591.1" y="270.2" fill="#97CCEF" width="9.2" height="124.2"/>
	</g>
	<g>
		<rect x="609.8" y="266.4" fill="#97CCEF" width="9.2" height="128"/>
	</g>
	<g>
		<rect x="626.9" y="314.6" fill="#97CCEF" width="9.2" height="79.8"/>
	</g>
	<g>
		<rect x="645.6" y="341.8" fill="#97CCEF" width="9.2" height="52.6"/>
	</g>
	<g>
		<rect x="664" y="356.7" fill="#97CCEF" width="9.2" height="37.7"/>
	</g>
	<g>
		<rect x="516.6" y="326" fill="#6EA7DA" width="9.2" height="17.1"/>
	</g>
	<g>
		<rect x="535.3" y="278.5" fill="#6EA7DA" width="9.2" height="34.8"/>
	</g>
	<g>
		<rect x="554" y="325.7" fill="#6EA7DA" width="9.2" height="34.8"/>
	</g>
	<g>
		<rect x="572.7" y="219.9" fill="#6EA7DA" width="9.2" height="58"/>
	</g>
	<g>
		<rect x="591.1" y="192.3" fill="#6EA7DA" width="9.2" height="77.9"/>
	</g>
	<g>
		<rect x="609.8" y="238.2" fill="#6EA7DA" width="9.2" height="28.2"/>
	</g>
	<g>
		<rect x="626.9" y="283.2" fill="#6EA7DA" width="9.2" height="31.4"/>
	</g>
	<g>
		<rect x="645.6" y="325" fill="#6EA7DA" width="9.2" height="16.5"/>
	</g>
	<g>
		<rect x="664" y="331.4" fill="#6EA7DA" width="9.2" height="28.2"/>
	</g>
</g>
<g opacity="0.15">
	<g>
		<path fill="#FFFFFF" d="M1000.1,250c-5.4-2.5-18.7-1.3-29.1,0.6c-16.8,3.5-38.6,7.6-68.4,4.8c-47.2-4.4-54.8-22.8-60.8-34.2
			c1.3,11.7,3.2,39.6,64,45c29.8,2.5,54.5-2.5,71.3-6c10.8-2.2,26-3.8,26-3.8S1003.2,251.2,1000.1,250z"/>
	</g>
</g>
<g opacity="0.15">
	<path fill="#FFFFFF" d="M1021.6,322.2c0,0,15.2-34.2-0.3-57.7c-6-8.9-13.3-5.1-9.5,0.3C1016.2,271.2,1025.4,301.6,1021.6,322.2z"/>
</g>
<g>
	<polygon fill="#FFFFFF" points="839.8,663.1 823.3,655.8 846.7,604.8 862.9,611.7 	"/>
	<path fill="#484748" d="M840.7,665.9l-20-9.2l25-54.5l20,8.6L840.7,665.9z M825.8,654.8l12.7,5.7l21.5-47.8l-12.7-5.4L825.8,654.8z
		"/>
</g>
<g>
	<path fill="#959697" d="M991.8,467.9c0,0,46.6,16.2,60.2,24.4c18.1,11.1,48.5,20.9,36.7,92.5c-6.3,38.6-16.2,72.5-25.7,97.9
		c-5.4,14.9-18.1,47.2-35.5,55.1c-27.6,12.4-190.4-69.4-190.4-69.4l27.2-60.8l126.1,51l24.4-74.4"/>
	<path fill="#484748" d="M1020,741c-16.8,0-49.7-10.5-98.5-31.4c-43.7-18.7-84.6-39.3-84.9-39.3l-1.6-1l28.8-64.3l1.9,0.6
		l124.2,50.4l23.8-72.5l3.8,1.3l-25,76.3l-126.7-51l-25.7,57.7c51.6,26,147.6,69.7,179.9,69.7c2.9,0,5.4-0.3,7.3-1.3
		c11.7-5.4,23.1-23.4,34.2-53.9c7.9-21.5,18.7-55.8,25.3-97.6c10.5-64-13.3-77.6-30.7-87.8c-1.6-1-3.5-1.9-5.1-2.9
		c-13.3-8.2-59.6-24.1-59.9-24.4l1.3-3.8c1.9,0.6,46.9,16.2,60.5,24.7c1.6,1,3.2,1.9,4.8,2.9c18.4,10.5,43.7,25,32.9,91.9
		c-7,42.1-17.7,76.7-25.7,98.2c-4.1,11.7-17.4,47.5-36.4,56.1C1026.4,740.7,1023.5,741,1020,741z"/>
</g>
<g>
	<polygon fill="#484748" points="949.4,640.3 945.9,638.4 995.6,554.1 990.6,529.1 1013.7,526.5 1003.2,474.6 1007,473.6 
		1018.5,530 995.3,532.5 999.8,554.7 	"/>
</g>
<g>
	<path fill="#DC9FC7" d="M892.7,406.5c0,0,12.4,2.2,32,1.9c14.6,0,29.5-1.9,29.5-1.9s-13.3,18.4-29.5,18.4
		C902.2,424.8,892.7,406.5,892.7,406.5z"/>
	<path fill="#484748" d="M924.7,426.7c-23.4,0-33.3-18.7-33.6-19.3c-0.3-0.6-0.3-1.6,0.3-1.9c0.3-0.6,1.3-1,1.9-0.6
		c0,0,12.4,1.9,31.7,1.9c14.3,0,29.1-1.9,29.5-1.9c0.6,0,1.6,0.3,1.9,1c0.3,0.6,0.3,1.6,0,2.2C955.4,408.4,941.5,426.7,924.7,426.7z
		 M896.8,409c3.8,5.1,12.7,13.6,27.9,13.6c10.8,0,20.3-8.9,25-13.9c-5.7,0.6-15.2,1.3-25,1.3C911.7,410.6,901.9,409.6,896.8,409z"/>
</g>
</svg>
