<?xml version="1.0" encoding="utf-8"?>
<!-- Generator: Adobe Illustrator 18.1.1, SVG Export Plug-In . SVG Version: 6.00 Build 0)  -->
<svg version="1.1" id="Layer_1" xmlns="http://www.w3.org/2000/svg" xmlns:xlink="http://www.w3.org/1999/xlink" x="0px" y="0px"
	 viewBox="198.6 0 1025.4 704.3" enable-background="new 198.6 0 1025.4 704.3" xml:space="preserve">
<g>
	<g>
		<rect x="885.4" y="-10.7" fill="#FFFFFF" width="260.2" height="342.2"/>
		<path fill="#808285" d="M1147.8,333.7H883.1V-12.9h265.1v346.7H1147.8z M887.6,329.2h255.7V-8.4H887.6V329.2z"/>
	</g>
	<g>
		<g>
			<path fill="#6EA7DA" d="M1111.9,170.1h-4.5c-1.1,0-2.2-1.1-2.2-2.2c0-1.1,1.1-2.2,2.2-2.2h4.5c1.1,0,2.2,1.1,2.2,2.2
				C1114.1,169,1113.4,170.1,1111.9,170.1z M1093.5,170.1h-4.5c-1.1,0-2.2-1.1-2.2-2.2c0-1.1,1.1-2.2,2.2-2.2h4.5
				c1.1,0,2.2,1.1,2.2,2.2C1095.8,169,1094.6,170.1,1093.5,170.1z M1074.8,170.1h-4.5c-1.1,0-2.2-1.1-2.2-2.2c0-1.1,1.1-2.2,2.2-2.2
				h4.5c1.1,0,2.2,1.1,2.2,2.2C1077,169,1075.9,170.1,1074.8,170.1z M1056.1,170.1h-4.5c-1.1,0-2.2-1.1-2.2-2.2
				c0-1.1,1.1-2.2,2.2-2.2h4.5c1.1,0,2.2,1.1,2.2,2.2C1058.3,169,1057.6,170.1,1056.1,170.1z M1037.4,170.1h-4.5
				c-1.1,0-2.2-1.1-2.2-2.2c0-1.1,1.1-2.2,2.2-2.2h4.5c1.1,0,2.2,1.1,2.2,2.2C1039.6,169,1038.8,170.1,1037.4,170.1z M1019,170.1
				h-4.9c-1.1,0-2.2-1.1-2.2-2.2c0-1.1,1.1-2.2,2.2-2.2h4.5c1.1,0,2.2,1.1,2.2,2.2C1020.9,169,1020.1,170.1,1019,170.1z
				 M1000.3,170.1h-4.5c-1.1,0-2.2-1.1-2.2-2.2c0-1.1,1.1-2.2,2.2-2.2h4.5c1.1,0,2.2,1.1,2.2,2.2
				C1002.5,169,1001.8,170.1,1000.3,170.1z M981.6,170.1h-4.5c-1.1,0-2.2-1.1-2.2-2.2c0-1.1,1.1-2.2,2.2-2.2h4.5
				c1.1,0,2.2,1.1,2.2,2.2C983.8,169,983.1,170.1,981.6,170.1z M963.2,170.1h-4.5c-1.1,0-2.2-1.1-2.2-2.2c0-1.1,1.1-2.2,2.2-2.2h4.5
				c1.1,0,2.2,1.1,2.2,2.2C965.5,169,964.3,170.1,963.2,170.1z M944.5,170.1H940c-1.1,0-2.2-1.1-2.2-2.2c0-1.1,1.1-2.2,2.2-2.2h4.5
				c1.1,0,2.2,1.1,2.2,2.2C946.8,169,945.6,170.1,944.5,170.1z M925.8,170.1h-4.5c-1.1,0-2.2-1.1-2.2-2.2c0-1.1,1.1-2.2,2.2-2.2h4.5
				c1.1,0,2.2,1.1,2.2,2.2C928,169,927.3,170.1,925.8,170.1z"/>
		</g>
		<g>
			<path fill="#97CCEF" d="M926.5,278.3c-0.4,0-0.7,0-1.1,0c-1.9-0.4-3-2.6-2.2-4.5l28.8-97.7c0.4-1.5,1.5-2.2,3-2.6
				c1.5,0,2.6,0.7,3.4,1.9l24.7,50.2l55.8-117.6c0.7-1.1,1.9-1.9,3-1.9l0,0c1.5,0,2.6,0.7,3,2.2l16.8,38.6l50.5-92.8
				c0.7-1.9,3-2.2,4.9-1.5c1.9,0.7,2.2,3,1.5,4.9l-53.9,98.8c-0.7,1.1-1.9,1.9-3.4,1.9c-1.5,0-2.6-0.7-3-2.2l-16.5-37.8l-55.4,117.2
				c-0.7,1.1-1.9,1.9-3,1.9c-1.5,0-2.6-0.7-3-1.9l-24-48.7l-26.6,89.1C929.5,277.6,928,278.3,926.5,278.3z"/>
		</g>
		<g>
			<path fill="#97CCEF" d="M1122.3,73.2c-1.5,0-3-1.1-3.4-3l-3-16.5l-15.7,9.4c-1.5,1.1-3.7,0.4-4.9-1.1c-1.1-1.5-0.4-3.7,1.1-4.9
				l20.2-12c1.1-0.7,2.2-0.7,3.4,0c1.1,0.4,1.9,1.5,1.9,2.6l4.1,21.3c0.4,1.9-0.7,3.7-2.6,4.1C1123.1,73.2,1122.7,73.2,1122.3,73.2z
				"/>
		</g>
	</g>
	<g>
		<rect x="298.7" y="36.9" fill="#FFFFFF" width="254.6" height="362.8"/>
		<path fill="#808285" d="M555.5,401.9H296.4V34.6h259.1V401.9z M300.9,397.4h249.7V39.1H300.9V397.4z"/>
	</g>
	<g>
		<g>
			<path fill="#97CCEF" d="M429,211.3h86.5c0-47.9-38.9-86.5-86.5-86.5V211.3L429,211.3z"/>
			<path fill="#FFFFFF" d="M517.3,213.2h-90.2V123h1.9c48.7,0,88.4,39.7,88.4,88.4V213.2L517.3,213.2z M430.9,209.4H514
				c-0.7-45.3-37.8-82.4-83.1-83.1V209.4z"/>
		</g>
		<g>
			<path fill="#5D95B7" d="M429,211.3v-86.9c-47.9,0-86.5,38.9-86.5,86.5c0,15.3,4.1,30,11.2,42.7L429,211.3L429,211.3z"/>
			<path fill="#FFFFFF" d="M353,256.2l-0.7-1.5c-7.5-13.1-11.2-28.1-11.2-43.4c0-48.7,39.7-88.4,88.4-88.4h1.9v89.5L353,256.2z
				 M427.1,126.3c-46,1.1-83.1,38.6-83.1,85c0,13.9,3.4,27.7,10.1,40.1l73-41.2V126.3z"/>
		</g>
		<g>
			<path fill="#639CC6" d="M353.4,254c15,26.2,43.1,44.2,75.6,44.2c15.7,0,30.3-4.1,42.7-11.2L429,211.3L353.4,254z"/>
			<path fill="#FFFFFF" d="M429,299.7c-31.8,0-61.4-17.2-77.1-44.9l-0.7-1.5l78.6-44.2l44.6,78.2l-1.5,0.7
				C459.3,295.6,444.3,299.7,429,299.7z M356,254.4c15.3,25.8,43.1,41.6,73,41.6c14.2,0,28.1-3.4,40.4-10.1l-41.2-72.3L356,254.4z"
				/>
		</g>
		<g>
			<path fill="#6EA7DA" d="M429,211.3l42.7,75.3c26.2-15,43.8-43.1,43.8-75.3H429z"/>
			<path fill="#FFFFFF" d="M471.3,289.2L426,209.4h91.3v1.9c0,31.8-17.2,61-44.9,76.7L471.3,289.2z M432,213.2l40.4,71.1
				c25.1-15,40.8-41.9,41.6-71.1H432z"/>
		</g>
	</g>
	<g>
		<rect x="588.5" y="110.2" fill="#FFFFFF" width="260.2" height="342.2"/>
		<path fill="#808285" d="M851.3,454.7H586.2V108h265.1V454.7z M590.7,450.2h255.7V112.5H590.7L590.7,450.2L590.7,450.2z"/>
	</g>
	<g>
		<g>
			<rect x="624" y="347.2" fill="#97CCEF" width="10.9" height="62.1"/>
		</g>
		<g>
			<rect x="646.1" y="313.5" fill="#97CCEF" width="10.9" height="95.8"/>
		</g>
		<g>
			<rect x="668.2" y="368.2" fill="#97CCEF" width="10.9" height="41.2"/>
		</g>
		<g>
			<rect x="690.3" y="271.2" fill="#97CCEF" width="10.9" height="138.1"/>
		</g>
		<g>
			<rect x="712" y="262.6" fill="#97CCEF" width="10.9" height="146.8"/>
		</g>
		<g>
			<rect x="734.1" y="258.1" fill="#97CCEF" width="10.9" height="151.3"/>
		</g>
		<g>
			<rect x="754.3" y="315" fill="#97CCEF" width="10.9" height="94.3"/>
		</g>
		<g>
			<rect x="776.4" y="347.2" fill="#97CCEF" width="10.9" height="62.1"/>
		</g>
		<g>
			<rect x="798.1" y="364.8" fill="#97CCEF" width="10.9" height="44.6"/>
		</g>
		<g>
			<rect x="624" y="328.5" fill="#6EA7DA" width="10.9" height="20.2"/>
		</g>
		<g>
			<rect x="646.1" y="272.3" fill="#6EA7DA" width="10.9" height="41.2"/>
		</g>
		<g>
			<rect x="668.2" y="328.1" fill="#6EA7DA" width="10.9" height="41.2"/>
		</g>
		<g>
			<rect x="690.3" y="203.1" fill="#6EA7DA" width="10.9" height="68.5"/>
		</g>
		<g>
			<rect x="712" y="170.5" fill="#6EA7DA" width="10.9" height="92.1"/>
		</g>
		<g>
			<rect x="734.1" y="224.8" fill="#6EA7DA" width="10.9" height="33.3"/>
		</g>
		<g>
			<rect x="754.3" y="278" fill="#6EA7DA" width="10.9" height="37.1"/>
		</g>
		<g>
			<rect x="776.4" y="327.4" fill="#6EA7DA" width="10.9" height="19.5"/>
		</g>
		<g>
			<rect x="798.1" y="334.9" fill="#6EA7DA" width="10.9" height="33.3"/>
		</g>
	</g>
</g>
<g>
	<g>
		<polygon fill="#FFFFFF" points="413.7,414.4 746.6,413.1 597.7,616.2 		"/>
	</g>
	<g>
		<rect x="408.9" y="557.6" fill="#959697" width="384.6" height="213.8"/>
		<path fill="#484748" d="M796.1,773.9H406.4V555h389.7V773.9z M411.5,768.9H791V560.1H411.5V768.9z"/>
	</g>
	<g>
		
			<rect x="491.7" y="662.9" transform="matrix(-4.463410e-02 -0.999 0.999 -4.463410e-02 -37.3002 1295.1427)" fill="#484748" width="218" height="5.1"/>
	</g>
	<g>
		<polygon fill="#F2D4C0" points="530.3,358.9 515.1,410.3 589.8,448 669.7,407.1 651.9,359.3 		"/>
		<path fill="#484748" d="M589.8,450.8l-77.6-39.3l16.5-54.8h125.1l19.3,51.6L589.8,450.8z M518.2,409l71.6,36.1l76.7-39.3l-16.5-44
			H532.2L518.2,409z"/>
	</g>
	<g>
		<polygon fill="#6EA7DA" points="560,442.6 577.2,468.2 606.3,468.2 622.8,442.6 592.7,420.4 		"/>
		<path fill="#484748" d="M607.9,470.8h-31.7l-19.3-28.8l36.1-24.7l33.3,24.7L607.9,470.8z M578.7,465.7H605l14.6-22.5l-26.9-19.6
			l-29.1,19.6L578.7,465.7z"/>
	</g>
	<g>
		<polygon fill="#6EA7DA" points="577.2,464.7 557.2,490.4 557.2,661.5 594.9,661.5 622.8,658 626.6,490.7 606.3,464.7 		"/>
		<path fill="#484748" d="M555,664V489.5l21.2-27.6h31.7l21.5,27.6l-3.8,170.4l-30.1,3.8L555,664z M559.7,491.4v167.9h35.2l25.7-3.2
			l3.5-164.4l-18.7-24.1h-26.6L559.7,491.4z"/>
	</g>
	<g>
		<polygon fill="#FFFFFF" points="592.7,420.4 524.2,378.6 476.7,396 547.4,453.3 		"/>
		<path fill="#484748" d="M547.4,455.9c-0.6,0-1.3-0.3-1.6-0.6l-70.6-57.3c-0.6-0.6-1-1.6-1-2.2c0-1,0.6-1.6,1.6-1.9l47.5-17.4
			c0.6-0.3,1.6-0.3,2.2,0.3l68.4,41.5c0.6,0.3,1.3,1.3,1.3,1.9c0,1-0.3,1.6-1,2.2L549,455.6C548.3,455.9,548,455.9,547.4,455.9z
			 M481.8,397l65.6,53.5l40.9-29.8l-64.3-39.3L481.8,397z"/>
	</g>
	<g>
		<path fill="#E5C0A8" d="M534.4,353.9l-4.1,14.9c0,0,34.2,24.4,62.4,24.4c27.6,0,59.6-26,59.6-26l-7.6-21.5l-107.1-3.5L534.4,353.9
			z"/>
	</g>
	<g>
		<path fill="#F2D4C0" d="M704.5,215.4c0,0,0.3-27.6,19.6-15.2c19.3,12.4,8.9,50.4,3.2,60.2c-8.9,14.9-27.9,5.7-27.9,5.7
			L704.5,215.4z"/>
		<path fill="#484748" d="M711.8,271.2c-7.3,0-13.6-3.2-13.6-3.2l-1.6-0.6l5.4-52.3c0-0.6,0.3-20.6,13.3-20.6
			c3.2,0,6.3,1.3,10.1,3.5c9.2,5.7,13.3,17.4,12,33.3c-1,12-4.8,24.7-8.2,30.4C725.4,268,719.7,271.2,711.8,271.2z M702,264.2
			c1.9,0.6,6,1.9,10.1,1.9c5.7,0,10.1-2.5,13-7.3c4.8-8.2,15.5-45.3-2.2-57c-2.9-1.9-5.4-2.9-7.3-2.9c-7.9,0-8.2,15.8-8.2,15.8
			L702,264.2z"/>
	</g>
	<g>
		<path fill="#DDB49E" d="M708.6,259.8c-2.2,0-4.1-0.3-4.1-0.3c-1.3-0.3-2.2-1.6-1.9-2.9s1.6-2.2,2.9-1.9c1.3,0.3,5.7,0.6,8.2-0.6
			c3.5-1.9,5.4-10.5,6-15.5c0-1.3,1.3-2.2,2.5-2.2s2.5,1.3,2.2,2.5c0,1.6-1.6,15.8-8.6,19.3C713.7,259.5,710.8,259.8,708.6,259.8z"
			/>
	</g>
	<g>
		<path fill="#F2D4C0" d="M473.2,210.7c0,0-0.3-27.6-19.6-15.2s-8.9,50.7-3.2,60.2c9.5,15.8,26.3,11.1,26.3,11.1L473.2,210.7z"/>
		<path fill="#484748" d="M471.3,269.9L471.3,269.9c-5.7,0-15.8-1.6-22.8-13c-6.3-10.1-17.1-50.1,3.8-63.7c3.8-2.2,7-3.5,10.1-3.5
			c13,0,13.3,20,13.3,20.9l3.5,58l-1.9,0.6C477.4,269.3,474.8,269.9,471.3,269.9z M462.5,194.8c-1.9,0-4.4,1-7.3,2.9
			c-17.1,10.8-8.2,46.9-2.2,56.7c5.4,8.9,13,10.8,18.4,10.8c1.3,0,2.2,0,2.9-0.3l-3.5-53.9C470.7,210.7,470.4,194.8,462.5,194.8z"/>
	</g>
	<g>
		<path fill="#DDB49E" d="M467.9,253.4c-2.2,0-5.1-0.3-7.6-1.6c-7.3-3.8-8.6-17.7-8.6-19.3c0-1.3,1-2.5,2.2-2.5c1.3,0,2.5,1,2.5,2.2
			c0.3,5.1,2.2,13.6,6,15.5c3.2,1.6,8.2,0.6,8.2,0.6c1.3-0.3,2.5,0.6,2.9,1.9c0.3,1.3-0.6,2.5-1.9,2.9
			C472,253.1,470.1,253.4,467.9,253.4z"/>
	</g>
	<g>
		<path fill="#5E5E5F" d="M472.9,75.1c0,0-21.9,31-21.9,96.3c0,28.2,21.9,64,21.9,64s-1.6-48.2,2.9-72.2c3.8-20,16.2-51,16.2-51
			L472.9,75.1z"/>
		<path fill="#474748" d="M475.5,244.9l-4.8-7.9c-1-1.6-22.2-36.7-22.2-65.3c0-65.3,21.5-96.6,22.5-97.9l2.5-3.5l21.2,41.8l-0.3,1
			c0,0.3-12.4,31-15.8,50.7c-4.4,23.4-2.9,71.3-2.9,71.9L475.5,244.9z M472.9,80.2c-5.7,10.1-19.3,40.2-19.3,91.2
			c0,19,10.5,41.8,16.5,54.2c-0.3-15.5,0-45.3,3.2-62.7c3.5-18.4,13.6-44.7,15.8-50.4L472.9,80.2z"/>
	</g>
	<g>
		<path fill="#F2D4C0" d="M591.1,382.4L591.1,382.4c-52.6,0-108.3-74.1-111.2-82.1c-10.8-31-8.6-130.2-8.6-130.2
			c0-63.7,53.9-115.6,119.8-115.6l0,0c65.9,0,119.8,52,119.8,115.6c0,0,0,95.4-12.7,133.4C694.7,314.9,637.7,382.4,591.1,382.4z"/>
		<path fill="#484748" d="M591.1,384.9c-54.5,0-110.9-75.7-113.4-83.6c-10.8-31-8.9-126.7-8.6-130.8c0-64.9,54.8-117.8,122.3-117.8
			s122,52.6,122,117.8c0,3.8,0,96-12.7,134.3C696.3,317.4,638.6,384.9,591.1,384.9z M591.1,57.3c-64.6,0-117.2,50.7-117.2,113.1
			c0,1-1.9,99.2,8.6,129.3c2.5,7.3,58,80.5,109,80.5c46.3,0,101.7-67.8,104.9-77c12.4-37.4,12.4-131.8,12.4-132.7
			C708.3,108,655.7,57.3,591.1,57.3z"/>
	</g>
	<g>
		<path fill="#484748" d="M590.5,282.6c-6,0-10.8-2.9-15.2-6.3c-1-0.6-2.2-1.3-3.5-2.2c-3.8-1.9-8.2-4.1-9.5-9.2
			c-1-3.5,0-7.6,3.5-12.7c0.6-1.3,2.2-1.6,3.5-0.6c1.3,0.6,1.6,2.2,0.6,3.5c-2.2,3.5-3.2,6.7-2.9,8.6c0.6,2.9,3.8,4.4,7,6
			c1.6,1,3.2,1.6,4.4,2.5c6.7,5.4,13.6,9.2,26.6-1c1.6-1.3,2.9-2.2,4.4-3.2c3.2-2.2,5.7-3.8,6-6c0.3-1.9-1-4.8-3.8-8.2
			c-1-1-0.6-2.5,0.3-3.5c1-1,2.5-0.6,3.5,0.3c3.8,4.8,5.4,8.9,4.8,12c-0.6,4.4-4.4,7-8.2,9.5c-1.3,1-2.9,1.9-4.1,2.9
			C600.9,280.4,595.2,282.6,590.5,282.6z"/>
	</g>
	<g>
		<circle fill="#5E5E5F" cx="645.9" cy="213.5" r="8.2"/>
		<path fill="#474748" d="M645.9,224.6c-6,0-10.8-4.8-10.8-10.8c0-6,4.8-10.8,10.8-10.8c6,0,10.8,4.8,10.8,10.8
			C656.7,219.9,651.9,224.6,645.9,224.6z M645.9,207.8c-3.2,0-6,2.5-6,6c0,3.5,2.5,6,6,6c3.2,0,6-2.5,6-6
			C651.9,210.4,649.1,207.8,645.9,207.8z"/>
	</g>
	<g>
		<path fill="#484748" d="M591.1,320.3c-32.3,0-52.6-14.9-53.5-15.5c-1-1-1.3-2.5-0.6-3.5c1-1,2.5-1.3,3.5-0.6
			c0.3,0,20,14.6,50.7,14.6c27.6,0,50.1-14.6,50.1-14.6c1.3-0.6,2.9-0.3,3.5,0.6c0.6,1.3,0.3,2.9-0.6,3.5
			C643,305.4,620.2,320.3,591.1,320.3z"/>
	</g>
	<g>
		<circle fill="#5E5E5F" cx="534.4" cy="213.5" r="8.2"/>
		<path fill="#474748" d="M534.4,224.6c-6,0-10.8-4.8-10.8-10.8c0-6,4.8-10.8,10.8-10.8c6,0,10.8,4.8,10.8,10.8
			C545.2,219.9,540.4,224.6,534.4,224.6z M534.4,207.8c-3.2,0-6,2.5-6,6c0,3.5,2.5,6,6,6c3.2,0,6-2.5,6-6
			C540.4,210.4,537.6,207.8,534.4,207.8z"/>
	</g>
	<g>
		<path fill="#474748" d="M498,198.6l-5.1-8.6c2.2-1.3,23.4-13.6,32-15.8c7.3-2.2,27.9-2.9,30.1-2.9l0.3,10.1
			c-6,0.3-22.5,1-27.9,2.5C521.4,185.3,504.3,194.8,498,198.6z"/>
	</g>
	<g>
		<path fill="#474748" d="M678.8,198.6c-6-3.5-23.4-13.3-29.8-14.9c-5.4-1.6-21.9-2.2-27.9-2.5l0.3-10.1c2.2,0,22.8,1,30.1,2.9
			c8.6,2.5,29.5,14.6,32,15.8L678.8,198.6z"/>
	</g>
	<g>
		<path fill="#5E5E5F" d="M548,130.5c-109.3-11.4-93.1-96.3-93.1-96.3s50.4,16.8,122.6,13c51.3-2.9,82.7-7.6,104.2-2.9
			c20.9,4.4,25,40.9,25,40.9s27.9,2.2,30.4,55.1c1.6,32.3-26.9,95.7-26.9,95.7s-1.3-33.6-6.3-66.5c-4.4-29.8-13-53.9-13-53.9
			s-10.1,3.5-26.6,7.3C637.7,128.3,594.6,135.3,548,130.5z"/>
		<path fill="#474748" d="M708,246.2l-0.3-10.5c0-0.3-1.6-33.9-6.3-66.2c-3.5-23.8-9.8-44.4-12-51c-3.8,1.3-12.4,3.8-24.7,6.7
			c-19.3,4.4-49.7,9.8-84,9.8c-11.1,0-22.2-0.6-32.6-1.6c-37.7-3.8-64.6-16.8-80.8-38.3c-20.6-27.9-14.9-59.9-14.6-61.1l0.6-2.9
			l2.9,1c0.3,0,40.6,13.3,99.2,13.3c7.3,0,14.9-0.3,22.5-0.6c14.3-1,26.9-1.9,38.3-2.5c16.8-1.3,31.4-2.2,43.4-2.2
			c9.5,0,16.8,0.6,23.4,1.9c19.6,4.4,25.7,33.3,26.6,41.2c7,1.6,28.5,10.5,30.4,57c1.6,32.3-26,94.4-27.2,96.9L708,246.2z
			 M692.5,111.8l1,2.2c0,0.3,8.6,24.7,13,54.2c3.2,21.5,5.1,43.4,5.7,56.1c7.9-19,23.8-61.1,22.5-84.9
			c-2.2-50.1-27.6-52.6-27.9-52.6l-1.9-0.3l-0.3-1.9c0-0.3-4.1-34.5-23.1-38.6c-6-1.3-13-1.9-22.2-1.9c-11.7,0-25.7,1-43.1,2.2
			c-11.4,1-24.1,1.9-38.3,2.5c-7.6,0.3-15.2,0.6-22.5,0.6c-50.7,0-87.8-9.8-97.9-12.7c-1,8.2-1.9,32.9,14.3,54.5
			c15.2,20.3,41.2,32.6,77,36.4c10.5,1,21.2,1.6,32.3,1.6c33.9,0,63.7-5.4,83-9.5c16.5-3.8,26.3-7.3,26.6-7.3L692.5,111.8z"/>
	</g>
	<g>
		<path fill="#DDB49E" d="M547.4,238.6h-32.6c-1.3,0-2.5-1.3-2.5-2.5c0-1.3,1.3-2.5,2.5-2.5h32.6c1.3,0,2.5,1.3,2.5,2.5
			C549.9,237.6,548.6,238.6,547.4,238.6z"/>
	</g>
	<g>
		<path fill="#DDB49E" d="M665.9,239.5h-32.6c-1.3,0-2.5-1.3-2.5-2.5c0-1.3,1.3-2.5,2.5-2.5h32.6c1.3,0,2.5,1.3,2.5,2.5
			C668.4,238.2,667.1,239.5,665.9,239.5z"/>
	</g>
	<g>
		<path fill="#DDB49E" d="M615.2,348.5c-0.3,0-1,0-1.3-0.3c0,0-8.2-4.4-22.8-4.4c-14.9,0-22.8,4.4-22.8,4.4c-1.3,0.6-2.9,0.3-3.5-1
			s-0.3-2.9,1-3.5c0.3-0.3,9.2-5.1,25.3-5.1s25,5.1,25.3,5.1c1.3,0.6,1.6,2.2,1,3.5C616.8,347.8,616.1,348.5,615.2,348.5z"/>
	</g>
	<g>
		<path fill="#484748" d="M626.6,731.5c-6,0-11.1-5.1-11.1-11.1c0-6,5.1-11.1,11.1-11.1c6,0,11.1,5.1,11.1,11.1
			S632.9,731.5,626.6,731.5z M626.6,714.4c-3.2,0-6,2.9-6,6c0,3.5,2.9,6,6,6c3.5,0,6-2.9,6-6C632.6,716.9,630.1,714.4,626.6,714.4z"
			/>
	</g>
	<g>
		<polygon fill="#FFFFFF" points="591.4,420.4 659.8,378.6 707.4,396 635.1,453.3 		"/>
		<path fill="#484748" d="M635.1,455.9c-0.6,0-1-0.3-1.6-0.6L590.1,422c-0.6-0.6-1-1.3-1-2.2s0.6-1.6,1.3-1.9l68.4-41.8
			c0.6-0.3,1.6-0.6,2.2-0.3l47.5,17.4c1,0.3,1.6,1,1.6,1.9c0,1-0.3,1.9-1,2.2l-72.5,57.3C636.1,455.9,635.4,455.9,635.1,455.9z
			 M595.8,420.4l39,29.8l67.5-53.5l-42.1-15.5L595.8,420.4z"/>
	</g>
	<g opacity="0.15">
		<g>
			<path fill="#FFFFFF" d="M686.1,90.3c-7.6-3.5-25.7-1.9-40.6,1c-23.1,4.4-53.9,10.1-94.7,6.7c-65.3-6-75.7-30.7-84-45.9
				c1.9,15.5,4.4,53.9,88.7,60.8c41.2,3.5,75.7-3.5,98.8-8.2c14.9-2.9,36.1-5.4,36.1-5.4S690.2,92.2,686.1,90.3z"/>
		</g>
	</g>
	<g opacity="0.15">
		<path fill="#FFFFFF" d="M719.1,180.3c0,0,16.2-39-4.4-67.8c-7.9-10.8-16.5-7-11.4-0.3C708.9,120.1,722.2,156.2,719.1,180.3z"/>
	</g>
	<g>
		<path fill="#959697" d="M878.7,685.2c11.4-20.3,7.3-46.6,3.5-61.1c-18.7-71-46.9-161.9-75.7-193.2c-35.2-39-114-40.2-114-40.2
			L591.4,574l-96.6-186c0,0-84,6.7-112.1,41.5c-23.8,28.8-48.8,175.8-43.1,216.4c7,48.8,52.6,55.8,96.3,57.7
			c103.3,4.4,258.5-13,258.5-13"/>
		<path fill="#484748" d="M472,706.8c-12.7,0-24.7-0.3-36.1-0.6c-47.2-1.9-91.6-10.8-98.5-59.6c-5.7-39.6,19-188.5,43.4-218.3
			c28.8-35.2,110.6-42.1,114-42.1h1.6l95.4,183.4L691.2,389h1.6c0.3,0,20.3,0.3,44.4,5.7c22.2,4.8,52.9,14.9,71.6,35.5
			c29.1,32,57.3,123.2,76,194.2c3.8,14.6,8.6,41.8-3.5,63l-4.4-2.5c11.1-19.3,6.7-45.6,3.2-59.2c-26.3-99.5-52.9-167.6-75.1-192.3
			c-31.7-34.8-99.8-39-110.6-39.3l-102.6,186l-97.9-188.5c-11.7,1.3-83.6,9.5-109,40.2c-22.2,26.9-48.5,173.3-42.5,214.5
			c7,47.8,52,53.5,93.8,55.4c101.7,4.4,256.3-13,257.9-13l0.6,5.1C693.1,693.2,570.8,706.8,472,706.8z"/>
	</g>
	<g>
		<path fill="#484748" d="M635.1,566.4c-0.3,0-1,0-1.3-0.3c-1.3-0.6-1.6-2.2-1-3.5l49.1-79.2c0.3-0.6,1-1,1.6-1.3
			c0.6,0,1.3,0,1.9,0.3l32.3,24.7l12.4-111.5c0-1.3,1.3-2.2,2.9-2.2c1.3,0,2.2,1.3,2.2,2.9l-12.7,115.9c0,1-0.6,1.6-1.6,1.9
			c-1,0.3-1.9,0.3-2.5-0.3l-33.6-26l-47.5,77C636.7,565.8,635.8,566.4,635.1,566.4z"/>
	</g>
	<g>
		<path fill="#484748" d="M535.3,550.6c-1,0-1.6-0.3-2.2-1.3l-44.7-68.7L460.6,499c-0.6,0.6-1.6,0.6-2.5,0c-0.6-0.3-1.3-1.3-1.3-1.9
			l-7.9-98.2c0-1.3,1-2.5,2.2-2.5s2.5,1,2.5,2.2l7.6,94.1l26.6-17.4c0.6-0.3,1.3-0.6,1.9-0.3c0.6,0,1.3,0.6,1.6,1l45.9,71
			c0.6,1.3,0.3,2.9-0.6,3.5C536.3,550.3,535.7,550.6,535.3,550.6z"/>
	</g>
	<g>
		<path fill="#878787" d="M435.2,583.5c0,0-12.7,25.7,15.5,36.4c4.8,1.9,16.2,4.1,25.7,6.7c29.1,7.9,68.1,19.3,73.2,6
			c8.6-21.2-32.6-76-32.6-76L435.2,583.5z"/>
	</g>
	<g>
		<path fill="#F2D4C0" d="M511.3,624.1c0,0-5.1-6.7-34.8-12.4c-32.3-6.3-38.6-26.3-38.6-26.3l92.2-31.7L511.3,624.1z"/>
		<path fill="#484748" d="M512.2,629.8l-3.2-4.1c-0.3-0.3-6.3-6.3-33.3-11.4c-33.6-6.7-40.2-26.9-40.6-27.9l-0.6-2.2l99.2-33.9
			L512.2,629.8z M440.9,587c2.5,5.1,11.4,17.4,35.8,22.2c19.3,3.8,28.5,7.9,32.9,10.5l16.5-62.1L440.9,587z"/>
	</g>
	<g>
		<polygon fill="#FFFFFF" points="519.5,545.5 497,632.6 540.1,643.4 558.5,554.4 		"/>
		<path fill="#484748" d="M540.1,646c-0.3,0-0.3,0-0.6,0l-43.1-10.8c-0.6-0.3-1.3-0.6-1.6-1.3s-0.3-1.3-0.3-1.9l22.5-87.1
			c0.3-1.3,1.6-2.2,2.9-1.9l39,8.9c1.3,0.3,2.2,1.6,1.9,2.9l-18.4,89c0,0.6-0.6,1.3-1.3,1.6C541,645.6,540.7,646,540.1,646z
			 M500.2,630.7l38.3,9.5l17.4-84l-34.2-7.6L500.2,630.7z"/>
	</g>
	<g>
		<path fill="#484748" d="M437.1,586.1h-0.3c-1.3-0.3-2.2-1.6-2.2-2.9l5.7-34.5c0.3-1.3,1.6-2.2,2.9-2.2c1.3,0.3,2.2,1.6,2.2,2.9
			l-5.7,34.5C439.3,585.1,438.4,586.1,437.1,586.1z"/>
	</g>
	<g>
		<path fill="#959697" d="M884.8,653.6c-2.5-23.1-19-43.1-41.8-47.5c0,0-21.5,1.3-57-6c-26-5.4-82.1-19-108-24.7
			c-32.9-7-132.4-33.9-132.4-33.9l-26.6,105.2c0,0,106.4,26.9,175.5,43.7c35.8,8.6,76.7,17.7,129.6,22.8
			c28.5,2.5,55.1-13.9,60.2-43.7C885.1,664.3,885.1,658.9,884.8,653.6z"/>
		<path fill="#484748" d="M829.6,716L829.6,716c-1.9,0-4.1,0-6-0.3c-52.3-4.8-92.8-13.9-129.9-22.8
			c-68.4-16.5-174.6-43.4-175.5-43.7l-2.5-0.6l27.9-110.2l2.5,0.6c1,0.3,99.8,26.9,132.1,33.9c11.1,2.5,27.9,6.3,45.3,10.5
			c23.4,5.4,47.8,11.1,62.7,14.3c26.9,5.4,45.9,6,52.6,6c2.5,0,3.8,0,3.8,0h0.3h0.3c23.1,4.4,41.2,25,43.7,49.7
			c0.6,5.7,0.3,11.1-0.6,16.8C881.9,697.3,858.5,716,829.6,716z M521.7,645c16.2,4.1,110.6,27.9,173,43.1
			c37.1,8.9,77.3,18.1,129.3,22.8c1.9,0.3,3.8,0.3,5.7,0.3c26.6,0,47.5-16.8,52-41.8c1-5.1,1-10.1,0.6-15.2
			c-2.5-22.5-18.7-41.2-39.6-45.3c-0.6,0-1.9,0-3.8,0c-8.9,0-27.2-1-53.9-6.3c-14.9-3.2-39.3-8.9-63-14.3
			c-17.4-4.1-34.2-7.9-45.3-10.5c-29.8-6.3-114.4-29.1-129.9-33.3L521.7,645z"/>
	</g>
	<g>
		<path fill="#959697" d="M759,494.2l31,135.9l90.3,44.7c0,0,5.4-20.9,1.3-41.5c-5.1-25.7-16.5-59.9-16.5-59.9L759,494.2z"/>
	</g>
	<g>
		<path fill="#878787" d="M628.5,561.1l92.8,20.9l50.4-45c0,0-4.4-15.2-68.1,24.1C679.5,575.6,628.5,561.1,628.5,561.1z"/>
	</g>
	<g>
		<path fill="#F2D4C0" d="M726,587.7c0,0,8.2-17.1,18.7-28.8c14.3-16.5,32.6-29.1,37.1-25c2.9,2.5,4.4,14.6-3.5,20.3
			c-12.7,9.2-31.7,38.6-31.7,38.6L726,587.7z"/>
		<path fill="#484748" d="M747.9,595.3l-25.3-6l1.3-2.9c0.3-0.6,8.6-17.4,19-29.5c11.4-13,28.2-26.6,36.7-26.6
			c1.6,0,2.9,0.3,3.8,1.3c2.2,1.9,3.2,6,3.2,10.8c-0.3,3.2-1.3,9.5-7,13.6c-12.4,8.9-30.7,37.7-31,38L747.9,595.3z M729.8,586.1
			l15.8,3.8c4.1-6.3,19.6-29.5,31.4-37.7c3.8-2.9,4.8-7.3,4.8-9.8c0.3-3.8-1-6.3-1.6-6.7l0,0c0,0,0,0-0.6,0c-5.4,0-20,10.1-32.9,25
			C739,569,732.7,580.7,729.8,586.1z"/>
	</g>
	<g>
		<path fill="#F2D4C0" d="M746.6,592.4c0,0,14.3-20.6,16.5-23.4c5.4-6.7,9.8-11.1,17.7-12.4c1.6-0.3,10.5,1,8.6,10.1
			c-1,4.8-20.6,30.7-20.6,30.7L746.6,592.4z"/>
		<path fill="#484748" d="M769.8,600.3l-27.2-6l2.2-3.2c0.6-1,14.3-20.6,16.5-23.4c5.1-6.3,10.1-12,19-13.3c0.3,0,0.6,0,1,0
			c2.5,0,6.3,1,8.6,3.8c1.3,1.6,2.9,4.4,1.6,9.2c-1.3,5.1-17.7,27.2-21.2,31.7L769.8,600.3z M750.8,590.8l16.8,3.8
			c9.2-12.4,18.7-26,19.3-28.5c0.3-2.2,0.3-3.8-0.6-5.1c-1.3-1.6-3.8-1.9-4.8-1.9c-7,1-10.8,4.4-16.2,11.4
			C763.4,572.8,754.9,585.1,750.8,590.8z"/>
	</g>
	<g>
		<path fill="#F2D4C0" d="M769.8,597.8c0,0,11.4-15.2,15.5-20c2.9-3.5,6-6,10.5-4.1c5.7,2.5-0.3,12-1,14.9
			c-0.3,1.6-5.7,13.9-5.7,13.9L769.8,597.8z"/>
		<path fill="#484748" d="M791,605.1l-25.3-6l2.2-3.2c0.3-0.6,11.7-15.2,15.5-20.3c2.2-2.5,5.4-5.7,9.5-5.7c1.3,0,2.9,0.3,4.1,1
			c6.7,3.2,2.9,11.7,1,15.8c-0.3,1-0.6,1.6-1,1.9c-0.3,1.6-5.1,12.7-5.7,14.3L791,605.1z M774.2,596.2l13.6,3.2
			c1.9-4.8,4.4-10.8,4.8-11.7c0.3-0.6,0.6-1.6,1-2.5c1.3-2.5,3.8-8.2,1.3-9.2c-2.5-1.3-4.4-0.3-7.6,3.5
			C784.3,582.6,777.7,591.5,774.2,596.2z"/>
	</g>
	<g>
		<path fill="#F2D4C0" d="M706.4,582.3l15.5-26c0,0,22.5-25,31.4-27.2c2.2-0.6,11.1,0,12.4,4.8c1.3,4.8-1.3,5.4-9.2,12
			c-12.4,10.5-30.4,41.8-30.4,41.8L706.4,582.3z"/>
		<path fill="#484748" d="M727.3,590.5l-24.7-7l17.4-29.1c2.2-2.5,23.4-25.7,32.6-27.9c0.6-0.3,1.6-0.3,2.5-0.3
			c4.1,0,11.4,1.3,12.7,6.7c1.6,5.4-1.3,7.6-5.7,11.1c-1.3,1-2.5,1.9-4.1,3.2c-11.7,9.8-29.8,40.9-29.8,41.2L727.3,590.5z
			 M710.2,580.7l14.6,4.1c4.1-6.7,19-31.7,30.1-40.9c1.6-1.3,3.2-2.5,4.1-3.5c4.8-3.8,4.8-3.8,4.1-6c-0.6-1.9-4.4-3.2-7.9-3.2
			c-1,0-1.3,0-1.3,0c-5.7,1.6-21.5,16.8-30.1,26.3L710.2,580.7z"/>
	</g>
</g>
</svg>
