<?xml version="1.0" encoding="utf-8"?>
<!-- Generator: Adobe Illustrator 18.0.0, SVG Export Plug-In . SVG Version: 6.00 Build 0)  -->
<!DOCTYPE svg PUBLIC "-//W3C//DTD SVG 1.1//EN" "http://www.w3.org/Graphics/SVG/1.1/DTD/svg11.dtd">
<svg version="1.1" id="logo" xmlns="http://www.w3.org/2000/svg" xmlns:xlink="http://www.w3.org/1999/xlink" x="0px" y="0px"
	 viewBox="0 0 472 80.9" enable-background="new 0 0 472 80.9" xml:space="preserve">
<g>
	<path fill="#627F97" d="M14.1,39c3.3-2.4,9.1-5.6,14-5.6c4.1,0,4.8,1.7,4.8,6.4v39.8c0,0.8,0.6,1.4,1.4,1.4h10.3
		c0.8,0,1.4-0.6,1.4-1.4V39.8c0-9.3-2.5-17.7-16.3-17.7c-4.9,0-11.3,2.6-15.5,5.5C13.5,28,13,27.8,13,27.1v-1.7
		c0-0.8-0.6-1.4-1.4-1.4H1.4C0.6,24,0,24.6,0,25.3v54.2c0,0.8,0.6,1.4,1.4,1.4h10.3c0.8,0,1.4-0.6,1.4-1.4V41.2
		C13,40.4,13.5,39.4,14.1,39z"/>
	<path fill="#627F97" d="M124.1,38.3c1.2-1.6,3.7-4.3,7-4.3c1.9,0,4.3,1,5.7,1.6c0.7,0.3,1.5,0.1,1.8-0.6l3.5-8.2
		c0.3-0.7,0-1.6-0.6-2c-1.8-1-5.3-2.7-8.6-2.7c-4.6,0-7.5,3.3-8.7,5.1c-0.4,0.6-0.7,0.6-0.7-0.2v-1.7c0-0.8-0.6-1.4-1.4-1.4h-10.4
		c-0.8,0-1.4,0.6-1.4,1.4v54.2c0,0.8,0.6,1.4,1.4,1.4H122c0.8,0,1.4-0.6,1.4-1.4V40.8C123.3,40,123.7,38.9,124.1,38.3z"/>
	<path fill="#627F97" d="M178.5,76.7c0.5-0.6,0.8-0.5,0.8,0.3v2.6c0,0.8,0.6,1.4,1.4,1.4H191c0.8,0,1.4-0.6,1.4-1.4V1.4
		c0-0.8-0.6-1.4-1.4-1.4h-10.3c-0.8,0-1.4,0.6-1.4,1.4v21.4c0,0.8-0.6,1.2-1.3,1c-2.1-0.6-6.4-1.6-10.1-1.6
		c-19,0-24.2,14.9-24.2,32.1c0,15.9,8.7,26.7,22.4,26.7C171.9,80.9,176,79.5,178.5,76.7z M179.3,44.4v16c0,0.8-0.3,1.9-0.8,2.5
		c-1.5,2-5,6-9.2,6.1c0,0-0.5,0-1.2,0.1c-0.7,0-1.8,0-2.6-0.1c-7.6-1.5-9.9-10.6-9.9-16.1c0-9.9,2.8-19.4,12.7-19.4
		c3.2,0,7.5,1,9.6,1.6c0.7,0.2,1.3,1,1.3,1.7v16.6"/>
	<path fill="#89BE42" d="M231.6,79.6l8.9-32.7c0.2-0.7,0.5-0.7,0.7,0l8.7,32.7c0.2,0.7,1,1.3,1.7,1.3h9.6c0.8,0,1.5-0.6,1.8-1.3
		C265.5,72,278,33,280.2,25.3c0.2-0.7-0.3-1.3-1-1.3h-10.9c-0.8,0-1.5,0.6-1.7,1.3c-1.1,5-5.3,23-8.8,34.4c-0.2,0.7-0.6,0.7-0.8,0
		l-9.9-34.5c-0.2-0.7-1-1.3-1.7-1.3h-9.6c-0.8,0-1.5,0.6-1.7,1.3l-9.1,34.4c-0.2,0.7-0.5,0.7-0.7,0L214,25.3c-0.2-0.7-1-1.3-1.8-1.3
		h-11c-0.8,0-1.2,0.6-0.9,1.3L218,79.7c0.2,0.7,1,1.3,1.8,1.3h10.1C230.6,80.9,231.4,80.4,231.6,79.6z"/>
	<path fill="#89BE42" d="M298.9,47.6c-3.5,1.1-7.1,2.3-10,4.6c-3.3,2.6-4.7,7.3-4.7,11.4c0,10.8,5.4,17.3,16.4,17.3
		c5.8,0,9.9-2.2,13.2-6.1c0.5-0.6,0.9-0.5,0.9,0.3v4.4c0,0.8,0.6,1.4,1.4,1.4h10.1c0.8,0,1.4-0.6,1.4-1.4V69.2V51.7V39.4
		c0-11.9-8-17.3-19.2-17.3c-7.3,0-15.3,4.3-20.4,9.7c-0.5,0.6-0.6,1.6-0.2,2.2l3.1,5.4c0.4,0.7,1.1,0.8,1.7,0.3
		c3.9-3.4,9.7-6.5,14.7-6.5c4.2,0,7.2,1.4,7.2,6.1c0,0,0,3.3,0,3.3c0,0.1-2.2,0.7-2.3,0.7C307.7,44.8,303.3,46.2,298.9,47.6z
		 M314.7,52.7c0,0,0,0.1,0,0.4c0,7.4-4.7,17.2-12.6,17.2c-3.7,0-5.7-3.3-5.7-6.8c0-5.5,3.6-6.5,7.3-8c3.2-1.4,6.5-1.7,9.7-2.8
		C314.1,52.5,314.7,52.5,314.7,52.7z"/>
	<path fill="#89BE42" d="M353.5,1.4c0-0.8-0.6-1.4-1.4-1.4h-10c-0.8,0-1.4,0.6-1.4,1.4v52.4c0,11.5,0,22.1,0,25.8
		c0,0.8,0.6,1.4,1.4,1.4h10c0.8,0,1.4-0.6,1.4-1.4c0-4.3,0-17.5,0-25.8V1.4z"/>
	<path fill="#89BE42" d="M380.2,1.4c0-0.8-0.6-1.4-1.4-1.4h-10c-0.8,0-1.4,0.6-1.4,1.4v52.4c0,11.5,0,22.1,0,25.8
		c0,0.8,0.6,1.4,1.4,1.4h10c0.8,0,1.4-0.6,1.4-1.4c0-4.3,0-17.5,0-25.8V1.4z"/>
	<path fill="#89BE42" d="M471.2,77.8c0.7-0.3,1-1.2,0.8-1.9l-2.2-6.6c-0.2-0.7-1-1-1.7-0.8c-1.3,0.5-3.4,1.1-5.2,1.1
		c-3,0-3.1-2.3-3.1-4.3v-29c0-0.8,0.6-1.4,1.4-1.4h8c0.8,0,1.4-0.6,1.4-1.4v-8.3c0-0.8-0.6-1.4-1.4-1.4h-8.3c-0.8,0-1.4-0.6-1.4-1.4
		V1.4c0-0.8-0.6-1.4-1.4-1.4h-9.5c-0.8,0-1.4,0.6-1.4,1.4V24v10.6l-0.5,31.1c0,8.2,3.3,15.2,12.4,15.2
		C464.7,80.9,466.8,80,471.2,77.8z"/>
	<path fill="#627F97" d="M80.1,22.1c-16.7,0-26.5,15.3-26.5,30.7c0,15.3,5.9,28.2,24.2,28.2c6.5,0,14.8-4.2,20.2-8.4
		c0.6-0.5,0.8-1.4,0.4-2.1l-3.1-6c-0.3-0.7-1.1-0.8-1.7-0.4c-4.2,3-10.3,5.9-15.1,5.9c-8.9,0-11.9-10-11.9-16.9c0-0.1,0-0.2,0-0.3
		c0-0.2,0.6-0.3,1.4-0.3h32.7c0.8,0,1.4-0.6,1.4-1.4c0-1.6,0-4.3-0.1-5.7C101.7,33.9,92.1,22.1,80.1,22.1z M89.1,41.4
		c0.1,0.7-0.4,1.4-1.2,1.4H70c-0.8,0-1.2-0.6-1-1.3c1.5-5.1,4.5-9.7,10.3-9.7C85,31.8,88.2,36.3,89.1,41.4z"/>
	<path fill="#89BE42" d="M415.7,22.1c-16.7,0-26.5,15.3-26.5,30.7c0,15.3,5.9,28.2,24.2,28.2c6.5,0,14.8-4.2,20.2-8.4
		c0.6-0.5,0.8-1.4,0.4-2.1l-3.1-6c-0.3-0.7-1.1-0.8-1.7-0.4c-4.2,3-10.3,5.9-15.1,5.9c-8.9,0-11.9-10-11.9-16.9c0-0.1,0-0.2,0-0.3
		c0-0.2,0.6-0.3,1.4-0.3h32.7c0.8,0,1.4-0.6,1.4-1.4c0-1.6,0-4.3-0.1-5.7C437.3,33.9,427.7,22.1,415.7,22.1z M424.6,41.4
		c0.1,0.7-0.4,1.4-1.2,1.4h-17.9c-0.8,0-1.2-0.6-1-1.3c1.5-5.1,4.5-9.7,10.3-9.7C420.6,31.8,423.8,36.3,424.6,41.4z"/>
</g>
</svg>
