<?xml version="1.0" encoding="utf-8"?>
<!-- Generator: Adobe Illustrator 18.0.0, SVG Export Plug-In . SVG Version: 6.00 Build 0)  -->
<!DOCTYPE svg PUBLIC "-//W3C//DTD SVG 1.1//EN" "http://www.w3.org/Graphics/SVG/1.1/DTD/svg11.dtd">
<svg version="1.1" id="Layer_1" xmlns="http://www.w3.org/2000/svg" xmlns:xlink="http://www.w3.org/1999/xlink" x="0px" y="0px"
	 viewBox="3.8 344.9 606.3 104.6" enable-background="new 3.8 344.9 606.3 104.6" xml:space="preserve">
<g>
	<path fill="#58996C" d="M22,395c4.3-3,11.6-7.1,18-7.1c5.3,0,6.1,2.3,6.1,8.3v51.1c0,1,0.8,1.8,1.8,1.8h13.2c1,0,1.8-0.8,1.8-1.8
		v-51.1c0-11.9-3.3-22.8-21-22.8c-6.3,0-14.4,3.3-20,7.1c-0.8,0.5-1.5,0.3-1.5-0.8v-2.3c0-1-0.8-1.8-1.8-1.8h-13
		c-1,0-1.8,0.8-1.8,1.8v69.5c0,1,0.8,1.8,1.8,1.8h13.2c1,0,1.8-0.8,1.8-1.8v-49.3C20.5,397,21.2,395.7,22,395z"/>
	<path fill="#58996C" d="M163.4,394.2c1.5-2,4.8-5.6,9.1-5.6c2.5,0,5.6,1.3,7.3,2c0.8,0.5,1.8,0,2.3-0.8l4.6-10.4c0.3-1,0-2-0.8-2.5
		c-2.3-1.3-6.8-3.5-11.1-3.5c-5.8,0-9.6,4.3-11.1,6.6c-0.5,0.8-1,0.8-1-0.3v-2.3c0-1-0.8-1.8-1.8-1.8h-13.4c-1,0-1.8,0.8-1.8,1.8
		v69.5c0,1,0.8,1.8,1.8,1.8h13.2c1,0,1.8-0.8,1.8-1.8v-49.6C162.4,396.5,162.6,395,163.4,394.2z"/>
	<path fill="#58996C" d="M233.2,443.5c0.8-0.8,1-0.5,1,0.5v3.3c0,1,0.8,1.8,1.8,1.8h13.2c1,0,1.8-0.8,1.8-1.8V346.7
		c0-1-0.8-1.8-1.8-1.8H236c-1,0-1.8,0.8-1.8,1.8v27.6c0,1-0.8,1.5-1.8,1.3c-2.8-0.8-8.3-2-12.9-2c-24.5,0-31.1,19.2-31.1,41.2
		c0,20.5,11.1,34.4,28.8,34.4C224.6,449.1,229.9,447.1,233.2,443.5z M234.2,402.1v20.5c0,1-0.5,2.5-1,3.3c-2,2.5-6.6,7.6-11.9,7.8
		c0,0-0.8,0-1.5,0c-0.8,0-2.3,0-3.3-0.3c-9.6-2-12.6-13.7-12.6-20.7c0-12.6,3.5-25,16.4-25c4,0,9.6,1.3,12.4,2
		c1,0.3,1.8,1.3,1.8,2.3v21.2"/>
	<path fill="#58996C" d="M301.4,447.3l11.4-42c0.3-1,0.8-1,1,0l11.1,42c0.3,1,1.3,1.8,2.3,1.8h12.4c1,0,2-0.8,2.3-1.8
		c3-9.9,19.2-59.9,22-69.8c0.3-1-0.3-1.8-1.3-1.8h-13.9c-1,0-2,0.8-2,1.8c-1.5,6.3-6.8,29.6-11.4,44.3c-0.3,1-0.8,1-1,0l-12.6-44.3
		c-0.3-1-1.3-1.8-2.3-1.8H307c-1,0-2,0.8-2.3,1.8l-11.6,44.3c-0.3,1-0.8,1-1,0l-13.4-44.3c-0.3-1-1.3-1.8-2.3-1.8h-14.2
		c-1,0-1.5,0.8-1.3,1.8l22.8,69.8c0.3,1,1.3,1.8,2.3,1.8h12.9C300.2,449.1,301.2,448.3,301.4,447.3z"/>
	<path fill="#58996C" d="M387.7,406.1c-4.6,1.3-9.1,3-12.9,6.1c-4.3,3.3-6.1,9.4-6.1,14.7c0,13.9,7.1,22.3,21,22.3
		c7.3,0,12.6-2.8,16.9-7.8c0.5-0.8,1-0.5,1,0.5v5.8c0,1,0.8,1.8,1.8,1.8h12.9c1,0,1.8-0.8,1.8-1.8v-13.4v-22.5V396
		c0-15.2-10.4-22.3-24.5-22.3c-9.4,0-19.7,5.6-26,12.4c-0.8,0.8-0.8,2-0.3,2.8l4,7.1c0.5,0.8,1.5,1,2.3,0.3c5.1-4.3,12.4-8.3,19-8.3
		c5.3,0,9.1,1.8,9.1,7.8v4.3c0,0.3-2.8,1-3,1C399.1,402.6,393.5,404.3,387.7,406.1z M407.9,412.7c0,0,0,0,0,0.5
		c0,9.6-6.1,22-16.2,22c-4.8,0-7.3-4.3-7.3-8.9c0-7.1,4.8-8.3,9.4-10.4c4-1.8,8.3-2.3,12.4-3.5C407.4,412.4,407.9,412.4,407.9,412.7
		z"/>
	<path fill="#58996C" d="M458,346.7c0-1-0.8-1.8-1.8-1.8h-12.9c-1,0-1.8,0.8-1.8,1.8V414c0,14.7,0,28.3,0,33.1c0,1,0.8,1.8,1.8,1.8
		h12.9c1,0,1.8-0.8,1.8-1.8c0-5.6,0-22.5,0-33.1V346.7z"/>
	<path fill="#58996C" d="M492.1,346.7c0-1-0.8-1.8-1.8-1.8h-12.9c-1,0-1.8,0.8-1.8,1.8V414c0,14.7,0,28.3,0,33.1
		c0,1,0.8,1.8,1.8,1.8h12.9c1,0,1.8-0.8,1.8-1.8c0-5.6,0-22.5,0-33.1V346.7z"/>
	<path fill="#58996C" d="M609,445.1c0.8-0.5,1.3-1.5,1-2.5l-2.8-8.3c-0.3-1-1.3-1.3-2.3-1c-1.8,0.5-4.3,1.5-6.6,1.5
		c-3.8,0-4-3-4-5.6v-37.4c0-1,0.8-1.8,1.8-1.8h10.4c1,0,1.8-0.8,1.8-1.8v-10.6c0-1-0.8-1.8-1.8-1.8h-10.6c-1,0-1.8-0.8-1.8-1.8
		v-27.3c0-1-0.8-1.8-1.8-1.8h-12.1c-1,0-1.8,0.8-1.8,1.8v29.1v13.7l-0.8,40c0,10.4,4.3,19.5,15.9,19.5
		C600.6,449.1,603.4,447.8,609,445.1z"/>
	<path fill="#58996C" d="M106.7,373.5c-21.5,0-33.9,19.7-33.9,39.5s7.6,36.2,31.1,36.2c8.3,0,19-5.3,26-10.9c0.8-0.5,1-1.8,0.5-2.5
		l-4-7.6c-0.5-0.8-1.5-1-2.3-0.5c-5.3,3.8-13.2,7.6-19.5,7.6c-11.4,0-15.2-12.9-15.2-21.7v-0.3c0-0.3,0.8-0.3,1.8-0.3h42
		c1,0,1.8-0.8,1.8-1.8c0-2,0-5.6-0.3-7.3C134.5,388.4,122.1,373.5,106.7,373.5z M118.4,398.3c0.3,1-0.5,1.8-1.5,1.8h-23
		c-1,0-1.5-0.8-1.3-1.8c2-6.6,5.8-12.4,13.2-12.4S117.1,391.7,118.4,398.3z"/>
	<path fill="#58996C" d="M537.6,373.5c-21.5,0-33.9,19.7-33.9,39.5s7.6,36.2,31.1,36.2c8.3,0,19-5.3,26-10.9c0.8-0.5,1-1.8,0.5-2.5
		l-4-7.6c-0.5-0.8-1.5-1-2.3-0.5c-5.3,3.8-13.2,7.6-19.5,7.6c-11.4,0-15.2-12.9-15.2-21.7v-0.3c0-0.3,0.8-0.3,1.8-0.3h42
		c1,0,1.8-0.8,1.8-1.8c0-2,0-5.6-0.3-7.3C565.5,388.4,553.1,373.5,537.6,373.5z M549.3,398.3c0.3,1-0.5,1.8-1.5,1.8h-23
		c-1,0-1.5-0.8-1.3-1.8c2-6.6,5.8-12.4,13.2-12.4C544,385.9,548,391.7,549.3,398.3z"/>
</g>
</svg>
