<svg xmlns="http://www.w3.org/2000/svg" width="242" height="45" viewBox="0 0 242 45"><style type="text/css">.st0{fill:#627F97;} .st1{fill:#89BE42;}</style><path class="st0" d="M8.7 22.1c1.7-1.2 4.6-2.8 7.1-2.8 2.1 0 2.4.9 2.4 3.3v20.2c0 .4.3.7.7.7h5.2c.4 0 .7-.3.7-.7v-20.2c0-4.7-1.3-9-8.3-9-2.5 0-5.7 1.3-7.9 2.8-.3.2-.6.1-.6-.3v-.9c0-.4-.3-.7-.7-.7h-5.1c-.4 0-.7.3-.7.7v27.5c0 .4.3.7.7.7h5.2c.4 0 .7-.3.7-.7v-19.5c0-.3.3-.8.6-1.1z"/><path class="st0" d="M64.6 21.8c.6-.8 1.9-2.2 3.6-2.2 1 0 2.2.5 2.9.8.3.2.7 0 .9-.3l1.8-4.1c.1-.4 0-.8-.3-1-.9-.5-2.7-1.4-4.4-1.4-2.3 0-3.8 1.7-4.4 2.6-.2.3-.4.3-.4-.1v-.9c0-.4-.3-.7-.7-.7h-5.3c-.4 0-.7.3-.7.7v27.5c0 .4.3.7.7.7h5.2c.4 0 .7-.3.7-.7v-19.6c0-.4.1-1 .4-1.3z"/><path class="st0" d="M92.2 41.3c.3-.3.4-.2.4.2v1.3c0 .4.3.7.7.7h5.2c.4 0 .7-.3.7-.7v-39.8c0-.4-.3-.7-.7-.7h-5.2c-.4 0-.7.3-.7.7v10.9c0 .4-.3.6-.7.5-1.1-.3-3.3-.8-5.1-.8-9.7 0-12.3 7.6-12.3 16.3 0 8.1 4.4 13.6 11.4 13.6 2.9 0 5-.8 6.3-2.2zm.4-16.4v8.1c0 .4-.2 1-.4 1.3-.8 1-2.6 3-4.7 3.1h-.6c-.3 0-.9 0-1.3-.1-3.8-.8-5-5.4-5-8.2 0-5 1.4-9.9 6.5-9.9 1.6 0 3.8.5 4.9.8.4.1.7.5.7.9v8.4"/><path class="st1" d="M119.2 42.8l4.5-16.6c.1-.4.3-.4.4 0l4.4 16.6c.1.4.5.7.9.7h4.9c.4 0 .8-.3.9-.7 1.2-3.9 7.6-23.7 8.7-27.6.1-.4-.1-.7-.5-.7h-5.5c-.4 0-.8.3-.8.7-.6 2.5-2.7 11.7-4.5 17.5-.1.4-.3.4-.4 0l-5-17.5c-.1-.4-.5-.7-.9-.7h-4.9c-.4 0-.8.3-.9.7l-4.6 17.5c-.1.4-.3.4-.4 0l-5.3-17.5c-.1-.4-.5-.7-.9-.7h-5.6c-.4 0-.6.3-.5.7l9 27.6c.1.4.5.7.9.7h5.1c.5 0 .9-.3 1-.7z"/><path class="st1" d="M153.3 26.5c-1.8.5-3.6 1.2-5.1 2.4-1.7 1.3-2.4 3.7-2.4 5.8 0 5.5 2.8 8.8 8.3 8.8 2.9 0 5-1.1 6.7-3.1.2-.3.4-.2.4.2v2.3c0 .4.3.7.7.7h5.1c.4 0 .7-.3.7-.7v-20.4c0-6-4.1-8.8-9.7-8.8-3.7 0-7.8 2.2-10.3 4.9-.3.3-.3.8-.1 1.1l1.6 2.8c.2.3.6.4.9.1 2-1.7 4.9-3.3 7.5-3.3 2.1 0 3.6.7 3.6 3.1v1.7c0 .1-1.1.4-1.2.4-2.2.6-4.4 1.3-6.7 2zm8 2.6v.2c0 3.8-2.4 8.7-6.4 8.7-1.9 0-2.9-1.7-2.9-3.5 0-2.8 1.9-3.3 3.7-4.1 1.6-.7 3.3-.9 4.9-1.4.5 0 .7 0 .7.1z"/><path class="st1" d="M181.1 3c0-.4-.3-.7-.7-.7h-5.1c-.4 0-.7.3-.7.7v39.7c0 .4.3.7.7.7h5.1c.4 0 .7-.3.7-.7v-39.7z"/><path class="st1" d="M194.6 3c0-.4-.3-.7-.7-.7h-5.1c-.4 0-.7.3-.7.7v39.7c0 .4.3.7.7.7h5.1c.4 0 .7-.3.7-.7v-39.7z"/><path class="st1" d="M240.8 41.9c.3-.2.5-.6.4-1l-1.1-3.3c-.1-.4-.5-.5-.9-.4-.7.2-1.7.6-2.6.6-1.5 0-1.6-1.2-1.6-2.2v-14.8c0-.4.3-.7.7-.7h4.1c.4 0 .7-.3.7-.7v-4.2c0-.4-.3-.7-.7-.7h-4.2c-.4 0-.7-.3-.7-.7v-10.8c0-.4-.3-.7-.7-.7h-4.8c-.4 0-.7.3-.7.7v16.9l-.3 15.8c0 4.1 1.7 7.7 6.3 7.7 2.8.1 3.9-.4 6.1-1.5z"/><path class="st0" d="M42.2 13.6c-8.5 0-13.4 7.8-13.4 15.6s3 14.3 12.3 14.3c3.3 0 7.5-2.1 10.3-4.3.3-.2.4-.7.2-1l-1.6-3c-.2-.3-.6-.4-.9-.2-2.1 1.5-5.2 3-7.7 3-4.5 0-6-5.1-6-8.6v-.1c0-.1.3-.1.7-.1h16.6c.4 0 .7-.3.7-.7 0-.8 0-2.2-.1-2.9-.1-6.1-5-12-11.1-12zm4.6 9.8c.1.4-.2.7-.6.7h-9.1c-.4 0-.6-.3-.5-.7.8-2.6 2.3-4.9 5.2-4.9 2.9 0 4.5 2.3 5 4.9z"/><path class="st1" d="M212.6 13.6c-8.5 0-13.4 7.8-13.4 15.6s3 14.3 12.3 14.3c3.3 0 7.5-2.1 10.3-4.3.3-.2.4-.7.2-1l-1.6-3c-.2-.3-.6-.4-.9-.2-2.1 1.5-5.2 3-7.7 3-4.5 0-6-5.1-6-8.6v-.1c0-.1.3-.1.7-.1h16.6c.4 0 .7-.3.7-.7 0-.8 0-2.2-.1-2.9-.1-6.1-5-12-11.1-12zm4.6 9.8c.1.4-.2.7-.6.7h-9.1c-.4 0-.6-.3-.5-.7.8-2.6 2.3-4.9 5.2-4.9 2.9 0 4.5 2.3 5 4.9z"/></svg>