<svg xmlns="http://www.w3.org/2000/svg" width="269" height="45" viewBox="0 0 269 45"><style type="text/css">.st0{fill:#627F97;} .st1{fill:#89BE42;}</style><path class="st0" d="M63.1 41.9h-5.2c-.4 0-.7-.3-.7-.7v-27.3c0-.4.3-.7.7-.7h5.2c.4 0 .7.3.7.7v.9c0 .4.1.4.3.1.6-.9 2.1-2.6 4.4-2.6 1.7 0 3.4.9 4.3 1.4.3.2.5.6.3 1l-1.8 4.1c-.1.3-.5.5-.9.3-.7-.3-1.9-.8-2.9-.8-1.7 0-2.9 1.4-3.5 2.2-.2.3-.4.9-.4 1.3v19.5c.2.3-.1.6-.5.6z"/><path class="st0" d="M53.1 24c-.2-5.8-5-11.7-11.1-11.7-8.4 0-13.3 7.7-13.3 15.4s3 14.2 12.2 14.2c3.3 0 7.5-2.1 10.2-4.2.3-.2.4-.7.2-1l-1.6-3c-.2-.3-.6-.4-.9-.2-2.1 1.5-5.2 3-7.6 3-4.5 0-6-5-6-8.5v-.1c0-.1.3-.1.7-.1h16.5c.4 0 .7-.3.7-.7v-3.1zm-7.2-1.3h-9c-.4 0-.6-.3-.5-.7.8-2.6 2.3-4.9 5.2-4.9 2.9 0 4.5 2.3 5 4.9 0 .4-.3.7-.7.7z"/><path class="st1" d="M234.4 12.3c-3.9 0-8.2 2.4-10.7 5.4l2.2 3.9c1.9-1.9 5.2-3.7 7.9-3.7 2.1 0 3.6.7 3.6 3v1.7c0 .1-1.1.4-1.1.4l-6.7 2.1c-1.7.5-3.6 1.2-5 2.3-1.7 1.3-2.4 3.7-2.4 5.8 0 5.4 2.7 8.7 8.3 8.7 3.2 0 5.3-1.3 7.1-3.6v3.6h6.5v-20.900000000000002c-.1-6-4.1-8.7-9.7-8.7zm3.1 15.6c0 3.7-2.4 8.7-6.3 8.7-1.9 0-2.9-1.7-2.9-3.4 0-2.8 1.8-3.3 3.7-4 1.8-.8 3.7-.9 5.6-1.6l-.1.3z"/><path class="st1" d="M216.3 41.9h-5c-.4 0-.7-.3-.7-.7v-39.4c0-.4.3-.7.7-.7h5c.4 0 .7.3.7.7v39.4c-.1.4-.4.7-.7.7z"/><path class="st1" d="M104.5 38.6c-.3-.2-.4-.7-.2-1l1.8-3.2c.2-.3.6-.4.9-.2 1.8 1.2 4.4 2.5 6.4 2.5 2.4 0 4.7-.9 4.7-3.7 0-1.8-1.7-2.3-3.1-3-2.8-1.5-5.7-1.6-8.5-3-2.2-1.2-3.4-3.2-3.4-5.7 0-6 5.3-9 10.8-9 3 0 7 1.2 9 3.7.2.3.2.8-.1 1l-2.4 2.4c-.3.3-.7.3-1 0-1.5-1.3-3.8-2.1-5.7-2.1-1.9 0-4.2 1.3-4.2 3.4 0 1.6 1.7 1.9 2.9 2.4l7.6 3.9c2.8 1.4 4.4 2.4 4.4 5.5 0 6.3-5.5 9.4-11.3 9.4-2.8 0-6.2-1.6-8.6-3.3z"/><path class="st1" d="M127.8 28.1c0-7.5 3.9-15.8 12.6-15.8 2.8 0 6.4.5 8.5 2.5.3.3.3.8.1 1.1l-2.5 3.4c-.2.3-.6.4-.9.1-1.4-1-3.4-1.7-5.1-1.7-4.4 0-6.1 6.2-6.1 9.7 0 3.7 1.5 8.9 6.3 8.9 2.1 0 4.8-1.4 6.6-2.7.3-.2.7-.1.9.2l1.6 3.3c.2.3.1.8-.2 1.1-2.5 2.1-6.2 3.7-9.3 3.7-8.5 0-12.5-6.5-12.5-13.8z"/><path class="st1" d="M170.8 41.2v-19.8c0-2.4-.4-3.2-2.4-3.2-2.4 0-5.4 2.1-7.1 3.4-.3.2-.5.7-.5 1.1v18.4c0 .4-.3.7-.7.7h-5.2c-.4 0-.7-.3-.7-.7v-39.3c0-.4.3-.7.7-.7h5.2c.4 0 .7.3.7.7v13.2c0 .4.2.5.6.3 2.1-1.5 5.3-3 7.8-3 7 0 8.2 4.5 8.2 9.1v19.8c0 .4-.3.7-.7.7h-5.2c-.4 0-.7-.3-.7-.7z"/><path class="st1" d="M193.8 12.3c-8.4 0-12.4 7.2-12.4 14.8 0 7.7 4 14.8 12.4 14.8s12.4-7.2 12.4-14.8c0-7.6-4-14.8-12.4-14.8zm0 24c-3.7 0-5.9-3.7-5.9-9.2 0-5.5 2.2-9.2 5.9-9.2s5.9 3.7 5.9 9.2c0 5.6-2.3 9.2-5.9 9.2z"/><path class="st1" d="M256.6 41.9h-5.2c-.4 0-.7-.3-.7-.7v-27.3c0-.4.3-.7.7-.7h5.2c.4 0 .7.3.7.7v.9c0 .4.1.4.3.1.6-.9 2.1-2.6 4.4-2.6 1.7 0 3.4.9 4.3 1.4.3.2.5.6.3 1l-1.8 4.1c-.1.3-.5.5-.9.3-.7-.3-1.9-.8-2.9-.8-1.7 0-2.9 1.4-3.5 2.2-.2.3-.4.9-.4 1.3v19.5c.2.3-.1.6-.5.6z"/><path class="st0" d="M8.5 20.8c1.7-1.2 4.6-2.8 7-2.8 2.1 0 2.4.9 2.4 3.2v20c0 .4.3.7.7.7h5.2c.4 0 .7-.3.7-.7v-20c0-4.7-1.2-8.9-8.2-8.9-2.4 0-5.7 1.3-7.8 2.8-.3.2-.5.1-.5-.3v-.9c0-.4-.3-.7-.7-.7h-5.2c-.4 0-.7.3-.7.7v27.3c0 .4.3.7.7.7h5.2c.4 0 .7-.3.7-.7v-19.3c0-.4.2-.9.5-1.1z"/><path class="st0" d="M97.6 1.2h-5.2c-.4 0-.7.3-.7.7v10.8c0 .4-.3.6-.7.5-1.1-.3-3.2-.8-5.1-.8-9.6 0-12.2 7.5-12.2 16.2 0 8 4.4 13.4 11.3 13.4 2.9 0 5-.7 6.2-2.1.3-.3.4-.2.4.1v1.3c0 .4.3.7.7.7h5.2c.4 0 .7-.3.7-.7v-39.5c.1-.3-.2-.6-.6-.6zm-5.8 22.3v8c0 .4-.2.9-.4 1.2-.8 1-2.5 3-4.6 3.1h-.6c-.3 0-.9 0-1.3-.1-3.8-.8-5-5.3-5-8.1 0-5 1.4-9.8 6.4-9.8 1.6 0 3.8.5 4.8.8.4.1.7.5.7.9v4z"/></svg>