<svg width="188" height="28" viewBox="0 0 188 28" xmlns="http://www.w3.org/2000/svg"><title>Slice 1</title><g transform="translate(-1 -2)" fill="none"><path d="M0 0h189.756v31.756h-189.756v-31.756zm0 0" id="Shape"/><path d="M13.017 3.065c.523 0 1.221.174 1.918.872.698.523.698 1.569.523 2.441-.175.697-.349 1.221-1.221 1.744-.872.523-1.744.523-1.744.523v3.313l1.569 1.395-1.569 1.221v4.708s1.569-1.047 2.615-3.139l.174-.349c0 .698 0 1.744-.697 3.313-.349 1.047-1.22 2.094-2.441 2.791-1.918 1.045-3.313 1.045-4.882.871-1.918-.523-3.662-1.568-4.708-3.313-.872-1.221-1.221-2.79-1.221-4.359.174-3.138 2.441-5.753 5.057-6.8.349-.174.523-.174 1.046-.174-.174 0-.523.174-.872.523-.872.523-1.569 1.569-1.918 2.441l5.231-2.267v7.323l-4.185 2.092c.523.697 1.918 1.744 3.139 1.744 2.267.348 3.487-.697 3.487-.697v-4.708l-1.744-1.221 1.744-1.395v-3.313c-.872-.174-2.092-.523-2.615-.697l-4.534-1.046c-.523-.174-1.22-.174-1.569.174-.349.349-.523.872-.349 1.395 0 .349.174.523.349.697 0 0-.174 0-.523-.174-.523-.349-1.046-1.046-1.046-1.918 0-1.046.349-2.092 1.395-2.79.698-.523 1.569-.872 2.616-.698 1.569.174 3.662 1.046 5.58 1.569.697.174 1.22.174 1.744-.174.174-.174.697-.523.349-1.046-.523-.698-1.221-.698-1.918-.872.523-.174.697-.174 1.22 0zm-6.277 14.472v-7.148l-2.092 1.046s-.523 1.221-.523 2.964c.174 1.395.872 2.964 1.395 3.661l1.221-.523zm0 0" id="Shape"/><path d="M33.242 10.04s-1.744 1.046-2.79 1.744l-2.441 1.22v6.799l-1.046.697.174.176.872-.697 2.964 2.615 5.231-4.011-.175-.174-2.79 2.267-2.441-2.267v-.698l4.708-3.487-2.267-4.185zm0 5.579l-2.441 1.744v-5.753l2.441 4.01zm0 0" id="Shape"/><path d="M19.816 25.209c.698 0 1.744.174 3.313-.523 1.569-.871 2.267-2.441 2.267-4.186l.174-2.44v-5.405l.872-.697v-.174l-1.046.697-2.267-2.441-2.964 2.441v-8.543l-3.662 2.79c.174.174.697.174.697 1.046v12.03l-1.569 1.047.174.174.697-.523 2.092 1.918 3.313-2.615-.175-.174-.697.697-.872-.871v-6.626l.872-.872 1.569 1.744v5.754c0 1.568 0 3.486-.872 4.359-.872 1.045-1.046 1.045-1.918 1.395zm0 0" id="Shape"/><path d="M42.658 24.512c-1.395-.176-1.918-.873-1.918-1.57 0-.348.523-1.221 1.221-1.221.872-.174 1.569.176 2.267 1.047l3.138-3.486h-.174l-.872.871c-.698-.871-1.918-1.569-3.139-1.744v-10.287l7.846 14.472s.174.174.523.174c.174 0 .174-.174.174-.174v-14.472c.698-.174 1.569-.523 2.092-.872 1.569-1.569.872-3.313.698-3.487 0 .698-.698 1.395-1.569 1.569-1.221 0-2.092-1.046-2.092-1.046l-2.964 3.487.174.174.872-1.046c1.046 1.046 1.744 1.046 2.615 1.221v8.369l-5.928-10.636c-.523-.872-1.22-1.744-2.615-1.744-1.395 0-2.441 1.22-2.615 2.441-.174 1.221 0 1.569 0 1.569s.174-1.395 1.046-1.395c.872 0 1.22.698 1.569 1.221v3.138c-.872 0-2.964 0-2.964 2.267 0 .698.523 1.569.872 1.918.523.349 1.046.349 1.046.349s-.698-.349-.523-1.046c.174-.697 1.569-.697 1.569-.523v4.359c-.697 0-2.615 0-3.662 1.744-.523 1.047-.523 2.266.174 3.139.523.697 1.395 1.568 3.139 1.221zm0 0" id="Shape"/><path d="M59.396 10.04s-1.569 1.046-2.79 1.744l-2.441 1.22v6.799l-1.046.697.174.176 1.046-.697 2.79 2.615 5.231-4.011-.175-.174-2.79 2.267-2.267-2.267v-.698l4.533-3.487-2.267-4.185zm0 5.579l-2.267 1.744v-5.753l2.267 4.01zm0 0" id="Shape"/><path d="M66.545 22.594l-2.616-2.094-1.046.873-.174-.174 1.22-.873v-5.753c0-2.441-2.267-1.744-2.092-4.359 0-1.046 1.046-1.918 1.744-2.267.523-.174 1.221-.174 1.221-.174s-1.046.523-.872 1.569c.349 1.395 2.79 1.395 2.964 3.313v6.626l1.744 1.395.523-.35v-7.148l-1.046-.872 2.441-2.267 2.267 2.092-.872.872v6.278l2.267 1.742.349-.174v-7.672l-1.046-.872 2.441-2.267 2.441 1.918.872-.872.174.175-2.092 1.917v6.104l-5.405 3.313-2.79-2.094-2.615 2.094zm0 0" id="Shape"/><path d="M176.391 10.04s-1.744 1.046-2.79 1.744l-2.44 1.22v6.799l-1.047.697.175.176.872-.697 2.964 2.615 5.23-4.011-.174-.174-2.79 2.267-2.441-2.267v-.698l4.708-3.487-2.267-4.185zm0 5.579l-2.441 1.744v-5.753l2.441 4.01zm0 0" id="Shape"/><path d="M152.329 13.003h.175l.871-.697 1.396 1.569v5.58l-.697.523 2.267 2.615 2.266-2.268-.871-1.045v-6.626l.522-.523 1.569 1.918v5.579l-.522.523 2.092 2.266 2.267-2.092-.871-.871v-6.8l.522-.523 1.744 1.918v5.405l-.523.523 2.267 2.615 3.139-2.965-.175-.174-.697.697-1.221-1.221v-6.277l1.047-.872v-.174l-1.221.872-2.093-2.267-2.964 2.267-2.093-2.267-2.964 2.267-2.092-2.267-3.139 2.79zm0 0" id="Shape"/><path d="M146.052 12.829l.872-.697 1.221 1.569v6.277l-.872.871.175.174.872-.871 2.092 2.441 2.964-2.615-.174-.176-.872.697-1.221-1.395v-6.276l1.047-.872v-.174l-1.047.872-2.092-2.441-2.965 2.615zm0 0" id="Shape"/><path d="M146.924 7.424l2.093-1.918 1.918 1.918-2.267 2.092-1.744-2.092zm0 0" id="Shape"/><path d="M143.785 3.065c.523 0 1.396.174 2.093.872.522.523.697 1.569.522 2.441-.174.697-.522 1.221-1.22 1.744-.872.523-1.744.523-1.744.523v3.313l1.569 1.395-1.569 1.221v4.708s1.569-1.047 2.615-3.139l.175-.349c0 .698 0 1.744-.697 3.313-.349 1.047-1.396 2.094-2.441 2.791-1.918 1.045-3.487 1.045-5.056.871-1.744-.523-3.487-1.568-4.534-3.313-.871-1.221-1.22-2.79-1.22-4.359 0-3.138 2.44-5.753 5.056-6.8.35-.174.523-.174 1.047-.174-.349 0-.523.174-.872.523-.872.523-1.569 1.569-1.918 2.441l5.23-2.267v7.323l-4.185 2.092c.523.697 1.918 1.744 3.139 1.744 2.092.348 3.313-.697 3.313-.697v-4.708l-1.569-1.221 1.569-1.395v-3.313c-.871-.174-1.918-.523-2.615-.697-.872-.174-4.01-1.046-4.533-1.046-.349-.174-1.046-.174-1.395.174-.349.349-.523.872-.523 1.395.175.349.349.523.523.697 0 0-.175 0-.523-.174-.523-.349-1.046-1.046-1.046-1.918-.175-1.046.349-2.092 1.221-2.79.871-.523 1.743-.872 2.789-.698 1.569.174 3.662 1.046 5.405 1.569.872.174 1.395.174 1.918-.174.174-.174.523-.523.174-1.046-.349-.698-1.046-.698-1.743-.872.523-.174.697-.174 1.046 0zm-6.102 14.472v-7.148l-2.093 1.046s-.697 1.221-.523 2.964c0 1.395.872 2.964 1.396 3.661l1.221-.523zm0 0" id="Shape"/><path d="M181.97 23.465c-.349.174-1.743-.174-2.092-1.744-.349-1.568.697-2.439 2.267-4.184l-1.918-1.569v-3.313s1.395-.523 2.441-1.221l2.092-1.395s.872 1.046 1.743.872c1.396-.174 1.396-1.22 1.221-1.395.349.349.872 1.569-1.569 4.533l2.093 1.569v4.184s-2.441 1.221-4.533 2.791c0 0-1.221-1.57-2.267-.873-.872.523-.523 1.395.522 1.744zm-1.743-3.139s1.046-1.743 2.964-1.395c1.744.35 2.267 2.092 2.267 2.092v-4.184l-1.22-1.046c-1.221 1.395-3.662 3.312-4.011 4.533zm2.79-8.892v3.313l1.046 1.046s2.44-1.917 3.313-3.835c0 0-1.046 1.569-2.615 1.046-1.221-.349-1.743-1.569-1.743-1.569zm0 0" id="Shape"/><path d="M106.821 12.829l.872-.697h.175l-.872.872v6.625s-1.744.871-2.79 1.57l-2.441 1.395-3.138-2.615-.697.697h-.175l.872-.873v-7.148s1.395-.523 2.615-1.221c1.046-.697 2.267-1.395 2.267-1.395l3.313 2.79zm-5.23 5.929l2.441 2.266v-7.148l-2.441-2.267v7.149zm0 0" id="Shape"/><path d="M112.924 12.132l1.918-1.918s.175.174.523.349c.174.174.697.349 1.221.174l.697-.523c0 1.569-.697 2.615-1.569 2.964-.523.174-1.569.523-2.79-.872v7.149l1.396 1.045.871-.697h.175l-3.139 2.791-2.44-2.268-.872.873-.175-.176 1.221-1.221v-6.102l-.872-1.395-.871.697h-.175l3.139-2.79 1.743 1.918zm0 0" id="Shape"/><path d="M121.119 15.27l3.487-5.23s.522.523 1.395.697c1.046.349 2.092-.697 2.092-.697-.174 1.395-.871 2.964-2.44 3.138-1.221.174-2.441-.872-2.441-.872l-.174.523 4.882 7.497 1.046-.871.175.174-3.487 2.965-4.533-7.324zm0 0" id="Shape"/><path d="M118.155 8.296c0-1.221-.523-1.918-1.221-1.918l4.01-2.616v15.519l1.047 1.045.697-.697.174.174-3.139 2.791-2.092-2.094-.872.873-.174-.174 1.569-1.396v-11.507zm0 0" id="Shape"/><path d="M85.375 7.947c0-1.046-.523-1.569-1.221-1.569-1.046-.174-1.22 1.395-1.22 1.395s-.174-1.221.697-2.092c.523-.523 1.569-1.395 2.964-1.046 1.569.349 2.092 1.569 2.092 2.615v14.471s.523.176.872.176c.523.174.872.174.872.174v-17.436h.175v2.441l3.138-2.615 2.441 2.092 1.046-.872h.175l-1.221 1.046v13.426c0 .871-.174 1.744-1.046 2.266-1.744 1.221-4.01-.174-6.103-.348-1.395-.35-3.662-.523-4.359.871-.174.35-.174 1.047.523 1.57 1.395.871 7.323-1.57 9.415-.523 1.918.871 1.918 2.092 1.569 3.139-.523 1.742-2.79 2.092-2.79 2.092s1.22-.697.872-1.744c-.174-.523-.523-.697-1.744-.523-2.615.35-5.579 1.57-7.671.699-1.046-.523-1.918-1.744-1.744-3.139 0-1.918 2.267-2.615 2.267-2.615v-6.975c-.174-.174-1.221-.174-1.569.349-.349.872.523 1.221.523 1.221s-.698 0-1.395-.698c-.174-.349-.872-1.395 0-2.615.523-.872 1.395-1.046 2.441-1.046v-4.185zm5.231 14.297s1.046.174 1.569-.348c.872-.697.698-1.396.698-1.396v-5.404s-.349-.697-1.046-.697c-.697 0-1.22.697-1.22.697v7.148zm2.267-14.297l-1.395-1.221-.872.523v5.057s.523.523 1.22.523 1.046-.523 1.046-.523v-4.359zm0 4.708s-.349.349-1.046.349c-.697 0-1.22-.349-1.22-.349v2.092s.523-.523 1.22-.523 1.046.523 1.046.523v-2.092zm0 0"/></g></svg>