<?xml version="1.0" standalone="no"?>
<!DOCTYPE svg PUBLIC "-//W3C//DTD SVG 1.1//EN" "http://www.w3.org/Graphics/SVG/1.1/DTD/svg11.dtd" >
<svg xmlns="http://www.w3.org/2000/svg">
<metadata></metadata>
<defs>
<font id="tisa_otlight" horiz-adv-x="1167" >
<font-face units-per-em="2048" ascent="1493" descent="-555" />
<missing-glyph horiz-adv-x="399" />
<glyph horiz-adv-x="0" />
<glyph horiz-adv-x="0" />
<glyph horiz-adv-x="682" />
<glyph unicode="&#xd;" horiz-adv-x="399" />
<glyph unicode=" "  horiz-adv-x="399" />
<glyph unicode="&#x09;" horiz-adv-x="399" />
<glyph unicode="&#xa0;" horiz-adv-x="399" />
<glyph unicode="!" horiz-adv-x="608" d="M209 70q0 43 26.5 68.5t69.5 25.5q42 0 68 -24.5t26 -67.5q0 -48 -25 -73.5t-69 -25.5q-46 0 -71 25t-25 72zM223 1397q40 14 105 14q29 0 43 -2l-19 -1008q-15 -6 -45 -6t-45 6z" />
<glyph unicode="&#x22;" horiz-adv-x="694" d="M133 1020q17 174 17 399q68 0 118 -12q0 -76 -15 -193.5t-34 -203.5q-48 0 -86 10zM449 1020q16 164 16 399q69 0 119 -12q0 -76 -15 -193.5t-34 -203.5q-48 0 -86 10z" />
<glyph unicode="#" horiz-adv-x="1003" d="M29 287q0 40 14 75h193l63 383h-197q0 39 15 76h196l37 223q46 11 96 11l-36 -234h295l36 223q46 11 97 11l-37 -234h184q4 -12 4 -33q0 -25 -6 -43h-195l-59 -383h184q10 -33 -4 -75h-194l-45 -285q-16 -4 -56 -4q-35 0 -47 4l45 285h-288l-45 -285q-16 -4 -56 -4 q-37 0 -49 4l47 285h-192zM336 362h293l63 383h-295z" />
<glyph unicode="$" horiz-adv-x="978" d="M121 127q0 108 20 164q48 0 99 -15v-180q93 -55 237 -55q118 0 188 56.5t70 150.5q0 53 -24.5 96t-65 70.5t-92.5 54t-105.5 47t-105.5 49.5t-92.5 61t-65 82t-24.5 113q0 116 81 186.5t220 79.5v136q39 8 94 8v-144q142 -6 256 -63q4 -32 4 -70q0 -85 -18 -166 q-52 0 -92 21v162q-84 43 -197 43q-112 0 -168.5 -47t-56.5 -129q0 -46 24.5 -84t65 -63.5t92 -51.5t105 -47.5t105 -52.5t92 -66t65 -89t24.5 -120q0 -72 -28 -129t-76.5 -92.5t-109.5 -56t-132 -25.5v-156q-12 -4 -47 -4t-47 4v154q-150 8 -285 74q-10 42 -10 94z" />
<glyph unicode="%" horiz-adv-x="1814" d="M94 791q0 135 84 214.5t223 79.5q140 0 223 -76t83 -218q0 -151 -82 -232.5t-224 -81.5q-150 0 -228.5 79.5t-78.5 234.5zM203 788q0 -113 51.5 -177t146.5 -64q92 0 142.5 64.5t50.5 176.5q0 102 -51.5 164t-141.5 62q-95 0 -146.5 -60t-51.5 -166zM500 0l747 1102 q47 -3 88 -25l-757 -1120q-20 4 -43.5 17.5t-34.5 25.5zM1108 279q0 135 84 214.5t223 79.5q140 0 222.5 -76t82.5 -218q0 -151 -81.5 -232.5t-223.5 -81.5q-150 0 -228.5 79.5t-78.5 234.5zM1217 276q0 -113 51.5 -177t146.5 -64q92 0 142.5 64.5t50.5 176.5 q0 102 -51.5 164t-141.5 62q-95 0 -146.5 -60t-51.5 -166z" />
<glyph unicode="&#x26;" horiz-adv-x="1679" d="M152 334q0 153 87 262.5t220 148.5v9q-99 56 -151 131t-52 184q0 85 32 150.5t85 102.5t113.5 55t125.5 18q61 0 117.5 -16t106.5 -49t80 -92t30 -136q0 -126 -76.5 -223t-191.5 -134v-8q93 -58 223 -166.5t227 -208.5q89 175 107 365q-73 3 -143 16q-9 31 -13 76h459 q0 -34 -16 -80q-65 -8 -170 -12q-14 -109 -53.5 -224.5t-98.5 -209.5q78 -77 172 -199q99 -4 180 -18q15 -35 15 -76h-273q-88 117 -172 207q-94 -118 -215 -183t-289 -65q-72 0 -137.5 12t-126 40t-105 70t-71 107t-26.5 146zM281 356q0 -82 28.5 -143t78.5 -95.5 t110.5 -50.5t132.5 -16q265 0 426 225q-238 247 -522 424q-118 -43 -186 -129.5t-68 -214.5zM379 1092q0 -101 54 -168.5t163 -130.5q115 43 172 121t57 180q0 59 -19.5 103.5t-52 68.5t-69.5 35.5t-78 11.5q-38 0 -73.5 -9.5t-72 -32t-59 -69t-22.5 -110.5z" />
<glyph unicode="'" horiz-adv-x="378" d="M133 1020q17 174 17 399q68 0 118 -12q0 -76 -15 -193.5t-34 -203.5q-48 0 -86 10z" />
<glyph unicode="(" horiz-adv-x="622" d="M190 575q0 224 45.5 466.5t145.5 469.5q47 21 106 21q-86 -195 -132 -445t-46 -509q0 -523 183 -969q-34 -27 -86 -37q-113 243 -164.5 502t-51.5 501z" />
<glyph unicode=")" horiz-adv-x="622" d="M158 -391q182 439 182 966q0 251 -43.5 494t-122.5 440q42 28 86 31q102 -224 150.5 -477.5t48.5 -478.5q0 -243 -51 -505t-164 -505q-50 10 -86 35z" />
<glyph unicode="*" horiz-adv-x="833" d="M98 1020l193 100q29 16 63 23v8q-37 7 -61 20l-189 99q7 41 33 84l193 -117q29 -16 49 -43l6 4q-14 32 -14 64l-6 213q38 10 88 10l-7 -223q0 -32 -16 -64l8 -4q27 31 49 43l181 113q34 -30 55 -70l-199 -109q-22 -13 -59 -20v-8q24 -3 61 -21l195 -102q-5 -15 -20 -40.5 t-27 -37.5l-185 119q-30 18 -53 45l-6 -6q16 -32 16 -64l9 -219q-18 -6 -47 -6q-28 0 -46 6l9 219q0 31 14 64l-6 4q-27 -27 -51 -43l-187 -119q-28 32 -43 78z" />
<glyph unicode="+" d="M100 496q0 49 13 92h415v432q44 10 111 10v-442h422q6 -18 6 -58q0 -22 -2 -34h-426v-445q-24 -6 -53 -6q-34 0 -58 6v445h-428z" />
<glyph unicode="," horiz-adv-x="471" d="M131 -244q65 159 86 275l-74 16q17 57 43 86q30 6 68 6q59 0 104 -20q-20 -91 -68 -213t-87 -185q-39 9 -72 35z" />
<glyph unicode="-" horiz-adv-x="681" d="M104 500q0 57 15 100h440q6 -21 6 -63q0 -25 -2 -37h-459z" />
<glyph unicode="." horiz-adv-x="550" d="M180 70q0 43 26.5 68.5t69.5 25.5q42 0 68.5 -24.5t26.5 -67.5q0 -48 -25.5 -73.5t-69.5 -25.5q-46 0 -71 25t-25 72z" />
<glyph unicode="/" horiz-adv-x="847" d="M117 -311l690 1816q57 0 100 -12l-698 -1837q-64 9 -92 33z" />
<glyph unicode="0" horiz-adv-x="1230" d="M121 543q0 253 136 401t359 148q227 0 360.5 -143.5t133.5 -405.5q0 -279 -132.5 -431.5t-361.5 -152.5q-238 0 -366.5 149t-128.5 435zM250 543q0 -232 96 -363t270 -131q176 0 270.5 131t94.5 363q0 208 -98.5 334.5t-266.5 126.5q-176 0 -271 -123.5t-95 -337.5z" />
<glyph unicode="1" horiz-adv-x="804" d="M76 934q3 37 22 82q190 58 402 76v-996q140 -7 248 -26q6 -18 6 -39q0 -19 -2 -31h-629q7 41 20 68q86 20 236 34v873z" />
<glyph unicode="2" horiz-adv-x="1003" d="M123 111q36 33 108.5 90t136 106.5t137 117t125.5 127.5t87 130.5t35 134.5q0 93 -66.5 137.5t-179.5 44.5q-137 0 -260 -65v-184q-40 -21 -90 -21q-21 86 -21 184q0 38 4 78q166 101 377 101q110 0 189.5 -24.5t128.5 -83t49 -148.5q0 -76 -35.5 -155t-86 -142 t-125.5 -132t-134.5 -113.5t-134 -99.5t-103.5 -79v-13q307 0 660 19q0 -64 -13 -121h-770z" />
<glyph unicode="3" horiz-adv-x="972" d="M63 -127q0 13 3 25q119 -33 274 -33q76 0 143 15.5t124 48t90.5 90t33.5 133.5q0 249 -467 249q-8 16 -8 54q0 21 4 37q80 2 156 22t139.5 56.5t102 94.5t38.5 130q0 73 -38.5 122t-93 68t-120.5 19q-112 0 -231 -39v-168q-40 -21 -92 -21q-19 71 -19 160q0 40 4 90 q69 29 168.5 47.5t186.5 18.5q101 0 181 -27.5t132.5 -93t52.5 -160.5q0 -123 -82.5 -215.5t-203.5 -130.5v-8q60 -6 114 -24.5t102 -52t76.5 -88.5t28.5 -126q0 -98 -44.5 -176t-118.5 -125.5t-165 -72.5t-190 -25q-148 0 -258 30q-23 27 -23 76z" />
<glyph unicode="4" horiz-adv-x="1048" d="M55 266q272 431 592 811l148 -22v-779h182q8 -24 8 -59q0 -23 -2 -33h-188v-368q-20 -4 -60 -4q-39 0 -59 4v368h-600zM178 272q102 4 164 4h334v504q0 91 10 183h-12q-253 -294 -496 -680v-11z" />
<glyph unicode="5" horiz-adv-x="985" d="M102 -109q126 -28 275 -28q75 0 141.5 20t121 60t86.5 106.5t32 151.5q0 131 -82.5 190.5t-247.5 59.5q-131 0 -256 -29l47 629h678q0 -70 -16 -123q-279 12 -568 12l-34 -424q87 23 208 23q183 0 291.5 -84t108.5 -242q0 -90 -28.5 -165.5t-77 -126.5t-113.5 -86.5 t-137.5 -51.5t-149.5 -16q-154 0 -254 28q-25 39 -25 96z" />
<glyph unicode="6" horiz-adv-x="1110" d="M139 516q0 173 45.5 318.5t124 243.5t185 152t227.5 54q132 0 215 -41q8 -18 13.5 -50.5t2.5 -51.5q-80 47 -225 47q-190 0 -316.5 -159.5t-148.5 -424.5h12q45 65 129 108.5t199 43.5q184 0 289.5 -106.5t105.5 -274.5q0 -188 -117.5 -302t-310.5 -114 q-211 0 -320.5 146.5t-109.5 410.5zM264 492q0 -208 81 -327.5t230 -119.5q134 0 215.5 93t81.5 231q0 135 -81 216t-220 81q-173 0 -307 -154v-20z" />
<glyph unicode="7" horiz-adv-x="964" d="M74 762l24 289h805l21 -101q-187 -290 -328.5 -588t-202.5 -544q-24 -8 -69 -8q-46 0 -70 8q66 234 217 541.5t324 566.5v8h-596q-12 -102 -41 -189q-44 0 -84 17z" />
<glyph unicode="8" horiz-adv-x="1064" d="M119 297q0 129 83 225.5t214 136.5v9q-242 100 -242 297q0 81 32.5 144t86.5 100t119 56t137 19q71 0 134 -16.5t115.5 -51t83.5 -94t31 -137.5q0 -112 -70 -200.5t-171 -122.5v-9q57 -23 101.5 -49.5t86 -65t64 -92.5t22.5 -120q0 -119 -59.5 -204t-152 -124t-204.5 -39 q-77 0 -147 18t-131 56t-97 106t-36 158zM238 315q0 -73 25 -127t68 -85t94.5 -45.5t111.5 -14.5q54 0 102.5 14t91.5 44t68.5 84t25.5 126q0 29 -6.5 55.5t-15 47.5t-26.5 42t-32 35.5t-41 32t-43.5 27.5t-50.5 26t-50.5 23t-53.5 23q-128 -41 -198 -119t-70 -189zM289 981 q0 -44 17 -82t41 -64t67 -53t78 -43t90 -39q105 40 160 113.5t55 163.5q0 62 -23 108.5t-61.5 71.5t-81.5 37t-90 12q-41 0 -82 -11t-81 -35t-64.5 -70.5t-24.5 -108.5z" />
<glyph unicode="9" horiz-adv-x="1105" d="M133 680q0 184 114.5 298t297.5 114q214 0 325 -149.5t111 -424.5q0 -340 -167.5 -545.5t-428.5 -205.5q-124 0 -223 40q-9 18 -15.5 50.5t-3.5 50.5q97 -41 240 -41q198 0 327 159.5t148 426.5h-10q-43 -66 -128.5 -109t-197.5 -43q-185 0 -287 104.5t-102 274.5z M256 688q0 -136 79.5 -217.5t219.5 -81.5q172 0 301 156q0 224 -80.5 343.5t-234.5 119.5q-131 0 -208 -90t-77 -230z" />
<glyph unicode=":" horiz-adv-x="561" d="M213 111q0 43 26.5 68.5t69.5 25.5q42 0 68 -24.5t26 -67.5q0 -48 -25 -73.5t-69 -25.5q-46 0 -71 25t-25 72zM215 846q0 41 26.5 66.5t67.5 25.5t66.5 -24t25.5 -66q0 -46 -25 -71t-67 -25q-45 0 -69.5 24.5t-24.5 69.5z" />
<glyph unicode=";" horiz-adv-x="526" d="M158 -244q65 159 86 275l-74 16q17 57 43 86q30 6 68 6q59 0 104 -20q-20 -91 -68 -212.5t-88 -185.5q-38 9 -71 35zM195 846q0 41 26.5 66.5t67.5 25.5t66.5 -24t25.5 -66q0 -46 -25 -71t-67 -25q-45 0 -69.5 24.5t-24.5 69.5z" />
<glyph unicode="&#x3c;" d="M207 496l6 92l633 450q61 -34 86 -65l-608 -428v-10l604 -424q-4 -18 -25.5 -42.5t-40.5 -35.5z" />
<glyph unicode="=" d="M145 309q0 49 13 92h860q6 -18 6 -57q0 -23 -2 -35h-877zM145 670q0 49 13 92h860q6 -18 6 -57q0 -23 -2 -35h-877z" />
<glyph unicode="&#x3e;" d="M233 973q31 36 91 63l632 -448l7 -90l-656 -469q-18 7 -37.5 32.5t-25.5 47.5l602 426v10z" />
<glyph unicode="?" horiz-adv-x="911" d="M121 1364q62 31 172 53.5t205 22.5q169 0 262.5 -76t93.5 -205q0 -54 -22 -106t-57 -94t-77.5 -82t-85.5 -76.5t-78 -71.5t-57 -73.5t-22 -75.5q0 -96 61 -166q-44 -32 -102 -41q-78 88 -78 196q0 44 21 88t54.5 82.5t74.5 77t81.5 77t74 77.5t54.5 84t21 90 q0 87 -63 148t-187 61q-60 0 -125 -15.5t-106 -38.5v-235q-45 -18 -93 -18q-22 148 -22 317zM371 70q0 43 26.5 68.5t69.5 25.5q42 0 68 -24.5t26 -67.5q0 -48 -25 -73.5t-69 -25.5q-46 0 -71 25t-25 72z" />
<glyph unicode="@" horiz-adv-x="2109" d="M152 432q0 218 75 406.5t206 322t317.5 209.5t402.5 76q235 0 423.5 -85.5t299.5 -250t111 -381.5q0 -103 -26.5 -201t-82.5 -187.5t-136 -158.5t-195.5 -113.5t-252.5 -52.5q-38 71 -47 146h-8q-54 -79 -139 -112.5t-166 -33.5q-131 0 -207 85.5t-76 263.5 q0 117 34.5 224t100.5 185q145 168 375 168q86 0 159.5 -21.5t117.5 -52.5l-86 -665q3 -48 18 -88q99 8 184 46.5t145 97t103 134t63.5 158t20.5 168.5q0 125 -41.5 230.5t-113.5 180.5t-168 127.5t-204.5 77.5t-223.5 25q-189 0 -353 -70.5t-278.5 -192.5t-180 -292.5 t-65.5 -364.5q0 -240 96 -422.5t280.5 -284.5t434.5 -102q147 0 295 33.5t240 89.5q26 -23 43 -65q-116 -68 -279 -107t-326 -39q-271 0 -473 110.5t-309.5 311.5t-107.5 467zM768 381q0 -144 54 -208t155 -64q83 0 157 41t115 118l80 563q-63 37 -174 37q-178 0 -281 -135 q-106 -133 -106 -352z" />
<glyph unicode="A" horiz-adv-x="1449" d="M25 0q3 39 20 72q47 12 127 18l500 1344h104l496 -1342q66 -3 129 -16q14 -37 14 -76h-454q3 38 18 72q72 16 172 20q-43 77 -84 189l-74 202h-563l-74 -207q-45 -123 -77 -186q103 -4 186 -18q12 -32 12 -72h-452zM459 565h504l-183 506q-44 118 -61 232h-12 q-21 -107 -70 -238z" />
<glyph unicode="B" horiz-adv-x="1222" d="M74 4q3 38 16 72q66 16 172 20v1225q-90 0 -158 6q-7 22 -7 53q0 13 1 27q240 16 455 16q111 0 203 -21.5t162 -64t109.5 -112t39.5 -160.5q0 -121 -67 -204t-169 -111v-9q312 -73 312 -344q0 -102 -43 -180.5t-117.5 -126t-166.5 -71t-198 -23.5q-380 0 -544 8zM387 88 q102 -6 201 -6q203 0 315.5 75.5t112.5 227.5q0 151 -108 230t-294 79h-227v-606zM387 780h217q158 0 248 68.5t90 200.5q0 145 -108.5 216.5t-298.5 71.5q-97 0 -148 -4v-553z" />
<glyph unicode="C" horiz-adv-x="1222" d="M100 686q0 180 53.5 326t147 240t216.5 144t265 50q198 0 348 -72q0 -171 -18 -309q-56 0 -94 18v228q-111 47 -246 47q-115 0 -211.5 -40.5t-170.5 -119.5t-115.5 -206t-41.5 -290q0 -309 138 -474t364 -165q190 0 387 74q0 -18 -6.5 -46.5t-13.5 -41.5 q-180 -90 -406 -90q-180 0 -315.5 91.5t-208 256t-72.5 379.5z" />
<glyph unicode="D" horiz-adv-x="1366" d="M74 4q3 38 16 72q66 16 172 20v1213q-90 0 -158 6q-7 22 -7 53q0 13 1 27q267 24 484 24q154 0 282 -45t224 -132.5t149 -226t53 -315.5q0 -142 -34 -259.5t-93.5 -199t-141.5 -138t-177 -83t-201 -26.5q-334 0 -569 10zM387 86q72 -4 215 -4q262 0 409.5 152.5 t147.5 451.5q0 162 -44 286.5t-124.5 202.5t-189 118t-242.5 40q-101 0 -172 -6v-1241z" />
<glyph unicode="E" horiz-adv-x="1146" d="M78 0q3 40 16 72q66 16 168 20v1223q-83 3 -156 14q-7 24 -7 53q0 11 1 23h928v-268q-44 0 -80 8q-15 82 -18 176h-543v-567h442q3 68 17 127q30 10 78 10v-361q-9 -1 -18 -1l-62 8q-12 71 -15 133h-442v-582h557q3 85 19 188q42 11 86 11v-287h-971z" />
<glyph unicode="F" horiz-adv-x="1032" d="M78 0q3 40 16 72q66 16 168 20v1223q-83 3 -156 14q-7 24 -7 53q0 11 1 23h895v-277q-41 0 -82 9q-11 71 -18 184h-508v-592h420q3 60 16 131q33 10 78 10v-372q-9 -1 -18 -1q-33 0 -60 9q-12 61 -16 137h-420v-553q125 -3 205 -16q7 -19 7 -42q0 -15 -3 -32h-518z" />
<glyph unicode="G" horiz-adv-x="1394" d="M100 670q0 183 52.5 330.5t147 244.5t225.5 149t288 52q232 0 377 -94q0 -148 -21 -291q-51 0 -92 18v213q-122 68 -278 68q-118 0 -219.5 -41.5t-180 -122t-123.5 -211t-45 -297.5q0 -311 145 -471t390 -160q149 0 295 41v486q-152 0 -313 14q-11 34 -11 82h623 q-3 -46 -14 -82q-59 -10 -164 -14v-539q-86 -33 -212 -59.5t-245 -26.5q-294 0 -459.5 191.5t-165.5 519.5z" />
<glyph unicode="H" horiz-adv-x="1533" d="M78 0q3 40 16 72q66 16 168 20v1223q-83 3 -156 14q-7 24 -7 53q0 11 1 23h459q3 -14 3 -29q0 -22 -7 -45q-71 -13 -168 -16v-535h760v535q-80 3 -154 14q-7 24 -7 53q0 11 1 23h463q3 -14 3 -29q0 -22 -7 -45q-74 -13 -174 -16v-1225q110 -3 186 -16q6 -15 6 -47 q0 -17 -2 -27h-485q3 40 16 72q59 16 154 20v598h-760v-600q106 -3 176 -16q7 -19 7 -42q0 -15 -3 -32h-489z" />
<glyph unicode="I" horiz-adv-x="649" d="M78 0q3 40 16 72q66 16 168 20v1223q-83 3 -156 14q-7 24 -7 53q0 11 1 23h465q3 -14 3 -29q0 -22 -7 -45q-74 -13 -174 -16v-1225q110 -3 186 -16q7 -17 7 -47q0 -17 -2 -27h-500z" />
<glyph unicode="J" horiz-adv-x="657" d="M-59 -289q187 115 271.5 288.5t84.5 418.5v897q-93 2 -188 14q-8 27 -8 55q0 11 1 21h498q2 -8 2 -27q0 -29 -6 -47q-74 -13 -174 -16v-871q0 -566 -442 -802q-12 11 -24 31.5t-15 37.5z" />
<glyph unicode="K" horiz-adv-x="1277" d="M78 0q3 40 16 72q66 16 168 20v1223q-83 3 -156 14q-7 24 -7 53q0 11 1 23h449q3 -14 3 -29q0 -22 -7 -45q-68 -13 -158 -16v-553h127l305 422q52 74 113 131q-92 3 -158 14q-12 35 -12 76h418q0 -34 -19 -78q-45 -9 -125 -12l-434 -582l506 -657l149 10q0 -50 -16 -86 q-108 -23 -211 -29l-536 711h-107v-592q102 -3 170 -16q7 -19 7 -42q0 -15 -3 -32h-483z" />
<glyph unicode="L" horiz-adv-x="1101" d="M78 0q3 40 16 72q66 16 168 20v1223q-83 3 -156 14q-7 24 -7 53q0 11 1 23h486q3 -14 3 -29q0 -22 -7 -45q-84 -13 -195 -16v-1225h565q3 115 17 213q38 10 88 10v-313h-979z" />
<glyph unicode="M" horiz-adv-x="1785" d="M86 0q3 38 16 70q59 16 150 20v1225q-80 3 -154 14q-7 24 -7 53q0 11 1 23h346l359 -993q51 -144 88 -303h12q27 137 90 303l365 993h348q3 -14 3 -29q0 -22 -7 -45q-75 -13 -172 -16v-1225q108 -3 184 -16q6 -15 6 -47q0 -17 -2 -27h-475q3 40 16 72q59 16 154 20v1219 h-12q-42 -179 -107 -355l-360 -983h-99l-354 973q-62 172 -110 365h-13v-1223q99 -3 164 -16q7 -18 7 -41q0 -15 -3 -31h-434z" />
<glyph unicode="N" horiz-adv-x="1458" d="M76 0q3 40 16 72q66 16 164 20v1223q-83 3 -156 14q-7 24 -7 53q0 11 1 23h348l545 -971q109 -200 156 -325h12v1206q-84 3 -162 14q-7 24 -7 53q0 11 1 23h422q2 -8 2 -27q0 -29 -6 -47q-65 -13 -150 -16v-1325h-163l-631 1130q-45 78 -84 183h-15v-1213q116 -3 191 -16 q7 -19 7 -42q0 -15 -3 -32h-481z" />
<glyph unicode="O" horiz-adv-x="1431" d="M102 721q0 333 171.5 529t445.5 196q278 0 444 -190t166 -535q0 -359 -165 -560.5t-445 -201.5q-297 0 -457 195t-160 567zM236 721q0 -312 126.5 -490t356.5 -178q231 0 355 178t124 490q0 285 -131 459t-348 174q-233 0 -358 -170t-125 -463z" />
<glyph unicode="P" horiz-adv-x="1118" d="M78 0q3 40 16 72q66 16 168 20v1227q-90 0 -158 6q-7 22 -7 53q0 13 1 27q223 20 473 20q237 0 374.5 -107.5t137.5 -316.5q0 -105 -36.5 -188t-100 -134t-146 -77.5t-177.5 -26.5q-119 0 -236 19v-504q132 -3 227 -16q7 -19 7 -42q0 -15 -3 -32h-540zM387 678 q105 -12 229 -12q160 0 249 79t89 242q0 178 -106 264t-297 86q-85 0 -164 -6v-653z" />
<glyph unicode="Q" horiz-adv-x="1472" d="M102 721q0 222 79 387t219.5 251.5t322.5 86.5q280 0 447 -190t167 -535q0 -234 -73 -404.5t-203 -255.5v-8q89 -67 217 -130.5t174 -63.5l139 18q0 -57 -20 -102q-29 -11 -71.5 -21t-63.5 -10q-60 0 -217 84.5t-267 173.5q-111 -43 -229 -43q-299 0 -460 195t-161 567z M236 721q0 -312 127.5 -490t359.5 -178q234 0 357.5 177.5t123.5 490.5q0 285 -131 459t-350 174q-235 0 -361 -170t-126 -463z" />
<glyph unicode="R" horiz-adv-x="1243" d="M78 0q3 40 16 72q66 16 168 20v1229q-90 0 -158 6q-5 19 -5 48q0 15 1 32q277 20 463 20q152 0 266 -41t182 -131t68 -221q0 -161 -93 -260t-241 -123q93 -196 195 -378.5t123 -196.5l147 10q0 -44 -16 -84q-100 -24 -211 -31q-66 51 -358 666q-134 0 -238 14v-561 q106 -3 182 -16q7 -19 7 -42q0 -15 -3 -32h-495zM387 729q93 -8 227 -8q155 0 246.5 76.5t91.5 224.5q0 163 -109 240t-302 77q-81 0 -154 -6v-604z" />
<glyph unicode="S" horiz-adv-x="1056" d="M117 31q0 187 16 315q57 0 98 -14v-223q114 -60 275 -60q168 0 252 77t84 218q0 66 -23.5 118t-63 87t-90.5 64t-107.5 53.5t-113 50t-107.5 59t-90.5 74.5t-63 103t-23.5 139q0 162 111.5 258t308.5 96q175 0 335 -66q0 -155 -20 -272q-49 0 -90 18v187q-86 47 -211 47 q-146 0 -226.5 -68t-80.5 -184q0 -61 23.5 -110.5t62.5 -83t90 -62t107.5 -53.5t113 -51t107.5 -60.5t90 -77t62.5 -105t23.5 -140.5q0 -89 -26 -159.5t-70.5 -116t-106.5 -75.5t-129.5 -42.5t-145.5 -12.5q-202 0 -372 72z" />
<glyph unicode="T" horiz-adv-x="1150" d="M33 1120v285h1085v-289q-46 0 -84 10q-15 91 -18 195h-379v-1231q121 -3 199 -16q7 -19 7 -42q0 -15 -3 -32h-525q3 37 17 72q69 16 180 20v1229h-377q-7 -123 -18 -193q-33 -8 -84 -8z" />
<glyph unicode="U" horiz-adv-x="1404" d="M45 1405h471q3 -14 3 -29q0 -22 -7 -45q-74 -13 -176 -16v-807q0 -224 95.5 -340.5t283.5 -116.5q202 0 301.5 124.5t99.5 336.5v803q-84 3 -158 14q-7 23 -7 46q0 15 3 30h420q2 -8 2 -27q0 -29 -6 -47q-65 -13 -149 -16v-793q0 -128 -31 -230t-94 -177t-164.5 -115.5 t-235.5 -40.5q-485 0 -485 535v821q-83 3 -156 14q-10 33 -10 76z" />
<glyph unicode="V" horiz-adv-x="1382" d="M23 1405h475q0 -32 -19 -76q-78 -9 -196 -12q62 -134 112 -279l240 -704q43 -119 65 -254h13q28 141 71 264l228 680q50 151 110 291q-110 3 -178 16q-14 35 -14 74h442q0 -36 -14 -76q-53 -9 -133 -12l-469 -1344h-127l-465 1342q-61 3 -129 16q-12 36 -12 74z" />
<glyph unicode="W" horiz-adv-x="1943" d="M29 1405h450q0 -36 -14 -76q-72 -8 -195 -12q51 -129 84 -266l187 -725q30 -123 45 -244h12q18 117 47 244l266 1097h150l250 -1104q29 -130 43 -237h12q19 122 49 235l195 734q41 155 84 266q-99 3 -168 14q-13 39 -13 74h412q0 -36 -14 -76q-41 -8 -121 -12l-377 -1344 h-137l-240 1041q-37 160 -53 311h-12q-17 -133 -60 -315l-254 -1037h-141l-354 1342q-68 3 -117 16q-13 31 -16 74z" />
<glyph unicode="X" horiz-adv-x="1415" d="M55 0q3 36 21 72q57 13 127 16l432 645l-369 578q-70 3 -127 16q-12 36 -12 78h457q-3 -33 -17 -78q-73 -10 -174 -14q44 -49 115 -154l225 -350l230 369q48 77 100 137q-80 0 -162 12q-14 42 -16 78h413q-3 -42 -16 -78q-57 -10 -111 -10l-380 -586l417 -641 q70 -3 135 -14q15 -35 19 -76h-467q4 36 20 74q74 11 164 14q-73 80 -123 158l-264 405l-260 -420q-56 -89 -106 -139q114 -4 190 -18q12 -33 16 -74h-477z" />
<glyph unicode="Y" horiz-adv-x="1183" d="M20 1405h437q0 -35 -13 -74q-70 -11 -178 -14q53 -74 96 -162l177 -352q37 -77 55 -146h12q23 76 60 146l182 346q53 101 100 168q-99 4 -155 14q-15 34 -15 74h391q0 -44 -12 -76q-40 -8 -106 -12l-408 -746v-481q124 -3 201 -16q7 -19 7 -42q0 -15 -3 -32h-529 q3 37 17 72q68 16 182 20v481l-377 742q-61 3 -108 14q-13 33 -13 76z" />
<glyph unicode="Z" horiz-adv-x="1128" d="M104 0v100l785 1203v10h-647q-3 -87 -21 -207q-36 -8 -92 -8v307h901v-98l-778 -1203v-8h686q3 107 18 215q47 15 93 15v-326h-945z" />
<glyph unicode="[" horiz-adv-x="645" d="M227 -375v1872h275q5 -38 -6 -74q-59 -9 -154 -12v-1698q93 -3 172 -16q6 -15 6 -45q0 -17 -2 -27h-291z" />
<glyph unicode="\" horiz-adv-x="806" d="M10 1479q34 34 84 49l701 -1843q-34 -23 -93 -31z" />
<glyph unicode="]" horiz-adv-x="645" d="M119 -375q3 37 16 70q66 16 168 20v1694q-84 3 -153 14q-11 36 -7 74h275v-1872h-299z" />
<glyph unicode="^" d="M152 743l374 617l88 8l402 -631q-36 -32 -82 -43l-268 428q-40 63 -88 160h-13q-37 -87 -84 -160l-266 -436q-15 7 -34.5 25t-28.5 32z" />
<glyph unicode="_" horiz-adv-x="1024" d="M-12 -467q0 47 10 80h1028q6 -15 6 -49q0 -21 -2 -31h-1042z" />
<glyph unicode="`" horiz-adv-x="829" d="M195 1417q22 12 61.5 21.5t71.5 9.5l227 -299q-41 -27 -92 -31z" />
<glyph unicode="a" horiz-adv-x="999" d="M100 236q0 150 107.5 230.5t271.5 80.5q113 0 197 -33v100q0 148 -50 215.5t-163 67.5q-68 0 -149 -26.5t-138 -63.5q-8 19 -8 49q0 46 16 70q47 28 137.5 47.5t167.5 19.5q160 0 232 -83t72 -283v-447q0 -73 24 -112q63 3 148 22q2 -6 2 -18q0 -34 -15 -56 q-28 -17 -92.5 -32t-107.5 -17q-54 51 -64 129h-8q-45 -65 -121.5 -98t-163.5 -33q-126 0 -210.5 68.5t-84.5 202.5zM221 252q0 -95 60.5 -144t154.5 -49q73 0 141 30t101 87v268q-88 25 -176 25q-133 0 -207 -58.5t-74 -158.5z" />
<glyph unicode="b" horiz-adv-x="1097" d="M33 1399q3 41 22 69q77 23 166 23q44 0 80 -8v-426q0 -92 -10 -209h16q34 62 107.5 103.5t179.5 41.5q61 0 116 -15t107 -50.5t89.5 -88.5t60 -136t22.5 -187q0 -261 -132.5 -406t-358.5 -145q-180 0 -316 60v1374h-149zM299 80q92 -29 184 -29q100 0 174.5 31.5 t119 90.5t66 137t21.5 177q0 198 -80.5 305t-224.5 107q-165 0 -260 -133v-686z" />
<glyph unicode="c" horiz-adv-x="944" d="M109 465q0 241 131 384.5t356 143.5q155 0 250 -67q4 -23 4 -72q0 -86 -21 -154q-51 0 -84 17v160q-71 36 -155 36q-163 0 -257.5 -106t-94.5 -318q0 -213 92.5 -320.5t255.5 -107.5q127 0 254 52q0 -45 -21 -80q-50 -28 -125 -48t-155 -20q-199 0 -314.5 136.5 t-115.5 363.5z" />
<glyph unicode="d" horiz-adv-x="1140" d="M109 440q0 259 131 406t352 147q127 0 203 -45v451h-150q3 39 23 69q77 23 166 23q43 0 79 -8v-1256q0 -91 15 -145h159q3 -9 3 -25q0 -25 -11 -47q-103 -26 -237 -30q-28 52 -35 124h-8q-109 -139 -307 -139q-74 0 -139 25.5t-121.5 79t-89.5 148.5t-33 222zM233 469 q0 -194 78 -301t213 -107q172 0 273 125v688q-97 33 -193 33q-189 0 -280 -118t-91 -320z" />
<glyph unicode="e" horiz-adv-x="991" d="M106 463q0 149 53.5 268.5t158.5 190.5t245 71q167 0 248.5 -110.5t81.5 -300.5q0 -43 -8 -105h-654q1 -204 100 -310t265 -106q137 0 283 64v-10q0 -37 -19 -70q-53 -33 -135.5 -56.5t-169.5 -23.5q-209 0 -329 138t-120 360zM233 561h539q1 32 1 65v32q-1 50 -17 96 t-41 82t-70 57.5t-104 21.5q-131 0 -213.5 -98.5t-94.5 -255.5z" />
<glyph unicode="f" horiz-adv-x="649" d="M88 0q3 31 18 61q70 19 146 27v789h-156q4 36 19 71q61 18 137 27v145q0 103 25.5 177.5t71 115.5t100.5 59.5t122 18.5q91 0 168 -27q4 -23 4 -67q0 -87 -20 -152q-45 0 -80 21v141q-30 12 -76 12q-39 0 -71.5 -13t-62 -42.5t-46 -88t-16.5 -140.5v-177h266q8 -33 8 -81 h-274v-791q111 -6 200 -23q9 -31 2 -63h-485z" />
<glyph unicode="g" horiz-adv-x="1050" d="M84 -211q0 95 50 158.5t124 89.5v8q-88 38 -88 139q0 50 25 93t69 69v8q-121 85 -121 289q0 161 102 255.5t267 94.5q121 0 201 -47q78 29 182 29q53 0 88 -12q14 -31 14 -80h-209q89 -92 89 -240q0 -169 -98 -264.5t-267 -95.5q-112 0 -180 32q-47 -35 -47 -104 q0 -36 20.5 -58.5t66 -34t99 -15t139.5 -3.5q70 0 125 -6.5t106 -24.5t84.5 -46.5t53.5 -74.5t20 -108q0 -111 -66 -190.5t-171.5 -117.5t-237.5 -38q-87 0 -164 17.5t-140 52.5t-99.5 93t-36.5 132zM199 -186q0 -61 29.5 -107.5t79 -74t109.5 -41t126 -13.5 q93 0 168.5 25.5t124.5 81.5t49 135q0 92 -68.5 134t-232.5 42t-240 20q-72 -28 -108.5 -81.5t-36.5 -120.5zM262 643q0 -132 65.5 -207.5t184.5 -75.5q120 0 183 75t63 208q0 123 -67 197.5t-179 74.5q-122 0 -186 -72t-64 -200z" />
<glyph unicode="h" horiz-adv-x="1198" d="M66 0q3 31 18 61q71 19 145 27v1311h-149q3 41 22 69q77 23 166 23q44 0 80 -8v-422q0 -110 -10 -230h16q12 24 36 49t62.5 52t99 44t130.5 17q54 0 95.5 -8t82.5 -31t67.5 -62t43 -105.5t16.5 -157.5q0 -303 -8 -543q97 -6 172 -23q4 -16 4 -34q0 -19 -2 -29h-434 q3 31 18 61q64 19 129 27v526q0 140 -51 212.5t-172 72.5q-90 0 -174.5 -45t-120.5 -98v-670q85 -6 154 -23q9 -31 2 -63h-438z" />
<glyph unicode="i" horiz-adv-x="595" d="M88 0q3 31 18 61q70 19 146 27v795h-154q3 39 23 69q77 23 168 23q46 0 82 -8v-881q94 -6 170 -23q4 -16 4 -34q0 -19 -2 -29h-455zM223 1319q0 41 24 64.5t64 23.5q39 0 62.5 -22.5t23.5 -63.5q0 -44 -23 -67t-63 -23q-42 0 -65 23t-23 65z" />
<glyph unicode="j" horiz-adv-x="503" d="M-18 -428q105 103 169 223.5t64 280.5v807h-154q3 39 23 69q77 23 168 23q46 0 82 -8v-858q0 -82 -17.5 -157.5t-43 -133t-66.5 -116t-77 -98t-85 -87.5q-43 16 -63 55zM193 1319q0 41 23.5 64.5t62.5 23.5t63.5 -23t24.5 -63q0 -43 -23.5 -66.5t-64.5 -23.5t-63.5 22.5 t-22.5 65.5z" />
<glyph unicode="k" horiz-adv-x="1110" d="M66 0q3 31 18 61q71 19 145 27v1311h-149q3 41 22 69q77 23 166 23q44 0 80 -8v-908h129l219 228q37 42 80 71q-82 4 -153 21q-13 26 -13 63h406q0 -32 -15 -67q-45 -13 -110 -17l-334 -333q147 -185 269.5 -328t144.5 -150l135 19q0 -44 -19 -78q-83 -31 -157 -39 q-24 5 -68.5 46t-118.5 130t-129 158t-159 203h-107v-416q85 -6 154 -23q9 -31 2 -63h-438z" />
<glyph unicode="l" horiz-adv-x="577" d="M66 0q3 31 18 61q71 19 145 27v1311h-149q3 41 22 69q77 23 166 23q44 0 80 -8v-1397q97 -6 172 -23q4 -16 4 -34q0 -19 -2 -29h-456z" />
<glyph unicode="m" horiz-adv-x="1820" d="M88 0q3 31 18 61q70 19 146 27v795h-154q3 39 23 69q71 23 158 23q42 0 75 -8v-131h17q14 23 36 46t60 50t97 44t130 17q226 0 275 -178h8q13 26 36 52.5t63 57t102.5 49.5t138.5 19q64 0 112.5 -15t91.5 -52.5t66 -112.5t23 -184q0 -298 -8 -543q97 -6 172 -23 q4 -16 4 -34q0 -19 -2 -29h-435q3 29 19 61q64 19 129 27v526q0 138 -50.5 211.5t-166.5 73.5q-89 0 -168 -46.5t-119 -104.5q4 -50 4 -97v-565q85 -6 154 -23q9 -31 2 -63h-420q3 31 18 61q64 19 129 27v541q0 133 -51 201.5t-166 68.5q-87 0 -167.5 -45t-116.5 -98v-670 q84 -6 153 -23q9 -31 2 -63h-438z" />
<glyph unicode="n" horiz-adv-x="1212" d="M88 0q3 31 18 61q70 19 146 27v795h-154q3 39 23 69q71 23 158 23q42 0 75 -8v-131h17q49 79 137 118t194 39q162 0 230.5 -90t68.5 -274q0 -292 -8 -543q97 -6 172 -23q4 -16 4 -34q0 -19 -2 -29h-434q3 29 19 61q64 19 129 27v526q0 285 -222 285q-93 0 -171.5 -43 t-116.5 -100v-670q84 -6 153 -23q9 -31 2 -63h-438z" />
<glyph unicode="o" horiz-adv-x="1095" d="M106 496q0 229 122.5 363t320.5 134q201 0 320.5 -130t119.5 -367q0 -252 -119 -391.5t-321 -139.5q-214 0 -328.5 136t-114.5 395zM229 496q0 -207 84.5 -326t235.5 -119q154 0 235.5 118.5t81.5 326.5q0 186 -86 300.5t-231 114.5q-153 0 -236.5 -112t-83.5 -303z" />
<glyph unicode="p" horiz-adv-x="1124" d="M51 -467q3 29 19 61q71 19 145 27v1262h-154q3 39 23 69q71 23 158 23q42 0 75 -8v-119h17q95 145 284 145q77 0 145 -25.5t126.5 -79t92.5 -149.5t34 -225q0 -257 -131.5 -403t-352.5 -146q-131 0 -198 43v-389q115 -7 194 -22q5 -18 5 -36q0 -14 -3 -28h-479zM332 86 q96 -35 186 -35q191 0 283 117.5t92 318.5q0 195 -80.5 303.5t-222.5 108.5q-159 0 -258 -133v-680z" />
<glyph unicode="q" horiz-adv-x="1077" d="M109 440q0 262 133.5 407.5t363.5 145.5q182 0 312 -71v-1303q94 -6 161 -22q4 -16 4 -35t-2 -29h-456q3 31 18 61q74 19 156 27v205q0 160 10 270h-16q-38 -56 -110.5 -93.5t-176.5 -37.5q-62 0 -117.5 14.5t-107.5 49.5t-89.5 88t-60 136t-22.5 187zM233 463 q0 -195 81 -298.5t227 -103.5q154 0 260 115v701q-90 34 -189 34q-191 0 -285 -121.5t-94 -326.5z" />
<glyph unicode="r" horiz-adv-x="782" d="M88 0q3 31 18 61q70 19 146 27v795h-154q3 39 23 69q71 23 158 23q42 0 75 -8v-166h17q31 92 98.5 142t163.5 50q67 0 100 -16q19 -27 19 -78q0 -20 -7 -41q-52 29 -131 29q-78 0 -141.5 -47.5t-101.5 -145.5v-608q108 -6 198 -23q9 -31 2 -63h-483z" />
<glyph unicode="s" horiz-adv-x="851" d="M113 117q0 73 16 145q55 0 98 -12v-154q79 -51 199 -51q96 0 156.5 50t60.5 134q0 44 -17 79.5t-46 59.5t-66 44.5t-78.5 38t-83 36t-78.5 42.5t-66 54t-46 73.5t-17 97.5q0 111 84 175t232 64q152 0 262 -61q4 -20 4 -66q0 -73 -18 -143q-55 0 -88 20v136 q-66 39 -158 39q-94 0 -145.5 -40t-51.5 -110q0 -51 27 -89.5t71 -64t96.5 -48t105 -49t96.5 -60t71 -88t27 -125.5q0 -73 -28.5 -128t-79 -87t-112.5 -48t-134 -16q-160 0 -287 70q-6 41 -6 82z" />
<glyph unicode="t" horiz-adv-x="690" d="M63 877q4 36 19 71q62 21 123 27l26 229q35 19 88 23v-269h310q8 -33 8 -81h-318v-613q0 -60 4.5 -94.5t20 -62.5t46 -39t81.5 -11q84 0 186 31q0 -42 -14 -74q-104 -49 -223 -49q-118 0 -169.5 63t-51.5 218q0 412 6 631h-142z" />
<glyph unicode="u" horiz-adv-x="1185" d="M57 883q3 39 23 69q77 23 168 23q46 0 82 -8v-621q0 -145 49 -215t170 -70q90 0 167 38t118 87v697h-152q3 39 23 69q77 23 165 23q46 0 82 -8v-740q0 -77 15 -145h161q2 -6 2 -25q0 -27 -10 -47q-103 -26 -241 -30q-28 64 -33 133h-8q-14 -22 -37.5 -44.5t-62.5 -47.5 t-101 -40.5t-135 -15.5q-66 0 -114.5 14.5t-91 52t-65 112.5t-22.5 186q0 260 6 553h-158z" />
<glyph unicode="v" horiz-adv-x="1011" d="M6 958h404q0 -32 -11 -69q-78 -14 -163 -17q39 -80 77 -188l154 -436q27 -78 43 -168h14q13 73 47 172l154 426q38 110 80 192q-92 7 -146 21q-12 32 -12 67h357q0 -31 -15 -71q-46 -14 -94 -17l-328 -876l-125 -14l-317 884q-57 9 -105 27q-11 27 -14 67z" />
<glyph unicode="w" horiz-adv-x="1501" d="M12 958h398q0 -34 -11 -67q-74 -13 -163 -19q31 -62 63 -178l129 -461q21 -79 27 -155h14q13 84 33 160l196 716l148 15l178 -733q17 -66 27 -156h14q15 97 33 158l131 438q33 114 67 194q-82 6 -143 21q-12 27 -12 67h344q0 -35 -15 -69q-38 -15 -90 -19l-266 -876 l-135 -14l-174 690q-27 116 -35 204h-14q-14 -97 -43 -208l-189 -672l-137 -14l-256 884q-55 9 -104 27q-12 30 -15 67z" />
<glyph unicode="x" horiz-adv-x="1077" d="M43 0q4 39 18 63q43 19 111 27l305 414l-272 362q-58 9 -103 27q-11 24 -14 65h365q0 -30 -11 -67q-54 -14 -118 -17q44 -40 84 -96l155 -211l158 221q31 46 72 84q-76 7 -123 21q-11 33 -11 65h328q0 -39 -12 -69q-33 -13 -86 -17l-273 -370l312 -416q59 -4 106 -20 q13 -30 17 -66h-385q4 38 18 66q54 16 127 20q-46 43 -92 104l-184 246l-185 -260q-29 -45 -74 -90q83 -4 136 -20q12 -27 12 -66h-381z" />
<glyph unicode="y" horiz-adv-x="1007" d="M6 958h410q0 -34 -10 -67q-87 -16 -168 -19q21 -40 77 -190l156 -430q29 -78 47 -186h14q15 71 54 192l141 424q37 112 74 188q-92 7 -146 21q-12 32 -12 67h356q0 -34 -14 -71q-46 -14 -94 -17l-119 -350q-8 -22 -49 -141t-60 -171t-51.5 -136.5t-58.5 -141.5 q-76 -164 -172 -259t-242 -154q-38 38 -47 102q133 41 229 132.5t142 209.5l-336 903q-61 10 -107 27q-11 27 -14 67z" />
<glyph unicode="z" horiz-adv-x="915" d="M102 63l570 805v9h-430q-3 -73 -25 -154q-54 0 -86 14v221h678l14 -63l-571 -805v-10q263 0 473 14q12 72 41 162q21 6 47 6q27 0 39 -2l-33 -260h-698z" />
<glyph unicode="{" horiz-adv-x="677" d="M115 547q0 51 14 82q47 6 77 24t45 53t20 75t5 104v313q0 74 12 128.5t41.5 98.5t83 68t132.5 27q0 -45 -17 -84q-74 -9 -105.5 -62t-31.5 -164v-315q0 -132 -32.5 -205t-116.5 -98v-8q86 -25 117.5 -92t31.5 -195v-375q0 -118 36 -174.5t116 -62.5q3 -12 1.5 -40.5 t-5.5 -41.5q-144 7 -203.5 82t-59.5 217v370q0 57 -3 93.5t-12.5 71.5t-27 55.5t-46.5 35t-72 19.5z" />
<glyph unicode="|" horiz-adv-x="565" d="M240 -369v1876q43 9 92 9v-1885q-12 -4 -45 -4q-35 0 -47 4z" />
<glyph unicode="}" horiz-adv-x="677" d="M135 1442q0 44 21 78q137 -10 193.5 -90.5t56.5 -217.5v-317q0 -51 3 -86t12 -69.5t25.5 -55.5t44 -36t66.5 -19q10 -33 10 -82q-98 -13 -129.5 -68.5t-31.5 -187.5v-377q0 -148 -58.5 -226t-204.5 -85q-5 11 -7 37.5t1 44.5q154 12 154 221v373q0 137 30.5 208.5 t116.5 96.5v8q-81 24 -114 94.5t-33 196.5v315q0 125 -34 180t-122 64z" />
<glyph unicode="~" d="M131 514q42 59 111.5 96t152.5 37q56 0 111.5 -17t93 -37t90 -37t103.5 -17q56 0 100.5 25.5t71.5 64.5q43 -10 73 -33q-40 -69 -110 -108t-158 -39q-60 0 -115 16.5t-90 36.5t-85.5 36.5t-102.5 16.5q-61 0 -114.5 -30.5t-84.5 -73.5q-30 21 -47 63z" />
<glyph unicode="&#xa1;" horiz-adv-x="608" d="M207 891q0 43 26.5 68.5t69.5 25.5q42 0 68 -24.5t26 -67.5q0 -48 -25 -73t-69 -25q-46 0 -71 24.5t-25 71.5zM238 -424l18 977q14 6 43 9.5t49 0.5l39 -987q-27 -10 -74 -10q-45 0 -75 10z" />
<glyph unicode="&#xa2;" horiz-adv-x="980" d="M109 522q0 201 116.5 329.5t317.5 145.5v133q43 9 94 9v-138q137 -9 225 -67q4 -24 4 -64q0 -93 -20 -172q-50 0 -86 19v168q-71 35 -156 35q-169 0 -267.5 -94t-98.5 -281q0 -186 95.5 -283.5t260.5 -97.5q134 0 264 53q0 -49 -22 -82q-80 -50 -228 -63v-152 q-12 -4 -47 -4t-47 4v148q-187 10 -296 134.5t-109 319.5z" />
<glyph unicode="&#xa3;" horiz-adv-x="1087" d="M70 0q4 39 18 66q75 22 150 28q84 130 84 271q0 51 -11 122h-186q0 53 14 84h156q-35 136 -35 215q0 149 95.5 227.5t275.5 78.5q138 0 270 -56q4 -25 4 -73q0 -89 -18 -160q-55 0 -86 16v156q-87 35 -174 35q-118 0 -182 -56.5t-64 -162.5q0 -91 35 -220h385 q11 -41 2 -84h-375q10 -48 10 -106q0 -83 -30.5 -162t-73.5 -125v-8h532q3 92 21 182q50 9 80 6v-274h-897z" />
<glyph unicode="&#xa4;" horiz-adv-x="1114" d="M111 80l135 162q-88 108 -88 301q0 161 90 272l-135 160q8 14 30.5 32t38.5 21l127 -156q104 78 250 78q143 0 246 -73l125 151q18 -6 39.5 -22.5t29.5 -30.5l-131 -154q90 -107 90 -278q0 -182 -92 -301l138 -162q-9 -15 -30 -31t-40 -22l-131 157q-98 -73 -244 -73 q-150 0 -250 71l-129 -155q-19 6 -39.5 22t-29.5 31zM264 543q0 -161 79 -255.5t216 -94.5q138 0 216.5 95t78.5 255q0 142 -81.5 233.5t-213.5 91.5q-140 0 -217.5 -88.5t-77.5 -236.5z" />
<glyph unicode="&#xa5;" horiz-adv-x="1099" d="M47 1051h416q0 -40 -10 -70q-58 -14 -158 -18q46 -53 72 -101l157 -278q31 -57 45 -103h13q16 45 49 103l162 278q32 58 67 99q-80 6 -147 20q-13 35 -13 70h369q0 -41 -14 -72q-40 -13 -97 -16l-249 -422h229q11 -35 2 -74h-276l-43 -74v-86h317q11 -35 2 -74h-319v-143 q113 -4 194 -22q9 -32 2 -68h-506q4 36 19 66q86 22 170 28v139h-342q0 42 12 74h330v80l-47 80h-295q0 42 12 74h242l-240 415q-63 9 -113 27q-9 26 -12 68z" />
<glyph unicode="&#xa6;" horiz-adv-x="565" d="M238 319q44 9 94 9v-697q-12 -4 -45 -4q-37 0 -49 4v688zM238 836v671q44 9 94 9v-680q-15 -5 -45 -5q-34 0 -49 5z" />
<glyph unicode="&#xa7;" horiz-adv-x="1015" d="M92 -156q0 115 17 244q55 0 102 -14v-168q94 -58 240 -58q132 0 207 54t75 149q0 61 -33.5 108.5t-87 79.5t-118.5 61t-130 61.5t-118.5 72.5t-87 102t-33.5 142q0 164 113 262q-11 34 -11 82q0 125 90.5 193.5t251.5 68.5q175 0 316 -72q0 -101 -17 -217q-54 0 -94 21 v145q-82 45 -207 45q-111 0 -170 -44t-59 -122q0 -44 20 -80t54 -62t77.5 -49.5t92 -46t97 -47t92 -57t77.5 -72t54 -96t20 -124.5q0 -147 -91 -252q15 -47 15 -93q0 -75 -33.5 -133t-91.5 -92t-130 -51.5t-155 -17.5q-187 0 -344 77zM231 700q0 -69 42 -122t109.5 -89 t139.5 -68t146 -78t114 -101q37 61 37 147q0 79 -41.5 138t-108 97t-137 69.5t-142 74.5t-109.5 94q-50 -56 -50 -162z" />
<glyph unicode="&#xa8;" horiz-adv-x="829" d="M129 1239q0 37 21.5 58.5t58.5 21.5q36 0 58 -20.5t22 -57.5q0 -39 -21.5 -60.5t-58.5 -21.5q-80 0 -80 80zM541 1239q0 37 21.5 58.5t58.5 21.5q36 0 57.5 -20.5t21.5 -57.5q0 -39 -21 -60.5t-58 -21.5q-80 0 -80 80z" />
<glyph unicode="&#xa9;" horiz-adv-x="1667" d="M111 672q0 200 96 366t263 261.5t368 95.5q150 0 283.5 -55.5t228.5 -151t150.5 -228t55.5 -280.5q0 -201 -95.5 -366.5t-263 -260t-372.5 -94.5q-202 0 -365.5 93.5t-256 257t-92.5 362.5zM205 678q0 -180 82.5 -327.5t227.5 -231.5t321 -84q131 0 247 49.5t199 134 t131.5 203t48.5 252.5q0 174 -82 321.5t-227 234.5t-319 87t-318.5 -84.5t-227.5 -231.5t-83 -323zM489 670q0 183 111 293t274 110q126 0 216 -41q0 -113 -15 -205q-46 0 -80 17v131q-56 22 -125 22q-114 0 -187 -79.5t-73 -233.5q0 -150 71 -228.5t196 -78.5q110 0 208 41 q0 -42 -16 -74q-42 -24 -108.5 -39.5t-129.5 -15.5q-152 0 -247 106.5t-95 274.5z" />
<glyph unicode="&#xaa;" horiz-adv-x="827" d="M123 809q0 98 72.5 151.5t181.5 53.5q95 0 147 -25v58q0 82 -35 119.5t-110 37.5q-47 0 -109 -18t-100 -43q-4 12 -4 35q0 37 12 61q34 19 101 32t124 13q116 0 169 -54t53 -181v-267q0 -42 18 -69q39 0 105 16q0 -38 -15 -65q-24 -12 -69.5 -22.5t-79.5 -10.5 q-17 13 -30.5 39t-16.5 51h-9q-65 -92 -198 -92q-91 0 -149 45.5t-58 134.5zM143 449q0 44 13 83h528q4 -12 5.5 -39t-1.5 -44h-545zM227 819q0 -56 37 -83t98 -27q111 0 162 75v142q-62 16 -121 16q-176 0 -176 -123z" />
<glyph unicode="&#xab;" horiz-adv-x="1001" d="M162 504q81 182 200 377q56 18 119 18q-110 -203 -186 -395q80 -190 182 -381q-13 -10 -41.5 -18.5t-50.5 -10.5q-121 190 -223 410zM518 504q78 176 201 377q56 18 119 18q-114 -209 -187 -395q76 -182 183 -381q-13 -10 -42 -18.5t-51 -10.5q-121 190 -223 410z" />
<glyph unicode="&#xac;" d="M123 500q0 50 12 90h887v-338q-18 -6 -53 -6q-36 0 -54 6v248h-792z" />
<glyph unicode="&#xad;" horiz-adv-x="681" d="M104 500q0 57 15 100h440q6 -21 6 -63q0 -25 -2 -37h-459z" />
<glyph unicode="&#xae;" horiz-adv-x="1099" d="M119 1122q0 188 121.5 309t312.5 121q192 0 310 -119.5t118 -308.5q0 -187 -122 -309.5t-312 -122.5q-191 0 -309.5 120t-118.5 310zM199 1124q0 -156 97.5 -260t254.5 -104q156 0 253 102t97 258q0 158 -97 260.5t-255 102.5q-156 0 -253 -102t-97 -257zM338 907 q4 27 12 43q39 13 64 13v333q-42 0 -66 4q-10 25 -2 52q92 6 197 6q89 0 142.5 -32t53.5 -95q0 -49 -29.5 -82.5t-74.5 -42.5q44 -83 90 -148l59 7q0 -33 -14 -54q-39 -11 -94 -14q-53 78 -113 199q-36 0 -76 4v-137q32 -3 68 -13q5 -25 2 -43h-219zM487 1149q20 -4 72 -4 q47 0 76 21.5t29 60.5q0 80 -132 80q-29 0 -45 -2v-156z" />
<glyph unicode="&#xaf;" horiz-adv-x="829" d="M147 1192q0 49 13 88h512q6 -18 6 -55q0 -21 -2 -33h-529z" />
<glyph unicode="&#xb0;" horiz-adv-x="796" d="M131 1028q0 117 74.5 186.5t193.5 69.5q121 0 194 -67t73 -189q0 -129 -72.5 -201.5t-194.5 -72.5q-130 0 -199 70t-69 204zM229 1028q0 -92 45.5 -145.5t124.5 -53.5q82 0 125 52t43 147q0 80 -46 130t-122 50q-82 0 -126 -48t-44 -132z" />
<glyph unicode="&#xb1;" d="M172 0q0 50 12 90h799q6 -18 6 -55q0 -23 -2 -35h-815zM178 702q0 49 12 89h340v358q44 10 107 10v-368h344q6 -18 6 -56q0 -21 -2 -33h-348v-366q-24 -6 -51 -6q-38 0 -56 6v366h-352z" />
<glyph unicode="&#xb2;" horiz-adv-x="788" d="M123 774v90q28 28 90 79.5t114 97t105 99.5t84 110t31 106q0 131 -162 131q-85 0 -160 -35v-127q-30 -12 -80 -12q-14 74 -14 196q126 58 262 58q122 0 195.5 -47t73.5 -144q0 -52 -24 -108t-57.5 -100t-85.5 -95t-90 -81.5t-91 -72t-70 -55.5v-8q256 4 444 14 q0 -57 -8 -96h-557z" />
<glyph unicode="&#xb3;" horiz-adv-x="788" d="M129 860q0 19 2 29q41 -19 103.5 -32t121.5 -13q193 0 193 143q0 81 -72.5 114.5t-245.5 33.5q-9 36 5 79q140 0 217 35.5t77 118.5q0 63 -42.5 90t-108.5 27q-54 0 -116.5 -14t-104.5 -37q-8 43 12 94q83 39 209 39q118 0 191 -46.5t73 -142.5q0 -75 -46.5 -127 t-127.5 -65v-6q87 -10 141 -58.5t54 -136.5q0 -78 -45 -130t-115 -73.5t-162 -21.5q-127 0 -201 33q-12 30 -12 67z" />
<glyph unicode="&#xb4;" horiz-adv-x="829" d="M246 1161l231 301q24 -1 59 -17t54 -34l-271 -307q-17 6 -39.5 24t-33.5 33z" />
<glyph unicode="&#xb5;" horiz-adv-x="1208" d="M174 -502q35 917 35 1454q50 13 117 13q-7 -318 -7 -541q0 -185 60.5 -271.5t193.5 -86.5q96 0 168.5 48t112.5 124q-8 60 -8 165q0 365 10 549q43 13 111 13q-11 -212 -11 -557q0 -191 26.5 -269t90.5 -78q46 0 88 27q2 -8 2 -22q0 -44 -16 -66q-49 -35 -113 -35 q-129 0 -166 176h-8q-21 -45 -55.5 -82t-100.5 -65.5t-149 -28.5q-214 0 -274 182h-13q39 -328 39 -675q-70 0 -133 26z" />
<glyph unicode="&#xb6;" horiz-adv-x="1136" d="M106 1098q0 167 130.5 254.5t388.5 87.5q219 0 432 -17q7 -38 -2 -77q-65 -3 -152 -3v-1470q-16 -4 -47 -4q-35 0 -51 4v1479q-62 6 -146 6v-1610q205 -3 400 -20q6 -15 6 -43q0 -17 -2 -27h-672q4 38 17 68q78 17 153 20v1026q-46 -4 -72 -4q-61 0 -115.5 10.5t-104 35 t-85.5 61.5t-57 94t-21 129z" />
<glyph unicode="&#xb7;" horiz-adv-x="688" d="M240 498q0 46 29 74t75 28t74 -26t28 -74q0 -53 -27.5 -80t-74.5 -27q-104 0 -104 105z" />
<glyph unicode="&#xb8;" horiz-adv-x="829" d="M262 -408q71 12 113.5 48.5t42.5 87.5q0 43 -32 75t-81 41l57 166q31 8 78 8l-28 -143q54 -13 88.5 -49.5t34.5 -93.5q0 -75 -66 -127.5t-160 -65.5q-34 27 -47 53z" />
<glyph unicode="&#xb9;" horiz-adv-x="788" d="M172 1446q4 48 18 76q112 30 283 45v-711q84 -4 162 -14q6 -15 6 -41q0 -17 -2 -27h-444q0 34 18 66q56 12 152 16v617z" />
<glyph unicode="&#xba;" horiz-adv-x="845" d="M111 969q0 146 86.5 230.5t226.5 84.5q141 0 225 -82.5t84 -232.5q0 -160 -83.5 -250t-225.5 -90q-150 0 -231.5 87.5t-81.5 252.5zM139 449q0 44 13 83h548q5 -12 6.5 -39t-1.5 -44h-566zM215 969q0 -123 55.5 -193.5t153.5 -70.5q97 0 150 70.5t53 193.5 q0 107 -55.5 174t-147.5 67q-98 0 -153.5 -66t-55.5 -175z" />
<glyph unicode="&#xbb;" horiz-adv-x="1001" d="M180 125q112 209 185 379q-62 152 -179 373q42 22 97 22q132 -217 213 -395q-87 -188 -226 -412q-20 1 -48 11.5t-42 21.5zM541 125q107 200 184 379q-66 160 -178 373q42 22 96 22q132 -217 213 -395q-90 -194 -225 -412q-20 1 -48 11.5t-42 21.5z" />
<glyph unicode="&#xbc;" horiz-adv-x="1896" d="M158 1247q4 48 18 76q112 30 283 45v-711q84 -4 162 -14q6 -15 6 -41q0 -17 -2 -27h-445q0 12 6.5 33.5t12.5 32.5q57 12 151 16v617zM434 0l979 1411q45 -6 86 -27l-985 -1429q-21 3 -45 17t-35 28zM1096 215v76l360 489h139v-485h109q8 -28 8 -80h-117v-213 q-12 -4 -51 -4q-35 0 -51 4v213h-397zM1200 291q70 4 141 4h152v256q0 79 6 141h-8l-291 -393v-8z" />
<glyph unicode="&#xbd;" horiz-adv-x="1896" d="M137 1247q4 45 19 76q113 30 282 45v-711q84 -4 162 -14q6 -15 6 -41q0 -17 -2 -27h-444q0 12 6 33.5t12 32.5q56 12 152 16v617zM381 0l979 1411q45 -6 86 -27l-985 -1429q-21 3 -45 17t-35 28zM1153 0v90q28 28 90 79.5t114 97t105 99.5t84 110t31 106q0 131 -162 131 q-85 0 -160 -35v-127q-30 -12 -79 -12q-15 79 -15 196q126 58 262 58q122 0 195.5 -47t73.5 -144q0 -52 -24 -108t-57.5 -100t-85.5 -95t-90 -81.5t-91 -72t-70 -55.5v-8q256 4 444 14q0 -57 -8 -96h-557z" />
<glyph unicode="&#xbe;" horiz-adv-x="1896" d="M172 662q0 18 2 28q41 -19 103.5 -32t121.5 -13q193 0 193 143q0 81 -72.5 114.5t-245.5 33.5q-10 36 5 80q141 0 217.5 35t76.5 118q0 63 -42.5 90t-108.5 27q-54 0 -116.5 -14t-104.5 -37q-8 43 12 94q83 39 209 39q119 0 191.5 -46t72.5 -142q0 -76 -46.5 -128 t-127.5 -65v-6q87 -10 141 -58.5t54 -136.5q0 -78 -45 -130t-115 -73.5t-162 -21.5q-127 0 -201 33q-12 30 -12 68zM469 0l979 1411q45 -6 86 -27l-985 -1429q-21 3 -45 17t-35 28zM1116 215v76l361 489h139v-485h108q9 -32 9 -80h-117v-213q-12 -4 -51 -4q-36 0 -52 4v213 h-397zM1221 291q70 4 141 4h151v256q0 69 7 141h-9l-290 -393v-8z" />
<glyph unicode="&#xbf;" horiz-adv-x="905" d="M68 -186q0 54 22 105t57 92t77 80t84.5 75t77.5 70.5t57 72t22 74.5q0 94 -59 162q45 35 100 41q78 -85 78 -197q0 -43 -21 -85.5t-54.5 -79.5t-74.5 -74t-81.5 -75t-74 -75.5t-54.5 -82.5t-21 -91q0 -86 62.5 -143.5t189.5 -57.5q59 0 124.5 13.5t106.5 33.5v240 q34 18 90 18q23 -132 23 -317q-60 -31 -170.5 -52.5t-206.5 -21.5q-168 0 -261 74.5t-93 200.5zM360 891q0 42 27 68t70 26q42 0 68 -24.5t26 -67.5q0 -48 -25 -73t-69 -25q-46 0 -71.5 24.5t-25.5 71.5z" />
<glyph unicode="&#xc0;" horiz-adv-x="1449" d="M25 0q3 39 20 72q47 12 127 18l500 1344h104l496 -1342q66 -3 129 -16q14 -37 14 -76h-454q3 38 18 72q72 16 172 20q-43 77 -84 189l-74 202h-563l-74 -207q-45 -123 -77 -186q103 -4 186 -18q12 -32 12 -72h-452zM354 1710q15 24 46 51t55 37l379 -192q-4 -49 -35 -88z M459 565h504l-183 506q-44 118 -61 232h-12q-21 -107 -70 -238z" />
<glyph unicode="&#xc1;" horiz-adv-x="1449" d="M25 0q3 39 20 72q47 12 127 18l500 1344h104l496 -1342q66 -3 129 -16q14 -37 14 -76h-454q3 38 18 72q72 16 172 20q-43 77 -84 189l-74 202h-563l-74 -207q-45 -123 -77 -186q103 -4 186 -18q12 -32 12 -72h-452zM459 565h504l-183 506q-44 118 -61 232h-12 q-21 -107 -70 -238zM592 1610l405 196q40 -44 60 -104l-451 -186q-14 40 -14 94z" />
<glyph unicode="&#xc2;" horiz-adv-x="1449" d="M25 0q3 39 20 72q47 12 127 18l500 1344h104l496 -1342q66 -3 129 -16q14 -37 14 -76h-454q3 38 18 72q72 16 172 20q-43 77 -84 189l-74 202h-563l-74 -207q-45 -123 -77 -186q103 -4 186 -18q12 -32 12 -72h-452zM389 1606l258 192h144l258 -199q-22 -46 -56 -67 l-280 170l-291 -176q-25 36 -33 80zM459 565h504l-183 506q-44 118 -61 232h-12q-21 -107 -70 -238z" />
<glyph unicode="&#xc3;" horiz-adv-x="1449" d="M25 0q3 39 20 72q47 12 127 18l500 1344h104l496 -1342q66 -3 129 -16q14 -37 14 -76h-454q3 38 18 72q72 16 172 20q-43 77 -84 189l-74 202h-563l-74 -207q-45 -123 -77 -186q103 -4 186 -18q12 -32 12 -72h-452zM352 1591q23 67 80.5 108.5t145.5 41.5q57 0 108.5 -23 t98 -46t92.5 -23q47 0 78 23t44 59q42 0 76 -17q-16 -75 -71 -122.5t-148 -47.5q-52 0 -104 23t-100.5 46t-94.5 23q-52 0 -88.5 -25t-50.5 -65q-16 3 -36.5 17t-29.5 28zM459 565h504l-183 506q-44 118 -61 232h-12q-21 -107 -70 -238z" />
<glyph unicode="&#xc4;" horiz-adv-x="1449" d="M25 0q3 39 20 72q47 12 127 18l500 1344h104l496 -1342q66 -3 129 -16q14 -37 14 -76h-454q3 38 18 72q72 16 172 20q-43 77 -84 189l-74 202h-563l-74 -207q-45 -123 -77 -186q103 -4 186 -18q12 -32 12 -72h-452zM385 1640q0 40 24.5 63t65.5 23t65.5 -22t24.5 -62 q0 -42 -24 -65t-66 -23q-90 0 -90 86zM459 565h504l-183 506q-44 118 -61 232h-12q-21 -107 -70 -238zM860 1640q0 40 24.5 63t65.5 23t65.5 -22t24.5 -62q0 -42 -24 -65t-66 -23q-90 0 -90 86z" />
<glyph unicode="&#xc5;" horiz-adv-x="1449" d="M25 0q3 39 20 72q47 12 127 18l498 1340q-86 12 -133.5 62t-47.5 128q0 90 63.5 141t174.5 51q109 0 171.5 -49.5t62.5 -140.5q0 -83 -48.5 -132t-136.5 -60l496 -1338q66 -3 129 -16q14 -37 14 -76h-454q3 38 18 72q72 16 172 20q-43 77 -84 189l-74 202h-563l-74 -207 q-45 -123 -77 -186q103 -4 186 -18q12 -32 12 -72h-452zM459 565h504l-183 506q-44 118 -61 232h-12q-21 -107 -70 -238zM588 1620q0 -57 38 -88t101 -31q62 0 98.5 31.5t36.5 89.5q0 57 -36 88t-99 31q-65 0 -102 -31.5t-37 -89.5z" />
<glyph unicode="&#xc6;" horiz-adv-x="1835" d="M12 0q3 38 21 70q48 14 123 20l694 1229q-117 3 -178 12q-10 35 -6 74h1050v-268q-44 0 -80 8q-15 82 -18 176h-537v-584h439q4 73 16 127q30 10 78 10v-360q-43 -4 -80 6q-11 63 -14 133h-439v-565h551q3 85 19 188q42 11 86 11v-287h-955q3 31 19 72q94 18 157 20v408 h-452l-123 -221q-81 -141 -115 -189q102 -3 183 -18q12 -32 12 -72h-451zM551 582h407v739h-12q-50 -116 -98 -203z" />
<glyph unicode="&#xc7;" horiz-adv-x="1222" d="M100 686q0 180 53.5 326t147 240t216.5 144t265 50q198 0 348 -72q0 -171 -18 -309q-56 0 -94 18v228q-111 47 -246 47q-115 0 -211.5 -40.5t-170.5 -119.5t-115.5 -206t-41.5 -290q0 -309 138 -474t364 -165q190 0 387 74q0 -18 -6.5 -46.5t-13.5 -41.5 q-144 -72 -326 -86l-16 -102q62 -13 102.5 -52t40.5 -98q0 -80 -73 -138.5t-173 -72.5q-29 23 -51 60q79 16 125.5 52t46.5 91q0 49 -37 82.5t-96 44.5l41 129q-177 3 -310 95t-204.5 255.5t-71.5 376.5z" />
<glyph unicode="&#xc8;" horiz-adv-x="1146" d="M78 0q3 40 16 72q66 16 168 20v1223q-83 3 -156 14q-10 34 -6 76h928v-268q-44 0 -80 8q-15 82 -18 176h-543v-567h442q3 68 17 127q30 10 78 10v-361q-40 -3 -80 7q-12 71 -15 133h-442v-582h557q3 85 19 188q42 11 86 11v-287h-971zM260 1710q15 24 45.5 51t54.5 37 l379 -192q-4 -50 -34 -88z" />
<glyph unicode="&#xc9;" horiz-adv-x="1146" d="M78 0q3 40 16 72q66 16 168 20v1223q-83 3 -156 14q-10 34 -6 76h928v-268q-44 0 -80 8q-15 82 -18 176h-543v-567h442q3 68 17 127q30 10 78 10v-361q-40 -3 -80 7q-12 71 -15 133h-442v-582h557q3 85 19 188q42 11 86 11v-287h-971zM494 1610l405 196q39 -42 59 -104 l-450 -186q-14 40 -14 94z" />
<glyph unicode="&#xca;" horiz-adv-x="1146" d="M78 0q3 40 16 72q66 16 168 20v1223q-83 3 -156 14q-10 34 -6 76h928v-268q-44 0 -80 8q-15 82 -18 176h-543v-567h442q3 68 17 127q30 10 78 10v-361q-40 -3 -80 7q-12 71 -15 133h-442v-582h557q3 85 19 188q42 11 86 11v-287h-971zM285 1606l258 192h143l258 -199 q-23 -47 -55 -67l-281 170l-291 -176q-24 34 -32 80z" />
<glyph unicode="&#xcb;" horiz-adv-x="1146" d="M78 0q3 40 16 72q66 16 168 20v1223q-83 3 -156 14q-10 34 -6 76h928v-268q-44 0 -80 8q-15 82 -18 176h-543v-567h442q3 68 17 127q30 10 78 10v-361q-40 -3 -80 7q-12 71 -15 133h-442v-582h557q3 85 19 188q42 11 86 11v-287h-971zM285 1640q0 40 24.5 63t65.5 23 t65.5 -22t24.5 -62q0 -42 -24 -65t-66 -23q-90 0 -90 86zM760 1640q0 40 24.5 63t65.5 23t65.5 -22t24.5 -62q0 -42 -24 -65t-66 -23q-90 0 -90 86z" />
<glyph unicode="&#xcc;" horiz-adv-x="649" d="M-23 1710q15 24 46 51t55 37l379 -192q-4 -49 -35 -88zM78 0q3 40 16 72q66 16 168 20v1223q-83 3 -156 14q-10 34 -6 76h465q8 -35 -4 -74q-74 -13 -174 -16v-1225q110 -3 186 -16q7 -17 7 -47q0 -17 -2 -27h-500z" />
<glyph unicode="&#xcd;" horiz-adv-x="649" d="M78 0q3 40 16 72q66 16 168 20v1223q-83 3 -156 14q-10 34 -6 76h465q8 -35 -4 -74q-74 -13 -174 -16v-1225q110 -3 186 -16q7 -17 7 -47q0 -17 -2 -27h-500zM215 1610l406 196q39 -42 59 -104l-451 -186q-14 40 -14 94z" />
<glyph unicode="&#xce;" horiz-adv-x="649" d="M-4 1606l258 192h143l258 -199q-23 -47 -55 -67l-281 170l-290 -176q-25 36 -33 80zM78 0q3 40 16 72q66 16 168 20v1223q-83 3 -156 14q-10 34 -6 76h465q8 -35 -4 -74q-74 -13 -174 -16v-1225q110 -3 186 -16q7 -17 7 -47q0 -17 -2 -27h-500z" />
<glyph unicode="&#xcf;" horiz-adv-x="649" d="M29 1640q0 40 24.5 63t65.5 23t65.5 -22t24.5 -62q0 -42 -24 -65t-66 -23q-90 0 -90 86zM78 0q3 40 16 72q66 16 168 20v1223q-83 3 -156 14q-10 34 -6 76h465q8 -35 -4 -74q-74 -13 -174 -16v-1225q110 -3 186 -16q7 -17 7 -47q0 -17 -2 -27h-500zM442 1640 q0 40 24.5 63t65.5 23t66 -22t25 -62q0 -42 -24.5 -65t-66.5 -23q-90 0 -90 86z" />
<glyph unicode="&#xd0;" horiz-adv-x="1390" d="M98 4q3 35 17 72q66 16 172 20v570h-178q0 54 14 86h164v557q-91 0 -158 6q-10 31 -6 80q267 24 483 24q154 0 282.5 -45t224 -132.5t149 -226t53.5 -315.5q0 -142 -34 -259.5t-93.5 -199t-141.5 -138t-177 -83t-201 -26.5q-335 0 -570 10zM412 86q72 -4 215 -4 q262 0 409.5 152.5t147.5 451.5q0 162 -44 286.5t-124.5 202.5t-189 118t-242.5 40q-102 0 -172 -6v-575h413q10 -44 2 -86h-415v-580z" />
<glyph unicode="&#xd1;" horiz-adv-x="1458" d="M76 0q3 40 16 72q66 16 164 20v1223q-83 3 -156 14q-10 34 -6 76h348l545 -971q109 -200 156 -325h12v1206q-84 3 -162 14q-10 34 -6 76h422q2 -8 2 -27q0 -29 -6 -47q-65 -13 -150 -16v-1325h-163l-631 1130q-45 78 -84 183h-15v-1213q116 -3 191 -16q12 -31 4 -74h-481 zM401 1591q23 67 80.5 108.5t145.5 41.5q57 0 108.5 -23t98 -46t92.5 -23q47 0 78.5 23t44.5 59q41 0 75 -17q-16 -75 -71 -122.5t-148 -47.5q-52 0 -104 23t-100.5 46t-94.5 23q-52 0 -88.5 -25t-50.5 -65q-16 3 -36.5 17t-29.5 28z" />
<glyph unicode="&#xd2;" horiz-adv-x="1431" d="M102 721q0 333 171.5 529t445.5 196q278 0 444 -190t166 -535q0 -359 -165 -560.5t-445 -201.5q-297 0 -457 195t-160 567zM236 721q0 -312 126.5 -490t356.5 -178q231 0 355 178t124 490q0 285 -131 459t-348 174q-233 0 -358 -170t-125 -463zM393 1710q15 24 46 51 t55 37l378 -192q-4 -50 -34 -88z" />
<glyph unicode="&#xd3;" horiz-adv-x="1431" d="M102 721q0 333 171.5 529t445.5 196q278 0 444 -190t166 -535q0 -359 -165 -560.5t-445 -201.5q-297 0 -457 195t-160 567zM236 721q0 -312 126.5 -490t356.5 -178q231 0 355 178t124 490q0 285 -131 459t-348 174q-233 0 -358 -170t-125 -463zM586 1610l405 196 q40 -44 60 -104l-451 -186q-14 40 -14 94z" />
<glyph unicode="&#xd4;" horiz-adv-x="1431" d="M102 721q0 333 171.5 529t445.5 196q278 0 444 -190t166 -535q0 -359 -165 -560.5t-445 -201.5q-297 0 -457 195t-160 567zM236 721q0 -312 126.5 -490t356.5 -178q231 0 355 178t124 490q0 285 -131 459t-348 174q-233 0 -358 -170t-125 -463zM393 1606l258 192h144 l258 -199q-22 -46 -56 -67l-280 170l-291 -176q-25 36 -33 80z" />
<glyph unicode="&#xd5;" horiz-adv-x="1431" d="M102 721q0 333 171.5 529t445.5 196q278 0 444 -190t166 -535q0 -359 -165 -560.5t-445 -201.5q-297 0 -457 195t-160 567zM236 721q0 -312 126.5 -490t356.5 -178q231 0 355 178t124 490q0 285 -131 459t-348 174q-233 0 -358 -170t-125 -463zM356 1591 q23 67 80.5 108.5t145.5 41.5q57 0 108.5 -23t98 -46t92.5 -23q47 0 78.5 23t44.5 59q41 0 75 -17q-16 -75 -71 -122.5t-148 -47.5q-52 0 -104 23t-100.5 46t-94.5 23q-52 0 -88.5 -25t-50.5 -65q-16 3 -36.5 17t-29.5 28z" />
<glyph unicode="&#xd6;" horiz-adv-x="1431" d="M102 721q0 333 171.5 529t445.5 196q278 0 444 -190t166 -535q0 -359 -165 -560.5t-445 -201.5q-297 0 -457 195t-160 567zM236 721q0 -312 126.5 -490t356.5 -178q231 0 355 178t124 490q0 285 -131 459t-348 174q-233 0 -358 -170t-125 -463zM340 1640q0 40 24.5 63 t65.5 23t65.5 -22t24.5 -62q0 -42 -24 -65t-66 -23q-90 0 -90 86zM918 1640q0 40 24.5 63t65.5 23t65.5 -22t24.5 -62q0 -42 -24 -65t-66 -23q-90 0 -90 86z" />
<glyph unicode="&#xd7;" d="M156 905q36 32 82 49l346 -346l342 346q46 -15 82 -51l-361 -360l363 -361q-9 -15 -30 -35.5t-36 -29.5l-362 362l-359 -362q-19 11 -38.5 30.5t-26.5 36.5l360 359z" />
<glyph unicode="&#xd8;" horiz-adv-x="1480" d="M70 -25l182 222q-129 192 -129 524q0 333 172 529t448 196q258 0 420 -162l180 213q20 -7 43 -25.5t35 -35.5l-194 -230q131 -186 131 -485q0 -359 -166.5 -560.5t-448.5 -201.5q-271 0 -428 160l-194 -234q-36 36 -51 90zM256 721q0 -257 86 -424l743 893 q-132 164 -342 164q-235 0 -361 -170t-126 -463zM395 215q128 -162 348 -162q233 0 358.5 178t125.5 490q0 226 -86 385z" />
<glyph unicode="&#xd9;" horiz-adv-x="1404" d="M45 1405h471q8 -35 -4 -74q-74 -13 -176 -16v-807q0 -224 95.5 -340.5t283.5 -116.5q202 0 301.5 124.5t99.5 336.5v803q-84 3 -158 14q-12 38 -4 76h420q2 -8 2 -27q0 -29 -6 -47q-65 -13 -149 -16v-793q0 -128 -31 -230t-94 -177t-164.5 -115.5t-235.5 -40.5 q-485 0 -485 535v821q-83 3 -156 14q-10 33 -10 76zM399 1710q15 24 46 51t55 37l379 -192q-4 -49 -35 -88z" />
<glyph unicode="&#xda;" horiz-adv-x="1404" d="M45 1405h471q8 -35 -4 -74q-74 -13 -176 -16v-807q0 -224 95.5 -340.5t283.5 -116.5q202 0 301.5 124.5t99.5 336.5v803q-84 3 -158 14q-12 38 -4 76h420q2 -8 2 -27q0 -29 -6 -47q-65 -13 -149 -16v-793q0 -128 -31 -230t-94 -177t-164.5 -115.5t-235.5 -40.5 q-485 0 -485 535v821q-83 3 -156 14q-10 33 -10 76zM602 1610l406 196q39 -42 59 -104l-451 -186q-14 40 -14 94z" />
<glyph unicode="&#xdb;" horiz-adv-x="1404" d="M45 1405h471q8 -35 -4 -74q-74 -13 -176 -16v-807q0 -224 95.5 -340.5t283.5 -116.5q202 0 301.5 124.5t99.5 336.5v803q-84 3 -158 14q-12 38 -4 76h420q2 -8 2 -27q0 -29 -6 -47q-65 -13 -149 -16v-793q0 -128 -31 -230t-94 -177t-164.5 -115.5t-235.5 -40.5 q-485 0 -485 535v821q-83 3 -156 14q-10 33 -10 76zM410 1606l258 192h143l258 -199q-23 -47 -55 -67l-281 170l-291 -176q-24 34 -32 80z" />
<glyph unicode="&#xdc;" horiz-adv-x="1404" d="M45 1405h471q8 -35 -4 -74q-74 -13 -176 -16v-807q0 -224 95.5 -340.5t283.5 -116.5q202 0 301.5 124.5t99.5 336.5v803q-84 3 -158 14q-12 38 -4 76h420q2 -8 2 -27q0 -29 -6 -47q-65 -13 -149 -16v-793q0 -128 -31 -230t-94 -177t-164.5 -115.5t-235.5 -40.5 q-485 0 -485 535v821q-83 3 -156 14q-10 33 -10 76zM403 1640q0 40 25 63t66 23t65.5 -22t24.5 -62q0 -42 -24 -65t-66 -23q-43 0 -67 22t-24 64zM879 1640q0 40 24.5 63t65.5 23t65.5 -22t24.5 -62q0 -42 -24 -65t-66 -23q-90 0 -90 86z" />
<glyph unicode="&#xdd;" horiz-adv-x="1183" d="M20 1405h437q0 -35 -13 -74q-70 -11 -178 -14q53 -74 96 -162l177 -352q37 -77 55 -146h12q23 76 60 146l182 346q53 101 100 168q-99 4 -155 14q-15 34 -15 74h391q0 -44 -12 -76q-40 -8 -106 -12l-408 -746v-481q124 -3 201 -16q12 -31 4 -74h-529q3 37 17 72 q68 16 182 20v481l-377 742q-61 3 -108 14q-13 33 -13 76zM461 1610l405 196q40 -44 60 -104l-451 -186q-14 40 -14 94z" />
<glyph unicode="&#xde;" horiz-adv-x="1107" d="M78 0q3 40 16 72q66 16 168 20v1223q-83 3 -156 14q-10 34 -6 76h482q8 -35 -4 -74q-81 -13 -191 -16v-205q79 8 193 8q234 0 368.5 -101t134.5 -300q0 -83 -24 -152t-66.5 -117t-100.5 -81.5t-126 -49.5t-143 -16q-118 0 -236 16v-227q118 -3 203 -16q12 -31 4 -74h-516 zM387 403q98 -14 229 -14q160 0 249 76.5t89 232.5q0 169 -105 250.5t-290 81.5q-77 0 -172 -10v-617z" />
<glyph unicode="&#xdf;" horiz-adv-x="1251" d="M92 0q3 29 19 61q71 19 145 27v778q-74 3 -143 17q-8 37 -4 75h149q0 283 120.5 417t330.5 134q61 0 116.5 -11t109.5 -37t86 -76.5t32 -120.5q0 -76 -36 -129.5t-102 -104.5q-61 -47 -88.5 -89.5t-27.5 -104.5q0 -45 13 -80t41.5 -63t53 -44.5t66.5 -40.5q44 -25 71 -43 t61 -48.5t53 -62t32.5 -79t13.5 -103.5q0 -64 -19.5 -116t-53 -87t-79.5 -59t-97 -34.5t-107 -10.5q-153 0 -279 68q-8 24 -8 76q0 80 17 143q45 0 92 -14v-144q34 -22 87 -35.5t101 -13.5q104 0 166.5 57.5t62.5 157.5q0 52 -15 92.5t-47.5 72t-59 50t-74.5 45.5 q-46 26 -77.5 49.5t-64.5 59t-50 83t-17 105.5q0 64 23.5 117t53.5 84t77 67q54 42 78 79t24 87q0 48 -21 83t-56 54t-74.5 28t-84.5 9q-327 0 -327 -473v-952h-283z" />
<glyph unicode="&#xe0;" horiz-adv-x="999" d="M100 236q0 150 107.5 230.5t271.5 80.5q113 0 197 -33v100q0 148 -50 215.5t-163 67.5q-68 0 -149 -26.5t-138 -63.5q-8 19 -8 49q0 46 16 70q47 28 137.5 47.5t167.5 19.5q160 0 232 -83t72 -283v-447q0 -73 24 -112q63 3 148 22q2 -6 2 -18q0 -34 -15 -56 q-28 -17 -92.5 -32t-107.5 -17q-54 51 -64 129h-8q-45 -65 -121.5 -98t-163.5 -33q-126 0 -210.5 68.5t-84.5 202.5zM221 252q0 -95 60.5 -144t154.5 -49q73 0 141 30t101 87v268q-88 25 -176 25q-133 0 -207 -58.5t-74 -158.5zM258 1417q22 12 61.5 21.5t71.5 9.5l227 -299 q-41 -27 -92 -31z" />
<glyph unicode="&#xe1;" horiz-adv-x="999" d="M100 236q0 150 107.5 230.5t271.5 80.5q113 0 197 -33v100q0 148 -50 215.5t-163 67.5q-68 0 -149 -26.5t-138 -63.5q-8 19 -8 49q0 46 16 70q47 28 137.5 47.5t167.5 19.5q160 0 232 -83t72 -283v-447q0 -73 24 -112q63 3 148 22q2 -6 2 -18q0 -34 -15 -56 q-28 -17 -92.5 -32t-107.5 -17q-54 51 -64 129h-8q-45 -65 -121.5 -98t-163.5 -33q-126 0 -210.5 68.5t-84.5 202.5zM221 252q0 -95 60.5 -144t154.5 -49q73 0 141 30t101 87v268q-88 25 -176 25q-133 0 -207 -58.5t-74 -158.5zM348 1161l232 301q24 -1 58.5 -17t53.5 -34 l-270 -307q-17 6 -40 24t-34 33z" />
<glyph unicode="&#xe2;" horiz-adv-x="999" d="M100 236q0 150 107.5 230.5t271.5 80.5q113 0 197 -33v100q0 148 -50 215.5t-163 67.5q-68 0 -149 -26.5t-138 -63.5q-8 19 -8 49q0 46 16 70q47 28 137.5 47.5t167.5 19.5q160 0 232 -83t72 -283v-447q0 -73 24 -112q63 3 148 22q2 -6 2 -18q0 -34 -15 -56 q-28 -17 -92.5 -32t-107.5 -17q-54 51 -64 129h-8q-45 -65 -121.5 -98t-163.5 -33q-126 0 -210.5 68.5t-84.5 202.5zM186 1171l226 259l118 6l234 -271q-9 -16 -31 -33t-43 -24l-221 227l-231 -235q-15 11 -30.5 31.5t-21.5 39.5zM221 252q0 -95 60.5 -144t154.5 -49 q73 0 141 30t101 87v268q-88 25 -176 25q-133 0 -207 -58.5t-74 -158.5z" />
<glyph unicode="&#xe3;" horiz-adv-x="999" d="M100 236q0 150 107.5 230.5t271.5 80.5q113 0 197 -33v100q0 148 -50 215.5t-163 67.5q-68 0 -149 -26.5t-138 -63.5q-8 19 -8 49q0 46 16 70q47 28 137.5 47.5t167.5 19.5q160 0 232 -83t72 -283v-447q0 -73 24 -112q63 3 148 22q2 -6 2 -18q0 -34 -15 -56 q-28 -17 -92.5 -32t-107.5 -17q-54 51 -64 129h-8q-45 -65 -121.5 -98t-163.5 -33q-126 0 -210.5 68.5t-84.5 202.5zM158 1190q19 68 70.5 109.5t125.5 41.5q50 0 94.5 -22.5t83.5 -45t76 -22.5q40 0 68 22t39 60q45 -5 67 -18q-13 -72 -62.5 -119t-127.5 -47 q-46 0 -89.5 23t-84.5 46t-80 23q-42 0 -74.5 -25.5t-44.5 -64.5q-39 6 -61 39zM221 252q0 -95 60.5 -144t154.5 -49q73 0 141 30t101 87v268q-88 25 -176 25q-133 0 -207 -58.5t-74 -158.5z" />
<glyph unicode="&#xe4;" horiz-adv-x="999" d="M100 236q0 150 107.5 230.5t271.5 80.5q113 0 197 -33v100q0 148 -50 215.5t-163 67.5q-68 0 -149 -26.5t-138 -63.5q-8 19 -8 49q0 46 16 70q47 28 137.5 47.5t167.5 19.5q160 0 232 -83t72 -283v-447q0 -73 24 -112q63 3 148 22q2 -6 2 -18q0 -34 -15 -56 q-28 -17 -92.5 -32t-107.5 -17q-54 51 -64 129h-8q-45 -65 -121.5 -98t-163.5 -33q-126 0 -210.5 68.5t-84.5 202.5zM184 1239q0 37 21.5 58.5t58.5 21.5q36 0 58 -20.5t22 -57.5q0 -39 -21.5 -60.5t-58.5 -21.5q-80 0 -80 80zM221 252q0 -95 60.5 -144t154.5 -49 q73 0 141 30t101 87v268q-88 25 -176 25q-133 0 -207 -58.5t-74 -158.5zM596 1239q0 37 21.5 58.5t58.5 21.5q36 0 58 -20.5t22 -57.5q0 -39 -21.5 -60.5t-58.5 -21.5q-80 0 -80 80z" />
<glyph unicode="&#xe5;" horiz-adv-x="999" d="M100 236q0 150 107.5 230.5t271.5 80.5q113 0 197 -33v100q0 148 -50 215.5t-163 67.5q-68 0 -149 -26.5t-138 -63.5q-8 19 -8 49q0 46 16 70q47 28 137.5 47.5t167.5 19.5q160 0 232 -83t72 -283v-447q0 -73 24 -112q63 3 148 22q2 -6 2 -18q0 -34 -15 -56 q-28 -17 -92.5 -32t-107.5 -17q-54 51 -64 129h-8q-45 -65 -121.5 -98t-163.5 -33q-126 0 -210.5 68.5t-84.5 202.5zM221 252q0 -95 60.5 -144t154.5 -49q73 0 141 30t101 87v268q-88 25 -176 25q-133 0 -207 -58.5t-74 -158.5zM268 1290q0 84 56 134.5t149 50.5 q91 0 145 -49t54 -136q0 -89 -54.5 -138.5t-144.5 -49.5q-99 0 -152 48t-53 140zM352 1290q0 -60 32 -91.5t89 -31.5q52 0 83.5 32t31.5 91q0 58 -31 88.5t-84 30.5q-55 0 -88 -31.5t-33 -87.5z" />
<glyph unicode="&#xe6;" horiz-adv-x="1552" d="M100 240q0 102 52 175t136 107.5t189 34.5q115 0 199 -33v94q0 146 -50 212.5t-163 66.5q-64 0 -147.5 -27t-139.5 -63q-6 18 -6 45q0 42 14 74q46 27 138.5 47t166.5 20q130 0 195.5 -52.5t77.5 -156.5h8q33 91 129.5 150t220.5 59q169 0 251.5 -112.5t82.5 -309.5 q0 -54 -8 -104h-653q3 -193 102.5 -299.5t263.5 -106.5q137 0 281 64q3 -43 -19 -80q-50 -32 -135 -56t-172 -24q-122 0 -210.5 50t-139.5 139h-8q-50 -92 -140 -140.5t-202 -48.5q-139 0 -226.5 70.5t-87.5 204.5zM221 256q0 -97 63.5 -146t168.5 -49q176 0 272 154 q-48 113 -51 240q-84 24 -172 24q-134 0 -207.5 -60t-73.5 -163zM795 551h536q6 67 -1.5 127.5t-31 116t-74.5 88t-124 32.5q-131 0 -212.5 -101t-92.5 -263z" />
<glyph unicode="&#xe7;" horiz-adv-x="944" d="M109 465q0 241 131 384.5t356 143.5q155 0 250 -67q4 -23 4 -72q0 -86 -21 -154q-51 0 -84 17v160q-71 36 -155 36q-163 0 -257.5 -106t-94.5 -318q0 -213 92.5 -320.5t255.5 -107.5q127 0 254 52q0 -45 -21 -80q-96 -53 -221 -64l-18 -94q53 -13 87.5 -49.5t34.5 -93.5 q0 -75 -65.5 -127.5t-159.5 -65.5q-34 27 -47 53q71 12 113.5 48.5t42.5 87.5q0 43 -32 75t-81 41l41 121q-189 9 -297 144.5t-108 355.5z" />
<glyph unicode="&#xe8;" horiz-adv-x="991" d="M106 463q0 149 53.5 268.5t158.5 190.5t245 71q167 0 248.5 -110.5t81.5 -300.5q0 -43 -8 -105h-654q1 -204 100 -310t265 -106q137 0 283 64q3 -43 -19 -80q-53 -33 -135.5 -56.5t-169.5 -23.5q-209 0 -329 138t-120 360zM233 561h539q2 48 1 97.5t-17 95.5t-41 82 t-70 57.5t-104 21.5q-131 0 -213.5 -98.5t-94.5 -255.5zM326 1417q22 12 61.5 21.5t71.5 9.5l227 -299q-41 -27 -92 -31z" />
<glyph unicode="&#xe9;" horiz-adv-x="991" d="M106 463q0 149 53.5 268.5t158.5 190.5t245 71q167 0 248.5 -110.5t81.5 -300.5q0 -43 -8 -105h-654q1 -204 100 -310t265 -106q137 0 283 64q3 -43 -19 -80q-53 -33 -135.5 -56.5t-169.5 -23.5q-209 0 -329 138t-120 360zM233 561h539q2 48 1 97.5t-17 95.5t-41 82 t-70 57.5t-104 21.5q-131 0 -213.5 -98.5t-94.5 -255.5zM416 1161l231 301q24 -1 59 -17t54 -34l-271 -307q-17 6 -39.5 24t-33.5 33z" />
<glyph unicode="&#xea;" horiz-adv-x="991" d="M106 463q0 149 53.5 268.5t158.5 190.5t245 71q167 0 248.5 -110.5t81.5 -300.5q0 -43 -8 -105h-654q1 -204 100 -310t265 -106q137 0 283 64q3 -43 -19 -80q-53 -33 -135.5 -56.5t-169.5 -23.5q-209 0 -329 138t-120 360zM233 561h539q2 48 1 97.5t-17 95.5t-41 82 t-70 57.5t-104 21.5q-131 0 -213.5 -98.5t-94.5 -255.5zM256 1171l225 259l119 6l234 -271q-9 -16 -31 -33t-43 -24l-221 227l-232 -235q-36 26 -51 71z" />
<glyph unicode="&#xeb;" horiz-adv-x="991" d="M106 463q0 149 53.5 268.5t158.5 190.5t245 71q167 0 248.5 -110.5t81.5 -300.5q0 -43 -8 -105h-654q1 -204 100 -310t265 -106q137 0 283 64q3 -43 -19 -80q-53 -33 -135.5 -56.5t-169.5 -23.5q-209 0 -329 138t-120 360zM233 561h539q2 48 1 97.5t-17 95.5t-41 82 t-70 57.5t-104 21.5q-131 0 -213.5 -98.5t-94.5 -255.5zM252 1239q0 37 21.5 58.5t58.5 21.5q36 0 58 -20.5t22 -57.5q0 -39 -21.5 -60.5t-58.5 -21.5q-80 0 -80 80zM664 1239q0 37 21 58.5t58 21.5q36 0 58 -20.5t22 -57.5q0 -39 -21.5 -60.5t-58.5 -21.5q-79 0 -79 80z " />
<glyph unicode="&#xec;" horiz-adv-x="595" d="M84 1417q22 12 61.5 21.5t71.5 9.5l227 -299q-41 -27 -92 -31zM88 0q3 31 18 61q70 19 146 27v795h-154q3 39 23 69q77 23 168 23q46 0 82 -8v-881q94 -6 170 -23q4 -16 4 -34q0 -19 -2 -29h-455z" />
<glyph unicode="&#xed;" horiz-adv-x="595" d="M88 0q3 31 18 61q70 19 146 27v795h-154q3 39 23 69q77 23 168 23q46 0 82 -8v-881q94 -6 170 -23q4 -16 4 -34q0 -19 -2 -29h-455zM193 1161l231 301q24 -1 59 -17t54 -34l-271 -307q-17 6 -39.5 24t-33.5 33z" />
<glyph unicode="&#xee;" horiz-adv-x="595" d="M23 1171l225 259l119 6l233 -271q-9 -16 -31 -33t-43 -24l-221 227l-231 -235q-36 26 -51 71zM88 0q3 31 18 61q70 19 146 27v795h-154q3 39 23 69q77 23 168 23q46 0 82 -8v-881q94 -6 170 -23q4 -16 4 -34q0 -19 -2 -29h-455z" />
<glyph unicode="&#xef;" horiz-adv-x="595" d="M51 1239q0 37 21.5 58.5t58.5 21.5q36 0 58 -20.5t22 -57.5q0 -39 -21.5 -60.5t-58.5 -21.5q-80 0 -80 80zM88 0q3 31 18 61q70 19 146 27v795h-154q3 39 23 69q77 23 168 23q46 0 82 -8v-881q94 -6 170 -23q4 -16 4 -34q0 -19 -2 -29h-455zM399 1239q0 37 21.5 58.5 t58.5 21.5q36 0 58 -20.5t22 -57.5q0 -39 -21.5 -60.5t-58.5 -21.5q-80 0 -80 80z" />
<glyph unicode="&#xf0;" horiz-adv-x="1114" d="M121 428q0 144 50 258t149 182t231 68q96 0 170.5 -33t118.5 -80h10q-49 251 -199 391l-252 -147q-16 37 -16 86l199 117q-120 86 -338 135q14 50 49 78q240 -49 389 -162l205 119q12 -9 26.5 -31t18.5 -39l-182 -104q233 -226 233 -656q0 -110 -15 -204t-48.5 -176.5 t-84.5 -140.5t-127 -91t-171 -33q-188 0 -302 123.5t-114 339.5zM240 440q0 -180 81 -284.5t220 -104.5q87 0 152 43t101.5 118.5t54 166.5t17.5 199q0 94 -8 151q-122 115 -278 115q-162 0 -251 -107.5t-89 -296.5z" />
<glyph unicode="&#xf1;" horiz-adv-x="1212" d="M88 0q3 31 18 61q70 19 146 27v795h-154q3 39 23 69q71 23 158 23q42 0 75 -8v-131h17q49 79 137 118t194 39q162 0 230.5 -90t68.5 -274q0 -292 -8 -543q97 -6 172 -23q4 -16 4 -34q0 -19 -2 -29h-434q3 29 19 61q64 19 129 27v526q0 285 -222 285q-93 0 -171.5 -43 t-116.5 -100v-670q84 -6 153 -23q9 -31 2 -63h-438zM311 1190q19 68 71 109.5t126 41.5q50 0 94.5 -22.5t83.5 -45t76 -22.5q40 0 67.5 22t38.5 60q47 -5 68 -18q-13 -72 -63 -119t-128 -47q-46 0 -89.5 23t-84 46t-79.5 23q-42 0 -74.5 -25.5t-44.5 -64.5q-40 6 -62 39z " />
<glyph unicode="&#xf2;" horiz-adv-x="1095" d="M106 496q0 229 122.5 363t320.5 134q201 0 320.5 -130t119.5 -367q0 -252 -119 -391.5t-321 -139.5q-214 0 -328.5 136t-114.5 395zM229 496q0 -207 84.5 -326t235.5 -119q154 0 235.5 118.5t81.5 326.5q0 186 -86 300.5t-231 114.5q-153 0 -236.5 -112t-83.5 -303z M336 1417q22 12 61.5 21.5t71.5 9.5l227 -299q-41 -27 -92 -31z" />
<glyph unicode="&#xf3;" horiz-adv-x="1095" d="M106 496q0 229 122.5 363t320.5 134q201 0 320.5 -130t119.5 -367q0 -252 -119 -391.5t-321 -139.5q-214 0 -328.5 136t-114.5 395zM229 496q0 -207 84.5 -326t235.5 -119q154 0 235.5 118.5t81.5 326.5q0 186 -86 300.5t-231 114.5q-153 0 -236.5 -112t-83.5 -303z M412 1161l231 301q24 -1 59 -17t54 -34l-271 -307q-17 6 -39.5 24t-33.5 33z" />
<glyph unicode="&#xf4;" horiz-adv-x="1095" d="M106 496q0 229 122.5 363t320.5 134q201 0 320.5 -130t119.5 -367q0 -252 -119 -391.5t-321 -139.5q-214 0 -328.5 136t-114.5 395zM229 496q0 -207 84.5 -326t235.5 -119q154 0 235.5 118.5t81.5 326.5q0 186 -86 300.5t-231 114.5q-153 0 -236.5 -112t-83.5 -303z M262 1171l225 259l119 6l234 -271q-9 -16 -31 -33t-43 -24l-221 227l-232 -235q-36 26 -51 71z" />
<glyph unicode="&#xf5;" horiz-adv-x="1095" d="M106 496q0 229 122.5 363t320.5 134q201 0 320.5 -130t119.5 -367q0 -252 -119 -391.5t-321 -139.5q-214 0 -328.5 136t-114.5 395zM229 496q0 -207 84.5 -326t235.5 -119q154 0 235.5 118.5t81.5 326.5q0 186 -86 300.5t-231 114.5q-153 0 -236.5 -112t-83.5 -303z M238 1190q19 68 70.5 109.5t125.5 41.5q50 0 94.5 -22.5t83.5 -45t76 -22.5q40 0 68 22t39 60q45 -5 67 -18q-13 -72 -62.5 -119t-127.5 -47q-46 0 -89.5 23t-84.5 46t-80 23q-42 0 -74.5 -25.5t-44.5 -64.5q-39 6 -61 39z" />
<glyph unicode="&#xf6;" horiz-adv-x="1095" d="M106 496q0 229 122.5 363t320.5 134q201 0 320.5 -130t119.5 -367q0 -252 -119 -391.5t-321 -139.5q-214 0 -328.5 136t-114.5 395zM221 1239q0 37 21.5 58.5t58.5 21.5q36 0 58 -20.5t22 -57.5q0 -39 -21.5 -60.5t-58.5 -21.5q-80 0 -80 80zM229 496q0 -207 84.5 -326 t235.5 -119q154 0 235.5 118.5t81.5 326.5q0 186 -86 300.5t-231 114.5q-153 0 -236.5 -112t-83.5 -303zM719 1239q0 37 21.5 58.5t58.5 21.5q36 0 58 -20.5t22 -57.5q0 -39 -21.5 -60.5t-58.5 -21.5q-80 0 -80 80z" />
<glyph unicode="&#xf7;" d="M113 494q0 52 12 92h919q7 -21 7 -58q0 -22 -2 -34h-936zM494 129q0 40 24 64t64 24q38 0 61 -23t23 -63q0 -42 -22.5 -65t-61.5 -23q-88 0 -88 86zM494 950q0 40 24 64t64 24q38 0 61 -23t23 -63q0 -42 -22.5 -65t-61.5 -23q-88 0 -88 86z" />
<glyph unicode="&#xf8;" horiz-adv-x="1120" d="M96 -25l117 148q-98 137 -98 373q0 229 123.5 363t322.5 134q164 0 273 -86l108 137q19 -6 39 -21t31 -30l-115 -145q109 -131 109 -352q0 -251 -120.5 -391t-324.5 -140q-180 0 -289 92l-122 -157q-38 34 -54 75zM238 496q0 -170 55 -277l477 604q-85 88 -209 88 q-154 0 -238.5 -112t-84.5 -303zM340 147q84 -96 221 -96q156 0 239 118.5t83 326.5q0 149 -62 260z" />
<glyph unicode="&#xf9;" horiz-adv-x="1185" d="M57 883q3 39 23 69q77 23 168 23q46 0 82 -8v-621q0 -145 49 -215t170 -70q90 0 167 38t118 87v697h-152q3 39 23 69q77 23 165 23q46 0 82 -8v-740q0 -77 15 -145h161q2 -6 2 -25q0 -27 -10 -47q-103 -26 -241 -30q-28 64 -33 133h-8q-14 -22 -37.5 -44.5t-62.5 -47.5 t-101 -40.5t-135 -15.5q-66 0 -114.5 14.5t-91 52t-65 112.5t-22.5 186q0 260 6 553h-158zM367 1417q22 12 61.5 21.5t71.5 9.5l227 -299q-41 -27 -92 -31z" />
<glyph unicode="&#xfa;" horiz-adv-x="1185" d="M57 883q3 39 23 69q77 23 168 23q46 0 82 -8v-621q0 -145 49 -215t170 -70q90 0 167 38t118 87v697h-152q3 39 23 69q77 23 165 23q46 0 82 -8v-740q0 -77 15 -145h161q2 -6 2 -25q0 -27 -10 -47q-103 -26 -241 -30q-28 64 -33 133h-8q-14 -22 -37.5 -44.5t-62.5 -47.5 t-101 -40.5t-135 -15.5q-66 0 -114.5 14.5t-91 52t-65 112.5t-22.5 186q0 260 6 553h-158zM444 1161l232 301q24 -1 58.5 -17t53.5 -34l-270 -307q-17 6 -40 24t-34 33z" />
<glyph unicode="&#xfb;" horiz-adv-x="1185" d="M57 883q3 39 23 69q77 23 168 23q46 0 82 -8v-621q0 -145 49 -215t170 -70q90 0 167 38t118 87v697h-152q3 39 23 69q77 23 165 23q46 0 82 -8v-740q0 -77 15 -145h161q2 -6 2 -25q0 -27 -10 -47q-103 -26 -241 -30q-28 64 -33 133h-8q-14 -22 -37.5 -44.5t-62.5 -47.5 t-101 -40.5t-135 -15.5q-66 0 -114.5 14.5t-91 52t-65 112.5t-22.5 186q0 260 6 553h-158zM293 1171l225 259l119 6l233 -271q-9 -16 -30.5 -33t-42.5 -24l-222 227l-231 -235q-36 26 -51 71z" />
<glyph unicode="&#xfc;" horiz-adv-x="1185" d="M57 883q3 39 23 69q77 23 168 23q46 0 82 -8v-621q0 -145 49 -215t170 -70q90 0 167 38t118 87v697h-152q3 39 23 69q77 23 165 23q46 0 82 -8v-740q0 -77 15 -145h161q2 -6 2 -25q0 -27 -10 -47q-103 -26 -241 -30q-28 64 -33 133h-8q-14 -22 -37.5 -44.5t-62.5 -47.5 t-101 -40.5t-135 -15.5q-66 0 -114.5 14.5t-91 52t-65 112.5t-22.5 186q0 260 6 553h-158zM289 1239q0 37 21.5 58.5t58.5 21.5q36 0 58 -20.5t22 -57.5q0 -39 -21.5 -60.5t-58.5 -21.5q-80 0 -80 80zM700 1239q0 37 21.5 58.5t58.5 21.5q36 0 58 -20.5t22 -57.5 q0 -39 -21.5 -60.5t-58.5 -21.5q-80 0 -80 80z" />
<glyph unicode="&#xfd;" horiz-adv-x="1007" d="M6 958h410q0 -34 -10 -67q-87 -16 -168 -19q21 -40 77 -190l156 -430q29 -78 47 -186h14q15 71 54 192l141 424q37 112 74 188q-92 7 -146 21q-12 32 -12 67h356q0 -34 -14 -71q-46 -14 -94 -17l-119 -350q-8 -22 -49 -141t-60 -171t-51.5 -136.5t-58.5 -141.5 q-76 -164 -172 -259t-242 -154q-38 38 -47 102q133 41 229 132.5t142 209.5l-336 903q-61 10 -107 27q-11 27 -14 67zM397 1161l232 301q24 -1 58.5 -17t53.5 -34l-270 -307q-17 6 -40 24t-34 33z" />
<glyph unicode="&#xfe;" horiz-adv-x="1105" d="M20 -467q3 29 19 61q71 19 145 27v1778h-149q3 41 22 69q77 23 166 23q44 0 80 -8v-426q0 -110 -8 -203h14q92 139 301 139q74 0 140.5 -26t123 -79.5t90 -148.5t33.5 -221q0 -260 -133 -406.5t-360 -146.5q-131 0 -201 45v-391q117 -7 195 -22q9 -32 2 -64h-480zM301 86 q93 -35 191 -35q195 0 288.5 118.5t93.5 322.5q0 195 -80 302t-221 107q-172 0 -272 -135v-680z" />
<glyph unicode="&#xff;" horiz-adv-x="1007" d="M6 958h410q0 -34 -10 -67q-87 -16 -168 -19q21 -40 77 -190l156 -430q29 -78 47 -186h14q15 71 54 192l141 424q37 112 74 188q-92 7 -146 21q-12 32 -12 67h356q0 -34 -14 -71q-46 -14 -94 -17l-119 -350q-8 -22 -49 -141t-60 -171t-51.5 -136.5t-58.5 -141.5 q-76 -164 -172 -259t-242 -154q-38 38 -47 102q133 41 229 132.5t142 209.5l-336 903q-61 10 -107 27q-11 27 -14 67zM246 1239q0 37 21.5 58.5t58.5 21.5q36 0 58 -20.5t22 -57.5q0 -39 -21.5 -60.5t-58.5 -21.5q-80 0 -80 80zM657 1239q0 37 21.5 58.5t58.5 21.5 q36 0 58 -20.5t22 -57.5q0 -39 -21.5 -60.5t-58.5 -21.5q-80 0 -80 80z" />
<glyph unicode="&#x152;" horiz-adv-x="1845" d="M102 692q0 359 172 553.5t467 194.5q135 0 230 -35h755v-268q-43 0 -79 8q-16 89 -19 176h-534v-567h436q4 73 16 127q30 10 78 10v-361q-40 -3 -80 7q-11 63 -14 133h-436v-582h548q3 85 19 188q42 11 86 11v-287h-778q-112 -35 -242 -35q-296 0 -460.5 189t-164.5 538z M236 700q0 -307 131 -475t381 -168q135 0 221 37v1204q-105 54 -238 54q-243 0 -369 -173t-126 -479z" />
<glyph unicode="&#x153;" horiz-adv-x="1744" d="M106 477q0 244 119.5 380t323.5 136q145 0 244.5 -68.5t134.5 -179.5h8q39 107 139 177.5t242 70.5q167 0 248.5 -110.5t81.5 -300.5q0 -49 -9 -105h-653q3 -199 101.5 -307.5t263.5 -108.5q138 0 282 64q4 -44 -18 -80q-50 -32 -135 -56t-172 -24q-145 0 -245.5 73 t-131.5 181h-8q-32 -114 -130.5 -184t-246.5 -70q-204 0 -321.5 135t-117.5 377zM229 487q0 -201 85.5 -318.5t236.5 -117.5q152 0 233.5 119t81.5 326q0 189 -86.5 302t-236.5 113t-232 -114.5t-82 -309.5zM987 561h539q6 64 -2 122.5t-31.5 112.5t-74.5 86.5t-124 32.5 q-131 0 -213 -98t-94 -256z" />
<glyph unicode="&#x178;" horiz-adv-x="1183" d="M20 1405h437q0 -35 -13 -74q-70 -11 -178 -14q53 -74 96 -162l177 -352q37 -77 55 -146h12q23 76 60 146l182 346q53 101 100 168q-99 4 -155 14q-15 34 -15 74h391q0 -44 -12 -76q-40 -8 -106 -12l-408 -746v-481q124 -3 201 -16q12 -31 4 -74h-529q3 37 17 72 q68 16 182 20v481l-377 742q-61 3 -108 14q-13 33 -13 76zM266 1640q0 40 24.5 63t65.5 23t65.5 -22t24.5 -62q0 -42 -24 -65t-66 -23q-90 0 -90 86zM741 1640q0 40 24.5 63t65.5 23t66 -22t25 -62q0 -42 -24.5 -65t-66.5 -23q-90 0 -90 86z" />
<glyph unicode="&#x2c6;" horiz-adv-x="829" d="M141 1171l226 259l118 6l234 -271q-9 -16 -31 -33t-43 -24l-221 227l-231 -235q-15 11 -30.5 31.5t-21.5 39.5z" />
<glyph unicode="&#x2dc;" horiz-adv-x="829" d="M102 1190q19 68 71 109.5t126 41.5q50 0 94.5 -22.5t83.5 -45t76 -22.5q40 0 67.5 22t38.5 60q47 -5 68 -18q-13 -72 -62.5 -119t-127.5 -47q-46 0 -89.5 23t-84.5 46t-80 23q-42 0 -74.5 -25.5t-44.5 -64.5q-40 6 -62 39z" />
<glyph unicode="&#x2000;" horiz-adv-x="906" />
<glyph unicode="&#x2001;" horiz-adv-x="1812" />
<glyph unicode="&#x2002;" horiz-adv-x="906" />
<glyph unicode="&#x2003;" horiz-adv-x="1812" />
<glyph unicode="&#x2004;" horiz-adv-x="604" />
<glyph unicode="&#x2005;" horiz-adv-x="453" />
<glyph unicode="&#x2006;" horiz-adv-x="302" />
<glyph unicode="&#x2007;" horiz-adv-x="302" />
<glyph unicode="&#x2008;" horiz-adv-x="226" />
<glyph unicode="&#x2009;" horiz-adv-x="362" />
<glyph unicode="&#x200a;" horiz-adv-x="100" />
<glyph unicode="&#x2010;" horiz-adv-x="681" d="M104 500q0 57 15 100h440q6 -21 6 -63q0 -25 -2 -37h-459z" />
<glyph unicode="&#x2011;" horiz-adv-x="681" d="M104 500q0 57 15 100h440q6 -21 6 -63q0 -25 -2 -37h-459z" />
<glyph unicode="&#x2012;" horiz-adv-x="681" d="M104 500q0 57 15 100h440q6 -21 6 -63q0 -25 -2 -37h-459z" />
<glyph unicode="&#x2013;" horiz-adv-x="1024" d="M80 492q0 52 12 92h842q6 -18 6 -58q0 -22 -2 -34h-858z" />
<glyph unicode="&#x2014;" horiz-adv-x="2048" d="M80 492q0 52 12 92h1864q6 -18 6 -58q0 -22 -2 -34h-1880z" />
<glyph unicode="&#x2018;" horiz-adv-x="466" d="M121 1061q25 91 66 189.5t79 160.5q36 12 90 12q-29 -66 -60.5 -157.5t-41.5 -143.5l72 -16q-4 -19 -20 -48t-30 -44q-84 9 -155 47z" />
<glyph unicode="&#x2019;" horiz-adv-x="464" d="M121 1051q64 155 84 272l-72 16q10 47 43 84q40 7 64 7q53 0 102 -17q-19 -93 -67.5 -213.5t-88.5 -185.5q-41 13 -65 37z" />
<glyph unicode="&#x201a;" horiz-adv-x="466" d="M119 -248q69 167 88 279l-72 16q10 50 43 86q35 6 64 6q58 0 104 -16q-19 -93 -69.5 -218t-90.5 -190q-44 14 -67 37z" />
<glyph unicode="&#x201c;" horiz-adv-x="757" d="M119 1061q25 91 66 189.5t79 160.5q36 12 86 12q-29 -66 -60.5 -157.5t-41.5 -143.5l71 -16q-5 -19 -20.5 -48t-28.5 -44q-90 13 -151 47zM420 1061q25 91 66 189.5t79 160.5q36 12 86 12q-29 -66 -60.5 -157.5t-41.5 -143.5l72 -16q-4 -19 -20 -48t-30 -44 q-90 13 -151 47z" />
<glyph unicode="&#x201d;" horiz-adv-x="757" d="M121 1051q64 155 84 272l-72 16q10 47 43 84q40 7 64 7q49 0 98 -17q-19 -93 -67.5 -213.5t-88.5 -185.5q-35 11 -61 37zM424 1051q64 155 84 272l-72 16q10 47 43 84q40 7 64 7q49 0 98 -17q-19 -93 -67.5 -213.5t-88.5 -185.5q-35 11 -61 37z" />
<glyph unicode="&#x201e;" horiz-adv-x="757" d="M119 -248q69 167 88 279l-72 16q10 50 43 86q35 6 64 6q56 0 102 -16q-19 -93 -69.5 -218t-90.5 -190q-41 13 -65 37zM422 -248q69 167 88 279l-72 16q10 50 43 86q35 6 64 6q56 0 102 -16q-19 -93 -69.5 -218t-90.5 -190q-41 13 -65 37z" />
<glyph unicode="&#x2022;" horiz-adv-x="1142" d="M369 498q0 89 56.5 142.5t147.5 53.5t146 -52.5t55 -143.5q0 -99 -55 -155t-146 -56q-99 0 -151.5 54.5t-52.5 156.5z" />
<glyph unicode="&#x2026;" horiz-adv-x="1652" d="M180 70q0 43 26.5 68.5t69.5 25.5q42 0 68.5 -24.5t26.5 -67.5q0 -48 -25.5 -73.5t-69.5 -25.5q-46 0 -71 25t-25 72zM731 70q0 43 26.5 68.5t69.5 25.5q42 0 68.5 -24.5t26.5 -67.5q0 -48 -25.5 -73.5t-69.5 -25.5q-46 0 -71 25t-25 72zM1282 70q0 43 26.5 68.5 t69.5 25.5q42 0 68.5 -24.5t26.5 -67.5q0 -48 -25.5 -73.5t-69.5 -25.5q-46 0 -71 25t-25 72z" />
<glyph unicode="&#x202f;" horiz-adv-x="362" />
<glyph unicode="&#x2039;" horiz-adv-x="645" d="M162 504q81 182 200 377q56 18 119 18q-110 -203 -186 -395q80 -190 182 -381q-13 -10 -41.5 -18.5t-50.5 -10.5q-121 190 -223 410z" />
<glyph unicode="&#x203a;" horiz-adv-x="645" d="M182 125q112 209 185 379q-62 152 -179 373q42 22 97 22q132 -217 213 -395q-87 -188 -226 -412q-20 1 -48 11.5t-42 21.5z" />
<glyph unicode="&#x205f;" horiz-adv-x="453" />
<glyph unicode="&#x20ac;" horiz-adv-x="1150" d="M63 334q0 48 15 78h747q10 -40 2 -78h-460q78 -273 391 -273q151 0 301 52q0 -18 -7.5 -43.5t-15.5 -38.5q-61 -32 -148 -52t-175 -20q-187 0 -314 100t-170 275h-166zM63 580q0 47 15 77h145q40 202 184.5 318.5t364.5 116.5q174 0 291 -70q6 -30 6 -80q0 -76 -22 -170 q-53 0 -89 19v178q-83 39 -190 39q-168 0 -279 -88.5t-139 -262.5h475q10 -40 2 -77h-764z" />
<glyph unicode="&#x2122;" horiz-adv-x="1783" d="M135 1212v193h567v-193q-34 0 -65 7q-10 43 -14 124h-156v-436q73 -3 121 -12q10 -30 2 -57h-336q5 39 14 57q37 8 103 12v436h-156q-3 -71 -14 -122q-27 -9 -66 -9zM795 838q3 30 14 55q34 9 84 12v432q-52 3 -90 11q-6 22 -2 57h229l139 -346q31 -84 41 -139h11 q17 77 43 139l141 346h227q2 -8 1.5 -27t-3.5 -30q-48 -8 -92 -11v-432q59 -3 96 -12q4 -12 4 -31q0 -16 -2 -24h-280q3 30 14 55q29 8 78 12v432h-8q-20 -77 -60 -180l-133 -328h-84l-135 328q-35 90 -53 180h-8v-432q52 -3 86 -12q10 -29 2 -55h-260z" />
<glyph unicode="&#x25fc;" horiz-adv-x="962" d="M0 0v963h963v-963h-963z" />
<glyph unicode="&#xfb01;" horiz-adv-x="1214" d="M88 0q3 31 18 61q70 19 146 27v789h-156q4 36 19 71q61 18 137 27v86q0 209 110.5 319.5t325.5 110.5q157 0 291 -64q4 -23 4 -69q0 -71 -16 -141q-61 0 -95 18v137q-82 39 -192 39q-66 0 -119 -17t-97 -55t-68.5 -106.5t-24.5 -163.5v-111h247q9 -38 9 -81h-256v-791 q103 -6 190 -23q9 -31 2 -63h-475zM707 0q3 31 18 61q71 19 145 27v795h-153q3 41 22 69q77 23 168 23q46 0 82 -8v-881q94 -6 170 -23q4 -16 4 -34q0 -19 -2 -29h-454z" />
<glyph unicode="&#xfb02;" horiz-adv-x="1196" d="M88 0q3 31 18 61q70 19 146 27v789h-156q4 36 19 71q61 18 137 27v88q0 204 108 316t318 112q157 0 289 -53v-1352q97 -6 172 -23q4 -16 4 -34q0 -19 -2 -29h-453q3 29 19 61q66 19 141 27v1292q-88 31 -180 31q-61 0 -111 -16t-93.5 -52.5t-68 -104.5t-24.5 -163v-117 h266q8 -33 8 -81h-274v-791q103 -6 190 -23q9 -31 2 -63h-475z" />
<glyph unicode="&#xfb03;" horiz-adv-x="1843" d="M88 0q3 31 18 61q70 19 146 27v789h-156q4 36 19 71q61 18 137 27v123q0 102 26 176.5t72.5 115.5t102.5 59.5t125 18.5q84 0 161 -26q4 -23 4 -68q0 -86 -20 -151q-47 0 -80 20v141q-37 13 -76 13q-196 0 -196 -285v-154h510v103q0 209 110.5 319.5t325.5 110.5 q157 0 291 -64q4 -23 4 -69q0 -67 -17 -141q-59 0 -94 18v137q-82 39 -192 39q-66 0 -119 -17t-97.5 -55t-69 -106.5t-24.5 -163.5v-111h248q8 -33 8 -81h-256v-791q104 -6 191 -23q9 -31 2 -63h-475q3 31 18 61q70 19 146 27v789h-510v-791q105 -6 192 -23q9 -31 2 -63 h-477zM1335 0q3 29 19 61q71 19 145 27v795h-153q3 41 22 69q77 23 168 23q46 0 82 -8v-881q94 -6 170 -23q4 -16 4 -34q0 -19 -2 -29h-455z" />
<glyph unicode="&#xfb04;" horiz-adv-x="1824" d="M88 0q3 31 18 61q70 19 146 27v789h-156q4 36 19 71q61 18 137 27v123q0 102 26 176.5t72.5 115.5t102.5 59.5t125 18.5q84 0 161 -26q4 -23 4 -68q0 -86 -20 -151q-47 0 -80 20v141q-37 13 -76 13q-196 0 -196 -285v-154h510v105q0 204 108 316t318 112q156 0 288 -53 v-1352q97 -6 172 -23q5 -20 5 -34t-3 -29h-452q3 31 18 61q65 19 142 27v1292q-88 31 -181 31q-61 0 -111 -16t-93.5 -52.5t-68 -104.5t-24.5 -163v-117h267q8 -33 8 -81h-275v-791q104 -6 191 -23q9 -31 2 -63h-475q3 31 18 61q70 19 146 27v789h-510v-791q105 -6 192 -23 q9 -31 2 -63h-477z" />
</font>
</defs>
</svg>
